<?xml version="1.0" encoding="utf-8" standalone="no"?>
<!DOCTYPE svg PUBLIC "-//W3C//DTD SVG 1.1//EN"
  "http://www.w3.org/Graphics/SVG/1.1/DTD/svg11.dtd">
<!-- Created with matplotlib (https://matplotlib.org/) -->
<svg height="216pt" version="1.1" viewBox="0 0 288 216" width="288pt" xmlns="http://www.w3.org/2000/svg" xmlns:xlink="http://www.w3.org/1999/xlink">
 <defs>
  <style type="text/css">
*{stroke-linecap:butt;stroke-linejoin:round;}
  </style>
 </defs>
 <g id="figure_1">
  <g id="patch_1">
   <path d="M 0 216 
L 288 216 
L 288 0 
L 0 0 
z
" style="fill:none;"/>
  </g>
  <g id="axes_1">
   <g id="patch_2">
    <path d="M 60.065625 173.853125 
L 277.2 173.853125 
L 277.2 27.940625 
L 60.065625 27.940625 
z
" style="fill:none;"/>
   </g>
   <g id="matplotlib.axis_1">
    <g id="xtick_1">
     <g id="line2d_1"/>
     <g id="text_1">
      <!-- $\mathdefault{10^{0}}$ -->
      <defs>
       <path d="M 32.59375 18.90625 
L 32.59375 44.296875 
C 32.59375 55.09375 33.203125 59.09375 33.40625 60.5 
C 33.40625 61 33.09375 61 32.703125 61 
C 26.203125 58.90625 18.59375 55 10.796875 52.59375 
L 11.40625 49.703125 
C 15.90625 50.203125 20.796875 51.296875 22.796875 51.296875 
C 24.59375 51.296875 24.59375 47.296875 24.59375 43.703125 
L 24.59375 18.90625 
C 24.59375 11.09375 24.5 5.703125 23.796875 0 
L 23.90625 -0.296875 
C 23.90625 -0.296875 26.703125 0 28.5 0 
C 30.5 0 33.296875 -0.296875 33.296875 -0.296875 
L 33.5 0 
C 32.796875 6 32.59375 11 32.59375 18.90625 
z
" id="LinBiolinumO-49"/>
       <path d="M 23.296875 57.09375 
C 25 57.09375 26.59375 56.5 27.703125 55.5 
C 30.796875 52.90625 33.5 45.09375 33.5 31.703125 
C 33.5 22.5 33.203125 17.296875 31.796875 12.203125 
C 29.59375 3.90625 24.703125 2.90625 22.90625 2.90625 
C 13.59375 2.90625 12.5 20 12.5 28.703125 
C 12.5 53.40625 18.703125 57.09375 23.296875 57.09375 
z
M 22.796875 -1 
C 30.5 -1 42.09375 7.5 42.09375 30.90625 
C 42.09375 46.5 36.40625 54.203125 32.796875 57.5 
C 30.09375 60 26.90625 61 23.296875 61 
C 13.296875 61 3.90625 48.59375 3.90625 28.90625 
C 3.90625 12.703125 10.40625 -1 22.796875 -1 
z
" id="LinBiolinumO-48"/>
      </defs>
      <g style="fill:#808080;" transform="translate(63.485369 184.332813)scale(0.1 -0.1)">
       <use transform="translate(0 0.057813)" xlink:href="#LinBiolinumO-49"/>
       <use transform="translate(46.499985 0.057813)" xlink:href="#LinBiolinumO-48"/>
       <use transform="translate(93.756024 30.3)scale(0.7)" xlink:href="#LinBiolinumO-48"/>
      </g>
     </g>
    </g>
    <g id="xtick_2">
     <g id="line2d_2"/>
     <g id="text_2">
      <!-- $\mathdefault{10^{1}}$ -->
      <g style="fill:#808080;" transform="translate(105.658045 184.332813)scale(0.1 -0.1)">
       <use transform="translate(0 0.057813)" xlink:href="#LinBiolinumO-49"/>
       <use transform="translate(46.499985 0.057813)" xlink:href="#LinBiolinumO-48"/>
       <use transform="translate(93.756024 30.3)scale(0.7)" xlink:href="#LinBiolinumO-49"/>
      </g>
     </g>
    </g>
    <g id="xtick_3">
     <g id="line2d_3"/>
     <g id="text_3">
      <!-- $\mathdefault{10^{2}}$ -->
      <defs>
       <path d="M 22.203125 55.296875 
C 27.40625 55.296875 32.703125 50.5 32.703125 43.40625 
C 32.703125 39.296875 31.5 34 28.90625 30.09375 
C 21.796875 19.40625 10.296875 9.296875 5.40625 4.703125 
C 5.296875 4.296875 5.203125 3.90625 5.203125 3.40625 
C 5.203125 1.90625 5.703125 0.296875 6.203125 -0.5 
C 13.59375 -0.296875 17.90625 0 25.203125 0 
C 32.40625 0 35.40625 -0.203125 42.5 -0.5 
C 42.40625 0.5 42.203125 1.703125 42.203125 2.796875 
C 42.203125 4.40625 42.296875 5.90625 42.703125 7.5 
C 37.09375 7 34 6.703125 24.40625 6.703125 
C 20.90625 6.703125 19 6.703125 16.203125 6.5 
C 16.203125 6.59375 16.09375 6.796875 16.09375 7 
C 16.09375 7.90625 17.203125 8.90625 17.90625 9.703125 
C 22.796875 14.40625 27.5 18.90625 34.09375 27.796875 
C 37.796875 32.703125 41.296875 39.09375 41.296875 44.796875 
C 41.296875 54.296875 34.90625 61 23.796875 61 
C 14.703125 61 8.796875 55.90625 6.59375 52.90625 
L 8.703125 46 
L 10 45.90625 
C 11.40625 48.90625 11.90625 50.90625 14.5 53 
C 16.5 54.59375 19.40625 55.296875 22.203125 55.296875 
z
" id="LinBiolinumO-50"/>
      </defs>
      <g style="fill:#808080;" transform="translate(147.830721 184.332813)scale(0.1 -0.1)">
       <use transform="translate(0 0.057813)" xlink:href="#LinBiolinumO-49"/>
       <use transform="translate(46.499985 0.057813)" xlink:href="#LinBiolinumO-48"/>
       <use transform="translate(93.756024 30.3)scale(0.7)" xlink:href="#LinBiolinumO-50"/>
      </g>
     </g>
    </g>
    <g id="xtick_4">
     <g id="line2d_4"/>
     <g id="text_4">
      <!-- $\mathdefault{10^{3}}$ -->
      <defs>
       <path d="M 20.90625 2.90625 
C 13 2.90625 11.90625 5.90625 9.203125 11.703125 
L 7.703125 11.59375 
L 5.5 4.09375 
L 5.796875 3.796875 
C 8.40625 1.59375 12.703125 -1 20.703125 -1 
C 29.203125 -1 42.59375 4.796875 42.59375 18 
C 42.59375 25.90625 36.5 31.5 28.796875 32.203125 
L 28.796875 32.703125 
C 34 33.90625 40.59375 39.703125 40.59375 48 
C 40.59375 55.203125 34.40625 61 24.5 61 
C 16.796875 61 11.203125 57.59375 8.703125 55.40625 
L 8.40625 55.09375 
L 10.5 48.703125 
L 12 48.59375 
C 14.40625 54.203125 17.59375 57.09375 23.59375 57.09375 
C 27.5 57.09375 31.90625 53 31.90625 46.5 
C 31.90625 42.09375 30.40625 38.90625 28.09375 36.703125 
C 26.09375 34.796875 23.203125 33.90625 19.796875 33.90625 
C 18.59375 33.90625 17.5 34 16.09375 34.203125 
L 16.09375 29.796875 
C 17.296875 30 19.40625 30 20.296875 30 
C 23.5 30 27.296875 29.09375 30.09375 26.796875 
C 32.703125 24.59375 34 21.09375 34 17.203125 
C 34 5.09375 24.5 2.90625 20.90625 2.90625 
z
" id="LinBiolinumO-51"/>
      </defs>
      <g style="fill:#808080;" transform="translate(190.003397 184.332813)scale(0.1 -0.1)">
       <use transform="translate(0 0.057813)" xlink:href="#LinBiolinumO-49"/>
       <use transform="translate(46.499985 0.057813)" xlink:href="#LinBiolinumO-48"/>
       <use transform="translate(93.756024 30.3)scale(0.7)" xlink:href="#LinBiolinumO-51"/>
      </g>
     </g>
    </g>
    <g id="xtick_5">
     <g id="line2d_5"/>
     <g id="text_5">
      <!-- $\mathdefault{10^{4}}$ -->
      <defs>
       <path d="M 28.59375 14.796875 
C 28.59375 7.09375 28.40625 5.09375 27.796875 0 
L 27.90625 -0.296875 
C 27.90625 -0.296875 31 0 32.59375 0 
C 34.203125 0 35.90625 -0.296875 36.796875 -0.296875 
C 36.90625 -0.296875 37 -0.09375 37 0 
C 36.59375 5.796875 36.40625 9 36.40625 14.796875 
L 41.40625 14.796875 
C 42.796875 14.796875 44.296875 17.09375 44.296875 18.203125 
C 44.296875 19.09375 43.796875 19.796875 42.796875 19.796875 
L 36.40625 19.796875 
L 36.40625 45.203125 
C 36.40625 48.5 36.5 55.40625 37 60 
C 37 60.203125 36.90625 60.40625 36.796875 60.40625 
C 35.90625 60.40625 34.40625 60 32.90625 60 
C 31.296875 60 29.5 60.40625 29.5 60.40625 
C 29.5 60.40625 29.09375 60.09375 29.09375 60 
C 23 51.59375 8.59375 29.59375 3.40625 20.703125 
C 2.40625 18.90625 2.09375 17.796875 2.09375 16.796875 
C 2.09375 15.296875 4.40625 14.796875 8 14.796875 
z
M 28.59375 51.203125 
L 28.59375 19.796875 
L 8.296875 19.796875 
z
" id="LinBiolinumO-52"/>
      </defs>
      <g style="fill:#808080;" transform="translate(232.176073 184.332813)scale(0.1 -0.1)">
       <use transform="translate(0 0.473438)" xlink:href="#LinBiolinumO-49"/>
       <use transform="translate(46.499985 0.473438)" xlink:href="#LinBiolinumO-48"/>
       <use transform="translate(93.756024 30.715625)scale(0.7)" xlink:href="#LinBiolinumO-52"/>
      </g>
     </g>
    </g>
    <g id="xtick_6">
     <g id="line2d_6"/>
    </g>
    <g id="xtick_7">
     <g id="line2d_7"/>
    </g>
    <g id="xtick_8">
     <g id="line2d_8"/>
    </g>
    <g id="xtick_9">
     <g id="line2d_9"/>
    </g>
    <g id="xtick_10">
     <g id="line2d_10"/>
    </g>
    <g id="xtick_11">
     <g id="line2d_11"/>
    </g>
    <g id="xtick_12">
     <g id="line2d_12"/>
    </g>
    <g id="xtick_13">
     <g id="line2d_13"/>
    </g>
    <g id="xtick_14">
     <g id="line2d_14"/>
    </g>
    <g id="xtick_15">
     <g id="line2d_15"/>
    </g>
    <g id="xtick_16">
     <g id="line2d_16"/>
    </g>
    <g id="xtick_17">
     <g id="line2d_17"/>
    </g>
    <g id="xtick_18">
     <g id="line2d_18"/>
    </g>
    <g id="xtick_19">
     <g id="line2d_19"/>
    </g>
    <g id="xtick_20">
     <g id="line2d_20"/>
    </g>
    <g id="xtick_21">
     <g id="line2d_21"/>
    </g>
    <g id="xtick_22">
     <g id="line2d_22"/>
    </g>
    <g id="xtick_23">
     <g id="line2d_23"/>
    </g>
    <g id="xtick_24">
     <g id="line2d_24"/>
    </g>
    <g id="xtick_25">
     <g id="line2d_25"/>
    </g>
    <g id="xtick_26">
     <g id="line2d_26"/>
    </g>
    <g id="xtick_27">
     <g id="line2d_27"/>
    </g>
    <g id="xtick_28">
     <g id="line2d_28"/>
    </g>
    <g id="xtick_29">
     <g id="line2d_29"/>
    </g>
    <g id="xtick_30">
     <g id="line2d_30"/>
    </g>
    <g id="xtick_31">
     <g id="line2d_31"/>
    </g>
    <g id="xtick_32">
     <g id="line2d_32"/>
    </g>
    <g id="xtick_33">
     <g id="line2d_33"/>
    </g>
    <g id="xtick_34">
     <g id="line2d_34"/>
    </g>
    <g id="xtick_35">
     <g id="line2d_35"/>
    </g>
    <g id="xtick_36">
     <g id="line2d_36"/>
    </g>
    <g id="xtick_37">
     <g id="line2d_37"/>
    </g>
    <g id="xtick_38">
     <g id="line2d_38"/>
    </g>
    <g id="xtick_39">
     <g id="line2d_39"/>
    </g>
    <g id="xtick_40">
     <g id="line2d_40"/>
    </g>
    <g id="xtick_41">
     <g id="line2d_41"/>
    </g>
    <g id="xtick_42">
     <g id="line2d_42"/>
    </g>
    <g id="xtick_43">
     <g id="line2d_43"/>
    </g>
    <g id="xtick_44">
     <g id="line2d_44"/>
    </g>
    <g id="xtick_45">
     <g id="line2d_45"/>
    </g>
    <g id="xtick_46">
     <g id="line2d_46"/>
    </g>
    <g id="xtick_47">
     <g id="line2d_47"/>
    </g>
    <g id="xtick_48">
     <g id="line2d_48"/>
    </g>
    <g id="text_6">
     <!-- Rank -->
     <defs>
      <path d="M 19 28.59375 
C 22.5 28.59375 25.5 28.703125 28.203125 28.90625 
C 31 25.59375 33.203125 21.703125 35.796875 17.59375 
C 39.40625 11.796875 44.203125 3.09375 45.296875 -0.296875 
C 47.203125 0 49.40625 0 51.296875 0 
C 53.296875 0 55.296875 0 57.296875 -0.296875 
L 57.5 0 
C 52.5 5.59375 42.40625 21.40625 36.09375 29.90625 
C 38.796875 30.40625 40.796875 31 42.203125 31.796875 
C 47.59375 34.5 52.203125 39.703125 52.203125 47.90625 
C 52.203125 52.90625 50.5 57 46.90625 60.40625 
C 42.09375 64.90625 34.5 65.203125 28.203125 65.203125 
C 25.703125 65.203125 17.703125 64.5 14.703125 64.5 
C 13.5 64.5 10.796875 64.59375 9.59375 64.796875 
L 9.40625 64.5 
C 10.203125 58.796875 10.40625 52 10.40625 44.5 
L 10.40625 20 
C 10.40625 12.5 10.203125 5.40625 9.40625 0 
L 9.59375 -0.296875 
C 10.796875 -0.09375 13.5 0 14.703125 0 
C 15.90625 0 18.59375 -0.09375 19.796875 -0.296875 
L 20 0 
C 19.203125 5.703125 19 12.5 19 20 
z
M 28.296875 60.90625 
C 34.40625 60.90625 42.59375 58.59375 42.59375 47.796875 
C 42.59375 35.59375 34.5 32.59375 24.796875 32.59375 
L 19 32.59375 
L 19 56.5 
C 19 60.40625 19.296875 60.90625 28.296875 60.90625 
z
" id="LinBiolinumO-82"/>
      <path d="M 31 22.5 
L 30.59375 10.59375 
C 30.59375 9.296875 30 8.59375 29.203125 8 
C 26.40625 5.90625 23 4.09375 20 4.09375 
C 15.5 4.09375 12.59375 7.09375 12.59375 10.203125 
C 12.59375 14.703125 14.703125 18.09375 22.5 20.203125 
z
M 31 4.796875 
C 32.09375 0.796875 35.09375 -1 38.796875 -1 
C 41.296875 -1 44.40625 -0.40625 46.703125 2.09375 
L 46 4.5 
C 44.90625 4.09375 44 4 43.296875 4 
C 42.296875 4 41 4.203125 40.296875 4.796875 
C 39.296875 5.703125 38.703125 8.09375 38.703125 12.59375 
C 38.703125 15.5 39 26.59375 39 27.703125 
C 39 41.203125 30.09375 43.90625 22.5 43.90625 
C 14.90625 43.90625 10.296875 40.203125 7.796875 38.09375 
L 7.5 37.703125 
L 9.203125 31 
L 10.5 30.90625 
C 13.296875 35.40625 16.703125 39.40625 21.5 39.40625 
C 25.09375 39.40625 31.09375 38.90625 31.09375 27.59375 
C 31.09375 26.90625 30.703125 26.5 30.40625 26.40625 
L 21.09375 24.296875 
C 10.90625 22 4.5 16.59375 4.5 9.796875 
C 4.5 2.40625 9.59375 -1 17 -1 
C 22.5 -1 25.296875 0.296875 30.59375 4.796875 
z
" id="LinBiolinumO-97"/>
      <path d="M 46 18 
C 46 21.203125 46.203125 24.90625 46.203125 28.09375 
C 46.203125 38.5 42.796875 43.90625 33.796875 43.90625 
C 30 43.90625 22.90625 42.40625 16.5 34.90625 
L 16.296875 35.203125 
L 16.296875 42.5 
C 16.203125 43.203125 16.09375 43.5 15.703125 43.5 
C 13.40625 43 9.796875 42.90625 7.59375 43.203125 
L 7.40625 42.90625 
C 8.09375 38.5 8.296875 31 8.296875 23.5 
L 8.296875 18 
C 8.296875 10.5 8.203125 5.40625 7.40625 0 
L 7.59375 -0.296875 
C 8.796875 -0.09375 11.09375 0 12.296875 0 
C 13.5 0 15.796875 -0.09375 17 -0.296875 
L 17.203125 0 
C 16.40625 5.703125 16.296875 10.40625 16.296875 18 
L 16.296875 29.703125 
C 21.40625 35.703125 27.203125 37.90625 30.796875 37.90625 
C 35.90625 37.90625 38 35.90625 38 27.796875 
L 38 18 
C 38 10.5 37.796875 5.296875 37.09375 0 
L 37.296875 -0.296875 
C 38.5 -0.09375 40.796875 0 42 0 
C 43.203125 0 45.5 -0.09375 46.703125 -0.296875 
L 46.90625 0 
C 46.09375 5.703125 46 10.40625 46 18 
z
" id="LinBiolinumO-110"/>
      <path d="M 9 20 
C 9 12.5 8.796875 5.296875 8.09375 0 
L 8.296875 -0.296875 
C 9.5 -0.09375 11.796875 0 13 0 
C 14.203125 0 16.5 -0.09375 17.703125 -0.296875 
L 17.90625 0 
C 17.09375 5.703125 17 12.40625 17 20 
L 17 21 
C 17.796875 20.90625 20.203125 20.59375 21.09375 19.90625 
C 27.59375 13.09375 30 9.5 36.796875 -0.296875 
C 38.296875 -0.203125 41.703125 0 43.40625 0 
C 45 0 48.5 -0.203125 49.40625 -0.296875 
L 49.59375 0 
C 42.09375 7.796875 36.796875 12.203125 27.296875 23.796875 
C 31.203125 27.796875 41 37.296875 47.5 42.90625 
L 47.296875 43.203125 
C 45.40625 42.90625 39.90625 42.90625 37.203125 42.90625 
C 32.796875 36.59375 25.296875 28.5 21.40625 25.5 
C 20.09375 24.5 18.296875 24.09375 17 24 
L 17 50 
C 17 57.5 17.40625 62.40625 17.90625 68.796875 
C 17.90625 69.5 17.59375 69.796875 17 69.796875 
C 14.40625 68.796875 12.296875 68.09375 8.296875 67.796875 
L 8.09375 67.5 
C 8.796875 63.203125 9 55.796875 9 48.203125 
z
" id="LinBiolinumO-107"/>
     </defs>
     <g style="fill:#808080;" transform="translate(155.895 199.058437)scale(0.12 -0.12)">
      <use xlink:href="#LinBiolinumO-82"/>
      <use x="59.999985" xlink:href="#LinBiolinumO-97"/>
      <use x="108.099976" xlink:href="#LinBiolinumO-110"/>
      <use x="161.999969" xlink:href="#LinBiolinumO-107"/>
     </g>
    </g>
   </g>
   <g id="matplotlib.axis_2">
    <g id="ytick_1">
     <g id="line2d_49"/>
     <g id="text_7">
      <!-- 1 -->
      <g style="fill:#808080;" transform="translate(51.915625 145.534334)scale(0.1 -0.1)">
       <use xlink:href="#LinBiolinumO-49"/>
      </g>
     </g>
    </g>
    <g id="ytick_2">
     <g id="line2d_50"/>
     <g id="text_8">
      <!-- 100 -->
      <g style="fill:#808080;" transform="translate(42.615625 100.685459)scale(0.1 -0.1)">
       <use xlink:href="#LinBiolinumO-49"/>
       <use x="46.499985" xlink:href="#LinBiolinumO-48"/>
       <use x="92.999969" xlink:href="#LinBiolinumO-48"/>
      </g>
     </g>
    </g>
    <g id="ytick_3">
     <g id="line2d_51"/>
     <g id="text_9">
      <!-- 10,000 -->
      <defs>
       <path d="M 4.796875 4.40625 
C 5.59375 1 7 0.40625 10.203125 -0.296875 
C 11.40625 -0.296875 13.09375 -0.5 13.09375 -2.90625 
C 13.09375 -6.203125 10.203125 -9 5.296875 -12.296875 
C 5.296875 -13.296875 5.90625 -13.90625 6.59375 -14.40625 
C 12 -11.296875 17 -8.5 17 -0.296875 
C 17 6.09375 14.203125 8.796875 10.59375 10.203125 
L 10.203125 10.203125 
C 7.09375 8.90625 5.703125 7.40625 4.796875 4.796875 
z
" id="LinBiolinumO-44"/>
      </defs>
      <g style="fill:#808080;" transform="translate(31.115625 55.836584)scale(0.1 -0.1)">
       <use xlink:href="#LinBiolinumO-49"/>
       <use x="46.499985" xlink:href="#LinBiolinumO-48"/>
       <use x="92.999969" xlink:href="#LinBiolinumO-44"/>
       <use x="114.999954" xlink:href="#LinBiolinumO-48"/>
       <use x="161.499939" xlink:href="#LinBiolinumO-48"/>
       <use x="207.999924" xlink:href="#LinBiolinumO-48"/>
      </g>
     </g>
    </g>
    <g id="text_10">
     <!-- Frequency per million words -->
     <defs>
      <path d="M 40.703125 64.5 
L 14.703125 64.5 
C 11.296875 64.5 9.59375 64.796875 9.59375 64.796875 
L 9.40625 64.5 
C 10.203125 58.796875 10.40625 52 10.40625 44.5 
L 10.40625 20 
C 10.40625 12.5 10.203125 5.40625 9.40625 0 
L 9.5 -0.296875 
C 9.5 -0.296875 11.203125 0 14.703125 0 
C 18.09375 0 19.796875 -0.296875 19.796875 -0.296875 
L 20 0 
C 19.203125 5.703125 19 12.5 19 20 
L 19 31.703125 
C 23.796875 31.703125 34.40625 31.40625 41.296875 30.703125 
L 41.59375 31 
C 41.40625 31.90625 41.296875 33.296875 41.296875 34.203125 
C 41.296875 35.09375 41.40625 36.5 41.59375 37.40625 
L 41.296875 37.703125 
C 35.40625 37.203125 30.796875 36.703125 19 36.703125 
L 19 44.5 
C 19 46.203125 19.09375 56.5 19.796875 58.90625 
C 33.203125 58.90625 47 57.703125 47 57.703125 
L 47.203125 58.09375 
C 47.09375 58.90625 47 60.203125 47 61.09375 
C 47 61.90625 47.09375 63.09375 47.203125 64.5 
L 47 64.796875 
C 45.40625 64.59375 43.09375 64.5 40.703125 64.5 
z
" id="LinBiolinumO-70"/>
      <path d="M 16.703125 33.40625 
L 16.703125 42.5 
C 16.703125 43.203125 16.5 43.5 16.09375 43.5 
C 13.796875 43 10.203125 42.90625 8 43.203125 
L 7.796875 42.90625 
C 8.5 38.5 8.703125 31 8.703125 23.5 
L 8.703125 18 
C 8.703125 10.5 8.5 5.296875 7.796875 0 
L 8 -0.296875 
C 9.203125 -0.09375 11.5 0 12.703125 0 
C 13.90625 0 16.203125 -0.09375 17.40625 -0.296875 
L 17.59375 0 
C 16.796875 5.703125 16.703125 10.40625 16.703125 18 
L 16.703125 23.203125 
C 16.703125 27.40625 17.90625 29.796875 20.09375 33.09375 
C 21.5 35.296875 23.796875 36.59375 25.703125 36.59375 
C 27.703125 36.59375 29.59375 36.40625 30.90625 35.203125 
L 31.703125 35.40625 
L 33.703125 42.796875 
L 33.296875 43.203125 
C 31.59375 43.703125 31.5 43.90625 29.703125 43.90625 
C 24.296875 43.90625 21.40625 40.796875 17 33.203125 
z
" id="LinBiolinumO-114"/>
      <path d="M 12.5 27.296875 
C 14.203125 37.703125 20.703125 39.90625 23.90625 39.90625 
C 27.796875 39.90625 32.296875 36.203125 32.296875 28.703125 
C 32.296875 27.796875 31.90625 27.296875 30.90625 27.296875 
z
M 39.203125 10.40625 
C 35.703125 6.59375 31 4.90625 25.5 4.90625 
C 22 4.90625 17.296875 6.203125 14.59375 10.59375 
C 12.796875 13.40625 12.203125 17.40625 12.203125 23.296875 
L 39.40625 23.296875 
C 40.5 23.296875 41.203125 23.90625 41.203125 25 
C 41.203125 33.40625 37.09375 43.90625 23.90625 43.90625 
C 13.59375 43.90625 3.40625 35.59375 3.40625 20.90625 
C 3.40625 15.203125 4.5 9.59375 7.90625 5.59375 
C 11.296875 1.40625 17 -1 23.796875 -1 
C 31 -1 37.40625 2.703125 41.203125 7.90625 
z
" id="LinBiolinumO-101"/>
      <path d="M 35.703125 37.59375 
C 35.703125 37.59375 36 33.40625 36 23.40625 
L 36 6.59375 
C 33.40625 4.59375 28.5 3.40625 26.59375 3.40625 
C 20.796875 3.40625 13.703125 7.59375 13.703125 22.703125 
C 13.703125 33.09375 18.90625 39.90625 26.296875 39.90625 
C 30.59375 39.90625 33.5 39.40625 35.703125 37.59375 
z
M 36.59375 43.203125 
C 34.703125 43.5 29.09375 43.90625 25.703125 43.90625 
C 14.09375 43.90625 4.90625 34.796875 4.90625 21.59375 
C 4.90625 11.09375 10.40625 -1 24.203125 -1 
C 29.90625 -1 34.5 1 36 2.296875 
L 36 -3.203125 
C 36 -10.59375 35.90625 -17.90625 35.09375 -23.203125 
L 35.296875 -23.5 
C 35.296875 -23.5 36.5 -23.203125 40 -23.203125 
C 43.40625 -23.203125 44.703125 -23.5 44.703125 -23.5 
L 44.90625 -23.203125 
C 44 -17.5 44 -10.796875 44 -3.203125 
L 44 23.5 
C 44 31 44.203125 38.5 44.90625 42.90625 
L 44.703125 43.203125 
C 42.40625 42.90625 38.40625 42.90625 36.59375 43.203125 
z
" id="LinBiolinumO-113"/>
      <path d="M 36.5 9.203125 
L 36.90625 8.90625 
L 37.40625 0 
C 37.40625 -0.203125 37.5 -0.296875 37.796875 -0.296875 
C 39.09375 -0.203125 40.296875 0 41.703125 0 
C 43 0 44.90625 -0.09375 46.203125 -0.296875 
L 46.40625 0 
C 45.59375 4.296875 44.703125 11.703125 44.703125 19.203125 
L 44.703125 24.90625 
C 44.703125 32.40625 44.796875 37.59375 45.59375 42.90625 
L 45.40625 43.203125 
C 44.203125 43 41.90625 42.90625 40.703125 42.90625 
C 39.5 42.90625 37.203125 43 36 43.203125 
L 35.796875 42.90625 
C 36.5 37.09375 36.703125 32.5 36.703125 24.90625 
L 36.703125 15.09375 
C 33.59375 9.90625 27.90625 4.59375 23 4.59375 
C 19.5 4.59375 16.296875 5.703125 16.296875 15 
L 16.296875 24.90625 
C 16.296875 32.40625 16.40625 37.59375 17.203125 42.90625 
L 17 43.203125 
C 15.796875 43 13.5 42.90625 12.296875 42.90625 
C 11.09375 42.90625 8.796875 43 7.59375 43.203125 
L 7.40625 42.90625 
C 8.203125 37.203125 8.296875 32.5 8.296875 24.90625 
L 8.296875 12.90625 
C 8.296875 6 11.5 -1 21.40625 -1 
C 27.59375 -1 33.203125 4.09375 36.5 9.203125 
z
" id="LinBiolinumO-117"/>
      <path d="M 25 39.90625 
C 28.796875 39.90625 32.296875 37 35 32.5 
L 36.296875 32.59375 
L 38.59375 40.796875 
L 38.40625 41.09375 
C 35.296875 42.703125 30.09375 43.90625 25.09375 43.90625 
C 14.703125 43.90625 3.796875 35.40625 3.796875 21.796875 
C 3.796875 7.796875 11.703125 -1 23.90625 -1 
C 29.90625 -1 34.59375 1 38.59375 6.09375 
L 36.703125 8.203125 
L 36.296875 8.203125 
C 32.5 4.796875 29.296875 4 25.59375 4 
C 18.296875 4 12.59375 10.59375 12.59375 22.296875 
C 12.59375 33.296875 18.40625 39.90625 25 39.90625 
z
" id="LinBiolinumO-99"/>
      <path d="M 2.796875 43.203125 
C 6.703125 34.296875 18.59375 8.5 22.203125 -1 
C 19 -8.5 14.90625 -16.203125 10.40625 -23.703125 
C 11.40625 -23.40625 12.90625 -23.203125 13.90625 -23.203125 
C 14.90625 -23.203125 17.796875 -23.40625 18.796875 -23.703125 
C 22.59375 -11.203125 44.5 36.5 47.796875 43.203125 
C 46.796875 42.90625 44.5 42.90625 43.5 42.90625 
C 42.5 42.90625 40.59375 42.90625 39.59375 43.203125 
C 36 31.90625 31.296875 19.09375 26.40625 8.703125 
L 26.203125 8.703125 
C 21.296875 20.59375 16.59375 31.703125 12.90625 43.203125 
C 11.59375 42.90625 9.40625 42.90625 8 42.90625 
C 6.703125 42.90625 4.203125 42.90625 2.796875 43.203125 
z
" id="LinBiolinumO-121"/>
      <path id="LinBiolinumO-32"/>
      <path d="M 16.203125 29.40625 
C 18.40625 34.703125 24.296875 39.296875 28.203125 39.296875 
C 35 39.296875 38.5 33.09375 38.5 21.796875 
C 38.5 13.59375 36.203125 3 25.5 3 
C 23.90625 3 19.703125 3.40625 16.203125 7.5 
z
M 16.203125 35.203125 
L 16.203125 42.5 
C 16.203125 43.203125 16 43.5 15.59375 43.5 
C 13.296875 43 9.703125 42.90625 7.5 43.203125 
L 7.296875 42.90625 
C 8 38.5 8.203125 31 8.203125 23.5 
L 8.203125 -3.203125 
C 8.203125 -10.703125 8 -17.90625 7.296875 -23.203125 
L 7.5 -23.5 
C 8.703125 -23.296875 11 -23.203125 12.203125 -23.203125 
C 13.40625 -23.203125 15.703125 -23.296875 16.90625 -23.5 
L 17.09375 -23.203125 
C 16.296875 -17.5 16.203125 -10.796875 16.203125 -3.203125 
L 16.203125 1.203125 
C 18.796875 -0.203125 22.5 -1 26.09375 -1 
C 39.296875 -1 47.296875 9 47.296875 23.09375 
C 47.296875 33.703125 41.09375 43.90625 29.90625 43.90625 
C 26 43.90625 21 41.90625 16.40625 34.90625 
z
" id="LinBiolinumO-112"/>
      <path d="M 16.203125 35.203125 
L 16.203125 42.5 
C 16.203125 43.203125 16 43.5 15.59375 43.5 
C 13.296875 43 9.703125 42.90625 7.5 43.203125 
L 7.296875 42.90625 
C 8 38.5 8.203125 31 8.203125 23.5 
L 8.203125 18 
C 8.203125 10.5 8.09375 5.40625 7.296875 0 
L 7.5 -0.296875 
C 8.703125 -0.09375 11 0 12.203125 0 
C 13.40625 0 15.703125 -0.09375 16.90625 -0.296875 
L 17.09375 0 
C 16.296875 5.703125 16.203125 10.40625 16.203125 18 
L 16.203125 30.09375 
C 20.90625 34.90625 26.5 37.90625 30 37.90625 
C 33.796875 37.90625 36.59375 35.703125 36.59375 29 
L 36.59375 18 
C 36.59375 10.5 36.5 5.40625 35.703125 0 
L 35.90625 -0.296875 
C 37.09375 -0.09375 39.40625 0 40.59375 0 
C 41.796875 0 44.09375 -0.09375 45.296875 -0.296875 
L 45.5 0 
C 44.703125 5.703125 44.59375 10.40625 44.59375 18 
L 44.59375 28.09375 
C 44.59375 29.5 44.59375 30.703125 44.5 31.90625 
C 49.296875 37.203125 53.296875 37.90625 57.203125 37.90625 
C 62.59375 37.90625 65.203125 35.703125 65.203125 29 
L 65.203125 18 
C 65.203125 10.5 65.09375 5.40625 64.296875 0 
L 64.5 -0.296875 
C 65.703125 -0.09375 68 0 69.203125 0 
C 70.40625 0 72.703125 -0.09375 73.90625 -0.296875 
L 74.09375 0 
C 73.296875 5.703125 73.203125 10.40625 73.203125 18 
L 73.203125 28 
C 73.203125 36.90625 71.59375 43.90625 60.796875 43.90625 
C 55.40625 43.90625 49.59375 42 43.90625 36 
C 43 40.796875 38.90625 43.90625 33.296875 43.90625 
C 27.09375 43.90625 21.203125 39.90625 16.5 34.90625 
z
" id="LinBiolinumO-109"/>
      <path d="M 8 59.703125 
C 8 57 10.40625 54.59375 13.09375 54.59375 
C 15.796875 54.59375 18.203125 57 18.203125 59.703125 
C 18.203125 62.40625 15.796875 64.796875 13.09375 64.796875 
C 10.40625 64.796875 8 62.40625 8 59.703125 
z
M 9 23.5 
L 9 18 
C 9 10.5 8.796875 5.40625 8.09375 0 
L 8.296875 -0.296875 
C 9.5 -0.09375 11.796875 0 13 0 
C 14.203125 0 16.5 -0.09375 17.703125 -0.296875 
L 17.90625 0 
C 17.09375 5.59375 17 10.40625 17 18 
L 17 25.09375 
C 17 32.59375 17.203125 36.203125 17.90625 42.296875 
C 17.90625 43.203125 17.703125 43.296875 17 43.296875 
C 14.703125 43 10.40625 43 8.296875 43.203125 
L 8.09375 42.90625 
C 8.703125 38.59375 9 31 9 23.5 
z
" id="LinBiolinumO-105"/>
      <path d="M 9 20 
C 9 12.5 8.796875 5.296875 8.09375 0 
L 8.296875 -0.296875 
C 9.5 -0.09375 11.796875 0 13 0 
C 14.203125 0 16.5 -0.09375 17.703125 -0.296875 
L 17.90625 0 
C 17.09375 5.703125 17 12.40625 17 20 
L 17 50 
C 17 57.5 17.40625 62.40625 17.90625 68.796875 
C 17.90625 69.5 17.59375 69.796875 17 69.796875 
C 14.40625 68.796875 12.296875 68.09375 8.296875 67.796875 
L 8.09375 67.5 
C 8.796875 63.203125 9 55.796875 9 48.203125 
z
" id="LinBiolinumO-108"/>
      <path d="M 3.796875 20.5 
C 3.796875 8.5 11.703125 -1 25 -1 
C 38.203125 -1 46.203125 8.296875 46.203125 21.40625 
C 46.203125 35 38.90625 43.90625 25.40625 43.90625 
C 12.296875 43.90625 3.796875 34.703125 3.796875 20.5 
z
M 24.703125 39.90625 
C 35.296875 39.90625 37.40625 31.703125 37.40625 19.59375 
C 37.40625 10 32.59375 3 25.90625 3 
C 15.296875 3 12.59375 14.5 12.59375 22.203125 
C 12.59375 30.90625 15.296875 39.90625 24.703125 39.90625 
z
" id="LinBiolinumO-111"/>
      <path d="M 20.5 -0.40625 
C 21.5 -0.09375 22.796875 -0.09375 23.796875 -0.09375 
C 24.796875 -0.09375 26.5 -0.09375 27.40625 -0.40625 
C 30.09375 7.203125 33 15.5 36.203125 23.296875 
C 39.203125 15.5 42.40625 7.40625 45.296875 -0.296875 
C 46.296875 0 46.90625 0 47.90625 0 
C 48.90625 0 50.703125 0 51.59375 -0.296875 
C 56.5 11.5 64.5 30.703125 70.203125 43.203125 
C 69.296875 42.90625 66.90625 42.90625 65.90625 42.90625 
C 64.90625 42.90625 63.40625 42.90625 62.5 43.203125 
C 58.796875 31.40625 54.296875 18.59375 50.09375 9 
L 49.296875 9 
C 45.203125 20 42.09375 32.59375 39.796875 43.203125 
C 38.5 42.90625 36.203125 42.90625 34.796875 42.90625 
C 33.203125 42.90625 30.59375 42.90625 29 43.203125 
C 30.296875 39.09375 31.90625 34.703125 33.59375 30.09375 
C 31 22.59375 28.203125 15.09375 25.296875 8.90625 
L 24.703125 8.90625 
C 19.703125 20.296875 16.40625 31.59375 12.796875 43.09375 
C 11.5 42.796875 9.203125 42.796875 7.796875 42.796875 
C 6.203125 42.796875 3.59375 42.796875 2 43.09375 
C 8.703125 28.40625 14.90625 14.203125 20.5 -0.40625 
z
" id="LinBiolinumO-119"/>
      <path d="M 36.09375 11.296875 
C 32.40625 6.59375 27.796875 4.203125 23.796875 4.203125 
C 18.40625 4.203125 13.796875 9.59375 13.796875 22.09375 
C 13.796875 37.09375 21.703125 39.90625 26.59375 39.90625 
C 31.296875 39.90625 33.703125 37.90625 36.09375 34.09375 
z
M 36.09375 5.796875 
L 36.296875 5.796875 
L 36.796875 0 
C 36.796875 -0.203125 37.09375 -0.296875 37.703125 -0.296875 
C 39 -0.203125 39.703125 0 41.09375 0 
C 42.40625 0 44.296875 -0.09375 45.59375 -0.296875 
L 45.796875 0 
C 45 4.296875 44.09375 11.703125 44.09375 19.203125 
L 44.09375 50 
C 44.09375 57.40625 44.5 62.59375 45 68.796875 
C 45 69.5 44.703125 69.796875 44.09375 69.796875 
C 41.5 68.796875 39.40625 68.09375 35.40625 67.796875 
L 35.203125 67.5 
C 35.90625 63.203125 36.09375 55.796875 36.09375 48.203125 
L 36.09375 41.703125 
C 33.796875 43 29.703125 43.90625 27.703125 43.90625 
C 14.59375 43.90625 5.09375 34.90625 5.09375 21.296875 
C 5.09375 9 12.40625 -1 23.203125 -1 
C 28 -1 32.5 1.09375 36.09375 5.796875 
z
" id="LinBiolinumO-100"/>
      <path d="M 5 10.09375 
L 3.296875 1.703125 
C 9 -0.296875 14.59375 -1 18.40625 -1 
C 32.203125 -1 35.40625 7.203125 35.40625 12.703125 
C 35.40625 20.90625 28.90625 24.09375 21.796875 25.796875 
C 18 26.703125 12.5 28.59375 12.5 33.59375 
C 12.5 37.703125 15.796875 39.90625 20.09375 39.90625 
C 25.296875 39.90625 28.5 35.796875 30.796875 33.09375 
L 32.203125 33.203125 
L 34.203125 40.59375 
L 34 40.90625 
C 31.09375 42.40625 25.59375 43.90625 20.5 43.90625 
C 13.09375 43.90625 5.40625 40 5.40625 31.703125 
C 5.40625 23.703125 11.296875 21 17.40625 19.40625 
C 23.203125 17.796875 27.5 16.203125 27.5 11.296875 
C 27.5 6 23.59375 3 18.296875 3 
C 13.5 3 9.296875 6.296875 6.5 10.203125 
z
" id="LinBiolinumO-115"/>
     </defs>
     <g style="fill:#808080;" transform="translate(24.27125 171.41)rotate(-90)scale(0.12 -0.12)">
      <use xlink:href="#LinBiolinumO-70"/>
      <use x="50.399994" xlink:href="#LinBiolinumO-114"/>
      <use x="85.899979" xlink:href="#LinBiolinumO-101"/>
      <use x="131.199966" xlink:href="#LinBiolinumO-113"/>
      <use x="183.399963" xlink:href="#LinBiolinumO-117"/>
      <use x="237.09996" xlink:href="#LinBiolinumO-101"/>
      <use x="282.399948" xlink:href="#LinBiolinumO-110"/>
      <use x="336.299942" xlink:href="#LinBiolinumO-99"/>
      <use x="379.199936" xlink:href="#LinBiolinumO-121"/>
      <use x="429.799927" xlink:href="#LinBiolinumO-32"/>
      <use x="454.799911" xlink:href="#LinBiolinumO-112"/>
      <use x="507.099899" xlink:href="#LinBiolinumO-101"/>
      <use x="552.399887" xlink:href="#LinBiolinumO-114"/>
      <use x="587.899872" xlink:href="#LinBiolinumO-32"/>
      <use x="612.899857" xlink:href="#LinBiolinumO-109"/>
      <use x="693.599838" xlink:href="#LinBiolinumO-105"/>
      <use x="719.599823" xlink:href="#LinBiolinumO-108"/>
      <use x="744.79982" xlink:href="#LinBiolinumO-108"/>
      <use x="769.999817" xlink:href="#LinBiolinumO-105"/>
      <use x="795.999802" xlink:href="#LinBiolinumO-111"/>
      <use x="845.999786" xlink:href="#LinBiolinumO-110"/>
      <use x="899.89978" xlink:href="#LinBiolinumO-32"/>
      <use x="924.899765" xlink:href="#LinBiolinumO-119"/>
      <use x="997.099747" xlink:href="#LinBiolinumO-111"/>
      <use x="1047.099731" xlink:href="#LinBiolinumO-114"/>
      <use x="1082.599716" xlink:href="#LinBiolinumO-100"/>
      <use x="1135.599701" xlink:href="#LinBiolinumO-115"/>
     </g>
    </g>
   </g>
   <g id="line2d_52">
    <path clip-path="url(#p0316069914)" d="M 69.935369 34.573011 
L 82.63061 37.898126 
L 90.056849 40.620407 
L 95.32585 41.270643 
L 99.412805 43.081574 
L 105.575415 44.916319 
L 108.021091 47.308383 
L 110.178329 50.810949 
L 112.108045 52.119496 
L 113.853685 53.477151 
L 115.44733 53.537776 
L 116.913341 55.122343 
L 118.270655 55.581698 
L 119.534285 56.346927 
L 120.716331 56.509916 
L 121.826693 56.892082 
L 122.87357 58.448961 
L 123.86383 59.018368 
L 124.803286 59.216709 
L 125.696895 59.882599 
L 128.142571 60.175362 
L 128.89024 61.892316 
L 130.299809 63.267439 
L 130.965896 63.550452 
L 131.608606 64.338869 
L 132.229525 64.703784 
L 133.975166 64.87129 
L 135.05285 65.110365 
L 136.070632 65.669823 
L 136.559071 65.688295 
L 138.392136 66.410374 
L 139.244166 66.433114 
L 140.058316 66.859261 
L 140.837811 67.336684 
L 141.585481 68.039291 
L 142.303822 68.224564 
L 142.652697 68.643527 
L 143.661136 68.758864 
L 145.818375 69.450053 
L 146.106812 69.823569 
L 146.390777 69.861188 
L 146.94583 70.328058 
L 147.217174 71.183315 
L 147.484556 71.217914 
L 147.748091 71.365315 
L 148.007888 71.710316 
L 149.730062 72.084133 
L 149.963382 72.196204 
L 150.421289 72.806714 
L 150.868028 72.899563 
L 151.087376 73.319207 
L 151.730086 73.475408 
L 152.146362 73.897016 
L 152.553387 73.999567 
L 153.533052 74.306858 
L 153.72285 74.36513 
L 153.910701 74.572952 
L 154.280721 74.644432 
L 154.462965 74.889529 
L 155.174331 75.062725 
L 155.347937 75.34672 
L 155.69029 75.439061 
L 155.859097 75.770957 
L 156.192112 75.894582 
L 156.519181 76.211115 
L 156.840511 76.386315 
L 156.999087 76.676575 
L 157.466739 76.854976 
L 157.772002 77.105506 
L 158.220564 77.192665 
L 158.513616 77.404894 
L 158.802052 77.57572 
L 158.944585 77.60514 
L 159.365646 78.020474 
L 159.641071 78.16399 
L 159.777245 78.187943 
L 160.046593 78.358342 
L 160.959291 78.591368 
L 162.188972 79.049749 
L 163.22924 79.567949 
L 163.673271 79.907809 
L 163.999369 79.996543 
L 164.319762 80.110197 
L 164.841603 80.225194 
L 165.448797 80.467245 
L 165.745009 80.704659 
L 166.975962 81.037008 
L 167.06731 81.038405 
L 167.248652 81.313315 
L 167.606036 81.538676 
L 167.606036 81.538676 
L 168.470128 81.766364 
L 168.804665 82.058283 
L 169.455946 82.232041 
L 169.694327 82.360823 
L 170.161979 82.499445 
L 170.841802 82.663154 
L 171.991379 83.260585 
L 172.199117 83.425218 
L 173.203867 83.785282 
L 173.654532 84.092027 
L 174.032181 84.279262 
L 174.943581 84.660835 
L 175.179152 84.834656 
L 175.526922 85.015838 
L 175.980577 85.213318 
L 178.635096 86.342436 
L 178.827891 86.431972 
L 179.487126 86.735679 
L 181.249578 87.421391 
L 181.416842 87.584206 
L 181.909662 87.794424 
L 186.633737 89.854297 
L 186.789613 90.018037 
L 187.06689 90.202463 
L 187.845111 90.54127 
L 187.991051 90.664382 
L 188.308083 90.91923 
L 188.535253 91.055059 
L 189.657232 91.705497 
L 190.232084 91.903868 
L 190.232084 91.903868 
L 191.451071 92.52444 
L 192.320597 93.047204 
L 194.132884 93.882829 
L 194.277834 94.019627 
L 194.564337 94.126179 
L 194.564337 94.126179 
L 195.183225 94.392269 
L 195.397899 94.508571 
L 196.232283 94.854498 
L 196.726087 95.165369 
L 196.726087 95.165369 
L 197.259582 95.45574 
L 197.434015 95.554486 
L 198.901362 96.477733 
L 199.092647 96.587467 
L 199.639414 96.93858 
L 199.944678 97.184778 
L 200.155374 97.295406 
L 200.481648 97.475066 
L 200.481648 97.475066 
L 200.7733 97.658103 
L 200.960414 97.821132 
L 200.960414 97.821132 
L 201.385055 98.091011 
L 201.648989 98.335512 
L 201.895572 98.435058 
L 202.299307 98.757172 
L 203.447213 99.379956 
L 203.447213 99.379956 
L 203.879637 99.584209 
L 203.879637 99.584209 
L 204.158341 99.812028 
L 204.866041 100.244062 
L 205.050232 100.355133 
L 205.713864 100.801899 
L 205.856911 100.908802 
L 206.215089 101.115209 
L 206.215089 101.115209 
L 206.407546 101.225628 
L 206.734333 101.438936 
L 206.734333 101.438936 
L 206.911093 101.541631 
L 207.208744 101.715233 
L 207.381005 101.820899 
L 207.6811 102.011629 
L 207.898086 102.120578 
L 208.324494 102.480168 
L 208.324494 102.480168 
L 208.5056 102.581747 
L 208.656733 102.73613 
L 208.656733 102.73613 
L 208.871826 102.893001 
L 208.871826 102.893001 
L 209.221753 103.10617 
L 209.221753 103.10617 
L 209.547207 103.337895 
L 209.81407 103.561144 
L 209.81407 103.561144 
L 209.998587 103.660449 
L 210.233124 103.833076 
L 210.336406 103.920551 
L 210.336406 103.920551 
L 210.583627 104.127767 
L 210.727013 104.233053 
L 210.727013 104.233053 
L 210.919236 104.35479 
L 210.919236 104.35479 
L 211.084762 104.462572 
L 211.26513 104.58723 
L 211.26513 104.58723 
L 211.48409 104.697631 
L 211.676547 104.857549 
L 211.676547 104.857549 
L 212.457371 105.5076 
L 212.60962 105.594168 
L 212.60962 105.594168 
L 213.337872 106.130384 
L 213.511891 106.278506 
L 213.619819 106.372239 
L 213.798298 106.581684 
L 213.798298 106.581684 
L 213.982089 106.678396 
L 214.129201 106.776078 
L 214.302808 106.87475 
L 214.447377 106.974431 
L 214.447377 106.974431 
L 214.549946 107.075144 
L 214.549946 107.075144 
L 216.217312 108.583139 
L 216.217312 108.583139 
L 216.883621 109.018196 
L 216.883621 109.018196 
L 217.05094 109.167643 
L 217.05094 109.167643 
L 217.240309 109.268564 
L 217.363527 109.344948 
L 217.363527 109.344948 
L 217.808363 109.683044 
L 217.808363 109.683044 
L 217.96748 109.789481 
L 217.96748 109.789481 
L 223.919534 114.605093 
L 224.037711 114.737596 
L 224.037711 114.737596 
L 224.227635 114.826943 
L 224.343847 114.96252 
L 224.343847 114.96252 
L 224.491055 115.053965 
L 224.491055 115.053965 
L 224.723371 115.239472 
L 224.723371 115.239472 
L 224.83649 115.333568 
L 224.83649 115.333568 
L 225.144966 115.621435 
L 225.144966 115.621435 
L 225.323802 115.719313 
L 225.323802 115.719313 
L 225.497159 115.868 
L 225.497159 115.868 
L 225.650301 115.968401 
L 225.650301 115.968401 
L 225.805863 116.120971 
L 225.805863 116.120971 
L 225.974737 116.224028 
L 225.974737 116.224028 
L 226.27556 116.486545 
L 226.27556 116.486545 
L 226.440177 116.593566 
L 226.440177 116.593566 
L 226.571521 116.756336 
L 226.571521 116.756336 
L 226.715973 116.86638 
L 226.715973 116.86638 
L 226.848846 117.033814 
L 226.848846 117.033814 
L 226.935739 117.090271 
L 226.935739 117.090271 
L 227.073917 117.261632 
L 227.073917 117.261632 
L 227.21106 117.31943 
L 227.21106 117.31943 
L 227.33701 117.436063 
L 227.33701 117.436063 
L 227.559548 117.673607 
L 227.559548 117.673607 
L 227.699768 117.73391 
L 227.809193 117.855646 
L 227.809193 117.855646 
L 227.92454 117.978924 
L 227.92454 117.978924 
L 228.0359 118.041153 
L 228.0359 118.041153 
L 228.149832 118.166817 
L 228.149832 118.166817 
L 228.557392 118.488259 
L 228.557392 118.488259 
L 228.709099 118.55384 
L 228.818932 118.686343 
L 228.818932 118.686343 
L 228.890751 118.753277 
L 228.890751 118.753277 
L 229.239566 119.025709 
L 229.239566 119.025709 
L 229.343233 119.095024 
L 229.343233 119.095024 
L 229.506683 119.235154 
L 229.506683 119.235154 
L 229.644777 119.305982 
L 229.644777 119.305982 
L 229.799639 119.449202 
L 229.799639 119.449202 
L 229.882487 119.52161 
L 229.882487 119.52161 
L 230.394839 119.96774 
L 230.394839 119.96774 
L 230.577651 120.044123 
L 230.577651 120.044123 
L 230.690989 120.198711 
L 230.690989 120.198711 
L 230.772723 120.276935 
L 230.772723 120.276935 
L 230.890453 120.435293 
L 230.890453 120.435293 
L 231.073941 120.515448 
L 231.073941 120.515448 
L 231.162248 120.677765 
L 231.162248 120.677765 
L 231.313038 120.75995 
L 231.313038 120.75995 
L 231.522079 121.010749 
L 231.522079 121.010749 
L 231.688681 121.095804 
L 231.792708 121.268177 
L 231.792708 121.268177 
L 231.917294 121.355521 
L 231.917294 121.355521 
L 232.051531 121.532595 
L 232.051531 121.532595 
L 232.23419 121.622355 
L 232.23419 121.622355 
L 232.332591 121.804394 
L 232.332591 121.804394 
L 232.489452 121.896705 
L 232.489452 121.896705 
L 232.637363 122.083996 
L 232.637363 122.083996 
L 232.81933 122.179009 
L 232.826873 122.274959 
L 232.826873 122.274959 
L 233.086457 122.371864 
L 233.086457 122.371864 
L 233.190255 122.568614 
L 233.190255 122.568614 
L 233.403412 122.6685 
L 233.403412 122.6685 
L 233.500589 122.871399 
L 233.500589 122.871399 
L 233.724552 122.974456 
L 233.724552 122.974456 
L 233.767585 123.078616 
L 233.767585 123.078616 
L 233.96708 123.183901 
L 233.96708 123.183901 
L 234.023682 123.290337 
L 234.023682 123.290337 
L 234.259982 123.506764 
L 234.259982 123.506764 
L 234.470307 123.616808 
L 234.539118 123.72811 
L 234.539118 123.72811 
L 234.750806 123.954604 
L 234.750806 123.954604 
L 234.868112 123.954604 
L 234.868112 123.954604 
L 234.915273 124.069858 
L 234.915273 124.069858 
L 235.015925 124.069858 
L 235.015925 124.069858 
L 235.082721 124.186492 
L 235.082721 124.186492 
L 235.305826 124.424035 
L 235.305826 124.424035 
L 235.410911 124.424035 
L 235.410911 124.424035 
L 235.465405 124.545016 
L 235.465405 124.545016 
L 235.558756 124.545016 
L 235.634391 124.667518 
L 235.634391 124.667518 
L 235.688225 124.667518 
L 235.793282 124.791581 
L 235.793282 124.791581 
L 235.823188 124.917245 
L 235.823188 124.917245 
L 235.978341 124.917245 
L 235.978341 124.917245 
L 236.100683 125.173544 
L 236.100683 125.173544 
L 236.218036 125.173544 
L 236.33049 125.304269 
L 236.33049 125.304269 
L 236.380249 125.436771 
L 236.380249 125.436771 
L 236.504057 125.436771 
L 236.504057 125.436771 
L 236.665806 125.707311 
L 236.665806 125.707311 
L 236.714663 125.707311 
L 236.714663 125.707311 
L 236.946979 125.985582 
L 236.946979 125.985582 
L 237.094927 125.985582 
L 237.094927 125.985582 
L 237.114828 126.127757 
L 237.114828 126.127757 
L 237.247613 126.127757 
L 237.247613 126.127757 
L 237.27721 126.272038 
L 237.27721 126.272038 
L 237.866953 126.871539 
L 237.866953 126.871539 
L 238.013362 126.871539 
L 238.013362 126.871539 
L 238.109694 127.027363 
L 238.109694 127.027363 
L 238.160489 127.027363 
L 238.160489 127.027363 
L 238.227998 127.185721 
L 238.227998 127.185721 
L 238.323211 127.185721 
L 238.323211 127.185721 
L 238.375275 127.346697 
L 238.375275 127.346697 
L 238.478961 127.346697 
L 238.478961 127.346697 
L 238.624241 127.510378 
L 238.624241 127.510378 
L 238.70466 127.510378 
L 238.70466 127.510378 
L 238.744737 127.676858 
L 238.744737 127.676858 
L 238.907783 127.676858 
L 238.990561 127.846233 
L 238.990561 127.846233 
L 239.083687 127.846233 
L 239.083687 127.846233 
L 239.201207 128.018605 
L 239.201207 128.018605 
L 239.33032 128.194084 
L 239.33032 128.194084 
L 239.423493 128.194084 
L 239.423493 128.194084 
L 239.479519 128.372783 
L 239.479519 128.372783 
L 239.589323 128.372783 
L 239.589323 128.372783 
L 239.717463 128.554822 
L 239.717463 128.554822 
L 239.800104 128.554822 
L 239.800104 128.554822 
L 239.817274 128.740329 
L 239.817274 128.740329 
L 240.01528 128.740329 
L 240.01528 128.740329 
L 240.116863 128.929438 
L 240.116863 128.929438 
L 240.206129 128.929438 
L 240.206129 128.929438 
L 240.266515 129.122292 
L 240.266515 129.122292 
L 240.36172 129.122292 
L 240.36172 129.122292 
L 240.482932 129.319042 
L 240.482932 129.319042 
L 240.61978 129.519849 
L 240.61978 129.519849 
L 240.786567 129.519849 
L 240.786567 129.519849 
L 240.80609 129.724885 
L 240.80609 129.724885 
L 240.934096 129.724885 
L 240.934096 129.724885 
L 241.058007 129.934329 
L 241.058007 129.934329 
L 241.189048 129.934329 
L 241.189048 129.934329 
L 241.212918 130.148378 
L 241.212918 130.148378 
L 241.346018 130.148378 
L 241.346018 130.148378 
L 241.434216 130.367237 
L 241.434216 130.367237 
L 241.629569 130.367237 
L 241.629569 130.367237 
L 241.657529 130.591127 
L 241.657529 130.591127 
L 241.893482 130.591127 
L 241.893482 130.591127 
L 241.898078 130.820286 
L 241.898078 130.820286 
L 242.118867 130.820286 
L 242.118867 130.820286 
L 242.150624 131.054968 
L 242.150624 131.054968 
L 242.363927 131.054968 
L 242.392281 131.295444 
L 242.392281 131.295444 
L 242.605752 131.295444 
L 242.605752 131.295444 
L 242.626374 131.54201 
L 242.626374 131.54201 
L 242.83715 131.54201 
L 242.83715 131.54201 
L 242.943083 131.79498 
L 242.943083 131.79498 
L 243.07572 131.79498 
L 243.07572 131.79498 
L 243.118764 132.054697 
L 243.118764 132.054697 
L 243.291357 132.054697 
L 243.291357 132.054697 
L 243.442636 132.32153 
L 243.442636 132.32153 
L 243.669325 132.32153 
L 243.669325 132.32153 
L 243.78439 132.595881 
L 243.78439 132.595881 
L 243.979587 132.595881 
L 244.015103 132.878185 
L 244.015103 132.878185 
L 244.248336 132.878185 
L 244.248336 132.878185 
L 244.306184 133.168918 
L 244.306184 133.168918 
L 244.503901 133.168918 
L 244.503901 133.168918 
L 244.609893 133.468597 
L 244.609893 133.468597 
L 244.748083 133.468597 
L 244.748083 133.468597 
L 244.951487 133.777791 
L 244.951487 133.777791 
L 245.152658 133.777791 
L 245.152658 133.777791 
L 245.187253 134.097125 
L 245.187253 134.097125 
L 245.481849 134.097125 
L 245.481849 134.097125 
L 245.563544 134.427286 
L 245.563544 134.427286 
L 245.79037 134.427286 
L 245.79037 134.427286 
L 245.913814 134.769034 
L 245.913814 134.769034 
L 246.098653 134.769034 
L 246.098653 134.769034 
L 246.305745 135.123211 
L 246.305745 135.123211 
L 246.549778 135.123211 
L 246.549778 135.123211 
L 246.565219 135.490757 
L 246.565219 135.490757 
L 246.724808 135.490757 
L 246.724808 135.490757 
L 246.977293 135.87272 
L 246.977293 135.87272 
L 247.323429 135.87272 
L 247.323429 135.87272 
L 247.38257 136.270278 
L 247.38257 136.270278 
L 247.700009 136.270278 
L 247.700009 136.270278 
L 247.761285 136.684758 
L 247.761285 136.684758 
L 248.059156 136.684758 
L 248.059156 136.684758 
L 248.069003 137.117665 
L 248.069003 137.117665 
L 248.474621 137.117665 
L 248.474621 137.117665 
L 248.4789 137.570715 
L 248.4789 137.570715 
L 248.907009 137.570715 
L 248.907009 137.570715 
L 249.018462 138.045873 
L 249.018462 138.045873 
L 249.389562 138.045873 
L 249.389562 138.045873 
L 249.39465 138.545408 
L 249.39465 138.545408 
L 249.846829 138.545408 
L 249.846829 138.545408 
L 249.897379 139.071959 
L 249.897379 139.071959 
L 250.345191 139.071959 
L 250.345191 139.071959 
L 250.385714 139.628614 
L 250.385714 139.628614 
L 250.796455 139.628614 
L 250.796455 139.628614 
L 250.928853 140.219025 
L 250.928853 140.219025 
L 251.116876 140.219025 
L 251.116876 140.219025 
L 251.449984 140.847554 
L 251.449984 140.847554 
L 251.710024 140.847554 
L 251.710024 140.847554 
L 251.987629 141.519462 
L 251.987629 141.519462 
L 253.202153 143.020706 
L 253.202153 143.020706 
L 253.329799 143.020706 
L 253.329799 143.020706 
L 253.886677 143.868093 
L 253.886677 143.868093 
L 254.045205 143.868093 
L 254.045205 143.868093 
L 254.650675 144.796301 
L 254.650675 144.796301 
L 255.130712 144.796301 
L 255.130712 144.796301 
L 255.476275 145.822387 
L 255.476275 145.822387 
L 256.301877 146.969454 
L 256.301877 146.969454 
L 256.925378 146.969454 
L 256.925378 146.969454 
L 257.215079 148.26989 
L 257.215079 148.26989 
L 257.353948 148.26989 
L 257.353948 148.26989 
L 258.226778 149.771135 
L 258.226778 149.771135 
L 258.597979 149.771135 
L 258.597979 149.771135 
L 259.406508 151.546729 
L 259.406508 151.546729 
L 260.217508 151.546729 
L 260.217508 151.546729 
L 260.735784 153.719882 
L 260.735784 153.719882 
L 262.343983 153.719882 
L 262.343983 153.719882 
L 262.348498 156.521563 
L 262.348498 156.521563 
L 264.323047 156.521563 
L 264.323047 156.521563 
L 264.36802 160.47031 
L 264.36802 160.47031 
L 266.784982 160.47031 
L 266.784982 160.47031 
L 267.330256 167.220739 
L 267.330256 167.220739 
" style="fill:none;stroke:#76a254;stroke-linecap:square;stroke-width:1.5;"/>
   </g>
   <g id="text_11">
    <!-- Frequency list obeys Zipf's Law -->
    <defs>
     <path d="M 9.5 42.90625 
C 7.40625 42.90625 5.296875 42.90625 4.09375 43.09375 
C 3.40625 41.40625 2.796875 40.5 1.90625 39 
L 2.40625 38.296875 
C 4.09375 38.40625 7.203125 38.40625 9.5 38.5 
L 9.5 24.796875 
C 9.5 18.796875 9.203125 11.59375 9.203125 8.59375 
C 9.203125 2.09375 13.40625 -1 18 -1 
C 22.203125 -1 25.40625 0 29.59375 2.703125 
L 28.296875 5.09375 
C 25.296875 4.09375 23 4 20.5 4.40625 
C 18.09375 4.703125 17.203125 7.09375 17.203125 12.59375 
C 17.203125 15.59375 17.5 19.90625 17.5 25.90625 
L 17.5 38.5 
L 21.296875 38.5 
C 23.703125 38.5 27.09375 38.40625 28.5 38.296875 
C 28.796875 39.90625 29.09375 40.90625 29.703125 42.40625 
L 29.203125 43.09375 
C 27.40625 43 24.5 42.90625 22.203125 42.90625 
L 17.5 42.90625 
C 17.5 50.296875 17.5 51.703125 18 57.5 
C 18 58.203125 17.703125 58.5 17.09375 58.5 
C 14.5 57.5 13.296875 56.40625 10.09375 56 
L 9.90625 55.703125 
C 9.703125 52.203125 9.5 48.703125 9.5 42.90625 
z
" id="LinBiolinumO-116"/>
     <path d="M 16.203125 8.09375 
L 16.203125 34 
C 20.09375 38 22.59375 39.90625 26.703125 39.90625 
C 32.796875 39.90625 38.203125 34.796875 38.203125 22.40625 
C 38.203125 10 34.5 3 25 3 
C 21.90625 3 18.203125 5.59375 16.203125 8.09375 
z
M 16.203125 50 
C 16.203125 57.40625 16.296875 62.59375 16.796875 68.796875 
C 16.796875 69.5 16.5 69.796875 15.90625 69.796875 
C 13.296875 68.796875 11.203125 68.09375 7.203125 67.796875 
L 7 67.5 
C 7.703125 63.203125 8.203125 55.796875 8.203125 48.203125 
L 8.203125 7.296875 
C 8.203125 3.40625 8.09375 1.90625 7.703125 -0.203125 
C 8.296875 -0.796875 9.40625 -1 10.5 -1 
C 11.59375 0.203125 12.703125 1.90625 13.796875 3.90625 
C 16.703125 1.40625 21.296875 -1 25.59375 -1 
C 35.796875 -1 47.09375 6.203125 47.09375 23.203125 
C 47.09375 35.40625 38.40625 43.90625 28.703125 43.90625 
C 23.90625 43.90625 19.59375 42.59375 16.203125 38.90625 
z
" id="LinBiolinumO-98"/>
     <path d="M 18.703125 5.40625 
C 18.703125 5.90625 18.703125 6.5 19.203125 7.203125 
L 54.703125 59.09375 
C 56.703125 61.90625 57.703125 63.40625 57.703125 64.5 
C 57.703125 64.90625 57.5 65.09375 57.09375 65.09375 
C 55.40625 64.796875 47.59375 64.5 44.5 64.5 
L 14.09375 64.5 
C 11.90625 64.5 9.59375 64.59375 8 64.796875 
L 7.796875 64.5 
C 7.90625 63.09375 8 61.59375 8 60.59375 
C 8 59.59375 7.90625 58.09375 7.796875 57.296875 
L 8 57 
C 21.59375 58.09375 33.40625 59.09375 43.5 59.09375 
C 44 59.09375 44.296875 58.59375 43.796875 57.90625 
L 6.90625 3.796875 
C 6.296875 3 5.40625 1.5 4.296875 0.09375 
L 4.59375 -0.296875 
C 4.59375 -0.296875 10.296875 0 13.296875 0 
L 49.59375 0 
C 53.09375 0 55.09375 -0.09375 56.703125 -0.296875 
L 56.90625 0 
C 56.796875 1.40625 56.703125 2.90625 56.703125 3.90625 
C 56.703125 4.90625 56.796875 6.40625 56.90625 7.203125 
L 56.703125 7.5 
C 56.703125 7.5 31.796875 5.40625 18.703125 5.40625 
z
" id="LinBiolinumO-90"/>
     <path d="M 9.90625 42.90625 
C 7.703125 42.90625 5.40625 42.90625 4.09375 43.09375 
C 3.40625 41.40625 2.796875 40.5 1.90625 39 
L 2.40625 38.296875 
C 4.203125 38.40625 7.5 38.5 9.796875 38.5 
L 9.90625 38.5 
L 9.90625 19.90625 
C 9.90625 12.40625 9.703125 5.296875 8.90625 0 
L 9.09375 -0.296875 
C 10.296875 -0.09375 12.703125 0 13.90625 0 
C 15.09375 0 17.5 -0.09375 18.703125 -0.296875 
L 18.90625 0 
C 18 5.703125 17.90625 12.40625 17.90625 19.90625 
L 17.90625 38.5 
L 21.296875 38.5 
C 23.703125 38.5 27.09375 38.40625 28.5 38.296875 
C 28.796875 39.90625 29.09375 40.90625 29.703125 42.40625 
L 29.203125 43.09375 
C 27.5 43 24.5 42.90625 22.203125 42.90625 
L 17.90625 42.90625 
L 17.90625 43.796875 
C 17.90625 47.40625 17.40625 52.59375 17.40625 54.40625 
C 17.40625 59.90625 20.90625 63.703125 26.703125 63.703125 
C 29.203125 63.703125 31.40625 62.203125 32.5 60.203125 
L 33.59375 60.296875 
C 34.296875 63 35.296875 66.296875 36.40625 68.5 
L 36.296875 68.796875 
C 35.5 69.296875 33.703125 69.796875 31.796875 69.796875 
C 25.5 69.796875 19.09375 66.796875 15.40625 62.09375 
C 11.59375 57.296875 9.90625 52.59375 9.90625 46.796875 
z
" id="LinBiolinumO-102"/>
     <path d="M 7.90625 42.59375 
L 10.59375 43 
C 10.59375 43 13.90625 59.5 13.90625 61.09375 
C 13.90625 62.703125 13 64.40625 10.40625 64.40625 
C 7.40625 64.40625 5.296875 61.59375 5.296875 59.40625 
C 5.296875 58.5 7.90625 42.59375 7.90625 42.59375 
z
" id="LinBiolinumO-39"/>
     <path d="M 19.09375 44.5 
C 19.09375 52 19.296875 59.203125 20.09375 64.5 
L 20 64.796875 
C 18.796875 64.59375 16 64.5 14.796875 64.5 
C 13.59375 64.5 10.90625 64.59375 9.703125 64.796875 
L 9.5 64.5 
C 10.296875 58.796875 10.5 52 10.5 44.5 
L 10.5 20 
C 10.5 12.5 10.296875 5.40625 9.5 0 
L 9.59375 -0.296875 
C 9.59375 -0.296875 11.40625 0 14.796875 0 
L 42.09375 0 
C 44.203125 0 46.5 -0.09375 48.09375 -0.296875 
L 48.296875 0 
C 48.203125 1.40625 48.09375 3.40625 48.09375 4.40625 
C 48.09375 5.40625 48.203125 7.09375 48.296875 7.90625 
L 48.09375 8.296875 
C 48.09375 8.296875 33.296875 6.09375 19.90625 6.09375 
C 19.203125 8.5 19.09375 18.296875 19.09375 20 
z
" id="LinBiolinumO-76"/>
    </defs>
    <g transform="translate(65.209063 21.940625)scale(0.16 -0.16)">
     <use xlink:href="#LinBiolinumO-70"/>
     <use x="50.399994" xlink:href="#LinBiolinumO-114"/>
     <use x="85.899979" xlink:href="#LinBiolinumO-101"/>
     <use x="131.199966" xlink:href="#LinBiolinumO-113"/>
     <use x="183.399963" xlink:href="#LinBiolinumO-117"/>
     <use x="237.09996" xlink:href="#LinBiolinumO-101"/>
     <use x="282.399948" xlink:href="#LinBiolinumO-110"/>
     <use x="336.299942" xlink:href="#LinBiolinumO-99"/>
     <use x="379.199936" xlink:href="#LinBiolinumO-121"/>
     <use x="429.799927" xlink:href="#LinBiolinumO-32"/>
     <use x="454.799911" xlink:href="#LinBiolinumO-108"/>
     <use x="479.999908" xlink:href="#LinBiolinumO-105"/>
     <use x="505.999893" xlink:href="#LinBiolinumO-115"/>
     <use x="545.599884" xlink:href="#LinBiolinumO-116"/>
     <use x="579.599869" xlink:href="#LinBiolinumO-32"/>
     <use x="604.599854" xlink:href="#LinBiolinumO-111"/>
     <use x="654.599838" xlink:href="#LinBiolinumO-98"/>
     <use x="704.999832" xlink:href="#LinBiolinumO-101"/>
     <use x="750.29982" xlink:href="#LinBiolinumO-121"/>
     <use x="800.899811" xlink:href="#LinBiolinumO-115"/>
     <use x="840.499802" xlink:href="#LinBiolinumO-32"/>
     <use x="865.499786" xlink:href="#LinBiolinumO-90"/>
     <use x="927.699783" xlink:href="#LinBiolinumO-105"/>
     <use x="953.699768" xlink:href="#LinBiolinumO-112"/>
     <use x="1005.999756" xlink:href="#LinBiolinumO-102"/>
     <use x="1037.39975" xlink:href="#LinBiolinumO-39"/>
     <use x="1056.399734" xlink:href="#LinBiolinumO-115"/>
     <use x="1095.999725" xlink:href="#LinBiolinumO-32"/>
     <use x="1120.99971" xlink:href="#LinBiolinumO-76"/>
     <use x="1172.499695" xlink:href="#LinBiolinumO-97"/>
     <use x="1220.599686" xlink:href="#LinBiolinumO-119"/>
    </g>
   </g>
  </g>
 </g>
 <defs>
  <clipPath id="p0316069914">
   <rect height="145.9125" width="217.134375" x="60.065625" y="27.940625"/>
  </clipPath>
 </defs>
</svg>
