<?xml version="1.0" encoding="utf-8" standalone="no"?>
<!DOCTYPE svg PUBLIC "-//W3C//DTD SVG 1.1//EN"
  "http://www.w3.org/Graphics/SVG/1.1/DTD/svg11.dtd">
<!-- Created with matplotlib (https://matplotlib.org/) -->
<svg height="177.48pt" version="1.1" viewBox="0 0 343.268926 177.48" width="343.268926pt" xmlns="http://www.w3.org/2000/svg" xmlns:xlink="http://www.w3.org/1999/xlink">
 <defs>
  <style type="text/css">
*{stroke-linecap:butt;stroke-linejoin:round;}
  </style>
 </defs>
 <g id="figure_1">
  <g id="patch_1">
   <path d="M 0 177.48 
L 343.268926 177.48 
L 343.268926 0 
L 0 0 
z
" style="fill:none;"/>
  </g>
  <g id="axes_1">
   <g id="patch_2">
    <path d="M 65.379688 170.28 
L 288.579687 170.28 
L 288.579687 7.2 
L 65.379688 7.2 
z
" style="fill:none;"/>
   </g>
   <g id="patch_3">
    <path clip-path="url(#pa01b0bd98a)" d="M 65.379688 162.867273 
L 65.379688 162.867273 
L 65.379688 150.764861 
L 65.379688 150.764861 
z
" style="fill:#1f77b4;"/>
   </g>
   <g id="patch_4">
    <path clip-path="url(#pa01b0bd98a)" d="M 65.379688 147.739258 
L 68.102134 147.739258 
L 68.102134 135.636846 
L 65.379688 135.636846 
z
" style="fill:#76a254;"/>
   </g>
   <g id="patch_5">
    <path clip-path="url(#pa01b0bd98a)" d="M 65.379688 132.611243 
L 124.015717 132.611243 
L 124.015717 120.508831 
L 65.379688 120.508831 
z
" style="fill:#76a254;"/>
   </g>
   <g id="patch_6">
    <path clip-path="url(#pa01b0bd98a)" d="M 65.379688 117.483228 
L 277.951116 117.483228 
L 277.951116 105.380816 
L 65.379688 105.380816 
z
" style="fill:#76a254;"/>
   </g>
   <g id="patch_7">
    <path clip-path="url(#pa01b0bd98a)" d="M 65.379688 102.355213 
L 69.405994 102.355213 
L 69.405994 90.252801 
L 65.379688 90.252801 
z
" style="fill:#76a254;"/>
   </g>
   <g id="patch_8">
    <path clip-path="url(#pa01b0bd98a)" d="M 65.379688 87.227199 
L 79.952838 87.227199 
L 79.952838 75.124787 
L 65.379688 75.124787 
z
" style="fill:#76a254;"/>
   </g>
   <g id="patch_9">
    <path clip-path="url(#pa01b0bd98a)" d="M 65.379688 72.099184 
L 231.117689 72.099184 
L 231.117689 59.996772 
L 65.379688 59.996772 
z
" style="fill:#76a254;"/>
   </g>
   <g id="patch_10">
    <path clip-path="url(#pa01b0bd98a)" d="M 65.379688 56.971169 
L 110.021702 56.971169 
L 110.021702 44.868757 
L 65.379688 44.868757 
z
" style="fill:#76a254;"/>
   </g>
   <g id="patch_11">
    <path clip-path="url(#pa01b0bd98a)" d="M 65.379688 41.843154 
L 74.122723 41.843154 
L 74.122723 29.740742 
L 65.379688 29.740742 
z
" style="fill:#76a254;"/>
   </g>
   <g id="patch_12">
    <path clip-path="url(#pa01b0bd98a)" d="M 65.379688 26.715139 
L 198.511606 26.715139 
L 198.511606 14.612727 
L 65.379688 14.612727 
z
" style="fill:#76a254;"/>
   </g>
   <g id="matplotlib.axis_1"/>
   <g id="matplotlib.axis_2">
    <g id="ytick_1">
     <g id="line2d_1"/>
    </g>
    <g id="ytick_2">
     <g id="line2d_2"/>
     <g id="text_1">
      <!-- Fiction -->
      <defs>
       <path d="M 40.703125 64.5 
L 14.703125 64.5 
C 11.296875 64.5 9.59375 64.796875 9.59375 64.796875 
L 9.40625 64.5 
C 10.203125 58.796875 10.40625 52 10.40625 44.5 
L 10.40625 20 
C 10.40625 12.5 10.203125 5.40625 9.40625 0 
L 9.5 -0.296875 
C 9.5 -0.296875 11.203125 0 14.703125 0 
C 18.09375 0 19.796875 -0.296875 19.796875 -0.296875 
L 20 0 
C 19.203125 5.703125 19 12.5 19 20 
L 19 31.703125 
C 23.796875 31.703125 34.40625 31.40625 41.296875 30.703125 
L 41.59375 31 
C 41.40625 31.90625 41.296875 33.296875 41.296875 34.203125 
C 41.296875 35.09375 41.40625 36.5 41.59375 37.40625 
L 41.296875 37.703125 
C 35.40625 37.203125 30.796875 36.703125 19 36.703125 
L 19 44.5 
C 19 46.203125 19.09375 56.5 19.796875 58.90625 
C 33.203125 58.90625 47 57.703125 47 57.703125 
L 47.203125 58.09375 
C 47.09375 58.90625 47 60.203125 47 61.09375 
C 47 61.90625 47.09375 63.09375 47.203125 64.5 
L 47 64.796875 
C 45.40625 64.59375 43.09375 64.5 40.703125 64.5 
z
" id="LinBiolinumO-70"/>
       <path d="M 8 59.703125 
C 8 57 10.40625 54.59375 13.09375 54.59375 
C 15.796875 54.59375 18.203125 57 18.203125 59.703125 
C 18.203125 62.40625 15.796875 64.796875 13.09375 64.796875 
C 10.40625 64.796875 8 62.40625 8 59.703125 
z
M 9 23.5 
L 9 18 
C 9 10.5 8.796875 5.40625 8.09375 0 
L 8.296875 -0.296875 
C 9.5 -0.09375 11.796875 0 13 0 
C 14.203125 0 16.5 -0.09375 17.703125 -0.296875 
L 17.90625 0 
C 17.09375 5.59375 17 10.40625 17 18 
L 17 25.09375 
C 17 32.59375 17.203125 36.203125 17.90625 42.296875 
C 17.90625 43.203125 17.703125 43.296875 17 43.296875 
C 14.703125 43 10.40625 43 8.296875 43.203125 
L 8.09375 42.90625 
C 8.703125 38.59375 9 31 9 23.5 
z
" id="LinBiolinumO-105"/>
       <path d="M 25 39.90625 
C 28.796875 39.90625 32.296875 37 35 32.5 
L 36.296875 32.59375 
L 38.59375 40.796875 
L 38.40625 41.09375 
C 35.296875 42.703125 30.09375 43.90625 25.09375 43.90625 
C 14.703125 43.90625 3.796875 35.40625 3.796875 21.796875 
C 3.796875 7.796875 11.703125 -1 23.90625 -1 
C 29.90625 -1 34.59375 1 38.59375 6.09375 
L 36.703125 8.203125 
L 36.296875 8.203125 
C 32.5 4.796875 29.296875 4 25.59375 4 
C 18.296875 4 12.59375 10.59375 12.59375 22.296875 
C 12.59375 33.296875 18.40625 39.90625 25 39.90625 
z
" id="LinBiolinumO-99"/>
       <path d="M 9.5 42.90625 
C 7.40625 42.90625 5.296875 42.90625 4.09375 43.09375 
C 3.40625 41.40625 2.796875 40.5 1.90625 39 
L 2.40625 38.296875 
C 4.09375 38.40625 7.203125 38.40625 9.5 38.5 
L 9.5 24.796875 
C 9.5 18.796875 9.203125 11.59375 9.203125 8.59375 
C 9.203125 2.09375 13.40625 -1 18 -1 
C 22.203125 -1 25.40625 0 29.59375 2.703125 
L 28.296875 5.09375 
C 25.296875 4.09375 23 4 20.5 4.40625 
C 18.09375 4.703125 17.203125 7.09375 17.203125 12.59375 
C 17.203125 15.59375 17.5 19.90625 17.5 25.90625 
L 17.5 38.5 
L 21.296875 38.5 
C 23.703125 38.5 27.09375 38.40625 28.5 38.296875 
C 28.796875 39.90625 29.09375 40.90625 29.703125 42.40625 
L 29.203125 43.09375 
C 27.40625 43 24.5 42.90625 22.203125 42.90625 
L 17.5 42.90625 
C 17.5 50.296875 17.5 51.703125 18 57.5 
C 18 58.203125 17.703125 58.5 17.09375 58.5 
C 14.5 57.5 13.296875 56.40625 10.09375 56 
L 9.90625 55.703125 
C 9.703125 52.203125 9.5 48.703125 9.5 42.90625 
z
" id="LinBiolinumO-116"/>
       <path d="M 3.796875 20.5 
C 3.796875 8.5 11.703125 -1 25 -1 
C 38.203125 -1 46.203125 8.296875 46.203125 21.40625 
C 46.203125 35 38.90625 43.90625 25.40625 43.90625 
C 12.296875 43.90625 3.796875 34.703125 3.796875 20.5 
z
M 24.703125 39.90625 
C 35.296875 39.90625 37.40625 31.703125 37.40625 19.59375 
C 37.40625 10 32.59375 3 25.90625 3 
C 15.296875 3 12.59375 14.5 12.59375 22.203125 
C 12.59375 30.90625 15.296875 39.90625 24.703125 39.90625 
z
" id="LinBiolinumO-111"/>
       <path d="M 46 18 
C 46 21.203125 46.203125 24.90625 46.203125 28.09375 
C 46.203125 38.5 42.796875 43.90625 33.796875 43.90625 
C 30 43.90625 22.90625 42.40625 16.5 34.90625 
L 16.296875 35.203125 
L 16.296875 42.5 
C 16.203125 43.203125 16.09375 43.5 15.703125 43.5 
C 13.40625 43 9.796875 42.90625 7.59375 43.203125 
L 7.40625 42.90625 
C 8.09375 38.5 8.296875 31 8.296875 23.5 
L 8.296875 18 
C 8.296875 10.5 8.203125 5.40625 7.40625 0 
L 7.59375 -0.296875 
C 8.796875 -0.09375 11.09375 0 12.296875 0 
C 13.5 0 15.796875 -0.09375 17 -0.296875 
L 17.203125 0 
C 16.40625 5.703125 16.296875 10.40625 16.296875 18 
L 16.296875 29.703125 
C 21.40625 35.703125 27.203125 37.90625 30.796875 37.90625 
C 35.90625 37.90625 38 35.90625 38 27.796875 
L 38 18 
C 38 10.5 37.796875 5.296875 37.09375 0 
L 37.296875 -0.296875 
C 38.5 -0.09375 40.796875 0 42 0 
C 43.203125 0 45.5 -0.09375 46.703125 -0.296875 
L 46.90625 0 
C 46.09375 5.703125 46 10.40625 46 18 
z
" id="LinBiolinumO-110"/>
      </defs>
      <g style="fill:#808080;" transform="translate(33.557812 145.177896)scale(0.1 -0.1)">
       <use xlink:href="#LinBiolinumO-70"/>
       <use x="50.399994" xlink:href="#LinBiolinumO-105"/>
       <use x="76.399979" xlink:href="#LinBiolinumO-99"/>
       <use x="119.299973" xlink:href="#LinBiolinumO-116"/>
       <use x="153.299957" xlink:href="#LinBiolinumO-105"/>
       <use x="179.299942" xlink:href="#LinBiolinumO-111"/>
       <use x="229.299927" xlink:href="#LinBiolinumO-110"/>
      </g>
     </g>
    </g>
    <g id="ytick_3">
     <g id="line2d_3"/>
     <g id="text_2">
      <!-- Government -->
      <defs>
       <path d="M 54.59375 11.703125 
L 54.59375 7.203125 
C 51.203125 4 45.296875 3.40625 39.90625 3.40625 
C 22.09375 3.40625 15.5 19.5 15.5 32.703125 
C 15.5 50.203125 25.203125 61.40625 38.703125 61.40625 
C 47.703125 61.40625 55.40625 56.40625 59.90625 48.796875 
L 61.09375 48.90625 
C 61.40625 54 62 56.703125 63.09375 60.5 
L 62.90625 60.796875 
C 62.90625 60.796875 52.296875 65.796875 40.09375 65.796875 
C 22.90625 65.796875 5.203125 53.703125 5.203125 31.703125 
C 5.203125 14.40625 17.5 -1 37.59375 -1 
C 49.203125 -1 57.40625 2.296875 64.203125 8 
L 64.203125 8.296875 
C 63.296875 9.296875 63.203125 12 63.203125 13.09375 
L 63.203125 13.703125 
C 63.203125 21.203125 63.40625 25.40625 64.203125 30.703125 
L 64.09375 31 
C 64.09375 31 62.40625 30.703125 58.90625 30.703125 
C 55.5 30.703125 53.796875 31 53.796875 31 
L 53.59375 30.703125 
C 54.40625 25 54.59375 19.203125 54.59375 11.703125 
z
" id="LinBiolinumO-71"/>
       <path d="M 20.203125 -0.296875 
C 21.203125 0 22.296875 0 23.296875 0 
C 24.296875 0 25.40625 0 26.296875 -0.296875 
C 31.5 14.296875 37.703125 28.5 44.203125 43.203125 
C 43.296875 42.90625 41.40625 42.90625 40.40625 42.90625 
C 39.40625 42.90625 37.90625 42.90625 37 43.203125 
C 32.90625 31.796875 29.40625 18.796875 24.796875 9 
L 24.59375 9 
C 19.59375 20.40625 16.40625 31.703125 12.796875 43.203125 
C 11.5 42.90625 9.203125 42.90625 7.796875 42.90625 
C 6.203125 42.90625 3.59375 42.90625 2 43.203125 
C 8.703125 28.5 14.59375 14.296875 20.203125 -0.296875 
z
" id="LinBiolinumO-118"/>
       <path d="M 12.5 27.296875 
C 14.203125 37.703125 20.703125 39.90625 23.90625 39.90625 
C 27.796875 39.90625 32.296875 36.203125 32.296875 28.703125 
C 32.296875 27.796875 31.90625 27.296875 30.90625 27.296875 
z
M 39.203125 10.40625 
C 35.703125 6.59375 31 4.90625 25.5 4.90625 
C 22 4.90625 17.296875 6.203125 14.59375 10.59375 
C 12.796875 13.40625 12.203125 17.40625 12.203125 23.296875 
L 39.40625 23.296875 
C 40.5 23.296875 41.203125 23.90625 41.203125 25 
C 41.203125 33.40625 37.09375 43.90625 23.90625 43.90625 
C 13.59375 43.90625 3.40625 35.59375 3.40625 20.90625 
C 3.40625 15.203125 4.5 9.59375 7.90625 5.59375 
C 11.296875 1.40625 17 -1 23.796875 -1 
C 31 -1 37.40625 2.703125 41.203125 7.90625 
z
" id="LinBiolinumO-101"/>
       <path d="M 16.703125 33.40625 
L 16.703125 42.5 
C 16.703125 43.203125 16.5 43.5 16.09375 43.5 
C 13.796875 43 10.203125 42.90625 8 43.203125 
L 7.796875 42.90625 
C 8.5 38.5 8.703125 31 8.703125 23.5 
L 8.703125 18 
C 8.703125 10.5 8.5 5.296875 7.796875 0 
L 8 -0.296875 
C 9.203125 -0.09375 11.5 0 12.703125 0 
C 13.90625 0 16.203125 -0.09375 17.40625 -0.296875 
L 17.59375 0 
C 16.796875 5.703125 16.703125 10.40625 16.703125 18 
L 16.703125 23.203125 
C 16.703125 27.40625 17.90625 29.796875 20.09375 33.09375 
C 21.5 35.296875 23.796875 36.59375 25.703125 36.59375 
C 27.703125 36.59375 29.59375 36.40625 30.90625 35.203125 
L 31.703125 35.40625 
L 33.703125 42.796875 
L 33.296875 43.203125 
C 31.59375 43.703125 31.5 43.90625 29.703125 43.90625 
C 24.296875 43.90625 21.40625 40.796875 17 33.203125 
z
" id="LinBiolinumO-114"/>
       <path d="M 16.203125 35.203125 
L 16.203125 42.5 
C 16.203125 43.203125 16 43.5 15.59375 43.5 
C 13.296875 43 9.703125 42.90625 7.5 43.203125 
L 7.296875 42.90625 
C 8 38.5 8.203125 31 8.203125 23.5 
L 8.203125 18 
C 8.203125 10.5 8.09375 5.40625 7.296875 0 
L 7.5 -0.296875 
C 8.703125 -0.09375 11 0 12.203125 0 
C 13.40625 0 15.703125 -0.09375 16.90625 -0.296875 
L 17.09375 0 
C 16.296875 5.703125 16.203125 10.40625 16.203125 18 
L 16.203125 30.09375 
C 20.90625 34.90625 26.5 37.90625 30 37.90625 
C 33.796875 37.90625 36.59375 35.703125 36.59375 29 
L 36.59375 18 
C 36.59375 10.5 36.5 5.40625 35.703125 0 
L 35.90625 -0.296875 
C 37.09375 -0.09375 39.40625 0 40.59375 0 
C 41.796875 0 44.09375 -0.09375 45.296875 -0.296875 
L 45.5 0 
C 44.703125 5.703125 44.59375 10.40625 44.59375 18 
L 44.59375 28.09375 
C 44.59375 29.5 44.59375 30.703125 44.5 31.90625 
C 49.296875 37.203125 53.296875 37.90625 57.203125 37.90625 
C 62.59375 37.90625 65.203125 35.703125 65.203125 29 
L 65.203125 18 
C 65.203125 10.5 65.09375 5.40625 64.296875 0 
L 64.5 -0.296875 
C 65.703125 -0.09375 68 0 69.203125 0 
C 70.40625 0 72.703125 -0.09375 73.90625 -0.296875 
L 74.09375 0 
C 73.296875 5.703125 73.203125 10.40625 73.203125 18 
L 73.203125 28 
C 73.203125 36.90625 71.59375 43.90625 60.796875 43.90625 
C 55.40625 43.90625 49.59375 42 43.90625 36 
C 43 40.796875 38.90625 43.90625 33.296875 43.90625 
C 27.09375 43.90625 21.203125 39.90625 16.5 34.90625 
z
" id="LinBiolinumO-109"/>
      </defs>
      <g style="fill:#808080;" transform="translate(10.228125 130.049881)scale(0.1 -0.1)">
       <use xlink:href="#LinBiolinumO-71"/>
       <use x="71.699982" xlink:href="#LinBiolinumO-111"/>
       <use x="121.699966" xlink:href="#LinBiolinumO-118"/>
       <use x="167.899963" xlink:href="#LinBiolinumO-101"/>
       <use x="213.199951" xlink:href="#LinBiolinumO-114"/>
       <use x="248.699936" xlink:href="#LinBiolinumO-110"/>
       <use x="302.59993" xlink:href="#LinBiolinumO-109"/>
       <use x="383.299911" xlink:href="#LinBiolinumO-101"/>
       <use x="428.599899" xlink:href="#LinBiolinumO-110"/>
       <use x="482.499893" xlink:href="#LinBiolinumO-116"/>
      </g>
     </g>
    </g>
    <g id="ytick_4">
     <g id="line2d_4"/>
     <g id="text_3">
      <!-- Journal -->
      <defs>
       <path d="M 14 9.5 
C 14 0.703125 13.5 -11.203125 5.59375 -11.203125 
C 2.703125 -11.203125 0.90625 -9.703125 -0.203125 -7.703125 
L -1.296875 -7.796875 
C -2 -10.5 -3 -14.09375 -4.09375 -16 
L -4 -16.296875 
C -3.203125 -16.796875 -1.40625 -17.203125 0.5 -17.203125 
C 6.796875 -17.203125 12.09375 -15 16.296875 -9.59375 
C 21.59375 -2.703125 22.59375 0.203125 22.59375 11.703125 
L 22.59375 44.5 
C 22.59375 52 22.796875 59.203125 23.59375 64.5 
L 23.5 64.796875 
C 22.296875 64.59375 19.5 64.5 18.296875 64.5 
C 17.09375 64.5 14.40625 64.59375 13.203125 64.796875 
L 13 64.5 
C 13.796875 58.796875 14 52 14 44.5 
z
" id="LinBiolinumO-74"/>
       <path d="M 36.5 9.203125 
L 36.90625 8.90625 
L 37.40625 0 
C 37.40625 -0.203125 37.5 -0.296875 37.796875 -0.296875 
C 39.09375 -0.203125 40.296875 0 41.703125 0 
C 43 0 44.90625 -0.09375 46.203125 -0.296875 
L 46.40625 0 
C 45.59375 4.296875 44.703125 11.703125 44.703125 19.203125 
L 44.703125 24.90625 
C 44.703125 32.40625 44.796875 37.59375 45.59375 42.90625 
L 45.40625 43.203125 
C 44.203125 43 41.90625 42.90625 40.703125 42.90625 
C 39.5 42.90625 37.203125 43 36 43.203125 
L 35.796875 42.90625 
C 36.5 37.09375 36.703125 32.5 36.703125 24.90625 
L 36.703125 15.09375 
C 33.59375 9.90625 27.90625 4.59375 23 4.59375 
C 19.5 4.59375 16.296875 5.703125 16.296875 15 
L 16.296875 24.90625 
C 16.296875 32.40625 16.40625 37.59375 17.203125 42.90625 
L 17 43.203125 
C 15.796875 43 13.5 42.90625 12.296875 42.90625 
C 11.09375 42.90625 8.796875 43 7.59375 43.203125 
L 7.40625 42.90625 
C 8.203125 37.203125 8.296875 32.5 8.296875 24.90625 
L 8.296875 12.90625 
C 8.296875 6 11.5 -1 21.40625 -1 
C 27.59375 -1 33.203125 4.09375 36.5 9.203125 
z
" id="LinBiolinumO-117"/>
       <path d="M 31 22.5 
L 30.59375 10.59375 
C 30.59375 9.296875 30 8.59375 29.203125 8 
C 26.40625 5.90625 23 4.09375 20 4.09375 
C 15.5 4.09375 12.59375 7.09375 12.59375 10.203125 
C 12.59375 14.703125 14.703125 18.09375 22.5 20.203125 
z
M 31 4.796875 
C 32.09375 0.796875 35.09375 -1 38.796875 -1 
C 41.296875 -1 44.40625 -0.40625 46.703125 2.09375 
L 46 4.5 
C 44.90625 4.09375 44 4 43.296875 4 
C 42.296875 4 41 4.203125 40.296875 4.796875 
C 39.296875 5.703125 38.703125 8.09375 38.703125 12.59375 
C 38.703125 15.5 39 26.59375 39 27.703125 
C 39 41.203125 30.09375 43.90625 22.5 43.90625 
C 14.90625 43.90625 10.296875 40.203125 7.796875 38.09375 
L 7.5 37.703125 
L 9.203125 31 
L 10.5 30.90625 
C 13.296875 35.40625 16.703125 39.40625 21.5 39.40625 
C 25.09375 39.40625 31.09375 38.90625 31.09375 27.59375 
C 31.09375 26.90625 30.703125 26.5 30.40625 26.40625 
L 21.09375 24.296875 
C 10.90625 22 4.5 16.59375 4.5 9.796875 
C 4.5 2.40625 9.59375 -1 17 -1 
C 22.5 -1 25.296875 0.296875 30.59375 4.796875 
z
" id="LinBiolinumO-97"/>
       <path d="M 9 20 
C 9 12.5 8.796875 5.296875 8.09375 0 
L 8.296875 -0.296875 
C 9.5 -0.09375 11.796875 0 13 0 
C 14.203125 0 16.5 -0.09375 17.703125 -0.296875 
L 17.90625 0 
C 17.09375 5.703125 17 12.40625 17 20 
L 17 50 
C 17 57.5 17.40625 62.40625 17.90625 68.796875 
C 17.90625 69.5 17.59375 69.796875 17 69.796875 
C 14.40625 68.796875 12.296875 68.09375 8.296875 67.796875 
L 8.09375 67.5 
C 8.796875 63.203125 9 55.796875 9 48.203125 
z
" id="LinBiolinumO-108"/>
      </defs>
      <g style="fill:#808080;" transform="translate(32.039062 114.921866)scale(0.1 -0.1)">
       <use xlink:href="#LinBiolinumO-74"/>
       <use x="31.999985" xlink:href="#LinBiolinumO-111"/>
       <use x="81.999969" xlink:href="#LinBiolinumO-117"/>
       <use x="135.699966" xlink:href="#LinBiolinumO-114"/>
       <use x="171.199951" xlink:href="#LinBiolinumO-110"/>
       <use x="225.099945" xlink:href="#LinBiolinumO-97"/>
       <use x="273.199936" xlink:href="#LinBiolinumO-108"/>
      </g>
     </g>
    </g>
    <g id="ytick_5">
     <g id="line2d_5"/>
     <g id="text_4">
      <!-- Letters -->
      <defs>
       <path d="M 19.09375 44.5 
C 19.09375 52 19.296875 59.203125 20.09375 64.5 
L 20 64.796875 
C 18.796875 64.59375 16 64.5 14.796875 64.5 
C 13.59375 64.5 10.90625 64.59375 9.703125 64.796875 
L 9.5 64.5 
C 10.296875 58.796875 10.5 52 10.5 44.5 
L 10.5 20 
C 10.5 12.5 10.296875 5.40625 9.5 0 
L 9.59375 -0.296875 
C 9.59375 -0.296875 11.40625 0 14.796875 0 
L 42.09375 0 
C 44.203125 0 46.5 -0.09375 48.09375 -0.296875 
L 48.296875 0 
C 48.203125 1.40625 48.09375 3.40625 48.09375 4.40625 
C 48.09375 5.40625 48.203125 7.09375 48.296875 7.90625 
L 48.09375 8.296875 
C 48.09375 8.296875 33.296875 6.09375 19.90625 6.09375 
C 19.203125 8.5 19.09375 18.296875 19.09375 20 
z
" id="LinBiolinumO-76"/>
       <path d="M 5 10.09375 
L 3.296875 1.703125 
C 9 -0.296875 14.59375 -1 18.40625 -1 
C 32.203125 -1 35.40625 7.203125 35.40625 12.703125 
C 35.40625 20.90625 28.90625 24.09375 21.796875 25.796875 
C 18 26.703125 12.5 28.59375 12.5 33.59375 
C 12.5 37.703125 15.796875 39.90625 20.09375 39.90625 
C 25.296875 39.90625 28.5 35.796875 30.796875 33.09375 
L 32.203125 33.203125 
L 34.203125 40.59375 
L 34 40.90625 
C 31.09375 42.40625 25.59375 43.90625 20.5 43.90625 
C 13.09375 43.90625 5.40625 40 5.40625 31.703125 
C 5.40625 23.703125 11.296875 21 17.40625 19.40625 
C 23.203125 17.796875 27.5 16.203125 27.5 11.296875 
C 27.5 6 23.59375 3 18.296875 3 
C 13.5 3 9.296875 6.296875 6.5 10.203125 
z
" id="LinBiolinumO-115"/>
      </defs>
      <g style="fill:#808080;" transform="translate(33.360938 99.793851)scale(0.1 -0.1)">
       <use xlink:href="#LinBiolinumO-76"/>
       <use x="51.499985" xlink:href="#LinBiolinumO-101"/>
       <use x="96.799973" xlink:href="#LinBiolinumO-116"/>
       <use x="130.799957" xlink:href="#LinBiolinumO-116"/>
       <use x="164.799942" xlink:href="#LinBiolinumO-101"/>
       <use x="210.09993" xlink:href="#LinBiolinumO-114"/>
       <use x="245.599915" xlink:href="#LinBiolinumO-115"/>
      </g>
     </g>
    </g>
    <g id="ytick_6">
     <g id="line2d_6"/>
     <g id="text_5">
      <!-- Non-fiction -->
      <defs>
       <path d="M 10.796875 64.5 
C 11.703125 45.5 11.40625 15.90625 9.796875 0 
L 10 -0.296875 
C 11.203125 -0.09375 12.296875 0 13.5 0 
C 14.703125 0 15.796875 -0.09375 17 -0.296875 
L 17.203125 0 
C 16.40625 5.703125 16.203125 12.5 16.203125 20 
L 16.203125 43.90625 
C 16.203125 50 16.296875 50.296875 20.09375 45.5 
L 55 1.40625 
C 56.09375 -0.09375 57.703125 -1 59.296875 -1 
C 60.703125 -1 61.09375 0.203125 61.203125 2.09375 
C 61.703125 24.90625 61.59375 42.296875 63.203125 64.5 
L 63 64.796875 
C 61.796875 64.59375 60.703125 64.5 59.5 64.5 
C 58.296875 64.5 57.203125 64.59375 56 64.796875 
L 55.796875 64.5 
C 56.59375 58.796875 56.796875 52 56.796875 44.5 
L 56.796875 17.796875 
C 56.59375 12.296875 55.203125 14.59375 50.90625 20.296875 
L 16.59375 64.703125 
C 16.59375 64.703125 15.59375 64.5 15.203125 64.5 
C 11.796875 64.5 11 64.796875 11 64.796875 
z
" id="LinBiolinumO-78"/>
       <path d="M 27.40625 23.59375 
C 28.703125 23.59375 30.09375 26.09375 30.09375 27.203125 
C 30.09375 28.09375 29.703125 29 28.703125 29 
L 5.796875 29 
C 4.59375 29 3.296875 26.90625 3.296875 25.296875 
C 3.296875 24.40625 3.90625 23.59375 4.796875 23.59375 
z
" id="LinBiolinumO-45"/>
       <path d="M 9.90625 42.90625 
C 7.703125 42.90625 5.40625 42.90625 4.09375 43.09375 
C 3.40625 41.40625 2.796875 40.5 1.90625 39 
L 2.40625 38.296875 
C 4.203125 38.40625 7.5 38.5 9.796875 38.5 
L 9.90625 38.5 
L 9.90625 19.90625 
C 9.90625 12.40625 9.703125 5.296875 8.90625 0 
L 9.09375 -0.296875 
C 10.296875 -0.09375 12.703125 0 13.90625 0 
C 15.09375 0 17.5 -0.09375 18.703125 -0.296875 
L 18.90625 0 
C 18 5.703125 17.90625 12.40625 17.90625 19.90625 
L 17.90625 38.5 
L 21.296875 38.5 
C 23.703125 38.5 27.09375 38.40625 28.5 38.296875 
C 28.796875 39.90625 29.09375 40.90625 29.703125 42.40625 
L 29.203125 43.09375 
C 27.5 43 24.5 42.90625 22.203125 42.90625 
L 17.90625 42.90625 
L 17.90625 43.796875 
C 17.90625 47.40625 17.40625 52.59375 17.40625 54.40625 
C 17.40625 59.90625 20.90625 63.703125 26.703125 63.703125 
C 29.203125 63.703125 31.40625 62.203125 32.5 60.203125 
L 33.59375 60.296875 
C 34.296875 63 35.296875 66.296875 36.40625 68.5 
L 36.296875 68.796875 
C 35.5 69.296875 33.703125 69.796875 31.796875 69.796875 
C 25.5 69.796875 19.09375 66.796875 15.40625 62.09375 
C 11.59375 57.296875 9.90625 52.59375 9.90625 46.796875 
z
" id="LinBiolinumO-102"/>
      </defs>
      <g style="fill:#808080;" transform="translate(14.557812 84.665836)scale(0.1 -0.1)">
       <use xlink:href="#LinBiolinumO-78"/>
       <use x="71.799988" xlink:href="#LinBiolinumO-111"/>
       <use x="121.799973" xlink:href="#LinBiolinumO-110"/>
       <use x="175.699966" xlink:href="#LinBiolinumO-45"/>
       <use x="208.999954" xlink:href="#LinBiolinumO-102"/>
       <use x="240.399948" xlink:href="#LinBiolinumO-105"/>
       <use x="266.399933" xlink:href="#LinBiolinumO-99"/>
       <use x="309.299927" xlink:href="#LinBiolinumO-116"/>
       <use x="343.299911" xlink:href="#LinBiolinumO-105"/>
       <use x="369.299896" xlink:href="#LinBiolinumO-111"/>
       <use x="419.299881" xlink:href="#LinBiolinumO-110"/>
      </g>
     </g>
    </g>
    <g id="ytick_7">
     <g id="line2d_7"/>
     <g id="text_6">
      <!-- Technical -->
      <defs>
       <path d="M 22.703125 44.5 
L 22.703125 20 
C 22.703125 12.5 22.5 5.40625 21.703125 0 
L 21.90625 -0.296875 
C 23.09375 -0.09375 25.796875 0 27 0 
C 28.203125 0 30.90625 -0.09375 32.09375 -0.296875 
L 32.296875 0 
C 31.5 5.703125 31.296875 12.5 31.296875 20 
L 31.296875 44.5 
C 31.296875 46.203125 31.40625 56.5 32.09375 58.90625 
C 45.5 58.90625 52.296875 57.5 52.296875 57.5 
L 52.5 57.90625 
C 52.296875 59.40625 52.296875 61.703125 52.5 64.5 
L 52.296875 64.796875 
C 50.703125 64.59375 48.40625 64.5 46.296875 64.5 
L 7.703125 64.5 
C 5.59375 64.5 3.296875 64.59375 1.703125 64.796875 
L 1.5 64.5 
C 1.703125 61.703125 1.703125 59.40625 1.5 57.90625 
L 1.703125 57.5 
C 1.703125 57.5 8.5 58.90625 21.90625 58.90625 
C 22.59375 56.5 22.703125 46.203125 22.703125 44.5 
z
" id="LinBiolinumO-84"/>
       <path d="M 17 35.203125 
L 17 50.09375 
C 17 57.5 17.40625 62.59375 17.90625 68.796875 
C 17.90625 69.5 17.59375 69.796875 17 69.796875 
C 14.40625 68.796875 12.296875 68.09375 8.296875 67.796875 
L 8.09375 67.5 
C 8.796875 63.203125 9 55.703125 9 48.09375 
L 9 18 
C 9 10.5 8.796875 5.59375 8.09375 0 
L 8.296875 -0.296875 
C 9.5 -0.09375 11.796875 0 13 0 
C 14.203125 0 16.5 -0.09375 17.703125 -0.296875 
L 17.90625 0 
C 17.09375 5.703125 17 10.40625 17 18 
L 17 29.703125 
C 22.09375 35.703125 27.90625 37.90625 31.5 37.90625 
C 36.59375 37.90625 38.703125 35.90625 38.703125 27.796875 
L 38.703125 18 
C 38.703125 10.5 38.59375 5.296875 37.796875 0 
L 38 -0.296875 
C 39.203125 -0.09375 41.5 0 42.703125 0 
C 43.90625 0 46.203125 -0.09375 47.40625 -0.296875 
L 47.59375 0 
C 46.796875 5.703125 46.703125 10.40625 46.703125 18 
C 46.703125 21.203125 46.90625 24.90625 46.90625 28.09375 
C 46.90625 38.5 43.5 43.90625 34.5 43.90625 
C 30.703125 43.90625 23.59375 42.40625 17.203125 34.90625 
z
" id="LinBiolinumO-104"/>
      </defs>
      <g style="fill:#808080;" transform="translate(22.557812 69.537821)scale(0.1 -0.1)">
       <use xlink:href="#LinBiolinumO-84"/>
       <use x="53.999985" xlink:href="#LinBiolinumO-101"/>
       <use x="99.299973" xlink:href="#LinBiolinumO-99"/>
       <use x="142.199966" xlink:href="#LinBiolinumO-104"/>
       <use x="197.09996" xlink:href="#LinBiolinumO-110"/>
       <use x="250.999954" xlink:href="#LinBiolinumO-105"/>
       <use x="276.999939" xlink:href="#LinBiolinumO-99"/>
       <use x="319.899933" xlink:href="#LinBiolinumO-97"/>
       <use x="367.999924" xlink:href="#LinBiolinumO-108"/>
      </g>
     </g>
    </g>
    <g id="ytick_8">
     <g id="line2d_8"/>
     <g id="text_7">
      <!-- Travel guides -->
      <defs>
       <path id="LinBiolinumO-32"/>
       <path d="M 10.09375 -10.40625 
C 10.09375 -7.09375 13.09375 -3.40625 16.59375 -1.5 
C 19.5 -1.5 24.09375 -1.203125 25.5 -1.203125 
C 30.296875 -1.203125 33.296875 -1.296875 36.09375 -2.90625 
C 39 -4.59375 40 -7.5 40 -10.09375 
C 40 -16.203125 31.796875 -19.40625 23.203125 -19.40625 
C 16.703125 -19.40625 10.09375 -17.203125 10.09375 -10.40625 
z
M 39 28.5 
C 39 35.40625 36.296875 38.59375 33.90625 40.09375 
C 36.90625 39.90625 40.203125 39.5 44.40625 39.09375 
L 44.703125 39.40625 
C 44.5 40.296875 44.40625 41.09375 44.40625 42 
C 44.40625 42.90625 44.5 43.703125 44.703125 44.59375 
L 44.40625 44.90625 
C 39.59375 44.40625 36 43.40625 28.59375 43 
C 26.796875 43.59375 24.59375 43.90625 22.5 43.90625 
C 14.59375 43.90625 5.5 38.59375 5.5 28.703125 
C 5.5 21.203125 9.796875 17.796875 12.59375 16.203125 
C 9.703125 14.203125 6.203125 11.296875 6.203125 7.90625 
C 6.203125 3.796875 8.59375 0.203125 13.90625 -0.796875 
C 11.203125 -1.90625 8 -3.796875 5.5 -5.796875 
C 4.203125 -7.703125 3.203125 -10.59375 3.203125 -12.40625 
C 3.203125 -20.296875 11.796875 -23.703125 22.40625 -23.703125 
C 38 -23.703125 47.296875 -17.203125 47.296875 -7.796875 
C 47.296875 -3.40625 45.90625 -0.296875 43.09375 2.09375 
C 39.296875 5.296875 32.5 5.40625 29 5.40625 
C 27.296875 5.40625 23.296875 5.203125 21 4.90625 
C 19.59375 4.796875 18.59375 4.703125 18.09375 4.703125 
C 15.296875 4.703125 12.296875 5.09375 12.296875 9.40625 
C 12.296875 11.40625 12.796875 13.09375 15 15 
C 16.296875 14.296875 19.296875 13.59375 22.40625 13.59375 
C 32.796875 13.59375 39 20.59375 39 28.5 
z
M 31.203125 28.40625 
C 31.203125 22.296875 28.703125 17.59375 22.703125 17.59375 
C 15.5 17.59375 13.296875 22.296875 13.296875 29.203125 
C 13.296875 35.796875 16.296875 40.09375 22.09375 40.09375 
C 28.59375 40.09375 31.203125 35.5 31.203125 28.40625 
z
" id="LinBiolinumO-103"/>
       <path d="M 36.09375 11.296875 
C 32.40625 6.59375 27.796875 4.203125 23.796875 4.203125 
C 18.40625 4.203125 13.796875 9.59375 13.796875 22.09375 
C 13.796875 37.09375 21.703125 39.90625 26.59375 39.90625 
C 31.296875 39.90625 33.703125 37.90625 36.09375 34.09375 
z
M 36.09375 5.796875 
L 36.296875 5.796875 
L 36.796875 0 
C 36.796875 -0.203125 37.09375 -0.296875 37.703125 -0.296875 
C 39 -0.203125 39.703125 0 41.09375 0 
C 42.40625 0 44.296875 -0.09375 45.59375 -0.296875 
L 45.796875 0 
C 45 4.296875 44.09375 11.703125 44.09375 19.203125 
L 44.09375 50 
C 44.09375 57.40625 44.5 62.59375 45 68.796875 
C 45 69.5 44.703125 69.796875 44.09375 69.796875 
C 41.5 68.796875 39.40625 68.09375 35.40625 67.796875 
L 35.203125 67.5 
C 35.90625 63.203125 36.09375 55.796875 36.09375 48.203125 
L 36.09375 41.703125 
C 33.796875 43 29.703125 43.90625 27.703125 43.90625 
C 14.59375 43.90625 5.09375 34.90625 5.09375 21.296875 
C 5.09375 9 12.40625 -1 23.203125 -1 
C 28 -1 32.5 1.09375 36.09375 5.796875 
z
" id="LinBiolinumO-100"/>
      </defs>
      <g style="fill:#808080;" transform="translate(7.2 54.409807)scale(0.1 -0.1)">
       <use xlink:href="#LinBiolinumO-84"/>
       <use x="53.999985" xlink:href="#LinBiolinumO-114"/>
       <use x="89.499969" xlink:href="#LinBiolinumO-97"/>
       <use x="137.59996" xlink:href="#LinBiolinumO-118"/>
       <use x="183.799957" xlink:href="#LinBiolinumO-101"/>
       <use x="229.099945" xlink:href="#LinBiolinumO-108"/>
       <use x="254.299942" xlink:href="#LinBiolinumO-32"/>
       <use x="279.299927" xlink:href="#LinBiolinumO-103"/>
       <use x="329.199921" xlink:href="#LinBiolinumO-117"/>
       <use x="382.899918" xlink:href="#LinBiolinumO-105"/>
       <use x="408.899902" xlink:href="#LinBiolinumO-100"/>
       <use x="461.899887" xlink:href="#LinBiolinumO-101"/>
       <use x="507.199875" xlink:href="#LinBiolinumO-115"/>
      </g>
     </g>
    </g>
    <g id="ytick_9">
     <g id="line2d_9"/>
     <g id="text_8">
      <!-- Face-to-face -->
      <g style="fill:#808080;" transform="translate(11.379688 39.281792)scale(0.1 -0.1)">
       <use xlink:href="#LinBiolinumO-70"/>
       <use x="50.399994" xlink:href="#LinBiolinumO-97"/>
       <use x="98.499985" xlink:href="#LinBiolinumO-99"/>
       <use x="141.399979" xlink:href="#LinBiolinumO-101"/>
       <use x="186.699966" xlink:href="#LinBiolinumO-45"/>
       <use x="219.999954" xlink:href="#LinBiolinumO-116"/>
       <use x="253.999939" xlink:href="#LinBiolinumO-111"/>
       <use x="303.999924" xlink:href="#LinBiolinumO-45"/>
       <use x="337.299911" xlink:href="#LinBiolinumO-102"/>
       <use x="368.699905" xlink:href="#LinBiolinumO-97"/>
       <use x="416.799896" xlink:href="#LinBiolinumO-99"/>
       <use x="459.69989" xlink:href="#LinBiolinumO-101"/>
      </g>
     </g>
    </g>
    <g id="ytick_10">
     <g id="line2d_10"/>
     <g id="text_9">
      <!-- Telephone -->
      <defs>
       <path d="M 16.203125 29.40625 
C 18.40625 34.703125 24.296875 39.296875 28.203125 39.296875 
C 35 39.296875 38.5 33.09375 38.5 21.796875 
C 38.5 13.59375 36.203125 3 25.5 3 
C 23.90625 3 19.703125 3.40625 16.203125 7.5 
z
M 16.203125 35.203125 
L 16.203125 42.5 
C 16.203125 43.203125 16 43.5 15.59375 43.5 
C 13.296875 43 9.703125 42.90625 7.5 43.203125 
L 7.296875 42.90625 
C 8 38.5 8.203125 31 8.203125 23.5 
L 8.203125 -3.203125 
C 8.203125 -10.703125 8 -17.90625 7.296875 -23.203125 
L 7.5 -23.5 
C 8.703125 -23.296875 11 -23.203125 12.203125 -23.203125 
C 13.40625 -23.203125 15.703125 -23.296875 16.90625 -23.5 
L 17.09375 -23.203125 
C 16.296875 -17.5 16.203125 -10.796875 16.203125 -3.203125 
L 16.203125 1.203125 
C 18.796875 -0.203125 22.5 -1 26.09375 -1 
C 39.296875 -1 47.296875 9 47.296875 23.09375 
C 47.296875 33.703125 41.09375 43.90625 29.90625 43.90625 
C 26 43.90625 21 41.90625 16.40625 34.90625 
z
" id="LinBiolinumO-112"/>
      </defs>
      <g style="fill:#808080;" transform="translate(19.259375 24.153777)scale(0.1 -0.1)">
       <use xlink:href="#LinBiolinumO-84"/>
       <use x="53.999985" xlink:href="#LinBiolinumO-101"/>
       <use x="99.299973" xlink:href="#LinBiolinumO-108"/>
       <use x="124.499969" xlink:href="#LinBiolinumO-101"/>
       <use x="169.799957" xlink:href="#LinBiolinumO-112"/>
       <use x="222.099945" xlink:href="#LinBiolinumO-104"/>
       <use x="276.999939" xlink:href="#LinBiolinumO-111"/>
       <use x="326.999924" xlink:href="#LinBiolinumO-110"/>
       <use x="380.899918" xlink:href="#LinBiolinumO-101"/>
      </g>
     </g>
    </g>
   </g>
   <g id="text_10">
    <!-- 198k -->
    <defs>
     <path d="M 32.59375 18.90625 
L 32.59375 44.296875 
C 32.59375 55.09375 33.203125 59.09375 33.40625 60.5 
C 33.40625 61 33.09375 61 32.703125 61 
C 26.203125 58.90625 18.59375 55 10.796875 52.59375 
L 11.40625 49.703125 
C 15.90625 50.203125 20.796875 51.296875 22.796875 51.296875 
C 24.59375 51.296875 24.59375 47.296875 24.59375 43.703125 
L 24.59375 18.90625 
C 24.59375 11.09375 24.5 5.703125 23.796875 0 
L 23.90625 -0.296875 
C 23.90625 -0.296875 26.703125 0 28.5 0 
C 30.5 0 33.296875 -0.296875 33.296875 -0.296875 
L 33.5 0 
C 32.796875 6 32.59375 11 32.59375 18.90625 
z
" id="LinBiolinumO-49"/>
     <path d="M 33.296875 32.296875 
C 29.40625 28.296875 25.40625 28.203125 23.203125 28.203125 
C 13.09375 28.203125 11.59375 37.796875 11.59375 42.703125 
C 11.59375 53.703125 15.703125 57.296875 20.5 57.296875 
C 25.796875 57.296875 33.40625 53.796875 33.40625 36 
C 33.40625 35 33.40625 33.296875 33.296875 32.296875 
z
M 6 1.703125 
L 6.296875 -1.09375 
C 16.59375 -0.5 23.90625 2.296875 30.703125 9.203125 
C 38 16.5 41.40625 26 41.40625 35.703125 
C 41.40625 56.703125 29.296875 60.90625 21.59375 60.90625 
C 7 60.90625 2.796875 49.203125 2.796875 42 
C 2.796875 37.203125 5.5 24.203125 21.09375 24.203125 
C 25.09375 24.203125 30.703125 26.40625 33.09375 29.40625 
C 32 20.90625 28.40625 13.796875 23.59375 9.09375 
C 18.5 4.203125 12.90625 2.40625 6 1.703125 
z
" id="LinBiolinumO-57"/>
     <path d="M 23.5 57.703125 
C 30 57.703125 32.40625 53.296875 32.40625 48.59375 
C 32.40625 43.203125 27.09375 38.40625 24.296875 36.40625 
L 21.203125 38.203125 
C 14.90625 42.296875 14.203125 46 14.203125 49.09375 
C 14.203125 53.796875 17.5 57.703125 23.5 57.703125 
z
M 39.796875 48.5 
C 39.796875 55.703125 34 61 24.09375 61 
C 13.90625 61 6.703125 55 6.703125 47.296875 
C 6.703125 41.703125 9.796875 36.703125 15.5 33.40625 
L 17.5 32.296875 
C 15 30.40625 13 28.796875 10.5 26.59375 
C 6.40625 23 3.90625 18.5 3.90625 14.59375 
C 3.90625 4.40625 12 -0.90625 22.59375 -0.90625 
C 35.703125 -0.90625 42.796875 8.59375 42.796875 16.203125 
C 42.796875 22 39.59375 26.40625 34.09375 30 
L 28 34 
C 32.5 37 39.796875 42.09375 39.796875 48.5 
z
M 22.796875 2.40625 
C 18.203125 2.40625 11.703125 5.59375 11.703125 14.59375 
C 11.703125 17.59375 12.5 24.296875 21.09375 30 
L 25.703125 27.09375 
C 31.90625 23.203125 34.5 18.796875 34.5 14.09375 
C 34.5 4.40625 27.40625 2.40625 22.796875 2.40625 
z
" id="LinBiolinumO-56"/>
     <path d="M 9 20 
C 9 12.5 8.796875 5.296875 8.09375 0 
L 8.296875 -0.296875 
C 9.5 -0.09375 11.796875 0 13 0 
C 14.203125 0 16.5 -0.09375 17.703125 -0.296875 
L 17.90625 0 
C 17.09375 5.703125 17 12.40625 17 20 
L 17 21 
C 17.796875 20.90625 20.203125 20.59375 21.09375 19.90625 
C 27.59375 13.09375 30 9.5 36.796875 -0.296875 
C 38.296875 -0.203125 41.703125 0 43.40625 0 
C 45 0 48.5 -0.203125 49.40625 -0.296875 
L 49.59375 0 
C 42.09375 7.796875 36.796875 12.203125 27.296875 23.796875 
C 31.203125 27.796875 41 37.296875 47.5 42.90625 
L 47.296875 43.203125 
C 45.40625 42.90625 39.90625 42.90625 37.203125 42.90625 
C 32.796875 36.59375 25.296875 28.5 21.40625 25.5 
C 20.09375 24.5 18.296875 24.09375 17 24 
L 17 50 
C 17 57.5 17.40625 62.40625 17.90625 68.796875 
C 17.90625 69.5 17.59375 69.796875 17 69.796875 
C 14.40625 68.796875 12.296875 68.09375 8.296875 67.796875 
L 8.09375 67.5 
C 8.796875 63.203125 9 55.796875 9 48.203125 
z
" id="LinBiolinumO-107"/>
    </defs>
    <g style="fill:#808080;" transform="translate(290.379864 39.771636)scale(0.1 -0.1)">
     <use xlink:href="#LinBiolinumO-49"/>
     <use x="46.499985" xlink:href="#LinBiolinumO-57"/>
     <use x="92.999969" xlink:href="#LinBiolinumO-56"/>
     <use x="139.499954" xlink:href="#LinBiolinumO-107"/>
    </g>
   </g>
   <g id="text_11">
    <!-- 3.0M -->
    <defs>
     <path d="M 20.90625 2.90625 
C 13 2.90625 11.90625 5.90625 9.203125 11.703125 
L 7.703125 11.59375 
L 5.5 4.09375 
L 5.796875 3.796875 
C 8.40625 1.59375 12.703125 -1 20.703125 -1 
C 29.203125 -1 42.59375 4.796875 42.59375 18 
C 42.59375 25.90625 36.5 31.5 28.796875 32.203125 
L 28.796875 32.703125 
C 34 33.90625 40.59375 39.703125 40.59375 48 
C 40.59375 55.203125 34.40625 61 24.5 61 
C 16.796875 61 11.203125 57.59375 8.703125 55.40625 
L 8.40625 55.09375 
L 10.5 48.703125 
L 12 48.59375 
C 14.40625 54.203125 17.59375 57.09375 23.59375 57.09375 
C 27.5 57.09375 31.90625 53 31.90625 46.5 
C 31.90625 42.09375 30.40625 38.90625 28.09375 36.703125 
C 26.09375 34.796875 23.203125 33.90625 19.796875 33.90625 
C 18.59375 33.90625 17.5 34 16.09375 34.203125 
L 16.09375 29.796875 
C 17.296875 30 19.40625 30 20.296875 30 
C 23.5 30 27.296875 29.09375 30.09375 26.796875 
C 32.703125 24.59375 34 21.09375 34 17.203125 
C 34 5.09375 24.5 2.90625 20.90625 2.90625 
z
" id="LinBiolinumO-51"/>
     <path d="M 5.40625 4.40625 
C 6.203125 1 7.59375 -0.296875 10.796875 -1 
L 11.203125 -1 
C 14 -0.296875 15.5 1.09375 16.59375 4.40625 
L 16.59375 4.796875 
C 15.59375 7.59375 14.09375 9.09375 11.203125 10.203125 
L 10.796875 10.203125 
C 7.703125 8.90625 6.296875 7.40625 5.40625 4.796875 
z
" id="LinBiolinumO-46"/>
     <path d="M 23.296875 57.09375 
C 25 57.09375 26.59375 56.5 27.703125 55.5 
C 30.796875 52.90625 33.5 45.09375 33.5 31.703125 
C 33.5 22.5 33.203125 17.296875 31.796875 12.203125 
C 29.59375 3.90625 24.703125 2.90625 22.90625 2.90625 
C 13.59375 2.90625 12.5 20 12.5 28.703125 
C 12.5 53.40625 18.703125 57.09375 23.296875 57.09375 
z
M 22.796875 -1 
C 30.5 -1 42.09375 7.5 42.09375 30.90625 
C 42.09375 46.5 36.40625 54.203125 32.796875 57.5 
C 30.09375 60 26.90625 61 23.296875 61 
C 13.296875 61 3.90625 48.59375 3.90625 28.90625 
C 3.90625 12.703125 10.40625 -1 22.796875 -1 
z
" id="LinBiolinumO-48"/>
     <path d="M 19.296875 66.203125 
C 15.796875 46 10.296875 18.40625 6.40625 -0.296875 
C 7.5 0 8.5 0 9.703125 0 
C 10.796875 0 11.59375 0 12.703125 -0.296875 
C 14.203125 10.203125 17.59375 32.5 20 47.59375 
L 20.5 47.59375 
C 28 31.703125 35.09375 15.5 41.5 0 
L 43.40625 0 
C 50.59375 16.40625 57.703125 31.59375 65.59375 47.296875 
L 65.90625 47.203125 
C 68 31.5 70 16.203125 71.5 -0.296875 
C 73 0 74.90625 0 76.40625 0 
C 77.90625 0 80.5 0 82 -0.296875 
C 78.40625 21.09375 75.40625 41.90625 72.59375 66.203125 
L 70.09375 66.203125 
L 45.796875 16.59375 
L 45 16.59375 
C 37.09375 33 29.90625 49 22.59375 66.203125 
z
" id="LinBiolinumO-77"/>
    </defs>
    <g style="fill:#808080;" transform="translate(290.379864 24.643621)scale(0.1 -0.1)">
     <use xlink:href="#LinBiolinumO-51"/>
     <use x="46.499985" xlink:href="#LinBiolinumO-46"/>
     <use x="68.499969" xlink:href="#LinBiolinumO-48"/>
     <use x="114.999954" xlink:href="#LinBiolinumO-77"/>
    </g>
   </g>
   <g id="text_12">
    <!-- 61k -->
    <defs>
     <path d="M 12.703125 27.703125 
C 16.59375 31.703125 20.59375 31.796875 22.796875 31.796875 
C 32.90625 31.796875 34.40625 22.203125 34.40625 17.296875 
C 34.40625 6.296875 30.296875 2.703125 25.5 2.703125 
C 20.203125 2.703125 12.59375 6.203125 12.59375 24 
C 12.59375 25 12.59375 26.703125 12.703125 27.703125 
z
M 40 58.296875 
L 39.703125 61.09375 
C 29.40625 60.5 22.09375 57.703125 15.296875 50.796875 
C 8 43.5 4.59375 34 4.59375 24.296875 
C 4.59375 3.296875 16.703125 -0.90625 24.40625 -0.90625 
C 39 -0.90625 43.203125 10.796875 43.203125 18 
C 43.203125 22.796875 40.5 35.796875 24.90625 35.796875 
C 20.90625 35.796875 15.296875 33.59375 12.90625 30.59375 
C 14 39.09375 17.59375 46.203125 22.40625 50.90625 
C 27.5 55.796875 33.09375 57.59375 40 58.296875 
z
" id="LinBiolinumO-54"/>
    </defs>
    <g style="fill:#808080;" transform="translate(290.379864 145.667739)scale(0.1 -0.1)">
     <use xlink:href="#LinBiolinumO-54"/>
     <use x="46.499985" xlink:href="#LinBiolinumO-49"/>
     <use x="92.999969" xlink:href="#LinBiolinumO-107"/>
    </g>
   </g>
   <g id="text_13">
    <!-- 1.3M -->
    <g style="fill:#808080;" transform="translate(290.379864 130.539725)scale(0.1 -0.1)">
     <use xlink:href="#LinBiolinumO-49"/>
     <use x="46.499985" xlink:href="#LinBiolinumO-46"/>
     <use x="68.499969" xlink:href="#LinBiolinumO-51"/>
     <use x="114.999954" xlink:href="#LinBiolinumO-77"/>
    </g>
   </g>
   <g id="text_14">
    <!-- 4.8M -->
    <defs>
     <path d="M 28.59375 14.796875 
C 28.59375 7.09375 28.40625 5.09375 27.796875 0 
L 27.90625 -0.296875 
C 27.90625 -0.296875 31 0 32.59375 0 
C 34.203125 0 35.90625 -0.296875 36.796875 -0.296875 
C 36.90625 -0.296875 37 -0.09375 37 0 
C 36.59375 5.796875 36.40625 9 36.40625 14.796875 
L 41.40625 14.796875 
C 42.796875 14.796875 44.296875 17.09375 44.296875 18.203125 
C 44.296875 19.09375 43.796875 19.796875 42.796875 19.796875 
L 36.40625 19.796875 
L 36.40625 45.203125 
C 36.40625 48.5 36.5 55.40625 37 60 
C 37 60.203125 36.90625 60.40625 36.796875 60.40625 
C 35.90625 60.40625 34.40625 60 32.90625 60 
C 31.296875 60 29.5 60.40625 29.5 60.40625 
C 29.5 60.40625 29.09375 60.09375 29.09375 60 
C 23 51.59375 8.59375 29.59375 3.40625 20.703125 
C 2.40625 18.90625 2.09375 17.796875 2.09375 16.796875 
C 2.09375 15.296875 4.40625 14.796875 8 14.796875 
z
M 28.59375 51.203125 
L 28.59375 19.796875 
L 8.296875 19.796875 
z
" id="LinBiolinumO-52"/>
    </defs>
    <g style="fill:#808080;" transform="translate(290.379864 115.41171)scale(0.1 -0.1)">
     <use xlink:href="#LinBiolinumO-52"/>
     <use x="46.499985" xlink:href="#LinBiolinumO-46"/>
     <use x="68.499969" xlink:href="#LinBiolinumO-56"/>
     <use x="114.999954" xlink:href="#LinBiolinumO-77"/>
    </g>
   </g>
   <g id="text_15">
    <!-- 91k -->
    <g style="fill:#808080;" transform="translate(290.379864 100.283695)scale(0.1 -0.1)">
     <use xlink:href="#LinBiolinumO-57"/>
     <use x="46.499985" xlink:href="#LinBiolinumO-49"/>
     <use x="92.999969" xlink:href="#LinBiolinumO-107"/>
    </g>
   </g>
   <g id="text_16">
    <!-- 330k -->
    <g style="fill:#808080;" transform="translate(290.379864 85.15568)scale(0.1 -0.1)">
     <use xlink:href="#LinBiolinumO-51"/>
     <use x="46.499985" xlink:href="#LinBiolinumO-51"/>
     <use x="92.999969" xlink:href="#LinBiolinumO-48"/>
     <use x="139.499954" xlink:href="#LinBiolinumO-107"/>
    </g>
   </g>
   <g id="text_17">
    <!-- 3.7M -->
    <defs>
     <path d="M 34.5 52.5 
C 26.703125 33.203125 19.09375 14.296875 12.40625 -0.703125 
L 12.703125 -1.296875 
L 20 -0.90625 
C 25.703125 16.09375 31.203125 32.703125 42.40625 60 
L 40.703125 61 
C 39.203125 60.5 37.40625 60 34.296875 60 
C 19.40625 60 10.59375 60.09375 6.296875 60.703125 
C 6.5 59.203125 6.796875 58 6.796875 56.5 
C 6.796875 55 6.5 53.09375 6.296875 51.59375 
C 13.59375 52.59375 27.90625 52.703125 34.5 52.5 
z
" id="LinBiolinumO-55"/>
    </defs>
    <g style="fill:#808080;" transform="translate(290.379864 70.027665)scale(0.1 -0.1)">
     <use xlink:href="#LinBiolinumO-51"/>
     <use x="46.499985" xlink:href="#LinBiolinumO-46"/>
     <use x="68.499969" xlink:href="#LinBiolinumO-55"/>
     <use x="114.999954" xlink:href="#LinBiolinumO-77"/>
    </g>
   </g>
   <g id="text_18">
    <!-- 1.0M -->
    <g style="fill:#808080;" transform="translate(290.379864 54.89965)scale(0.1 -0.1)">
     <use xlink:href="#LinBiolinumO-49"/>
     <use x="46.499985" xlink:href="#LinBiolinumO-46"/>
     <use x="68.499969" xlink:href="#LinBiolinumO-48"/>
     <use x="114.999954" xlink:href="#LinBiolinumO-77"/>
    </g>
   </g>
   <g id="text_19">
    <!-- 14M words -->
    <defs>
     <path d="M 20.5 -0.40625 
C 21.5 -0.09375 22.796875 -0.09375 23.796875 -0.09375 
C 24.796875 -0.09375 26.5 -0.09375 27.40625 -0.40625 
C 30.09375 7.203125 33 15.5 36.203125 23.296875 
C 39.203125 15.5 42.40625 7.40625 45.296875 -0.296875 
C 46.296875 0 46.90625 0 47.90625 0 
C 48.90625 0 50.703125 0 51.59375 -0.296875 
C 56.5 11.5 64.5 30.703125 70.203125 43.203125 
C 69.296875 42.90625 66.90625 42.90625 65.90625 42.90625 
C 64.90625 42.90625 63.40625 42.90625 62.5 43.203125 
C 58.796875 31.40625 54.296875 18.59375 50.09375 9 
L 49.296875 9 
C 45.203125 20 42.09375 32.59375 39.796875 43.203125 
C 38.5 42.90625 36.203125 42.90625 34.796875 42.90625 
C 33.203125 42.90625 30.59375 42.90625 29 43.203125 
C 30.296875 39.09375 31.90625 34.703125 33.59375 30.09375 
C 31 22.59375 28.203125 15.09375 25.296875 8.90625 
L 24.703125 8.90625 
C 19.703125 20.296875 16.40625 31.59375 12.796875 43.09375 
C 11.5 42.796875 9.203125 42.796875 7.796875 42.796875 
C 6.203125 42.796875 3.59375 42.796875 2 43.09375 
C 8.703125 28.40625 14.90625 14.203125 20.5 -0.40625 
z
" id="LinBiolinumO-119"/>
    </defs>
    <g transform="translate(290.379864 160.795754)scale(0.1 -0.1)">
     <use xlink:href="#LinBiolinumO-49"/>
     <use x="46.499985" xlink:href="#LinBiolinumO-52"/>
     <use x="92.999969" xlink:href="#LinBiolinumO-77"/>
     <use x="181.59996" xlink:href="#LinBiolinumO-32"/>
     <use x="206.599945" xlink:href="#LinBiolinumO-119"/>
     <use x="278.799927" xlink:href="#LinBiolinumO-111"/>
     <use x="328.799911" xlink:href="#LinBiolinumO-114"/>
     <use x="364.299896" xlink:href="#LinBiolinumO-100"/>
     <use x="417.299881" xlink:href="#LinBiolinumO-115"/>
    </g>
   </g>
  </g>
 </g>
 <defs>
  <clipPath id="pa01b0bd98a">
   <rect height="163.08" width="223.2" x="65.379688" y="7.2"/>
  </clipPath>
 </defs>
</svg>
