<?xml version="1.0" encoding="utf-8" standalone="no"?>
<!DOCTYPE svg PUBLIC "-//W3C//DTD SVG 1.1//EN"
  "http://www.w3.org/Graphics/SVG/1.1/DTD/svg11.dtd">
<!-- Created with matplotlib (https://matplotlib.org/) -->
<svg height="216pt" version="1.1" viewBox="0 0 288 216" width="288pt" xmlns="http://www.w3.org/2000/svg" xmlns:xlink="http://www.w3.org/1999/xlink">
 <defs>
  <style type="text/css">
*{stroke-linecap:butt;stroke-linejoin:round;}
  </style>
 </defs>
 <g id="figure_1">
  <g id="patch_1">
   <path d="M 0 216 
L 288 216 
L 288 0 
L 0 0 
z
" style="fill:none;"/>
  </g>
  <g id="axes_1">
   <g id="patch_2">
    <path d="M 46.83148 173.853125 
L 277.2 173.853125 
L 277.2 13.158603 
L 46.83148 13.158603 
z
" style="fill:none;"/>
   </g>
   <g id="matplotlib.axis_1">
    <g id="xtick_1">
     <g id="line2d_1"/>
     <g id="text_1">
      <!-- $\mathdefault{10^{0}}$ -->
      <defs>
       <path d="M 32.59375 18.90625 
L 32.59375 44.296875 
C 32.59375 55.09375 33.203125 59.09375 33.40625 60.5 
C 33.40625 61 33.09375 61 32.703125 61 
C 26.203125 58.90625 18.59375 55 10.796875 52.59375 
L 11.40625 49.703125 
C 15.90625 50.203125 20.796875 51.296875 22.796875 51.296875 
C 24.59375 51.296875 24.59375 47.296875 24.59375 43.703125 
L 24.59375 18.90625 
C 24.59375 11.09375 24.5 5.703125 23.796875 0 
L 23.90625 -0.296875 
C 23.90625 -0.296875 26.703125 0 28.5 0 
C 30.5 0 33.296875 -0.296875 33.296875 -0.296875 
L 33.5 0 
C 32.796875 6 32.59375 11 32.59375 18.90625 
z
" id="LinBiolinumO-49"/>
       <path d="M 23.296875 57.09375 
C 25 57.09375 26.59375 56.5 27.703125 55.5 
C 30.796875 52.90625 33.5 45.09375 33.5 31.703125 
C 33.5 22.5 33.203125 17.296875 31.796875 12.203125 
C 29.59375 3.90625 24.703125 2.90625 22.90625 2.90625 
C 13.59375 2.90625 12.5 20 12.5 28.703125 
C 12.5 53.40625 18.703125 57.09375 23.296875 57.09375 
z
M 22.796875 -1 
C 30.5 -1 42.09375 7.5 42.09375 30.90625 
C 42.09375 46.5 36.40625 54.203125 32.796875 57.5 
C 30.09375 60 26.90625 61 23.296875 61 
C 13.296875 61 3.90625 48.59375 3.90625 28.90625 
C 3.90625 12.703125 10.40625 -1 22.796875 -1 
z
" id="LinBiolinumO-48"/>
      </defs>
      <g style="fill:#808080;" transform="translate(50.852776 184.332812)scale(0.1 -0.1)">
       <use transform="translate(0 0.057813)" xlink:href="#LinBiolinumO-49"/>
       <use transform="translate(46.499985 0.057813)" xlink:href="#LinBiolinumO-48"/>
       <use transform="translate(93.756024 30.3)scale(0.7)" xlink:href="#LinBiolinumO-48"/>
      </g>
     </g>
    </g>
    <g id="xtick_2">
     <g id="line2d_2"/>
     <g id="text_2">
      <!-- $\mathdefault{10^{1}}$ -->
      <g style="fill:#808080;" transform="translate(95.595839 184.332812)scale(0.1 -0.1)">
       <use transform="translate(0 0.057813)" xlink:href="#LinBiolinumO-49"/>
       <use transform="translate(46.499985 0.057813)" xlink:href="#LinBiolinumO-48"/>
       <use transform="translate(93.756024 30.3)scale(0.7)" xlink:href="#LinBiolinumO-49"/>
      </g>
     </g>
    </g>
    <g id="xtick_3">
     <g id="line2d_3"/>
     <g id="text_3">
      <!-- $\mathdefault{10^{2}}$ -->
      <defs>
       <path d="M 22.203125 55.296875 
C 27.40625 55.296875 32.703125 50.5 32.703125 43.40625 
C 32.703125 39.296875 31.5 34 28.90625 30.09375 
C 21.796875 19.40625 10.296875 9.296875 5.40625 4.703125 
C 5.296875 4.296875 5.203125 3.90625 5.203125 3.40625 
C 5.203125 1.90625 5.703125 0.296875 6.203125 -0.5 
C 13.59375 -0.296875 17.90625 0 25.203125 0 
C 32.40625 0 35.40625 -0.203125 42.5 -0.5 
C 42.40625 0.5 42.203125 1.703125 42.203125 2.796875 
C 42.203125 4.40625 42.296875 5.90625 42.703125 7.5 
C 37.09375 7 34 6.703125 24.40625 6.703125 
C 20.90625 6.703125 19 6.703125 16.203125 6.5 
C 16.203125 6.59375 16.09375 6.796875 16.09375 7 
C 16.09375 7.90625 17.203125 8.90625 17.90625 9.703125 
C 22.796875 14.40625 27.5 18.90625 34.09375 27.796875 
C 37.796875 32.703125 41.296875 39.09375 41.296875 44.796875 
C 41.296875 54.296875 34.90625 61 23.796875 61 
C 14.703125 61 8.796875 55.90625 6.59375 52.90625 
L 8.703125 46 
L 10 45.90625 
C 11.40625 48.90625 11.90625 50.90625 14.5 53 
C 16.5 54.59375 19.40625 55.296875 22.203125 55.296875 
z
" id="LinBiolinumO-50"/>
      </defs>
      <g style="fill:#808080;" transform="translate(140.338902 184.332812)scale(0.1 -0.1)">
       <use transform="translate(0 0.057813)" xlink:href="#LinBiolinumO-49"/>
       <use transform="translate(46.499985 0.057813)" xlink:href="#LinBiolinumO-48"/>
       <use transform="translate(93.756024 30.3)scale(0.7)" xlink:href="#LinBiolinumO-50"/>
      </g>
     </g>
    </g>
    <g id="xtick_4">
     <g id="line2d_4"/>
     <g id="text_4">
      <!-- $\mathdefault{10^{3}}$ -->
      <defs>
       <path d="M 20.90625 2.90625 
C 13 2.90625 11.90625 5.90625 9.203125 11.703125 
L 7.703125 11.59375 
L 5.5 4.09375 
L 5.796875 3.796875 
C 8.40625 1.59375 12.703125 -1 20.703125 -1 
C 29.203125 -1 42.59375 4.796875 42.59375 18 
C 42.59375 25.90625 36.5 31.5 28.796875 32.203125 
L 28.796875 32.703125 
C 34 33.90625 40.59375 39.703125 40.59375 48 
C 40.59375 55.203125 34.40625 61 24.5 61 
C 16.796875 61 11.203125 57.59375 8.703125 55.40625 
L 8.40625 55.09375 
L 10.5 48.703125 
L 12 48.59375 
C 14.40625 54.203125 17.59375 57.09375 23.59375 57.09375 
C 27.5 57.09375 31.90625 53 31.90625 46.5 
C 31.90625 42.09375 30.40625 38.90625 28.09375 36.703125 
C 26.09375 34.796875 23.203125 33.90625 19.796875 33.90625 
C 18.59375 33.90625 17.5 34 16.09375 34.203125 
L 16.09375 29.796875 
C 17.296875 30 19.40625 30 20.296875 30 
C 23.5 30 27.296875 29.09375 30.09375 26.796875 
C 32.703125 24.59375 34 21.09375 34 17.203125 
C 34 5.09375 24.5 2.90625 20.90625 2.90625 
z
" id="LinBiolinumO-51"/>
      </defs>
      <g style="fill:#808080;" transform="translate(185.081964 184.332812)scale(0.1 -0.1)">
       <use transform="translate(0 0.057813)" xlink:href="#LinBiolinumO-49"/>
       <use transform="translate(46.499985 0.057813)" xlink:href="#LinBiolinumO-48"/>
       <use transform="translate(93.756024 30.3)scale(0.7)" xlink:href="#LinBiolinumO-51"/>
      </g>
     </g>
    </g>
    <g id="xtick_5">
     <g id="line2d_5"/>
     <g id="text_5">
      <!-- $\mathdefault{10^{4}}$ -->
      <defs>
       <path d="M 28.59375 14.796875 
C 28.59375 7.09375 28.40625 5.09375 27.796875 0 
L 27.90625 -0.296875 
C 27.90625 -0.296875 31 0 32.59375 0 
C 34.203125 0 35.90625 -0.296875 36.796875 -0.296875 
C 36.90625 -0.296875 37 -0.09375 37 0 
C 36.59375 5.796875 36.40625 9 36.40625 14.796875 
L 41.40625 14.796875 
C 42.796875 14.796875 44.296875 17.09375 44.296875 18.203125 
C 44.296875 19.09375 43.796875 19.796875 42.796875 19.796875 
L 36.40625 19.796875 
L 36.40625 45.203125 
C 36.40625 48.5 36.5 55.40625 37 60 
C 37 60.203125 36.90625 60.40625 36.796875 60.40625 
C 35.90625 60.40625 34.40625 60 32.90625 60 
C 31.296875 60 29.5 60.40625 29.5 60.40625 
C 29.5 60.40625 29.09375 60.09375 29.09375 60 
C 23 51.59375 8.59375 29.59375 3.40625 20.703125 
C 2.40625 18.90625 2.09375 17.796875 2.09375 16.796875 
C 2.09375 15.296875 4.40625 14.796875 8 14.796875 
z
M 28.59375 51.203125 
L 28.59375 19.796875 
L 8.296875 19.796875 
z
" id="LinBiolinumO-52"/>
      </defs>
      <g style="fill:#808080;" transform="translate(229.825027 184.332812)scale(0.1 -0.1)">
       <use transform="translate(0 0.473438)" xlink:href="#LinBiolinumO-49"/>
       <use transform="translate(46.499985 0.473438)" xlink:href="#LinBiolinumO-48"/>
       <use transform="translate(93.756024 30.715625)scale(0.7)" xlink:href="#LinBiolinumO-52"/>
      </g>
     </g>
    </g>
    <g id="xtick_6">
     <g id="line2d_6"/>
    </g>
    <g id="xtick_7">
     <g id="line2d_7"/>
    </g>
    <g id="xtick_8">
     <g id="line2d_8"/>
    </g>
    <g id="xtick_9">
     <g id="line2d_9"/>
    </g>
    <g id="xtick_10">
     <g id="line2d_10"/>
    </g>
    <g id="xtick_11">
     <g id="line2d_11"/>
    </g>
    <g id="xtick_12">
     <g id="line2d_12"/>
    </g>
    <g id="xtick_13">
     <g id="line2d_13"/>
    </g>
    <g id="xtick_14">
     <g id="line2d_14"/>
    </g>
    <g id="xtick_15">
     <g id="line2d_15"/>
    </g>
    <g id="xtick_16">
     <g id="line2d_16"/>
    </g>
    <g id="xtick_17">
     <g id="line2d_17"/>
    </g>
    <g id="xtick_18">
     <g id="line2d_18"/>
    </g>
    <g id="xtick_19">
     <g id="line2d_19"/>
    </g>
    <g id="xtick_20">
     <g id="line2d_20"/>
    </g>
    <g id="xtick_21">
     <g id="line2d_21"/>
    </g>
    <g id="xtick_22">
     <g id="line2d_22"/>
    </g>
    <g id="xtick_23">
     <g id="line2d_23"/>
    </g>
    <g id="xtick_24">
     <g id="line2d_24"/>
    </g>
    <g id="xtick_25">
     <g id="line2d_25"/>
    </g>
    <g id="xtick_26">
     <g id="line2d_26"/>
    </g>
    <g id="xtick_27">
     <g id="line2d_27"/>
    </g>
    <g id="xtick_28">
     <g id="line2d_28"/>
    </g>
    <g id="xtick_29">
     <g id="line2d_29"/>
    </g>
    <g id="xtick_30">
     <g id="line2d_30"/>
    </g>
    <g id="xtick_31">
     <g id="line2d_31"/>
    </g>
    <g id="xtick_32">
     <g id="line2d_32"/>
    </g>
    <g id="xtick_33">
     <g id="line2d_33"/>
    </g>
    <g id="xtick_34">
     <g id="line2d_34"/>
    </g>
    <g id="xtick_35">
     <g id="line2d_35"/>
    </g>
    <g id="xtick_36">
     <g id="line2d_36"/>
    </g>
    <g id="xtick_37">
     <g id="line2d_37"/>
    </g>
    <g id="xtick_38">
     <g id="line2d_38"/>
    </g>
    <g id="xtick_39">
     <g id="line2d_39"/>
    </g>
    <g id="xtick_40">
     <g id="line2d_40"/>
    </g>
    <g id="xtick_41">
     <g id="line2d_41"/>
    </g>
    <g id="xtick_42">
     <g id="line2d_42"/>
    </g>
    <g id="xtick_43">
     <g id="line2d_43"/>
    </g>
    <g id="xtick_44">
     <g id="line2d_44"/>
    </g>
    <g id="xtick_45">
     <g id="line2d_45"/>
    </g>
    <g id="xtick_46">
     <g id="line2d_46"/>
    </g>
    <g id="xtick_47">
     <g id="line2d_47"/>
    </g>
    <g id="xtick_48">
     <g id="line2d_48"/>
    </g>
    <g id="text_6">
     <!-- Rank -->
     <defs>
      <path d="M 19 28.59375 
C 22.5 28.59375 25.5 28.703125 28.203125 28.90625 
C 31 25.59375 33.203125 21.703125 35.796875 17.59375 
C 39.40625 11.796875 44.203125 3.09375 45.296875 -0.296875 
C 47.203125 0 49.40625 0 51.296875 0 
C 53.296875 0 55.296875 0 57.296875 -0.296875 
L 57.5 0 
C 52.5 5.59375 42.40625 21.40625 36.09375 29.90625 
C 38.796875 30.40625 40.796875 31 42.203125 31.796875 
C 47.59375 34.5 52.203125 39.703125 52.203125 47.90625 
C 52.203125 52.90625 50.5 57 46.90625 60.40625 
C 42.09375 64.90625 34.5 65.203125 28.203125 65.203125 
C 25.703125 65.203125 17.703125 64.5 14.703125 64.5 
C 13.5 64.5 10.796875 64.59375 9.59375 64.796875 
L 9.40625 64.5 
C 10.203125 58.796875 10.40625 52 10.40625 44.5 
L 10.40625 20 
C 10.40625 12.5 10.203125 5.40625 9.40625 0 
L 9.59375 -0.296875 
C 10.796875 -0.09375 13.5 0 14.703125 0 
C 15.90625 0 18.59375 -0.09375 19.796875 -0.296875 
L 20 0 
C 19.203125 5.703125 19 12.5 19 20 
z
M 28.296875 60.90625 
C 34.40625 60.90625 42.59375 58.59375 42.59375 47.796875 
C 42.59375 35.59375 34.5 32.59375 24.796875 32.59375 
L 19 32.59375 
L 19 56.5 
C 19 60.40625 19.296875 60.90625 28.296875 60.90625 
z
" id="LinBiolinumO-82"/>
      <path d="M 31 22.5 
L 30.59375 10.59375 
C 30.59375 9.296875 30 8.59375 29.203125 8 
C 26.40625 5.90625 23 4.09375 20 4.09375 
C 15.5 4.09375 12.59375 7.09375 12.59375 10.203125 
C 12.59375 14.703125 14.703125 18.09375 22.5 20.203125 
z
M 31 4.796875 
C 32.09375 0.796875 35.09375 -1 38.796875 -1 
C 41.296875 -1 44.40625 -0.40625 46.703125 2.09375 
L 46 4.5 
C 44.90625 4.09375 44 4 43.296875 4 
C 42.296875 4 41 4.203125 40.296875 4.796875 
C 39.296875 5.703125 38.703125 8.09375 38.703125 12.59375 
C 38.703125 15.5 39 26.59375 39 27.703125 
C 39 41.203125 30.09375 43.90625 22.5 43.90625 
C 14.90625 43.90625 10.296875 40.203125 7.796875 38.09375 
L 7.5 37.703125 
L 9.203125 31 
L 10.5 30.90625 
C 13.296875 35.40625 16.703125 39.40625 21.5 39.40625 
C 25.09375 39.40625 31.09375 38.90625 31.09375 27.59375 
C 31.09375 26.90625 30.703125 26.5 30.40625 26.40625 
L 21.09375 24.296875 
C 10.90625 22 4.5 16.59375 4.5 9.796875 
C 4.5 2.40625 9.59375 -1 17 -1 
C 22.5 -1 25.296875 0.296875 30.59375 4.796875 
z
" id="LinBiolinumO-97"/>
      <path d="M 46 18 
C 46 21.203125 46.203125 24.90625 46.203125 28.09375 
C 46.203125 38.5 42.796875 43.90625 33.796875 43.90625 
C 30 43.90625 22.90625 42.40625 16.5 34.90625 
L 16.296875 35.203125 
L 16.296875 42.5 
C 16.203125 43.203125 16.09375 43.5 15.703125 43.5 
C 13.40625 43 9.796875 42.90625 7.59375 43.203125 
L 7.40625 42.90625 
C 8.09375 38.5 8.296875 31 8.296875 23.5 
L 8.296875 18 
C 8.296875 10.5 8.203125 5.40625 7.40625 0 
L 7.59375 -0.296875 
C 8.796875 -0.09375 11.09375 0 12.296875 0 
C 13.5 0 15.796875 -0.09375 17 -0.296875 
L 17.203125 0 
C 16.40625 5.703125 16.296875 10.40625 16.296875 18 
L 16.296875 29.703125 
C 21.40625 35.703125 27.203125 37.90625 30.796875 37.90625 
C 35.90625 37.90625 38 35.90625 38 27.796875 
L 38 18 
C 38 10.5 37.796875 5.296875 37.09375 0 
L 37.296875 -0.296875 
C 38.5 -0.09375 40.796875 0 42 0 
C 43.203125 0 45.5 -0.09375 46.703125 -0.296875 
L 46.90625 0 
C 46.09375 5.703125 46 10.40625 46 18 
z
" id="LinBiolinumO-110"/>
      <path d="M 9 20 
C 9 12.5 8.796875 5.296875 8.09375 0 
L 8.296875 -0.296875 
C 9.5 -0.09375 11.796875 0 13 0 
C 14.203125 0 16.5 -0.09375 17.703125 -0.296875 
L 17.90625 0 
C 17.09375 5.703125 17 12.40625 17 20 
L 17 21 
C 17.796875 20.90625 20.203125 20.59375 21.09375 19.90625 
C 27.59375 13.09375 30 9.5 36.796875 -0.296875 
C 38.296875 -0.203125 41.703125 0 43.40625 0 
C 45 0 48.5 -0.203125 49.40625 -0.296875 
L 49.59375 0 
C 42.09375 7.796875 36.796875 12.203125 27.296875 23.796875 
C 31.203125 27.796875 41 37.296875 47.5 42.90625 
L 47.296875 43.203125 
C 45.40625 42.90625 39.90625 42.90625 37.203125 42.90625 
C 32.796875 36.59375 25.296875 28.5 21.40625 25.5 
C 20.09375 24.5 18.296875 24.09375 17 24 
L 17 50 
C 17 57.5 17.40625 62.40625 17.90625 68.796875 
C 17.90625 69.5 17.59375 69.796875 17 69.796875 
C 14.40625 68.796875 12.296875 68.09375 8.296875 67.796875 
L 8.09375 67.5 
C 8.796875 63.203125 9 55.796875 9 48.203125 
z
" id="LinBiolinumO-107"/>
     </defs>
     <g style="fill:#808080;" transform="translate(149.277928 199.058437)scale(0.12 -0.12)">
      <use xlink:href="#LinBiolinumO-82"/>
      <use x="59.999985" xlink:href="#LinBiolinumO-97"/>
      <use x="108.099976" xlink:href="#LinBiolinumO-110"/>
      <use x="161.999969" xlink:href="#LinBiolinumO-107"/>
     </g>
    </g>
   </g>
   <g id="matplotlib.axis_2">
    <g id="ytick_1">
     <g id="line2d_49"/>
     <g id="text_7">
      <!-- $\mathdefault{10^{-1}}$ -->
      <defs>
       <path d="M 46.09375 25.703125 
L 6.59375 25.703125 
L 6.59375 20.796875 
L 46.09375 20.796875 
z
" id="LinBiolinumO-8722"/>
      </defs>
      <g style="fill:#808080;" transform="translate(26.73148 167.008083)scale(0.1 -0.1)">
       <use transform="translate(0 0.057813)" xlink:href="#LinBiolinumO-49"/>
       <use transform="translate(46.499985 0.057813)" xlink:href="#LinBiolinumO-48"/>
       <use transform="translate(93.756024 30.3)scale(0.7)" xlink:href="#LinBiolinumO-8722"/>
       <use transform="translate(130.646022 30.3)scale(0.7)" xlink:href="#LinBiolinumO-49"/>
      </g>
     </g>
    </g>
    <g id="ytick_2">
     <g id="line2d_50"/>
     <g id="text_8">
      <!-- $\mathdefault{10^{0}}$ -->
      <g style="fill:#808080;" transform="translate(30.43148 142.311883)scale(0.1 -0.1)">
       <use transform="translate(0 0.057813)" xlink:href="#LinBiolinumO-49"/>
       <use transform="translate(46.499985 0.057813)" xlink:href="#LinBiolinumO-48"/>
       <use transform="translate(93.756024 30.3)scale(0.7)" xlink:href="#LinBiolinumO-48"/>
      </g>
     </g>
    </g>
    <g id="ytick_3">
     <g id="line2d_51"/>
     <g id="text_9">
      <!-- $\mathdefault{10^{1}}$ -->
      <g style="fill:#808080;" transform="translate(30.43148 117.615683)scale(0.1 -0.1)">
       <use transform="translate(0 0.057813)" xlink:href="#LinBiolinumO-49"/>
       <use transform="translate(46.499985 0.057813)" xlink:href="#LinBiolinumO-48"/>
       <use transform="translate(93.756024 30.3)scale(0.7)" xlink:href="#LinBiolinumO-49"/>
      </g>
     </g>
    </g>
    <g id="ytick_4">
     <g id="line2d_52"/>
     <g id="text_10">
      <!-- $\mathdefault{10^{2}}$ -->
      <g style="fill:#808080;" transform="translate(30.43148 92.919483)scale(0.1 -0.1)">
       <use transform="translate(0 0.057813)" xlink:href="#LinBiolinumO-49"/>
       <use transform="translate(46.499985 0.057813)" xlink:href="#LinBiolinumO-48"/>
       <use transform="translate(93.756024 30.3)scale(0.7)" xlink:href="#LinBiolinumO-50"/>
      </g>
     </g>
    </g>
    <g id="ytick_5">
     <g id="line2d_53"/>
     <g id="text_11">
      <!-- $\mathdefault{10^{3}}$ -->
      <g style="fill:#808080;" transform="translate(30.43148 68.223283)scale(0.1 -0.1)">
       <use transform="translate(0 0.057813)" xlink:href="#LinBiolinumO-49"/>
       <use transform="translate(46.499985 0.057813)" xlink:href="#LinBiolinumO-48"/>
       <use transform="translate(93.756024 30.3)scale(0.7)" xlink:href="#LinBiolinumO-51"/>
      </g>
     </g>
    </g>
    <g id="ytick_6">
     <g id="line2d_54"/>
     <g id="text_12">
      <!-- $\mathdefault{10^{4}}$ -->
      <g style="fill:#808080;" transform="translate(30.43148 43.527083)scale(0.1 -0.1)">
       <use transform="translate(0 0.473438)" xlink:href="#LinBiolinumO-49"/>
       <use transform="translate(46.499985 0.473438)" xlink:href="#LinBiolinumO-48"/>
       <use transform="translate(93.756024 30.715625)scale(0.7)" xlink:href="#LinBiolinumO-52"/>
      </g>
     </g>
    </g>
    <g id="ytick_7">
     <g id="line2d_55"/>
     <g id="text_13">
      <!-- $\mathdefault{10^{5}}$ -->
      <defs>
       <path d="M 20.203125 -1 
C 32.09375 -1 40.59375 7.796875 40.59375 19.59375 
C 40.59375 29.296875 34.09375 38 22.90625 38 
C 18.796875 38 14.203125 37.296875 12 36.5 
L 14.09375 54.203125 
C 17.796875 53.703125 22.09375 53.296875 26.796875 53.296875 
C 29.796875 53.296875 33.203125 53.40625 37.296875 53.90625 
L 38.90625 60.703125 
L 38.203125 61 
C 32.5 60.296875 27.09375 60 21.796875 60 
C 18.09375 60 13.796875 60.296875 10.40625 60.59375 
L 7.203125 31.09375 
L 7.90625 30.90625 
C 11.796875 32.5 15.59375 34 20.296875 34 
C 26.796875 34 31.796875 28.796875 31.796875 17.90625 
C 31.796875 8.703125 27.203125 3 20.40625 3 
C 12.90625 3 11.59375 7 8.296875 13 
L 6.90625 12.90625 
L 4.703125 4.90625 
L 5.09375 4.59375 
C 7.59375 2.40625 12.59375 -1 20.203125 -1 
z
" id="LinBiolinumO-53"/>
      </defs>
      <g style="fill:#808080;" transform="translate(30.43148 18.830883)scale(0.1 -0.1)">
       <use transform="translate(0 0.057813)" xlink:href="#LinBiolinumO-49"/>
       <use transform="translate(46.499985 0.057813)" xlink:href="#LinBiolinumO-48"/>
       <use transform="translate(93.756024 30.3)scale(0.7)" xlink:href="#LinBiolinumO-53"/>
      </g>
     </g>
    </g>
    <g id="ytick_8">
     <g id="line2d_56"/>
    </g>
    <g id="ytick_9">
     <g id="line2d_57"/>
    </g>
    <g id="ytick_10">
     <g id="line2d_58"/>
    </g>
    <g id="ytick_11">
     <g id="line2d_59"/>
    </g>
    <g id="ytick_12">
     <g id="line2d_60"/>
    </g>
    <g id="ytick_13">
     <g id="line2d_61"/>
    </g>
    <g id="ytick_14">
     <g id="line2d_62"/>
    </g>
    <g id="ytick_15">
     <g id="line2d_63"/>
    </g>
    <g id="ytick_16">
     <g id="line2d_64"/>
    </g>
    <g id="ytick_17">
     <g id="line2d_65"/>
    </g>
    <g id="ytick_18">
     <g id="line2d_66"/>
    </g>
    <g id="ytick_19">
     <g id="line2d_67"/>
    </g>
    <g id="ytick_20">
     <g id="line2d_68"/>
    </g>
    <g id="ytick_21">
     <g id="line2d_69"/>
    </g>
    <g id="ytick_22">
     <g id="line2d_70"/>
    </g>
    <g id="ytick_23">
     <g id="line2d_71"/>
    </g>
    <g id="ytick_24">
     <g id="line2d_72"/>
    </g>
    <g id="ytick_25">
     <g id="line2d_73"/>
    </g>
    <g id="ytick_26">
     <g id="line2d_74"/>
    </g>
    <g id="ytick_27">
     <g id="line2d_75"/>
    </g>
    <g id="ytick_28">
     <g id="line2d_76"/>
    </g>
    <g id="ytick_29">
     <g id="line2d_77"/>
    </g>
    <g id="ytick_30">
     <g id="line2d_78"/>
    </g>
    <g id="ytick_31">
     <g id="line2d_79"/>
    </g>
    <g id="ytick_32">
     <g id="line2d_80"/>
    </g>
    <g id="ytick_33">
     <g id="line2d_81"/>
    </g>
    <g id="ytick_34">
     <g id="line2d_82"/>
    </g>
    <g id="ytick_35">
     <g id="line2d_83"/>
    </g>
    <g id="ytick_36">
     <g id="line2d_84"/>
    </g>
    <g id="ytick_37">
     <g id="line2d_85"/>
    </g>
    <g id="ytick_38">
     <g id="line2d_86"/>
    </g>
    <g id="ytick_39">
     <g id="line2d_87"/>
    </g>
    <g id="ytick_40">
     <g id="line2d_88"/>
    </g>
    <g id="ytick_41">
     <g id="line2d_89"/>
    </g>
    <g id="ytick_42">
     <g id="line2d_90"/>
    </g>
    <g id="ytick_43">
     <g id="line2d_91"/>
    </g>
    <g id="ytick_44">
     <g id="line2d_92"/>
    </g>
    <g id="ytick_45">
     <g id="line2d_93"/>
    </g>
    <g id="ytick_46">
     <g id="line2d_94"/>
    </g>
    <g id="ytick_47">
     <g id="line2d_95"/>
    </g>
    <g id="ytick_48">
     <g id="line2d_96"/>
    </g>
    <g id="ytick_49">
     <g id="line2d_97"/>
    </g>
    <g id="ytick_50">
     <g id="line2d_98"/>
    </g>
    <g id="ytick_51">
     <g id="line2d_99"/>
    </g>
    <g id="ytick_52">
     <g id="line2d_100"/>
    </g>
    <g id="ytick_53">
     <g id="line2d_101"/>
    </g>
    <g id="ytick_54">
     <g id="line2d_102"/>
    </g>
    <g id="ytick_55">
     <g id="line2d_103"/>
    </g>
    <g id="ytick_56">
     <g id="line2d_104"/>
    </g>
    <g id="ytick_57">
     <g id="line2d_105"/>
    </g>
    <g id="ytick_58">
     <g id="line2d_106"/>
    </g>
    <g id="ytick_59">
     <g id="line2d_107"/>
    </g>
    <g id="ytick_60">
     <g id="line2d_108"/>
    </g>
    <g id="ytick_61">
     <g id="line2d_109"/>
    </g>
    <g id="text_14">
     <!-- Frequency per million -->
     <defs>
      <path d="M 40.703125 64.5 
L 14.703125 64.5 
C 11.296875 64.5 9.59375 64.796875 9.59375 64.796875 
L 9.40625 64.5 
C 10.203125 58.796875 10.40625 52 10.40625 44.5 
L 10.40625 20 
C 10.40625 12.5 10.203125 5.40625 9.40625 0 
L 9.5 -0.296875 
C 9.5 -0.296875 11.203125 0 14.703125 0 
C 18.09375 0 19.796875 -0.296875 19.796875 -0.296875 
L 20 0 
C 19.203125 5.703125 19 12.5 19 20 
L 19 31.703125 
C 23.796875 31.703125 34.40625 31.40625 41.296875 30.703125 
L 41.59375 31 
C 41.40625 31.90625 41.296875 33.296875 41.296875 34.203125 
C 41.296875 35.09375 41.40625 36.5 41.59375 37.40625 
L 41.296875 37.703125 
C 35.40625 37.203125 30.796875 36.703125 19 36.703125 
L 19 44.5 
C 19 46.203125 19.09375 56.5 19.796875 58.90625 
C 33.203125 58.90625 47 57.703125 47 57.703125 
L 47.203125 58.09375 
C 47.09375 58.90625 47 60.203125 47 61.09375 
C 47 61.90625 47.09375 63.09375 47.203125 64.5 
L 47 64.796875 
C 45.40625 64.59375 43.09375 64.5 40.703125 64.5 
z
" id="LinBiolinumO-70"/>
      <path d="M 16.703125 33.40625 
L 16.703125 42.5 
C 16.703125 43.203125 16.5 43.5 16.09375 43.5 
C 13.796875 43 10.203125 42.90625 8 43.203125 
L 7.796875 42.90625 
C 8.5 38.5 8.703125 31 8.703125 23.5 
L 8.703125 18 
C 8.703125 10.5 8.5 5.296875 7.796875 0 
L 8 -0.296875 
C 9.203125 -0.09375 11.5 0 12.703125 0 
C 13.90625 0 16.203125 -0.09375 17.40625 -0.296875 
L 17.59375 0 
C 16.796875 5.703125 16.703125 10.40625 16.703125 18 
L 16.703125 23.203125 
C 16.703125 27.40625 17.90625 29.796875 20.09375 33.09375 
C 21.5 35.296875 23.796875 36.59375 25.703125 36.59375 
C 27.703125 36.59375 29.59375 36.40625 30.90625 35.203125 
L 31.703125 35.40625 
L 33.703125 42.796875 
L 33.296875 43.203125 
C 31.59375 43.703125 31.5 43.90625 29.703125 43.90625 
C 24.296875 43.90625 21.40625 40.796875 17 33.203125 
z
" id="LinBiolinumO-114"/>
      <path d="M 12.5 27.296875 
C 14.203125 37.703125 20.703125 39.90625 23.90625 39.90625 
C 27.796875 39.90625 32.296875 36.203125 32.296875 28.703125 
C 32.296875 27.796875 31.90625 27.296875 30.90625 27.296875 
z
M 39.203125 10.40625 
C 35.703125 6.59375 31 4.90625 25.5 4.90625 
C 22 4.90625 17.296875 6.203125 14.59375 10.59375 
C 12.796875 13.40625 12.203125 17.40625 12.203125 23.296875 
L 39.40625 23.296875 
C 40.5 23.296875 41.203125 23.90625 41.203125 25 
C 41.203125 33.40625 37.09375 43.90625 23.90625 43.90625 
C 13.59375 43.90625 3.40625 35.59375 3.40625 20.90625 
C 3.40625 15.203125 4.5 9.59375 7.90625 5.59375 
C 11.296875 1.40625 17 -1 23.796875 -1 
C 31 -1 37.40625 2.703125 41.203125 7.90625 
z
" id="LinBiolinumO-101"/>
      <path d="M 35.703125 37.59375 
C 35.703125 37.59375 36 33.40625 36 23.40625 
L 36 6.59375 
C 33.40625 4.59375 28.5 3.40625 26.59375 3.40625 
C 20.796875 3.40625 13.703125 7.59375 13.703125 22.703125 
C 13.703125 33.09375 18.90625 39.90625 26.296875 39.90625 
C 30.59375 39.90625 33.5 39.40625 35.703125 37.59375 
z
M 36.59375 43.203125 
C 34.703125 43.5 29.09375 43.90625 25.703125 43.90625 
C 14.09375 43.90625 4.90625 34.796875 4.90625 21.59375 
C 4.90625 11.09375 10.40625 -1 24.203125 -1 
C 29.90625 -1 34.5 1 36 2.296875 
L 36 -3.203125 
C 36 -10.59375 35.90625 -17.90625 35.09375 -23.203125 
L 35.296875 -23.5 
C 35.296875 -23.5 36.5 -23.203125 40 -23.203125 
C 43.40625 -23.203125 44.703125 -23.5 44.703125 -23.5 
L 44.90625 -23.203125 
C 44 -17.5 44 -10.796875 44 -3.203125 
L 44 23.5 
C 44 31 44.203125 38.5 44.90625 42.90625 
L 44.703125 43.203125 
C 42.40625 42.90625 38.40625 42.90625 36.59375 43.203125 
z
" id="LinBiolinumO-113"/>
      <path d="M 36.5 9.203125 
L 36.90625 8.90625 
L 37.40625 0 
C 37.40625 -0.203125 37.5 -0.296875 37.796875 -0.296875 
C 39.09375 -0.203125 40.296875 0 41.703125 0 
C 43 0 44.90625 -0.09375 46.203125 -0.296875 
L 46.40625 0 
C 45.59375 4.296875 44.703125 11.703125 44.703125 19.203125 
L 44.703125 24.90625 
C 44.703125 32.40625 44.796875 37.59375 45.59375 42.90625 
L 45.40625 43.203125 
C 44.203125 43 41.90625 42.90625 40.703125 42.90625 
C 39.5 42.90625 37.203125 43 36 43.203125 
L 35.796875 42.90625 
C 36.5 37.09375 36.703125 32.5 36.703125 24.90625 
L 36.703125 15.09375 
C 33.59375 9.90625 27.90625 4.59375 23 4.59375 
C 19.5 4.59375 16.296875 5.703125 16.296875 15 
L 16.296875 24.90625 
C 16.296875 32.40625 16.40625 37.59375 17.203125 42.90625 
L 17 43.203125 
C 15.796875 43 13.5 42.90625 12.296875 42.90625 
C 11.09375 42.90625 8.796875 43 7.59375 43.203125 
L 7.40625 42.90625 
C 8.203125 37.203125 8.296875 32.5 8.296875 24.90625 
L 8.296875 12.90625 
C 8.296875 6 11.5 -1 21.40625 -1 
C 27.59375 -1 33.203125 4.09375 36.5 9.203125 
z
" id="LinBiolinumO-117"/>
      <path d="M 25 39.90625 
C 28.796875 39.90625 32.296875 37 35 32.5 
L 36.296875 32.59375 
L 38.59375 40.796875 
L 38.40625 41.09375 
C 35.296875 42.703125 30.09375 43.90625 25.09375 43.90625 
C 14.703125 43.90625 3.796875 35.40625 3.796875 21.796875 
C 3.796875 7.796875 11.703125 -1 23.90625 -1 
C 29.90625 -1 34.59375 1 38.59375 6.09375 
L 36.703125 8.203125 
L 36.296875 8.203125 
C 32.5 4.796875 29.296875 4 25.59375 4 
C 18.296875 4 12.59375 10.59375 12.59375 22.296875 
C 12.59375 33.296875 18.40625 39.90625 25 39.90625 
z
" id="LinBiolinumO-99"/>
      <path d="M 2.796875 43.203125 
C 6.703125 34.296875 18.59375 8.5 22.203125 -1 
C 19 -8.5 14.90625 -16.203125 10.40625 -23.703125 
C 11.40625 -23.40625 12.90625 -23.203125 13.90625 -23.203125 
C 14.90625 -23.203125 17.796875 -23.40625 18.796875 -23.703125 
C 22.59375 -11.203125 44.5 36.5 47.796875 43.203125 
C 46.796875 42.90625 44.5 42.90625 43.5 42.90625 
C 42.5 42.90625 40.59375 42.90625 39.59375 43.203125 
C 36 31.90625 31.296875 19.09375 26.40625 8.703125 
L 26.203125 8.703125 
C 21.296875 20.59375 16.59375 31.703125 12.90625 43.203125 
C 11.59375 42.90625 9.40625 42.90625 8 42.90625 
C 6.703125 42.90625 4.203125 42.90625 2.796875 43.203125 
z
" id="LinBiolinumO-121"/>
      <path id="LinBiolinumO-32"/>
      <path d="M 16.203125 29.40625 
C 18.40625 34.703125 24.296875 39.296875 28.203125 39.296875 
C 35 39.296875 38.5 33.09375 38.5 21.796875 
C 38.5 13.59375 36.203125 3 25.5 3 
C 23.90625 3 19.703125 3.40625 16.203125 7.5 
z
M 16.203125 35.203125 
L 16.203125 42.5 
C 16.203125 43.203125 16 43.5 15.59375 43.5 
C 13.296875 43 9.703125 42.90625 7.5 43.203125 
L 7.296875 42.90625 
C 8 38.5 8.203125 31 8.203125 23.5 
L 8.203125 -3.203125 
C 8.203125 -10.703125 8 -17.90625 7.296875 -23.203125 
L 7.5 -23.5 
C 8.703125 -23.296875 11 -23.203125 12.203125 -23.203125 
C 13.40625 -23.203125 15.703125 -23.296875 16.90625 -23.5 
L 17.09375 -23.203125 
C 16.296875 -17.5 16.203125 -10.796875 16.203125 -3.203125 
L 16.203125 1.203125 
C 18.796875 -0.203125 22.5 -1 26.09375 -1 
C 39.296875 -1 47.296875 9 47.296875 23.09375 
C 47.296875 33.703125 41.09375 43.90625 29.90625 43.90625 
C 26 43.90625 21 41.90625 16.40625 34.90625 
z
" id="LinBiolinumO-112"/>
      <path d="M 16.203125 35.203125 
L 16.203125 42.5 
C 16.203125 43.203125 16 43.5 15.59375 43.5 
C 13.296875 43 9.703125 42.90625 7.5 43.203125 
L 7.296875 42.90625 
C 8 38.5 8.203125 31 8.203125 23.5 
L 8.203125 18 
C 8.203125 10.5 8.09375 5.40625 7.296875 0 
L 7.5 -0.296875 
C 8.703125 -0.09375 11 0 12.203125 0 
C 13.40625 0 15.703125 -0.09375 16.90625 -0.296875 
L 17.09375 0 
C 16.296875 5.703125 16.203125 10.40625 16.203125 18 
L 16.203125 30.09375 
C 20.90625 34.90625 26.5 37.90625 30 37.90625 
C 33.796875 37.90625 36.59375 35.703125 36.59375 29 
L 36.59375 18 
C 36.59375 10.5 36.5 5.40625 35.703125 0 
L 35.90625 -0.296875 
C 37.09375 -0.09375 39.40625 0 40.59375 0 
C 41.796875 0 44.09375 -0.09375 45.296875 -0.296875 
L 45.5 0 
C 44.703125 5.703125 44.59375 10.40625 44.59375 18 
L 44.59375 28.09375 
C 44.59375 29.5 44.59375 30.703125 44.5 31.90625 
C 49.296875 37.203125 53.296875 37.90625 57.203125 37.90625 
C 62.59375 37.90625 65.203125 35.703125 65.203125 29 
L 65.203125 18 
C 65.203125 10.5 65.09375 5.40625 64.296875 0 
L 64.5 -0.296875 
C 65.703125 -0.09375 68 0 69.203125 0 
C 70.40625 0 72.703125 -0.09375 73.90625 -0.296875 
L 74.09375 0 
C 73.296875 5.703125 73.203125 10.40625 73.203125 18 
L 73.203125 28 
C 73.203125 36.90625 71.59375 43.90625 60.796875 43.90625 
C 55.40625 43.90625 49.59375 42 43.90625 36 
C 43 40.796875 38.90625 43.90625 33.296875 43.90625 
C 27.09375 43.90625 21.203125 39.90625 16.5 34.90625 
z
" id="LinBiolinumO-109"/>
      <path d="M 8 59.703125 
C 8 57 10.40625 54.59375 13.09375 54.59375 
C 15.796875 54.59375 18.203125 57 18.203125 59.703125 
C 18.203125 62.40625 15.796875 64.796875 13.09375 64.796875 
C 10.40625 64.796875 8 62.40625 8 59.703125 
z
M 9 23.5 
L 9 18 
C 9 10.5 8.796875 5.40625 8.09375 0 
L 8.296875 -0.296875 
C 9.5 -0.09375 11.796875 0 13 0 
C 14.203125 0 16.5 -0.09375 17.703125 -0.296875 
L 17.90625 0 
C 17.09375 5.59375 17 10.40625 17 18 
L 17 25.09375 
C 17 32.59375 17.203125 36.203125 17.90625 42.296875 
C 17.90625 43.203125 17.703125 43.296875 17 43.296875 
C 14.703125 43 10.40625 43 8.296875 43.203125 
L 8.09375 42.90625 
C 8.703125 38.59375 9 31 9 23.5 
z
" id="LinBiolinumO-105"/>
      <path d="M 9 20 
C 9 12.5 8.796875 5.296875 8.09375 0 
L 8.296875 -0.296875 
C 9.5 -0.09375 11.796875 0 13 0 
C 14.203125 0 16.5 -0.09375 17.703125 -0.296875 
L 17.90625 0 
C 17.09375 5.703125 17 12.40625 17 20 
L 17 50 
C 17 57.5 17.40625 62.40625 17.90625 68.796875 
C 17.90625 69.5 17.59375 69.796875 17 69.796875 
C 14.40625 68.796875 12.296875 68.09375 8.296875 67.796875 
L 8.09375 67.5 
C 8.796875 63.203125 9 55.796875 9 48.203125 
z
" id="LinBiolinumO-108"/>
      <path d="M 3.796875 20.5 
C 3.796875 8.5 11.703125 -1 25 -1 
C 38.203125 -1 46.203125 8.296875 46.203125 21.40625 
C 46.203125 35 38.90625 43.90625 25.40625 43.90625 
C 12.296875 43.90625 3.796875 34.703125 3.796875 20.5 
z
M 24.703125 39.90625 
C 35.296875 39.90625 37.40625 31.703125 37.40625 19.59375 
C 37.40625 10 32.59375 3 25.90625 3 
C 15.296875 3 12.59375 14.5 12.59375 22.203125 
C 12.59375 30.90625 15.296875 39.90625 24.703125 39.90625 
z
" id="LinBiolinumO-111"/>
     </defs>
     <g style="fill:#808080;" transform="translate(19.887105 147.501177)rotate(-90)scale(0.12 -0.12)">
      <use xlink:href="#LinBiolinumO-70"/>
      <use x="50.399994" xlink:href="#LinBiolinumO-114"/>
      <use x="85.899979" xlink:href="#LinBiolinumO-101"/>
      <use x="131.199966" xlink:href="#LinBiolinumO-113"/>
      <use x="183.399963" xlink:href="#LinBiolinumO-117"/>
      <use x="237.09996" xlink:href="#LinBiolinumO-101"/>
      <use x="282.399948" xlink:href="#LinBiolinumO-110"/>
      <use x="336.299942" xlink:href="#LinBiolinumO-99"/>
      <use x="379.199936" xlink:href="#LinBiolinumO-121"/>
      <use x="429.799927" xlink:href="#LinBiolinumO-32"/>
      <use x="454.799911" xlink:href="#LinBiolinumO-112"/>
      <use x="507.099899" xlink:href="#LinBiolinumO-101"/>
      <use x="552.399887" xlink:href="#LinBiolinumO-114"/>
      <use x="587.899872" xlink:href="#LinBiolinumO-32"/>
      <use x="612.899857" xlink:href="#LinBiolinumO-109"/>
      <use x="693.599838" xlink:href="#LinBiolinumO-105"/>
      <use x="719.599823" xlink:href="#LinBiolinumO-108"/>
      <use x="744.79982" xlink:href="#LinBiolinumO-108"/>
      <use x="769.999817" xlink:href="#LinBiolinumO-105"/>
      <use x="795.999802" xlink:href="#LinBiolinumO-111"/>
      <use x="845.999786" xlink:href="#LinBiolinumO-110"/>
     </g>
    </g>
   </g>
   <g id="line2d_110">
    <path clip-path="url(#pcd51b40647)" d="M 57.302776 20.4629 
L 70.77178 24.124873 
L 78.650643 27.122942 
L 84.240784 27.839051 
L 88.576835 29.833443 
L 95.115051 31.854062 
L 97.709788 34.488459 
L 99.998509 38.345861 
L 102.045839 39.786974 
L 103.897875 41.282169 
L 105.58865 41.348937 
L 107.144014 43.094031 
L 108.584055 43.599923 
L 109.924701 44.442675 
L 111.178792 44.622176 
L 112.35683 45.043058 
L 113.467513 46.757661 
L 114.518129 47.384753 
L 115.514843 47.603187 
L 116.462917 48.336537 
L 119.057654 48.658959 
L 119.850894 50.549853 
L 121.346375 52.064287 
L 122.053059 52.375971 
L 122.734942 53.24426 
L 123.393705 53.646144 
L 124.030866 53.670327 
L 124.647796 53.81454 
L 125.245741 53.830619 
L 126.38911 54.093915 
L 127.468924 54.71005 
L 127.987133 54.730393 
L 129.931921 55.525624 
L 130.835882 55.550667 
L 131.272567 55.857602 
L 132.117556 56.295847 
L 132.526658 56.545776 
L 133.319898 57.319562 
L 134.082021 57.523605 
L 134.45216 57.985012 
L 135.522063 58.112034 
L 137.810783 58.873246 
L 138.1168 59.284601 
L 138.418072 59.326032 
L 139.006956 59.840199 
L 139.294837 60.782099 
L 139.578516 60.820204 
L 139.858113 60.982538 
L 140.133745 61.36249 
L 141.710149 61.678883 
L 142.208424 61.897601 
L 142.694241 62.569961 
L 143.168208 62.672216 
L 143.400925 63.134373 
L 144.082808 63.306399 
L 144.524455 63.770719 
L 144.956288 63.883659 
L 145.995662 64.222081 
L 146.197028 64.286256 
L 146.396329 64.515133 
L 146.788902 64.593853 
L 146.982253 64.863781 
L 147.551025 64.935221 
L 147.736976 65.054522 
L 147.921163 65.367288 
L 148.284383 65.468985 
L 148.463478 65.834504 
L 148.81679 65.970653 
L 149.163794 66.319253 
L 149.504709 66.512203 
L 149.672949 66.831868 
L 150.169104 67.028342 
L 150.492973 67.304253 
L 150.968874 67.400242 
L 151.279787 67.633971 
L 151.585804 67.822103 
L 151.737024 67.854503 
L 152.183749 68.311914 
L 152.47596 68.469969 
L 152.620434 68.496349 
L 152.906198 68.684011 
L 153.739112 68.940643 
L 154.275192 69.022343 
L 156.163245 69.820801 
L 156.401673 70.131895 
L 158.847736 71.196889 
L 159.261191 71.351621 
L 160.354822 71.635584 
L 160.547216 71.938344 
L 160.926382 72.186536 
L 160.926382 72.186536 
L 161.753387 72.371166 
L 162.460071 72.78787 
L 162.804003 72.894626 
L 163.391614 73.1858 
L 164.359366 73.424932 
L 165.579008 74.082886 
L 165.726218 74.254372 
L 166.304154 74.434636 
L 166.586802 74.543055 
L 166.934426 74.73444 
L 167.875936 75.269348 
L 168.45796 75.42815 
L 168.648157 75.600467 
L 169.26903 75.926053 
L 169.511929 76.087967 
L 169.870677 76.257097 
L 170.164657 76.4675 
L 170.682865 76.593797 
L 171.132172 76.80101 
L 171.352989 76.901108 
L 171.894296 77.137512 
L 173.185053 77.772807 
L 173.433226 77.879693 
L 175.446003 78.784419 
L 175.754798 78.901935 
L 176.01563 79.048359 
L 176.610957 79.353663 
L 176.81923 79.417053 
L 177.867665 79.848398 
L 179.701849 80.698619 
L 179.701849 80.698619 
L 180.020699 80.828364 
L 181.113804 81.344591 
L 181.246218 81.513318 
L 181.670436 81.75962 
L 181.958793 81.9713 
L 182.553846 82.236744 
L 182.890201 82.517409 
L 183.101253 82.615476 
L 183.339681 82.805617 
L 183.633661 82.981448 
L 183.894492 83.119727 
L 184.151869 83.278022 
L 184.517718 83.447943 
L 184.767023 83.517604 
L 185.707232 83.940499 
L 185.889935 84.11641 
L 186.22475 84.285239 
L 187.122908 84.850407 
L 189.070018 85.781243 
L 189.223802 85.931899 
L 189.441404 86.025674 
L 189.699351 86.108405 
L 189.996023 86.203743 
L 190.225986 86.378733 
L 191.059917 86.731229 
L 191.277696 86.844994 
L 191.706067 87.082704 
L 191.821275 87.193714 
L 191.821275 87.193714 
L 192.312763 87.466268 
L 192.535478 87.601777 
L 194.078061 88.616521 
L 194.078061 88.616521 
L 194.365693 88.782693 
L 194.944797 89.17811 
L 194.944797 89.17811 
L 195.13944 89.321223 
L 195.300166 89.450059 
L 196.145835 89.981458 
L 196.31368 90.118526 
L 196.31368 90.118526 
L 196.749352 90.398032 
L 197.16093 90.721436 
L 197.16093 90.721436 
L 197.790583 91.168393 
L 197.790583 91.168393 
L 197.944859 91.331265 
L 198.249784 91.565497 
L 198.658028 91.724542 
L 198.658028 91.724542 
L 198.952047 91.83527 
L 198.952047 91.83527 
L 199.410826 92.060216 
L 199.410826 92.060216 
L 199.668203 92.279429 
L 199.668203 92.279429 
L 200.3589 92.709795 
L 200.494142 92.809054 
L 200.713436 92.976555 
L 201.168419 93.284811 
L 201.168419 93.284811 
L 201.345125 93.389563 
L 201.797179 93.698059 
L 201.797179 93.698059 
L 202.058927 93.806948 
L 202.250152 93.966209 
L 202.395124 94.052954 
L 202.395124 94.052954 
L 202.725602 94.26659 
L 202.725602 94.26659 
L 202.899586 94.368616 
L 203.211015 94.588699 
L 203.211015 94.588699 
L 203.412381 94.693851 
L 203.653381 94.826758 
L 203.819287 94.934282 
L 204.207729 95.277415 
L 204.207729 95.277415 
L 204.318738 95.361426 
L 204.4691 95.517178 
L 204.707285 95.704212 
L 204.707285 95.704212 
L 205.039793 95.909349 
L 205.242358 96.028357 
L 205.366706 96.133582 
L 205.641263 96.378047 
L 205.641263 96.378047 
L 206.26113 96.835861 
L 206.26113 96.835861 
L 206.505443 97.047607 
L 206.505443 97.047607 
L 207.220475 97.552823 
L 207.220475 97.552823 
L 208.151207 98.302658 
L 208.151207 98.302658 
L 208.592298 98.640791 
L 208.592298 98.640791 
L 208.745146 98.73664 
L 208.745146 98.73664 
L 209.188774 99.108884 
L 209.188774 99.108884 
L 209.668402 99.473867 
L 209.8585 99.682134 
L 209.8585 99.682134 
L 210.024261 99.787804 
L 210.173736 99.894526 
L 210.173736 99.894526 
L 210.425235 100.06752 
L 210.425235 100.06752 
L 210.600823 100.177076 
L 210.78927 100.399603 
L 210.78927 100.399603 
L 211.068558 100.649837 
L 211.068558 100.649837 
L 211.364908 100.929646 
L 211.546123 101.16853 
L 211.546123 101.16853 
L 211.711911 101.265593 
L 211.711911 101.265593 
L 213.359649 102.586916 
L 213.359649 102.586916 
L 213.529524 102.697774 
L 213.529524 102.697774 
L 213.753738 102.837977 
L 213.753738 102.837977 
L 214.188496 103.182138 
L 214.188496 103.182138 
L 214.309227 103.269932 
L 214.309227 103.269932 
L 215.11089 103.936698 
L 215.11089 103.936698 
L 215.2203 104.030919 
L 215.2203 104.030919 
L 215.403187 104.157849 
L 215.403187 104.157849 
L 215.539232 104.254042 
L 215.539232 104.254042 
L 215.996994 104.614319 
L 215.996994 104.614319 
L 216.139915 104.714713 
L 216.139915 104.714713 
L 216.292664 104.850052 
L 216.292664 104.850052 
L 216.417243 104.952688 
L 216.417243 104.952688 
L 216.849728 105.337655 
L 216.849728 105.337655 
L 217.054578 105.445089 
L 217.054578 105.445089 
L 217.184765 105.55361 
L 217.184765 105.55361 
L 217.370716 105.663241 
L 217.493701 105.81118 
L 217.493701 105.81118 
L 217.615914 105.885922 
L 217.615914 105.885922 
L 217.762568 106.036987 
L 217.762568 106.036987 
L 217.863069 106.113325 
L 217.863069 106.113325 
L 218.022795 106.26765 
L 218.022795 106.26765 
L 218.121962 106.345653 
L 218.121962 106.345653 
L 218.308996 106.503383 
L 218.308996 106.503383 
L 218.440803 106.583126 
L 218.440803 106.583126 
L 218.600695 106.785118 
L 218.600695 106.785118 
L 218.682553 106.866992 
L 218.80231 106.990986 
L 218.80231 106.990986 
L 218.878569 107.074453 
L 218.878569 107.074453 
L 219.264766 107.414971 
L 219.264766 107.414971 
L 219.445786 107.501817 
L 219.445786 107.501817 
L 219.593066 107.677648 
L 219.593066 107.677648 
L 219.730134 107.766656 
L 219.730134 107.766656 
L 219.956455 108.0382 
L 219.956455 108.0382 
L 220.131173 108.130264 
L 220.131173 108.130264 
L 220.264511 108.26986 
L 220.264511 108.26986 
L 220.405736 108.363943 
L 220.405736 108.363943 
L 220.541577 108.506634 
L 220.541577 108.506634 
L 220.672137 108.602827 
L 220.793207 108.748753 
L 220.999016 108.847152 
L 221.122312 108.996464 
L 221.122312 108.996464 
L 221.278492 109.097173 
L 221.278492 109.097173 
L 221.479251 109.250032 
L 221.479251 109.250032 
L 221.611948 109.353162 
L 221.611948 109.353162 
L 221.760156 109.50974 
L 221.760156 109.50974 
L 221.972259 109.722132 
L 221.972259 109.722132 
L 222.161995 109.829926 
L 222.161995 109.829926 
L 222.345917 109.993676 
L 222.345917 109.993676 
L 222.508394 110.104248 
L 222.508394 110.104248 
L 222.673436 110.272274 
L 222.673436 110.272274 
L 222.790471 110.328873 
L 222.790471 110.328873 
L 222.922264 110.442974 
L 222.922264 110.442974 
L 223.072346 110.558302 
L 223.072346 110.558302 
L 223.160316 110.616435 
L 223.160316 110.616435 
L 223.293423 110.792747 
L 223.293423 110.792747 
L 223.403025 110.852168 
L 223.403025 110.852168 
L 223.549453 111.032431 
L 223.549453 111.032431 
L 223.639017 111.093199 
L 223.639017 111.093199 
L 223.779988 111.277595 
L 223.779988 111.277595 
L 223.872178 111.339771 
L 223.872178 111.339771 
L 224.018777 111.528493 
L 224.018777 111.528493 
L 224.164279 111.592146 
L 224.164279 111.592146 
L 224.297905 111.720595 
L 224.297905 111.720595 
L 224.534007 111.982204 
L 224.534007 111.982204 
L 224.682774 112.048616 
L 224.798868 112.182685 
L 224.798868 112.182685 
L 224.921245 112.318452 
L 224.921245 112.318452 
L 225.039392 112.386985 
L 225.039392 112.386985 
L 225.160268 112.52538 
L 225.160268 112.52538 
L 225.454124 112.736378 
L 225.454124 112.736378 
L 225.548847 112.807644 
L 225.548847 112.807644 
L 225.656539 112.951611 
L 225.656539 112.951611 
L 225.846899 113.024326 
L 225.946345 113.171252 
L 225.946345 113.171252 
L 226.316421 113.471284 
L 226.316421 113.471284 
L 226.426406 113.547622 
L 226.426406 113.547622 
L 226.599818 113.701947 
L 226.599818 113.701947 
L 226.746328 113.77995 
L 226.746328 113.77995 
L 226.91063 113.93768 
L 226.91063 113.93768 
L 226.998528 114.017423 
L 226.998528 114.017423 
L 227.542106 114.50875 
L 227.542106 114.50875 
L 227.736061 114.592871 
L 227.736061 114.592871 
L 227.856307 114.76312 
L 227.856307 114.76312 
L 227.943022 114.849268 
L 227.943022 114.849268 
L 228.067927 115.023669 
L 228.067927 115.023669 
L 228.2626 115.111945 
L 228.2626 115.111945 
L 228.356289 115.290706 
L 228.356289 115.290706 
L 228.516269 115.381216 
L 228.516269 115.381216 
L 228.738051 115.657423 
L 228.738051 115.657423 
L 228.914808 115.751095 
L 229.025175 115.940931 
L 229.025175 115.940931 
L 229.157354 116.037123 
L 229.157354 116.037123 
L 229.299773 116.232137 
L 229.299773 116.232137 
L 229.493565 116.330989 
L 229.493565 116.330989 
L 229.597962 116.53147 
L 229.597962 116.53147 
L 229.764384 116.633134 
L 229.764384 116.633134 
L 229.815931 116.73577 
L 229.815931 116.73577 
L 229.95631 116.839398 
L 229.95631 116.839398 
L 230.122371 117.049707 
L 230.122371 117.049707 
L 230.397777 117.156429 
L 230.397777 117.156429 
L 230.507901 117.373111 
L 230.507901 117.373111 
L 230.73405 117.483117 
L 230.73405 117.483117 
L 230.837149 117.706571 
L 230.837149 117.706571 
L 230.944818 117.706571 
L 230.960151 117.820069 
L 230.960151 117.820069 
L 231.074762 117.820069 
L 231.074762 117.820069 
L 231.120418 117.93478 
L 231.120418 117.93478 
L 231.229053 117.93478 
L 231.229053 117.93478 
L 231.339589 118.167951 
L 231.339589 118.167951 
L 231.392124 118.167951 
L 231.392124 118.167951 
L 231.642827 118.406303 
L 231.642827 118.406303 
L 231.728955 118.406303 
L 231.728955 118.406303 
L 231.768201 118.527496 
L 231.768201 118.527496 
L 231.86597 118.527496 
L 231.938976 118.650073 
L 231.938976 118.650073 
L 232.163566 118.899513 
L 232.163566 118.899513 
L 232.288021 118.899513 
L 232.288021 118.899513 
L 232.338057 119.026443 
L 232.338057 119.026443 
L 232.444844 119.026443 
L 232.444844 119.026443 
L 232.515711 119.154892 
L 232.515711 119.154892 
L 232.752414 119.416501 
L 232.752414 119.416501 
L 232.863903 119.416501 
L 232.863903 119.416501 
L 232.921718 119.549738 
L 232.921718 119.549738 
L 233.02076 119.549738 
L 233.101004 119.684651 
L 233.101004 119.684651 
L 233.158119 119.684651 
L 233.26958 119.821282 
L 233.26958 119.821282 
L 233.301309 119.959677 
L 233.301309 119.959677 
L 233.465918 119.959677 
L 233.465918 119.959677 
L 233.501811 120.09988 
L 233.501811 120.09988 
L 233.586793 120.09988 
L 233.586793 120.09988 
L 233.638049 120.241941 
L 233.638049 120.241941 
L 233.720222 120.241941 
L 233.722438 120.385908 
L 233.722438 120.385908 
L 233.83953 120.385908 
L 233.83953 120.385908 
L 233.892321 120.531835 
L 233.892321 120.531835 
L 234.023676 120.531835 
L 234.023676 120.531835 
L 234.073794 120.679774 
L 234.073794 120.679774 
L 234.169314 120.679774 
L 234.169314 120.679774 
L 234.324613 120.981919 
L 234.324613 120.981919 
L 234.438142 120.981919 
L 234.438142 120.981919 
L 234.493594 121.136244 
L 234.493594 121.136244 
L 234.650558 121.136244 
L 234.650558 121.136244 
L 234.671673 121.292822 
L 234.671673 121.292822 
L 234.812551 121.292822 
L 234.812551 121.292822 
L 234.843952 121.45172 
L 234.843952 121.45172 
L 235.284448 121.943047 
L 235.284448 121.943047 
L 235.388453 121.943047 
L 235.388453 121.943047 
L 235.540399 122.111955 
L 235.540399 122.111955 
L 235.624972 122.111955 
L 235.624972 122.111955 
L 235.727175 122.283565 
L 235.727175 122.283565 
L 235.781066 122.283565 
L 235.781066 122.283565 
L 235.852689 122.457966 
L 235.852689 122.457966 
L 235.953705 122.457966 
L 235.953705 122.457966 
L 236.008943 122.63525 
L 236.008943 122.63525 
L 236.118948 122.63525 
L 236.118948 122.63525 
L 236.273083 122.815513 
L 236.273083 122.815513 
L 236.358404 122.815513 
L 236.358404 122.815513 
L 236.400924 122.998858 
L 236.400924 122.998858 
L 236.573907 122.998858 
L 236.66173 123.185392 
L 236.66173 123.185392 
L 236.760532 123.185392 
L 236.760532 123.185392 
L 236.885215 123.375228 
L 236.885215 123.375228 
L 237.022197 123.568484 
L 237.022197 123.568484 
L 237.121048 123.568484 
L 237.121048 123.568484 
L 237.18049 123.765286 
L 237.18049 123.765286 
L 237.296986 123.765286 
L 237.296986 123.765286 
L 237.432936 123.965767 
L 237.432936 123.965767 
L 237.520614 123.965767 
L 237.520614 123.965767 
L 237.538831 124.170067 
L 237.538831 124.170067 
L 237.748905 124.170067 
L 237.748905 124.170067 
L 237.856679 124.378334 
L 237.856679 124.378334 
L 237.951385 124.378334 
L 237.951385 124.378334 
L 238.015452 124.590726 
L 238.015452 124.590726 
L 238.11646 124.590726 
L 238.11646 124.590726 
L 238.24506 124.807408 
L 238.24506 124.807408 
L 238.390249 125.028559 
L 238.390249 125.028559 
L 238.567201 125.028559 
L 238.567201 125.028559 
L 238.587914 125.254366 
L 238.587914 125.254366 
L 238.723722 125.254366 
L 238.723722 125.254366 
L 238.855185 125.485029 
L 238.855185 125.485029 
L 238.994213 125.485029 
L 238.994213 125.485029 
L 239.019538 125.720762 
L 239.019538 125.720762 
L 239.16075 125.720762 
L 239.16075 125.720762 
L 239.254324 125.961793 
L 239.254324 125.961793 
L 239.461584 125.961793 
L 239.461584 125.961793 
L 239.491248 126.208365 
L 239.491248 126.208365 
L 239.741581 126.208365 
L 239.741581 126.208365 
L 239.746458 126.46074 
L 239.746458 126.46074 
L 239.980704 126.46074 
L 239.980704 126.46074 
L 240.014396 126.719196 
L 240.014396 126.719196 
L 240.2407 126.719196 
L 240.270781 126.984035 
L 240.270781 126.984035 
L 240.497264 126.984035 
L 240.497264 126.984035 
L 240.519143 127.255579 
L 240.519143 127.255579 
L 240.742766 127.255579 
L 240.742766 127.255579 
L 240.855154 127.534177 
L 240.855154 127.534177 
L 240.995875 127.534177 
L 240.995875 127.534177 
L 241.041543 127.820205 
L 241.041543 127.820205 
L 241.224655 127.820205 
L 241.224655 127.820205 
L 241.385155 128.114071 
L 241.385155 128.114071 
L 241.62566 128.114071 
L 241.62566 128.114071 
L 241.747738 128.416216 
L 241.747738 128.416216 
L 241.954833 128.416216 
L 241.992513 128.727119 
L 241.992513 128.727119 
L 242.239962 128.727119 
L 242.239962 128.727119 
L 242.301335 129.047305 
L 242.301335 129.047305 
L 242.511103 129.047305 
L 242.511103 129.047305 
L 242.623555 129.377344 
L 242.623555 129.377344 
L 242.770168 129.377344 
L 242.770168 129.377344 
L 242.98597 129.717862 
L 242.98597 129.717862 
L 243.199401 129.717862 
L 243.199401 129.717862 
L 243.236105 130.069547 
L 243.236105 130.069547 
L 243.548656 130.069547 
L 243.548656 130.069547 
L 243.63533 130.433155 
L 243.63533 130.433155 
L 243.875981 130.433155 
L 243.875981 130.433155 
L 244.006949 130.809525 
L 244.006949 130.809525 
L 244.203054 130.809525 
L 244.203054 130.809525 
L 244.422768 131.199583 
L 244.422768 131.199583 
L 244.681674 131.199583 
L 244.681674 131.199583 
L 244.698057 131.604364 
L 244.698057 131.604364 
L 244.867373 131.604364 
L 244.867373 131.604364 
L 245.135246 132.025023 
L 245.135246 132.025023 
L 245.502479 132.025023 
L 245.502479 132.025023 
L 245.565224 132.462856 
L 245.565224 132.462856 
L 245.902011 132.462856 
L 245.902011 132.462856 
L 245.967022 132.919326 
L 245.967022 132.919326 
L 246.283048 132.919326 
L 246.283048 132.919326 
L 246.293494 133.39609 
L 246.293494 133.39609 
L 246.723835 133.39609 
L 246.723835 133.39609 
L 246.728374 133.895037 
L 246.728374 133.895037 
L 247.182576 133.895037 
L 247.182576 133.895037 
L 247.300823 134.418332 
L 247.300823 134.418332 
L 247.694541 134.418332 
L 247.694541 134.418332 
L 247.699939 134.968474 
L 247.699939 134.968474 
L 248.179678 134.968474 
L 248.179678 134.968474 
L 248.233309 135.548368 
L 248.233309 135.548368 
L 248.708414 135.548368 
L 248.708414 135.548368 
L 248.751407 136.161416 
L 248.751407 136.161416 
L 249.187183 136.161416 
L 249.187183 136.161416 
L 249.32765 136.811641 
L 249.32765 136.811641 
L 249.527133 136.811641 
L 249.527133 136.811641 
L 249.880543 137.503844 
L 249.880543 137.503844 
L 250.156432 137.503844 
L 250.156432 137.503844 
L 250.450957 138.243822 
L 250.450957 138.243822 
L 251.739506 139.897153 
L 251.739506 139.897153 
L 251.874931 139.897153 
L 251.874931 139.897153 
L 252.465751 140.830387 
L 252.465751 140.830387 
L 252.633941 140.830387 
L 252.633941 140.830387 
L 253.276314 141.852629 
L 253.276314 141.852629 
L 253.785609 141.852629 
L 253.785609 141.852629 
L 254.152233 142.982665 
L 254.152233 142.982665 
L 255.028155 144.245938 
L 255.028155 144.245938 
L 255.689658 144.245938 
L 255.689658 144.245938 
L 255.997016 145.678118 
L 255.997016 145.678118 
L 256.144349 145.678118 
L 256.144349 145.678118 
L 257.070377 147.33145 
L 257.070377 147.33145 
L 257.464202 147.33145 
L 257.464202 147.33145 
L 258.322011 149.286926 
L 258.322011 149.286926 
L 259.182441 149.286926 
L 259.182441 149.286926 
L 259.732305 151.680235 
L 259.732305 151.680235 
L 261.438522 151.680235 
L 261.438522 151.680235 
L 261.443312 154.765747 
L 261.443312 154.765747 
L 263.538208 154.765747 
L 263.538208 154.765747 
L 263.585922 159.114532 
L 263.585922 159.114532 
L 266.150196 159.114532 
L 266.150196 159.114532 
L 266.728704 166.548829 
L 266.728704 166.548829 
" style="fill:none;stroke:#76a254;stroke-linecap:square;stroke-width:1.5;"/>
   </g>
  </g>
 </g>
 <defs>
  <clipPath id="pcd51b40647">
   <rect height="160.694522" width="230.36852" x="46.83148" y="13.158603"/>
  </clipPath>
 </defs>
</svg>
