<?xml version="1.0" encoding="utf-8" standalone="no"?>
<!DOCTYPE svg PUBLIC "-//W3C//DTD SVG 1.1//EN"
  "http://www.w3.org/Graphics/SVG/1.1/DTD/svg11.dtd">
<!-- Created with matplotlib (https://matplotlib.org/) -->
<svg height="243.734625pt" version="1.1" viewBox="0 0 261.85 243.734625" width="261.85pt" xmlns="http://www.w3.org/2000/svg" xmlns:xlink="http://www.w3.org/1999/xlink">
 <defs>
  <style type="text/css">
*{stroke-linecap:butt;stroke-linejoin:round;}
  </style>
 </defs>
 <g id="figure_1">
  <g id="patch_1">
   <path d="M 0 243.734625 
L 261.85 243.734625 
L 261.85 0 
L 0 0 
z
" style="fill:none;"/>
  </g>
  <g id="axes_1">
   <g id="patch_2">
    <path d="M 31.45 187.4475 
L 254.65 187.4475 
L 254.65 24.3675 
L 31.45 24.3675 
z
" style="fill:none;"/>
   </g>
   <g id="patch_3">
    <path clip-path="url(#pabb677151f)" d="M 45.4 187.4475 
L 73.3 187.4475 
L 73.3 153.941225 
L 45.4 153.941225 
z
" style="fill:#e4cccf;"/>
   </g>
   <g id="patch_4">
    <path clip-path="url(#pabb677151f)" d="M 101.2 187.4475 
L 129.1 187.4475 
L 129.1 185.371106 
L 101.2 185.371106 
z
" style="fill:#e4cccf;"/>
   </g>
   <g id="patch_5">
    <path clip-path="url(#pabb677151f)" d="M 157 187.4475 
L 184.9 187.4475 
L 184.9 179.370628 
L 157 179.370628 
z
" style="fill:#e4cccf;"/>
   </g>
   <g id="patch_6">
    <path clip-path="url(#pabb677151f)" d="M 212.8 187.4475 
L 240.7 187.4475 
L 240.7 186.380048 
L 212.8 186.380048 
z
" style="fill:#e4cccf;"/>
   </g>
   <g id="patch_7">
    <path clip-path="url(#pabb677151f)" d="M 45.4 153.941225 
L 73.3 153.941225 
L 73.3 61.88969 
L 45.4 61.88969 
z
" style="fill:#c898a0;"/>
   </g>
   <g id="patch_8">
    <path clip-path="url(#pabb677151f)" d="M 101.2 185.371106 
L 129.1 185.371106 
L 129.1 170.213428 
L 101.2 170.213428 
z
" style="fill:#c898a0;"/>
   </g>
   <g id="patch_9">
    <path clip-path="url(#pabb677151f)" d="M 157 179.370628 
L 184.9 179.370628 
L 184.9 127.599199 
L 157 127.599199 
z
" style="fill:#c898a0;"/>
   </g>
   <g id="patch_10">
    <path clip-path="url(#pabb677151f)" d="M 212.8 186.380048 
L 240.7 186.380048 
L 240.7 176.772979 
L 212.8 176.772979 
z
" style="fill:#c898a0;"/>
   </g>
   <g id="patch_11">
    <path clip-path="url(#pabb677151f)" d="M 45.4 61.88969 
L 73.3 61.88969 
L 73.3 34.794362 
L 45.4 34.794362 
z
" style="fill:#ad6570;"/>
   </g>
   <g id="patch_12">
    <path clip-path="url(#pabb677151f)" d="M 101.2 170.213428 
L 129.1 170.213428 
L 129.1 93.802122 
L 101.2 93.802122 
z
" style="fill:#ad6570;"/>
   </g>
   <g id="patch_13">
    <path clip-path="url(#pabb677151f)" d="M 157 127.599199 
L 184.9 127.599199 
L 184.9 51.994376 
L 157 51.994376 
z
" style="fill:#ad6570;"/>
   </g>
   <g id="patch_14">
    <path clip-path="url(#pabb677151f)" d="M 212.8 176.772979 
L 240.7 176.772979 
L 240.7 142.61451 
L 212.8 142.61451 
z
" style="fill:#ad6570;"/>
   </g>
   <g id="patch_15">
    <path clip-path="url(#pabb677151f)" d="M 45.4 34.794362 
L 73.3 34.794362 
L 73.3 32.133214 
L 45.4 32.133214 
z
" style="fill:#913140;"/>
   </g>
   <g id="patch_16">
    <path clip-path="url(#pabb677151f)" d="M 101.2 93.802122 
L 129.1 93.802122 
L 129.1 32.133214 
L 101.2 32.133214 
z
" style="fill:#913140;"/>
   </g>
   <g id="patch_17">
    <path clip-path="url(#pabb677151f)" d="M 157 51.994376 
L 184.9 51.994376 
L 184.9 32.133214 
L 157 32.133214 
z
" style="fill:#913140;"/>
   </g>
   <g id="patch_18">
    <path clip-path="url(#pabb677151f)" d="M 212.8 142.61451 
L 240.7 142.61451 
L 240.7 32.133214 
L 212.8 32.133214 
z
" style="fill:#913140;"/>
   </g>
   <g id="matplotlib.axis_1">
    <g id="xtick_1">
     <g id="line2d_1"/>
     <g id="text_1">
      <!-- 0 -->
      <defs>
       <path d="M 23.296875 57.09375 
C 25 57.09375 26.59375 56.5 27.703125 55.5 
C 30.796875 52.90625 33.5 45.09375 33.5 31.703125 
C 33.5 22.5 33.203125 17.296875 31.796875 12.203125 
C 29.59375 3.90625 24.703125 2.90625 22.90625 2.90625 
C 13.59375 2.90625 12.5 20 12.5 28.703125 
C 12.5 53.40625 18.703125 57.09375 23.296875 57.09375 
z
M 22.796875 -1 
C 30.5 -1 42.09375 7.5 42.09375 30.90625 
C 42.09375 46.5 36.40625 54.203125 32.796875 57.5 
C 30.09375 60 26.90625 61 23.296875 61 
C 13.296875 61 3.90625 48.59375 3.90625 28.90625 
C 3.90625 12.703125 10.40625 -1 22.796875 -1 
z
" id="LinBiolinumO-48"/>
      </defs>
      <g style="fill:#808080;" transform="translate(61.664844 195.5975)rotate(-90)scale(0.1 -0.1)">
       <use xlink:href="#LinBiolinumO-48"/>
      </g>
     </g>
    </g>
    <g id="xtick_2">
     <g id="line2d_2"/>
     <g id="text_2">
      <!-- 1 -->
      <defs>
       <path d="M 32.59375 18.90625 
L 32.59375 44.296875 
C 32.59375 55.09375 33.203125 59.09375 33.40625 60.5 
C 33.40625 61 33.09375 61 32.703125 61 
C 26.203125 58.90625 18.59375 55 10.796875 52.59375 
L 11.40625 49.703125 
C 15.90625 50.203125 20.796875 51.296875 22.796875 51.296875 
C 24.59375 51.296875 24.59375 47.296875 24.59375 43.703125 
L 24.59375 18.90625 
C 24.59375 11.09375 24.5 5.703125 23.796875 0 
L 23.90625 -0.296875 
C 23.90625 -0.296875 26.703125 0 28.5 0 
C 30.5 0 33.296875 -0.296875 33.296875 -0.296875 
L 33.5 0 
C 32.796875 6 32.59375 11 32.59375 18.90625 
z
" id="LinBiolinumO-49"/>
      </defs>
      <g style="fill:#808080;" transform="translate(117.464844 195.5975)rotate(-90)scale(0.1 -0.1)">
       <use xlink:href="#LinBiolinumO-49"/>
      </g>
     </g>
    </g>
    <g id="xtick_3">
     <g id="line2d_3"/>
     <g id="text_3">
      <!-- 2 -->
      <defs>
       <path d="M 22.203125 55.296875 
C 27.40625 55.296875 32.703125 50.5 32.703125 43.40625 
C 32.703125 39.296875 31.5 34 28.90625 30.09375 
C 21.796875 19.40625 10.296875 9.296875 5.40625 4.703125 
C 5.296875 4.296875 5.203125 3.90625 5.203125 3.40625 
C 5.203125 1.90625 5.703125 0.296875 6.203125 -0.5 
C 13.59375 -0.296875 17.90625 0 25.203125 0 
C 32.40625 0 35.40625 -0.203125 42.5 -0.5 
C 42.40625 0.5 42.203125 1.703125 42.203125 2.796875 
C 42.203125 4.40625 42.296875 5.90625 42.703125 7.5 
C 37.09375 7 34 6.703125 24.40625 6.703125 
C 20.90625 6.703125 19 6.703125 16.203125 6.5 
C 16.203125 6.59375 16.09375 6.796875 16.09375 7 
C 16.09375 7.90625 17.203125 8.90625 17.90625 9.703125 
C 22.796875 14.40625 27.5 18.90625 34.09375 27.796875 
C 37.796875 32.703125 41.296875 39.09375 41.296875 44.796875 
C 41.296875 54.296875 34.90625 61 23.796875 61 
C 14.703125 61 8.796875 55.90625 6.59375 52.90625 
L 8.703125 46 
L 10 45.90625 
C 11.40625 48.90625 11.90625 50.90625 14.5 53 
C 16.5 54.59375 19.40625 55.296875 22.203125 55.296875 
z
" id="LinBiolinumO-50"/>
      </defs>
      <g style="fill:#808080;" transform="translate(173.264844 195.5975)rotate(-90)scale(0.1 -0.1)">
       <use xlink:href="#LinBiolinumO-50"/>
      </g>
     </g>
    </g>
    <g id="xtick_4">
     <g id="line2d_4"/>
     <g id="text_4">
      <!-- 3 -->
      <defs>
       <path d="M 20.90625 2.90625 
C 13 2.90625 11.90625 5.90625 9.203125 11.703125 
L 7.703125 11.59375 
L 5.5 4.09375 
L 5.796875 3.796875 
C 8.40625 1.59375 12.703125 -1 20.703125 -1 
C 29.203125 -1 42.59375 4.796875 42.59375 18 
C 42.59375 25.90625 36.5 31.5 28.796875 32.203125 
L 28.796875 32.703125 
C 34 33.90625 40.59375 39.703125 40.59375 48 
C 40.59375 55.203125 34.40625 61 24.5 61 
C 16.796875 61 11.203125 57.59375 8.703125 55.40625 
L 8.40625 55.09375 
L 10.5 48.703125 
L 12 48.59375 
C 14.40625 54.203125 17.59375 57.09375 23.59375 57.09375 
C 27.5 57.09375 31.90625 53 31.90625 46.5 
C 31.90625 42.09375 30.40625 38.90625 28.09375 36.703125 
C 26.09375 34.796875 23.203125 33.90625 19.796875 33.90625 
C 18.59375 33.90625 17.5 34 16.09375 34.203125 
L 16.09375 29.796875 
C 17.296875 30 19.40625 30 20.296875 30 
C 23.5 30 27.296875 29.09375 30.09375 26.796875 
C 32.703125 24.59375 34 21.09375 34 17.203125 
C 34 5.09375 24.5 2.90625 20.90625 2.90625 
z
" id="LinBiolinumO-51"/>
      </defs>
      <g style="fill:#808080;" transform="translate(229.064844 195.5975)rotate(-90)scale(0.1 -0.1)">
       <use xlink:href="#LinBiolinumO-51"/>
      </g>
     </g>
    </g>
    <g id="text_5">
     <!-- Cluster -->
     <defs>
      <path d="M 38 65.796875 
C 21.09375 65.796875 5.203125 51.203125 5.203125 31.5 
C 5.203125 14.203125 15.09375 -1 36.59375 -1 
C 45.796875 -1 54.5 1.796875 61.203125 9.90625 
C 61.09375 11.09375 60.90625 13.296875 60.59375 14.203125 
L 59.90625 14.5 
C 52.796875 6.703125 46.796875 4.09375 37.5 4.09375 
C 24.796875 4.09375 15.5 17.796875 15.5 33.40625 
C 15.5 53.703125 28.40625 61.09375 36.59375 61.09375 
C 45.59375 61.09375 52.90625 57.5 57 49.296875 
L 58.203125 49.40625 
C 58.5 54.5 58.90625 56.203125 60 60.5 
L 59.796875 60.796875 
C 59.796875 60.796875 50.203125 65.796875 38 65.796875 
z
" id="LinBiolinumO-67"/>
      <path d="M 9 20 
C 9 12.5 8.796875 5.296875 8.09375 0 
L 8.296875 -0.296875 
C 9.5 -0.09375 11.796875 0 13 0 
C 14.203125 0 16.5 -0.09375 17.703125 -0.296875 
L 17.90625 0 
C 17.09375 5.703125 17 12.40625 17 20 
L 17 50 
C 17 57.5 17.40625 62.40625 17.90625 68.796875 
C 17.90625 69.5 17.59375 69.796875 17 69.796875 
C 14.40625 68.796875 12.296875 68.09375 8.296875 67.796875 
L 8.09375 67.5 
C 8.796875 63.203125 9 55.796875 9 48.203125 
z
" id="LinBiolinumO-108"/>
      <path d="M 36.5 9.203125 
L 36.90625 8.90625 
L 37.40625 0 
C 37.40625 -0.203125 37.5 -0.296875 37.796875 -0.296875 
C 39.09375 -0.203125 40.296875 0 41.703125 0 
C 43 0 44.90625 -0.09375 46.203125 -0.296875 
L 46.40625 0 
C 45.59375 4.296875 44.703125 11.703125 44.703125 19.203125 
L 44.703125 24.90625 
C 44.703125 32.40625 44.796875 37.59375 45.59375 42.90625 
L 45.40625 43.203125 
C 44.203125 43 41.90625 42.90625 40.703125 42.90625 
C 39.5 42.90625 37.203125 43 36 43.203125 
L 35.796875 42.90625 
C 36.5 37.09375 36.703125 32.5 36.703125 24.90625 
L 36.703125 15.09375 
C 33.59375 9.90625 27.90625 4.59375 23 4.59375 
C 19.5 4.59375 16.296875 5.703125 16.296875 15 
L 16.296875 24.90625 
C 16.296875 32.40625 16.40625 37.59375 17.203125 42.90625 
L 17 43.203125 
C 15.796875 43 13.5 42.90625 12.296875 42.90625 
C 11.09375 42.90625 8.796875 43 7.59375 43.203125 
L 7.40625 42.90625 
C 8.203125 37.203125 8.296875 32.5 8.296875 24.90625 
L 8.296875 12.90625 
C 8.296875 6 11.5 -1 21.40625 -1 
C 27.59375 -1 33.203125 4.09375 36.5 9.203125 
z
" id="LinBiolinumO-117"/>
      <path d="M 5 10.09375 
L 3.296875 1.703125 
C 9 -0.296875 14.59375 -1 18.40625 -1 
C 32.203125 -1 35.40625 7.203125 35.40625 12.703125 
C 35.40625 20.90625 28.90625 24.09375 21.796875 25.796875 
C 18 26.703125 12.5 28.59375 12.5 33.59375 
C 12.5 37.703125 15.796875 39.90625 20.09375 39.90625 
C 25.296875 39.90625 28.5 35.796875 30.796875 33.09375 
L 32.203125 33.203125 
L 34.203125 40.59375 
L 34 40.90625 
C 31.09375 42.40625 25.59375 43.90625 20.5 43.90625 
C 13.09375 43.90625 5.40625 40 5.40625 31.703125 
C 5.40625 23.703125 11.296875 21 17.40625 19.40625 
C 23.203125 17.796875 27.5 16.203125 27.5 11.296875 
C 27.5 6 23.59375 3 18.296875 3 
C 13.5 3 9.296875 6.296875 6.5 10.203125 
z
" id="LinBiolinumO-115"/>
      <path d="M 9.5 42.90625 
C 7.40625 42.90625 5.296875 42.90625 4.09375 43.09375 
C 3.40625 41.40625 2.796875 40.5 1.90625 39 
L 2.40625 38.296875 
C 4.09375 38.40625 7.203125 38.40625 9.5 38.5 
L 9.5 24.796875 
C 9.5 18.796875 9.203125 11.59375 9.203125 8.59375 
C 9.203125 2.09375 13.40625 -1 18 -1 
C 22.203125 -1 25.40625 0 29.59375 2.703125 
L 28.296875 5.09375 
C 25.296875 4.09375 23 4 20.5 4.40625 
C 18.09375 4.703125 17.203125 7.09375 17.203125 12.59375 
C 17.203125 15.59375 17.5 19.90625 17.5 25.90625 
L 17.5 38.5 
L 21.296875 38.5 
C 23.703125 38.5 27.09375 38.40625 28.5 38.296875 
C 28.796875 39.90625 29.09375 40.90625 29.703125 42.40625 
L 29.203125 43.09375 
C 27.40625 43 24.5 42.90625 22.203125 42.90625 
L 17.5 42.90625 
C 17.5 50.296875 17.5 51.703125 18 57.5 
C 18 58.203125 17.703125 58.5 17.09375 58.5 
C 14.5 57.5 13.296875 56.40625 10.09375 56 
L 9.90625 55.703125 
C 9.703125 52.203125 9.5 48.703125 9.5 42.90625 
z
" id="LinBiolinumO-116"/>
      <path d="M 12.5 27.296875 
C 14.203125 37.703125 20.703125 39.90625 23.90625 39.90625 
C 27.796875 39.90625 32.296875 36.203125 32.296875 28.703125 
C 32.296875 27.796875 31.90625 27.296875 30.90625 27.296875 
z
M 39.203125 10.40625 
C 35.703125 6.59375 31 4.90625 25.5 4.90625 
C 22 4.90625 17.296875 6.203125 14.59375 10.59375 
C 12.796875 13.40625 12.203125 17.40625 12.203125 23.296875 
L 39.40625 23.296875 
C 40.5 23.296875 41.203125 23.90625 41.203125 25 
C 41.203125 33.40625 37.09375 43.90625 23.90625 43.90625 
C 13.59375 43.90625 3.40625 35.59375 3.40625 20.90625 
C 3.40625 15.203125 4.5 9.59375 7.90625 5.59375 
C 11.296875 1.40625 17 -1 23.796875 -1 
C 31 -1 37.40625 2.703125 41.203125 7.90625 
z
" id="LinBiolinumO-101"/>
      <path d="M 16.703125 33.40625 
L 16.703125 42.5 
C 16.703125 43.203125 16.5 43.5 16.09375 43.5 
C 13.796875 43 10.203125 42.90625 8 43.203125 
L 7.796875 42.90625 
C 8.5 38.5 8.703125 31 8.703125 23.5 
L 8.703125 18 
C 8.703125 10.5 8.5 5.296875 7.796875 0 
L 8 -0.296875 
C 9.203125 -0.09375 11.5 0 12.703125 0 
C 13.90625 0 16.203125 -0.09375 17.40625 -0.296875 
L 17.59375 0 
C 16.796875 5.703125 16.703125 10.40625 16.703125 18 
L 16.703125 23.203125 
C 16.703125 27.40625 17.90625 29.796875 20.09375 33.09375 
C 21.5 35.296875 23.796875 36.59375 25.703125 36.59375 
C 27.703125 36.59375 29.59375 36.40625 30.90625 35.203125 
L 31.703125 35.40625 
L 33.703125 42.796875 
L 33.296875 43.203125 
C 31.59375 43.703125 31.5 43.90625 29.703125 43.90625 
C 24.296875 43.90625 21.40625 40.796875 17 33.203125 
z
" id="LinBiolinumO-114"/>
     </defs>
     <g style="fill:#808080;" transform="translate(124.99 207.973125)scale(0.12 -0.12)">
      <use xlink:href="#LinBiolinumO-67"/>
      <use x="67.699982" xlink:href="#LinBiolinumO-108"/>
      <use x="92.899979" xlink:href="#LinBiolinumO-117"/>
      <use x="146.599976" xlink:href="#LinBiolinumO-115"/>
      <use x="186.199966" xlink:href="#LinBiolinumO-116"/>
      <use x="220.199951" xlink:href="#LinBiolinumO-101"/>
      <use x="265.499939" xlink:href="#LinBiolinumO-114"/>
     </g>
     <!--  -->
     <g style="fill:#808080;" transform="translate(143.05 220.843875)scale(0.12 -0.12)"/>
     <!-- Silhouette score: 0.56 -->
     <defs>
      <path d="M 24.203125 3.40625 
C 18.59375 3.40625 11.40625 8.296875 8.296875 14.203125 
L 7.296875 14.09375 
C 6.90625 10.5 5.796875 6.796875 5 3.796875 
L 5.203125 3.5 
C 5.203125 3.5 11.703125 -1 23.40625 -1 
C 35.703125 -1 45.203125 6.5 45.203125 18.09375 
C 45.203125 29.703125 35.296875 35 27.296875 38.09375 
C 22.203125 40 15.09375 42.90625 15.09375 51.203125 
C 15.09375 54.796875 17.09375 58.796875 19.703125 60.203125 
C 21.40625 61.09375 23.5 61.40625 25.796875 61.40625 
C 31.296875 61.40625 36.703125 57.09375 39.40625 50.90625 
L 40.40625 51 
C 40.796875 54.59375 41.796875 58 42.703125 61 
L 42.5 61.296875 
C 42.5 61.296875 38.296875 65.796875 26.59375 65.796875 
C 23.90625 65.796875 20.90625 65.296875 18 64.09375 
C 12.09375 61.59375 7 55.796875 7 48.5 
C 7 38 15.90625 33.09375 24.203125 29.59375 
C 30.703125 26.90625 35.90625 23.59375 35.90625 15.09375 
C 35.90625 7.59375 30.09375 3.40625 24.203125 3.40625 
z
" id="LinBiolinumO-83"/>
      <path d="M 8 59.703125 
C 8 57 10.40625 54.59375 13.09375 54.59375 
C 15.796875 54.59375 18.203125 57 18.203125 59.703125 
C 18.203125 62.40625 15.796875 64.796875 13.09375 64.796875 
C 10.40625 64.796875 8 62.40625 8 59.703125 
z
M 9 23.5 
L 9 18 
C 9 10.5 8.796875 5.40625 8.09375 0 
L 8.296875 -0.296875 
C 9.5 -0.09375 11.796875 0 13 0 
C 14.203125 0 16.5 -0.09375 17.703125 -0.296875 
L 17.90625 0 
C 17.09375 5.59375 17 10.40625 17 18 
L 17 25.09375 
C 17 32.59375 17.203125 36.203125 17.90625 42.296875 
C 17.90625 43.203125 17.703125 43.296875 17 43.296875 
C 14.703125 43 10.40625 43 8.296875 43.203125 
L 8.09375 42.90625 
C 8.703125 38.59375 9 31 9 23.5 
z
" id="LinBiolinumO-105"/>
      <path d="M 17 35.203125 
L 17 50.09375 
C 17 57.5 17.40625 62.59375 17.90625 68.796875 
C 17.90625 69.5 17.59375 69.796875 17 69.796875 
C 14.40625 68.796875 12.296875 68.09375 8.296875 67.796875 
L 8.09375 67.5 
C 8.796875 63.203125 9 55.703125 9 48.09375 
L 9 18 
C 9 10.5 8.796875 5.59375 8.09375 0 
L 8.296875 -0.296875 
C 9.5 -0.09375 11.796875 0 13 0 
C 14.203125 0 16.5 -0.09375 17.703125 -0.296875 
L 17.90625 0 
C 17.09375 5.703125 17 10.40625 17 18 
L 17 29.703125 
C 22.09375 35.703125 27.90625 37.90625 31.5 37.90625 
C 36.59375 37.90625 38.703125 35.90625 38.703125 27.796875 
L 38.703125 18 
C 38.703125 10.5 38.59375 5.296875 37.796875 0 
L 38 -0.296875 
C 39.203125 -0.09375 41.5 0 42.703125 0 
C 43.90625 0 46.203125 -0.09375 47.40625 -0.296875 
L 47.59375 0 
C 46.796875 5.703125 46.703125 10.40625 46.703125 18 
C 46.703125 21.203125 46.90625 24.90625 46.90625 28.09375 
C 46.90625 38.5 43.5 43.90625 34.5 43.90625 
C 30.703125 43.90625 23.59375 42.40625 17.203125 34.90625 
z
" id="LinBiolinumO-104"/>
      <path d="M 3.796875 20.5 
C 3.796875 8.5 11.703125 -1 25 -1 
C 38.203125 -1 46.203125 8.296875 46.203125 21.40625 
C 46.203125 35 38.90625 43.90625 25.40625 43.90625 
C 12.296875 43.90625 3.796875 34.703125 3.796875 20.5 
z
M 24.703125 39.90625 
C 35.296875 39.90625 37.40625 31.703125 37.40625 19.59375 
C 37.40625 10 32.59375 3 25.90625 3 
C 15.296875 3 12.59375 14.5 12.59375 22.203125 
C 12.59375 30.90625 15.296875 39.90625 24.703125 39.90625 
z
" id="LinBiolinumO-111"/>
      <path id="LinBiolinumO-32"/>
      <path d="M 25 39.90625 
C 28.796875 39.90625 32.296875 37 35 32.5 
L 36.296875 32.59375 
L 38.59375 40.796875 
L 38.40625 41.09375 
C 35.296875 42.703125 30.09375 43.90625 25.09375 43.90625 
C 14.703125 43.90625 3.796875 35.40625 3.796875 21.796875 
C 3.796875 7.796875 11.703125 -1 23.90625 -1 
C 29.90625 -1 34.59375 1 38.59375 6.09375 
L 36.703125 8.203125 
L 36.296875 8.203125 
C 32.5 4.796875 29.296875 4 25.59375 4 
C 18.296875 4 12.59375 10.59375 12.59375 22.296875 
C 12.59375 33.296875 18.40625 39.90625 25 39.90625 
z
" id="LinBiolinumO-99"/>
      <path d="M 6.09375 35.59375 
C 6.90625 32.203125 8.296875 30.90625 11.5 30.203125 
L 11.90625 30.203125 
C 14.703125 30.90625 16.203125 32.296875 17.296875 35.59375 
L 17.296875 36 
C 16.296875 38.796875 14.796875 40.296875 11.90625 41.40625 
L 11.5 41.40625 
C 8.40625 40.09375 7 38.59375 6.09375 36 
z
M 6.09375 9.296875 
C 6.90625 5.90625 8.296875 4.59375 11.5 3.90625 
L 11.90625 3.90625 
C 14.703125 4.59375 16.203125 6 17.296875 9.296875 
L 17.296875 9.703125 
C 16.296875 12.5 14.796875 14 11.90625 15.09375 
L 11.5 15.09375 
C 8.40625 13.796875 7 12.296875 6.09375 9.703125 
z
" id="LinBiolinumO-58"/>
      <path d="M 5.40625 4.40625 
C 6.203125 1 7.59375 -0.296875 10.796875 -1 
L 11.203125 -1 
C 14 -0.296875 15.5 1.09375 16.59375 4.40625 
L 16.59375 4.796875 
C 15.59375 7.59375 14.09375 9.09375 11.203125 10.203125 
L 10.796875 10.203125 
C 7.703125 8.90625 6.296875 7.40625 5.40625 4.796875 
z
" id="LinBiolinumO-46"/>
      <path d="M 20.203125 -1 
C 32.09375 -1 40.59375 7.796875 40.59375 19.59375 
C 40.59375 29.296875 34.09375 38 22.90625 38 
C 18.796875 38 14.203125 37.296875 12 36.5 
L 14.09375 54.203125 
C 17.796875 53.703125 22.09375 53.296875 26.796875 53.296875 
C 29.796875 53.296875 33.203125 53.40625 37.296875 53.90625 
L 38.90625 60.703125 
L 38.203125 61 
C 32.5 60.296875 27.09375 60 21.796875 60 
C 18.09375 60 13.796875 60.296875 10.40625 60.59375 
L 7.203125 31.09375 
L 7.90625 30.90625 
C 11.796875 32.5 15.59375 34 20.296875 34 
C 26.796875 34 31.796875 28.796875 31.796875 17.90625 
C 31.796875 8.703125 27.203125 3 20.40625 3 
C 12.90625 3 11.59375 7 8.296875 13 
L 6.90625 12.90625 
L 4.703125 4.90625 
L 5.09375 4.59375 
C 7.59375 2.40625 12.59375 -1 20.203125 -1 
z
" id="LinBiolinumO-53"/>
      <path d="M 12.703125 27.703125 
C 16.59375 31.703125 20.59375 31.796875 22.796875 31.796875 
C 32.90625 31.796875 34.40625 22.203125 34.40625 17.296875 
C 34.40625 6.296875 30.296875 2.703125 25.5 2.703125 
C 20.203125 2.703125 12.59375 6.203125 12.59375 24 
C 12.59375 25 12.59375 26.703125 12.703125 27.703125 
z
M 40 58.296875 
L 39.703125 61.09375 
C 29.40625 60.5 22.09375 57.703125 15.296875 50.796875 
C 8 43.5 4.59375 34 4.59375 24.296875 
C 4.59375 3.296875 16.703125 -0.90625 24.40625 -0.90625 
C 39 -0.90625 43.203125 10.796875 43.203125 18 
C 43.203125 22.796875 40.5 35.796875 24.90625 35.796875 
C 20.90625 35.796875 15.296875 33.59375 12.90625 30.59375 
C 14 39.09375 17.59375 46.203125 22.40625 50.90625 
C 27.5 55.796875 33.09375 57.59375 40 58.296875 
z
" id="LinBiolinumO-54"/>
     </defs>
     <g style="fill:#808080;" transform="translate(91.102187 233.714625)scale(0.12 -0.12)">
      <use xlink:href="#LinBiolinumO-83"/>
      <use x="50.599991" xlink:href="#LinBiolinumO-105"/>
      <use x="76.599976" xlink:href="#LinBiolinumO-108"/>
      <use x="101.799973" xlink:href="#LinBiolinumO-104"/>
      <use x="156.699966" xlink:href="#LinBiolinumO-111"/>
      <use x="206.699951" xlink:href="#LinBiolinumO-117"/>
      <use x="260.399948" xlink:href="#LinBiolinumO-101"/>
      <use x="305.699936" xlink:href="#LinBiolinumO-116"/>
      <use x="339.699921" xlink:href="#LinBiolinumO-116"/>
      <use x="373.699905" xlink:href="#LinBiolinumO-101"/>
      <use x="418.999893" xlink:href="#LinBiolinumO-32"/>
      <use x="443.999878" xlink:href="#LinBiolinumO-115"/>
      <use x="483.599869" xlink:href="#LinBiolinumO-99"/>
      <use x="526.499863" xlink:href="#LinBiolinumO-111"/>
      <use x="576.499847" xlink:href="#LinBiolinumO-114"/>
      <use x="611.999832" xlink:href="#LinBiolinumO-101"/>
      <use x="657.29982" xlink:href="#LinBiolinumO-58"/>
      <use x="679.299805" xlink:href="#LinBiolinumO-32"/>
      <use x="704.299789" xlink:href="#LinBiolinumO-48"/>
      <use x="750.799774" xlink:href="#LinBiolinumO-46"/>
      <use x="772.799759" xlink:href="#LinBiolinumO-53"/>
      <use x="819.299744" xlink:href="#LinBiolinumO-54"/>
     </g>
    </g>
   </g>
   <g id="matplotlib.axis_2">
    <g id="ytick_1">
     <g id="line2d_5"/>
     <g id="text_6">
      <!-- 0% -->
      <defs>
       <path d="M 46.203125 8.90625 
C 46.203125 15.09375 50.703125 24 55.90625 24 
C 57.40625 24 60.703125 23.09375 60.703125 17.5 
C 60.703125 11.5 56.90625 1.796875 51 1.796875 
C 49 1.796875 46.203125 3.296875 46.203125 8.90625 
z
M 40.59375 10.5 
C 40.59375 4.796875 43.796875 -1.296875 50.296875 -1.296875 
C 59.203125 -1.296875 63.90625 10.40625 63.90625 17.59375 
C 63.90625 25.40625 59 27.296875 54.703125 27.296875 
C 46.796875 27.296875 40.59375 18.5 40.59375 10.5 
z
M 38.90625 55.703125 
C 37 55.703125 33.296875 55.59375 27.5 58.296875 
C 26.40625 59.59375 23.296875 61 20.296875 61 
C 12.59375 61 6.296875 52.203125 6.296875 44 
C 6.296875 38.59375 9.296875 32.40625 15.90625 32.40625 
C 24.90625 32.40625 29.59375 44.5 29.59375 51.296875 
C 29.59375 52.296875 29.5 53.203125 29.296875 53.90625 
C 31.296875 52.703125 35.296875 51.703125 37.796875 51.703125 
C 41 51.703125 45.09375 52.09375 49.203125 53.703125 
L 10.90625 0.296875 
L 14.5 -1.296875 
L 58.296875 59.703125 
L 54.90625 61.40625 
C 51.59375 56.90625 43.40625 55.703125 38.90625 55.703125 
z
M 11.796875 42.5 
C 11.796875 48.703125 16.296875 57.703125 21.5 57.703125 
C 23.40625 57.703125 26.296875 56.5 26.296875 51.203125 
C 26.296875 45 22.5 35.5 16.59375 35.5 
C 14.703125 35.5 11.796875 36.90625 11.796875 42.5 
z
" id="LinBiolinumO-37"/>
      </defs>
      <g style="fill:#808080;" transform="translate(16.5 190.937344)scale(0.1 -0.1)">
       <use xlink:href="#LinBiolinumO-48"/>
       <use x="46.499985" xlink:href="#LinBiolinumO-37"/>
      </g>
     </g>
    </g>
    <g id="ytick_2">
     <g id="line2d_6"/>
    </g>
    <g id="ytick_3">
     <g id="line2d_7"/>
    </g>
    <g id="ytick_4">
     <g id="line2d_8"/>
    </g>
    <g id="ytick_5">
     <g id="line2d_9"/>
    </g>
    <g id="ytick_6">
     <g id="line2d_10"/>
     <g id="text_7">
      <!-- 100% -->
      <g style="fill:#808080;" transform="translate(7.2 35.623058)scale(0.1 -0.1)">
       <use xlink:href="#LinBiolinumO-49"/>
       <use x="46.499985" xlink:href="#LinBiolinumO-48"/>
       <use x="92.999969" xlink:href="#LinBiolinumO-48"/>
       <use x="139.499954" xlink:href="#LinBiolinumO-37"/>
      </g>
     </g>
    </g>
   </g>
   <g id="text_8">
    <!-- Metadata clusters -->
    <defs>
     <path d="M 19.296875 66.203125 
C 15.796875 46 10.296875 18.40625 6.40625 -0.296875 
C 7.5 0 8.5 0 9.703125 0 
C 10.796875 0 11.59375 0 12.703125 -0.296875 
C 14.203125 10.203125 17.59375 32.5 20 47.59375 
L 20.5 47.59375 
C 28 31.703125 35.09375 15.5 41.5 0 
L 43.40625 0 
C 50.59375 16.40625 57.703125 31.59375 65.59375 47.296875 
L 65.90625 47.203125 
C 68 31.5 70 16.203125 71.5 -0.296875 
C 73 0 74.90625 0 76.40625 0 
C 77.90625 0 80.5 0 82 -0.296875 
C 78.40625 21.09375 75.40625 41.90625 72.59375 66.203125 
L 70.09375 66.203125 
L 45.796875 16.59375 
L 45 16.59375 
C 37.09375 33 29.90625 49 22.59375 66.203125 
z
" id="LinBiolinumO-77"/>
     <path d="M 31 22.5 
L 30.59375 10.59375 
C 30.59375 9.296875 30 8.59375 29.203125 8 
C 26.40625 5.90625 23 4.09375 20 4.09375 
C 15.5 4.09375 12.59375 7.09375 12.59375 10.203125 
C 12.59375 14.703125 14.703125 18.09375 22.5 20.203125 
z
M 31 4.796875 
C 32.09375 0.796875 35.09375 -1 38.796875 -1 
C 41.296875 -1 44.40625 -0.40625 46.703125 2.09375 
L 46 4.5 
C 44.90625 4.09375 44 4 43.296875 4 
C 42.296875 4 41 4.203125 40.296875 4.796875 
C 39.296875 5.703125 38.703125 8.09375 38.703125 12.59375 
C 38.703125 15.5 39 26.59375 39 27.703125 
C 39 41.203125 30.09375 43.90625 22.5 43.90625 
C 14.90625 43.90625 10.296875 40.203125 7.796875 38.09375 
L 7.5 37.703125 
L 9.203125 31 
L 10.5 30.90625 
C 13.296875 35.40625 16.703125 39.40625 21.5 39.40625 
C 25.09375 39.40625 31.09375 38.90625 31.09375 27.59375 
C 31.09375 26.90625 30.703125 26.5 30.40625 26.40625 
L 21.09375 24.296875 
C 10.90625 22 4.5 16.59375 4.5 9.796875 
C 4.5 2.40625 9.59375 -1 17 -1 
C 22.5 -1 25.296875 0.296875 30.59375 4.796875 
z
" id="LinBiolinumO-97"/>
     <path d="M 36.09375 11.296875 
C 32.40625 6.59375 27.796875 4.203125 23.796875 4.203125 
C 18.40625 4.203125 13.796875 9.59375 13.796875 22.09375 
C 13.796875 37.09375 21.703125 39.90625 26.59375 39.90625 
C 31.296875 39.90625 33.703125 37.90625 36.09375 34.09375 
z
M 36.09375 5.796875 
L 36.296875 5.796875 
L 36.796875 0 
C 36.796875 -0.203125 37.09375 -0.296875 37.703125 -0.296875 
C 39 -0.203125 39.703125 0 41.09375 0 
C 42.40625 0 44.296875 -0.09375 45.59375 -0.296875 
L 45.796875 0 
C 45 4.296875 44.09375 11.703125 44.09375 19.203125 
L 44.09375 50 
C 44.09375 57.40625 44.5 62.59375 45 68.796875 
C 45 69.5 44.703125 69.796875 44.09375 69.796875 
C 41.5 68.796875 39.40625 68.09375 35.40625 67.796875 
L 35.203125 67.5 
C 35.90625 63.203125 36.09375 55.796875 36.09375 48.203125 
L 36.09375 41.703125 
C 33.796875 43 29.703125 43.90625 27.703125 43.90625 
C 14.59375 43.90625 5.09375 34.90625 5.09375 21.296875 
C 5.09375 9 12.40625 -1 23.203125 -1 
C 28 -1 32.5 1.09375 36.09375 5.796875 
z
" id="LinBiolinumO-100"/>
    </defs>
    <g transform="translate(83.8525 18.3675)scale(0.16 -0.16)">
     <use xlink:href="#LinBiolinumO-77"/>
     <use x="88.599991" xlink:href="#LinBiolinumO-101"/>
     <use x="133.899979" xlink:href="#LinBiolinumO-116"/>
     <use x="167.899963" xlink:href="#LinBiolinumO-97"/>
     <use x="215.999954" xlink:href="#LinBiolinumO-100"/>
     <use x="268.999939" xlink:href="#LinBiolinumO-97"/>
     <use x="317.09993" xlink:href="#LinBiolinumO-116"/>
     <use x="351.099915" xlink:href="#LinBiolinumO-97"/>
     <use x="399.199905" xlink:href="#LinBiolinumO-32"/>
     <use x="424.19989" xlink:href="#LinBiolinumO-99"/>
     <use x="467.099884" xlink:href="#LinBiolinumO-108"/>
     <use x="492.299881" xlink:href="#LinBiolinumO-117"/>
     <use x="545.999878" xlink:href="#LinBiolinumO-115"/>
     <use x="585.599869" xlink:href="#LinBiolinumO-116"/>
     <use x="619.599854" xlink:href="#LinBiolinumO-101"/>
     <use x="664.899841" xlink:href="#LinBiolinumO-114"/>
     <use x="700.399826" xlink:href="#LinBiolinumO-115"/>
    </g>
   </g>
  </g>
 </g>
 <defs>
  <clipPath id="pabb677151f">
   <rect height="163.08" width="223.2" x="31.45" y="24.3675"/>
  </clipPath>
 </defs>
</svg>
