<?xml version="1.0" encoding="utf-8" standalone="no"?>
<!DOCTYPE svg PUBLIC "-//W3C//DTD SVG 1.1//EN"
  "http://www.w3.org/Graphics/SVG/1.1/DTD/svg11.dtd">
<!-- Created with matplotlib (https://matplotlib.org/) -->
<svg height="222.672813pt" version="1.1" viewBox="0 0 261.9 222.672813" width="261.9pt" xmlns="http://www.w3.org/2000/svg" xmlns:xlink="http://www.w3.org/1999/xlink">
 <defs>
  <style type="text/css">
*{stroke-linecap:butt;stroke-linejoin:round;}
  </style>
 </defs>
 <g id="figure_1">
  <g id="patch_1">
   <path d="M 0 222.672813 
L 261.9 222.672813 
L 261.9 0 
L 0 0 
z
" style="fill:none;"/>
  </g>
  <g id="axes_1">
   <g id="patch_2">
    <path d="M 31.5 187.4475 
L 254.7 187.4475 
L 254.7 24.3675 
L 31.5 24.3675 
z
" style="fill:none;"/>
   </g>
   <g id="patch_3">
    <path clip-path="url(#pa62ee62405)" d="M 41.645455 187.4475 
L 84.363158 187.4475 
L 84.363158 156.281352 
L 41.645455 156.281352 
z
" style="fill:#727ecf;"/>
   </g>
   <g id="patch_4">
    <path clip-path="url(#pa62ee62405)" d="M 95.042584 187.4475 
L 137.760287 187.4475 
L 137.760287 116.176537 
L 95.042584 116.176537 
z
" style="fill:#727ecf;"/>
   </g>
   <g id="patch_5">
    <path clip-path="url(#pa62ee62405)" d="M 201.836842 187.4475 
L 244.554545 187.4475 
L 244.554545 32.133214 
L 201.836842 32.133214 
z
" style="fill:#727ecf;"/>
   </g>
   <g id="matplotlib.axis_1">
    <g id="xtick_1">
     <g id="line2d_1"/>
     <g id="text_1">
      <!-- 7 -->
      <defs>
       <path d="M 34.5 52.5 
C 26.703125 33.203125 19.09375 14.296875 12.40625 -0.703125 
L 12.703125 -1.296875 
L 20 -0.90625 
C 25.703125 16.09375 31.203125 32.703125 42.40625 60 
L 40.703125 61 
C 39.203125 60.5 37.40625 60 34.296875 60 
C 19.40625 60 10.59375 60.09375 6.296875 60.703125 
C 6.5 59.203125 6.796875 58 6.796875 56.5 
C 6.796875 55 6.5 53.09375 6.296875 51.59375 
C 13.59375 52.59375 27.90625 52.703125 34.5 52.5 
z
" id="LinBiolinumO-55"/>
      </defs>
      <g style="fill:#808080;" transform="translate(60.679306 197.927188)scale(0.1 -0.1)">
       <use xlink:href="#LinBiolinumO-55"/>
      </g>
     </g>
    </g>
    <g id="xtick_2">
     <g id="line2d_2"/>
     <g id="text_2">
      <!-- 8 -->
      <defs>
       <path d="M 23.5 57.703125 
C 30 57.703125 32.40625 53.296875 32.40625 48.59375 
C 32.40625 43.203125 27.09375 38.40625 24.296875 36.40625 
L 21.203125 38.203125 
C 14.90625 42.296875 14.203125 46 14.203125 49.09375 
C 14.203125 53.796875 17.5 57.703125 23.5 57.703125 
z
M 39.796875 48.5 
C 39.796875 55.703125 34 61 24.09375 61 
C 13.90625 61 6.703125 55 6.703125 47.296875 
C 6.703125 41.703125 9.796875 36.703125 15.5 33.40625 
L 17.5 32.296875 
C 15 30.40625 13 28.796875 10.5 26.59375 
C 6.40625 23 3.90625 18.5 3.90625 14.59375 
C 3.90625 4.40625 12 -0.90625 22.59375 -0.90625 
C 35.703125 -0.90625 42.796875 8.59375 42.796875 16.203125 
C 42.796875 22 39.59375 26.40625 34.09375 30 
L 28 34 
C 32.5 37 39.796875 42.09375 39.796875 48.5 
z
M 22.796875 2.40625 
C 18.203125 2.40625 11.703125 5.59375 11.703125 14.59375 
C 11.703125 17.59375 12.5 24.296875 21.09375 30 
L 25.703125 27.09375 
C 31.90625 23.203125 34.5 18.796875 34.5 14.09375 
C 34.5 4.40625 27.40625 2.40625 22.796875 2.40625 
z
" id="LinBiolinumO-56"/>
      </defs>
      <g style="fill:#808080;" transform="translate(114.076435 197.927188)scale(0.1 -0.1)">
       <use xlink:href="#LinBiolinumO-56"/>
      </g>
     </g>
    </g>
    <g id="xtick_3">
     <g id="line2d_3"/>
     <g id="text_3">
      <!-- 10 -->
      <defs>
       <path d="M 32.59375 18.90625 
L 32.59375 44.296875 
C 32.59375 55.09375 33.203125 59.09375 33.40625 60.5 
C 33.40625 61 33.09375 61 32.703125 61 
C 26.203125 58.90625 18.59375 55 10.796875 52.59375 
L 11.40625 49.703125 
C 15.90625 50.203125 20.796875 51.296875 22.796875 51.296875 
C 24.59375 51.296875 24.59375 47.296875 24.59375 43.703125 
L 24.59375 18.90625 
C 24.59375 11.09375 24.5 5.703125 23.796875 0 
L 23.90625 -0.296875 
C 23.90625 -0.296875 26.703125 0 28.5 0 
C 30.5 0 33.296875 -0.296875 33.296875 -0.296875 
L 33.5 0 
C 32.796875 6 32.59375 11 32.59375 18.90625 
z
" id="LinBiolinumO-49"/>
       <path d="M 23.296875 57.09375 
C 25 57.09375 26.59375 56.5 27.703125 55.5 
C 30.796875 52.90625 33.5 45.09375 33.5 31.703125 
C 33.5 22.5 33.203125 17.296875 31.796875 12.203125 
C 29.59375 3.90625 24.703125 2.90625 22.90625 2.90625 
C 13.59375 2.90625 12.5 20 12.5 28.703125 
C 12.5 53.40625 18.703125 57.09375 23.296875 57.09375 
z
M 22.796875 -1 
C 30.5 -1 42.09375 7.5 42.09375 30.90625 
C 42.09375 46.5 36.40625 54.203125 32.796875 57.5 
C 30.09375 60 26.90625 61 23.296875 61 
C 13.296875 61 3.90625 48.59375 3.90625 28.90625 
C 3.90625 12.703125 10.40625 -1 22.796875 -1 
z
" id="LinBiolinumO-48"/>
      </defs>
      <g style="fill:#808080;" transform="translate(218.545694 197.927188)scale(0.1 -0.1)">
       <use xlink:href="#LinBiolinumO-49"/>
       <use x="46.499985" xlink:href="#LinBiolinumO-48"/>
      </g>
     </g>
    </g>
    <g id="text_4">
     <!-- Grade -->
     <defs>
      <path d="M 54.59375 11.703125 
L 54.59375 7.203125 
C 51.203125 4 45.296875 3.40625 39.90625 3.40625 
C 22.09375 3.40625 15.5 19.5 15.5 32.703125 
C 15.5 50.203125 25.203125 61.40625 38.703125 61.40625 
C 47.703125 61.40625 55.40625 56.40625 59.90625 48.796875 
L 61.09375 48.90625 
C 61.40625 54 62 56.703125 63.09375 60.5 
L 62.90625 60.796875 
C 62.90625 60.796875 52.296875 65.796875 40.09375 65.796875 
C 22.90625 65.796875 5.203125 53.703125 5.203125 31.703125 
C 5.203125 14.40625 17.5 -1 37.59375 -1 
C 49.203125 -1 57.40625 2.296875 64.203125 8 
L 64.203125 8.296875 
C 63.296875 9.296875 63.203125 12 63.203125 13.09375 
L 63.203125 13.703125 
C 63.203125 21.203125 63.40625 25.40625 64.203125 30.703125 
L 64.09375 31 
C 64.09375 31 62.40625 30.703125 58.90625 30.703125 
C 55.5 30.703125 53.796875 31 53.796875 31 
L 53.59375 30.703125 
C 54.40625 25 54.59375 19.203125 54.59375 11.703125 
z
" id="LinBiolinumO-71"/>
      <path d="M 16.703125 33.40625 
L 16.703125 42.5 
C 16.703125 43.203125 16.5 43.5 16.09375 43.5 
C 13.796875 43 10.203125 42.90625 8 43.203125 
L 7.796875 42.90625 
C 8.5 38.5 8.703125 31 8.703125 23.5 
L 8.703125 18 
C 8.703125 10.5 8.5 5.296875 7.796875 0 
L 8 -0.296875 
C 9.203125 -0.09375 11.5 0 12.703125 0 
C 13.90625 0 16.203125 -0.09375 17.40625 -0.296875 
L 17.59375 0 
C 16.796875 5.703125 16.703125 10.40625 16.703125 18 
L 16.703125 23.203125 
C 16.703125 27.40625 17.90625 29.796875 20.09375 33.09375 
C 21.5 35.296875 23.796875 36.59375 25.703125 36.59375 
C 27.703125 36.59375 29.59375 36.40625 30.90625 35.203125 
L 31.703125 35.40625 
L 33.703125 42.796875 
L 33.296875 43.203125 
C 31.59375 43.703125 31.5 43.90625 29.703125 43.90625 
C 24.296875 43.90625 21.40625 40.796875 17 33.203125 
z
" id="LinBiolinumO-114"/>
      <path d="M 31 22.5 
L 30.59375 10.59375 
C 30.59375 9.296875 30 8.59375 29.203125 8 
C 26.40625 5.90625 23 4.09375 20 4.09375 
C 15.5 4.09375 12.59375 7.09375 12.59375 10.203125 
C 12.59375 14.703125 14.703125 18.09375 22.5 20.203125 
z
M 31 4.796875 
C 32.09375 0.796875 35.09375 -1 38.796875 -1 
C 41.296875 -1 44.40625 -0.40625 46.703125 2.09375 
L 46 4.5 
C 44.90625 4.09375 44 4 43.296875 4 
C 42.296875 4 41 4.203125 40.296875 4.796875 
C 39.296875 5.703125 38.703125 8.09375 38.703125 12.59375 
C 38.703125 15.5 39 26.59375 39 27.703125 
C 39 41.203125 30.09375 43.90625 22.5 43.90625 
C 14.90625 43.90625 10.296875 40.203125 7.796875 38.09375 
L 7.5 37.703125 
L 9.203125 31 
L 10.5 30.90625 
C 13.296875 35.40625 16.703125 39.40625 21.5 39.40625 
C 25.09375 39.40625 31.09375 38.90625 31.09375 27.59375 
C 31.09375 26.90625 30.703125 26.5 30.40625 26.40625 
L 21.09375 24.296875 
C 10.90625 22 4.5 16.59375 4.5 9.796875 
C 4.5 2.40625 9.59375 -1 17 -1 
C 22.5 -1 25.296875 0.296875 30.59375 4.796875 
z
" id="LinBiolinumO-97"/>
      <path d="M 36.09375 11.296875 
C 32.40625 6.59375 27.796875 4.203125 23.796875 4.203125 
C 18.40625 4.203125 13.796875 9.59375 13.796875 22.09375 
C 13.796875 37.09375 21.703125 39.90625 26.59375 39.90625 
C 31.296875 39.90625 33.703125 37.90625 36.09375 34.09375 
z
M 36.09375 5.796875 
L 36.296875 5.796875 
L 36.796875 0 
C 36.796875 -0.203125 37.09375 -0.296875 37.703125 -0.296875 
C 39 -0.203125 39.703125 0 41.09375 0 
C 42.40625 0 44.296875 -0.09375 45.59375 -0.296875 
L 45.796875 0 
C 45 4.296875 44.09375 11.703125 44.09375 19.203125 
L 44.09375 50 
C 44.09375 57.40625 44.5 62.59375 45 68.796875 
C 45 69.5 44.703125 69.796875 44.09375 69.796875 
C 41.5 68.796875 39.40625 68.09375 35.40625 67.796875 
L 35.203125 67.5 
C 35.90625 63.203125 36.09375 55.796875 36.09375 48.203125 
L 36.09375 41.703125 
C 33.796875 43 29.703125 43.90625 27.703125 43.90625 
C 14.59375 43.90625 5.09375 34.90625 5.09375 21.296875 
C 5.09375 9 12.40625 -1 23.203125 -1 
C 28 -1 32.5 1.09375 36.09375 5.796875 
z
" id="LinBiolinumO-100"/>
      <path d="M 12.5 27.296875 
C 14.203125 37.703125 20.703125 39.90625 23.90625 39.90625 
C 27.796875 39.90625 32.296875 36.203125 32.296875 28.703125 
C 32.296875 27.796875 31.90625 27.296875 30.90625 27.296875 
z
M 39.203125 10.40625 
C 35.703125 6.59375 31 4.90625 25.5 4.90625 
C 22 4.90625 17.296875 6.203125 14.59375 10.59375 
C 12.796875 13.40625 12.203125 17.40625 12.203125 23.296875 
L 39.40625 23.296875 
C 40.5 23.296875 41.203125 23.90625 41.203125 25 
C 41.203125 33.40625 37.09375 43.90625 23.90625 43.90625 
C 13.59375 43.90625 3.40625 35.59375 3.40625 20.90625 
C 3.40625 15.203125 4.5 9.59375 7.90625 5.59375 
C 11.296875 1.40625 17 -1 23.796875 -1 
C 31 -1 37.40625 2.703125 41.203125 7.90625 
z
" id="LinBiolinumO-101"/>
     </defs>
     <g style="fill:#808080;" transform="translate(127.884375 212.652813)scale(0.12 -0.12)">
      <use xlink:href="#LinBiolinumO-71"/>
      <use x="71.699982" xlink:href="#LinBiolinumO-114"/>
      <use x="107.199966" xlink:href="#LinBiolinumO-97"/>
      <use x="155.299957" xlink:href="#LinBiolinumO-100"/>
      <use x="208.299942" xlink:href="#LinBiolinumO-101"/>
     </g>
    </g>
   </g>
   <g id="matplotlib.axis_2">
    <g id="ytick_1">
     <g id="line2d_4"/>
     <g id="text_5">
      <!-- 0 -->
      <g style="fill:#808080;" transform="translate(23.35 190.937344)scale(0.1 -0.1)">
       <use xlink:href="#LinBiolinumO-48"/>
      </g>
     </g>
    </g>
    <g id="ytick_2">
     <g id="line2d_5"/>
     <g id="text_6">
      <!-- 2,000 -->
      <defs>
       <path d="M 22.203125 55.296875 
C 27.40625 55.296875 32.703125 50.5 32.703125 43.40625 
C 32.703125 39.296875 31.5 34 28.90625 30.09375 
C 21.796875 19.40625 10.296875 9.296875 5.40625 4.703125 
C 5.296875 4.296875 5.203125 3.90625 5.203125 3.40625 
C 5.203125 1.90625 5.703125 0.296875 6.203125 -0.5 
C 13.59375 -0.296875 17.90625 0 25.203125 0 
C 32.40625 0 35.40625 -0.203125 42.5 -0.5 
C 42.40625 0.5 42.203125 1.703125 42.203125 2.796875 
C 42.203125 4.40625 42.296875 5.90625 42.703125 7.5 
C 37.09375 7 34 6.703125 24.40625 6.703125 
C 20.90625 6.703125 19 6.703125 16.203125 6.5 
C 16.203125 6.59375 16.09375 6.796875 16.09375 7 
C 16.09375 7.90625 17.203125 8.90625 17.90625 9.703125 
C 22.796875 14.40625 27.5 18.90625 34.09375 27.796875 
C 37.796875 32.703125 41.296875 39.09375 41.296875 44.796875 
C 41.296875 54.296875 34.90625 61 23.796875 61 
C 14.703125 61 8.796875 55.90625 6.59375 52.90625 
L 8.703125 46 
L 10 45.90625 
C 11.40625 48.90625 11.90625 50.90625 14.5 53 
C 16.5 54.59375 19.40625 55.296875 22.203125 55.296875 
z
" id="LinBiolinumO-50"/>
       <path d="M 4.796875 4.40625 
C 5.59375 1 7 0.40625 10.203125 -0.296875 
C 11.40625 -0.296875 13.09375 -0.5 13.09375 -2.90625 
C 13.09375 -6.203125 10.203125 -9 5.296875 -12.296875 
C 5.296875 -13.296875 5.90625 -13.90625 6.59375 -14.40625 
C 12 -11.296875 17 -8.5 17 -0.296875 
C 17 6.09375 14.203125 8.796875 10.59375 10.203125 
L 10.203125 10.203125 
C 7.09375 8.90625 5.703125 7.40625 4.796875 4.796875 
z
" id="LinBiolinumO-44"/>
      </defs>
      <g style="fill:#808080;" transform="translate(7.2 151.20994)scale(0.1 -0.1)">
       <use xlink:href="#LinBiolinumO-50"/>
       <use x="46.499985" xlink:href="#LinBiolinumO-44"/>
       <use x="68.499969" xlink:href="#LinBiolinumO-48"/>
       <use x="114.999954" xlink:href="#LinBiolinumO-48"/>
       <use x="161.499939" xlink:href="#LinBiolinumO-48"/>
      </g>
     </g>
    </g>
    <g id="ytick_3">
     <g id="line2d_6"/>
     <g id="text_7">
      <!-- 4,000 -->
      <defs>
       <path d="M 28.59375 14.796875 
C 28.59375 7.09375 28.40625 5.09375 27.796875 0 
L 27.90625 -0.296875 
C 27.90625 -0.296875 31 0 32.59375 0 
C 34.203125 0 35.90625 -0.296875 36.796875 -0.296875 
C 36.90625 -0.296875 37 -0.09375 37 0 
C 36.59375 5.796875 36.40625 9 36.40625 14.796875 
L 41.40625 14.796875 
C 42.796875 14.796875 44.296875 17.09375 44.296875 18.203125 
C 44.296875 19.09375 43.796875 19.796875 42.796875 19.796875 
L 36.40625 19.796875 
L 36.40625 45.203125 
C 36.40625 48.5 36.5 55.40625 37 60 
C 37 60.203125 36.90625 60.40625 36.796875 60.40625 
C 35.90625 60.40625 34.40625 60 32.90625 60 
C 31.296875 60 29.5 60.40625 29.5 60.40625 
C 29.5 60.40625 29.09375 60.09375 29.09375 60 
C 23 51.59375 8.59375 29.59375 3.40625 20.703125 
C 2.40625 18.90625 2.09375 17.796875 2.09375 16.796875 
C 2.09375 15.296875 4.40625 14.796875 8 14.796875 
z
M 28.59375 51.203125 
L 28.59375 19.796875 
L 8.296875 19.796875 
z
" id="LinBiolinumO-52"/>
      </defs>
      <g style="fill:#808080;" transform="translate(7.2 111.482536)scale(0.1 -0.1)">
       <use xlink:href="#LinBiolinumO-52"/>
       <use x="46.499985" xlink:href="#LinBiolinumO-44"/>
       <use x="68.499969" xlink:href="#LinBiolinumO-48"/>
       <use x="114.999954" xlink:href="#LinBiolinumO-48"/>
       <use x="161.499939" xlink:href="#LinBiolinumO-48"/>
      </g>
     </g>
    </g>
    <g id="ytick_4">
     <g id="line2d_7"/>
     <g id="text_8">
      <!-- 6,000 -->
      <defs>
       <path d="M 12.703125 27.703125 
C 16.59375 31.703125 20.59375 31.796875 22.796875 31.796875 
C 32.90625 31.796875 34.40625 22.203125 34.40625 17.296875 
C 34.40625 6.296875 30.296875 2.703125 25.5 2.703125 
C 20.203125 2.703125 12.59375 6.203125 12.59375 24 
C 12.59375 25 12.59375 26.703125 12.703125 27.703125 
z
M 40 58.296875 
L 39.703125 61.09375 
C 29.40625 60.5 22.09375 57.703125 15.296875 50.796875 
C 8 43.5 4.59375 34 4.59375 24.296875 
C 4.59375 3.296875 16.703125 -0.90625 24.40625 -0.90625 
C 39 -0.90625 43.203125 10.796875 43.203125 18 
C 43.203125 22.796875 40.5 35.796875 24.90625 35.796875 
C 20.90625 35.796875 15.296875 33.59375 12.90625 30.59375 
C 14 39.09375 17.59375 46.203125 22.40625 50.90625 
C 27.5 55.796875 33.09375 57.59375 40 58.296875 
z
" id="LinBiolinumO-54"/>
      </defs>
      <g style="fill:#808080;" transform="translate(7.2 71.755132)scale(0.1 -0.1)">
       <use xlink:href="#LinBiolinumO-54"/>
       <use x="46.499985" xlink:href="#LinBiolinumO-44"/>
       <use x="68.499969" xlink:href="#LinBiolinumO-48"/>
       <use x="114.999954" xlink:href="#LinBiolinumO-48"/>
       <use x="161.499939" xlink:href="#LinBiolinumO-48"/>
      </g>
     </g>
    </g>
    <g id="ytick_5">
     <g id="line2d_8"/>
     <g id="text_9">
      <!-- 8,000 -->
      <g style="fill:#808080;" transform="translate(7.2 32.027728)scale(0.1 -0.1)">
       <use xlink:href="#LinBiolinumO-56"/>
       <use x="46.499985" xlink:href="#LinBiolinumO-44"/>
       <use x="68.499969" xlink:href="#LinBiolinumO-48"/>
       <use x="114.999954" xlink:href="#LinBiolinumO-48"/>
       <use x="161.499939" xlink:href="#LinBiolinumO-48"/>
      </g>
     </g>
    </g>
   </g>
   <g id="text_10">
    <!-- Essays by grade level -->
    <defs>
     <path d="M 19 20 
L 19 31.703125 
C 23.796875 31.703125 34.40625 31.40625 41.296875 30.703125 
L 41.59375 31 
C 41.40625 31.90625 41.296875 33.296875 41.296875 34.203125 
C 41.296875 35.09375 41.40625 36.5 41.59375 37.40625 
L 41.296875 37.703125 
C 35.40625 37.203125 30.796875 36.703125 19 36.703125 
L 19 44.5 
C 19 46.203125 19.09375 56.5 19.796875 58.90625 
C 33.203125 58.90625 47 57.703125 47 57.703125 
L 47.203125 58.09375 
C 47.09375 58.90625 47 59.796875 47 60.703125 
C 47 61.5 47.09375 63.09375 47.203125 64.5 
L 47 64.796875 
C 45.40625 64.59375 43.09375 64.5 41 64.5 
L 14.703125 64.5 
C 11.296875 64.5 9.59375 64.796875 9.59375 64.796875 
L 9.40625 64.5 
C 10.203125 58.796875 10.40625 52 10.40625 44.5 
L 10.40625 20 
C 10.40625 12.5 10.203125 5.40625 9.40625 0 
L 9.5 -0.296875 
C 9.5 -0.296875 11.203125 0 14.703125 0 
L 42 0 
C 44.09375 0 46.40625 -0.09375 48 -0.296875 
L 48.203125 0 
C 48.09375 1.40625 48 2.09375 48 3.09375 
C 48 4.09375 48.09375 5.59375 48.203125 6.40625 
L 48 6.796875 
C 48 6.796875 33.203125 5.59375 19.796875 5.59375 
C 19.09375 8 19 18.296875 19 20 
z
" id="LinBiolinumO-69"/>
     <path d="M 5 10.09375 
L 3.296875 1.703125 
C 9 -0.296875 14.59375 -1 18.40625 -1 
C 32.203125 -1 35.40625 7.203125 35.40625 12.703125 
C 35.40625 20.90625 28.90625 24.09375 21.796875 25.796875 
C 18 26.703125 12.5 28.59375 12.5 33.59375 
C 12.5 37.703125 15.796875 39.90625 20.09375 39.90625 
C 25.296875 39.90625 28.5 35.796875 30.796875 33.09375 
L 32.203125 33.203125 
L 34.203125 40.59375 
L 34 40.90625 
C 31.09375 42.40625 25.59375 43.90625 20.5 43.90625 
C 13.09375 43.90625 5.40625 40 5.40625 31.703125 
C 5.40625 23.703125 11.296875 21 17.40625 19.40625 
C 23.203125 17.796875 27.5 16.203125 27.5 11.296875 
C 27.5 6 23.59375 3 18.296875 3 
C 13.5 3 9.296875 6.296875 6.5 10.203125 
z
" id="LinBiolinumO-115"/>
     <path d="M 2.796875 43.203125 
C 6.703125 34.296875 18.59375 8.5 22.203125 -1 
C 19 -8.5 14.90625 -16.203125 10.40625 -23.703125 
C 11.40625 -23.40625 12.90625 -23.203125 13.90625 -23.203125 
C 14.90625 -23.203125 17.796875 -23.40625 18.796875 -23.703125 
C 22.59375 -11.203125 44.5 36.5 47.796875 43.203125 
C 46.796875 42.90625 44.5 42.90625 43.5 42.90625 
C 42.5 42.90625 40.59375 42.90625 39.59375 43.203125 
C 36 31.90625 31.296875 19.09375 26.40625 8.703125 
L 26.203125 8.703125 
C 21.296875 20.59375 16.59375 31.703125 12.90625 43.203125 
C 11.59375 42.90625 9.40625 42.90625 8 42.90625 
C 6.703125 42.90625 4.203125 42.90625 2.796875 43.203125 
z
" id="LinBiolinumO-121"/>
     <path id="LinBiolinumO-32"/>
     <path d="M 16.203125 8.09375 
L 16.203125 34 
C 20.09375 38 22.59375 39.90625 26.703125 39.90625 
C 32.796875 39.90625 38.203125 34.796875 38.203125 22.40625 
C 38.203125 10 34.5 3 25 3 
C 21.90625 3 18.203125 5.59375 16.203125 8.09375 
z
M 16.203125 50 
C 16.203125 57.40625 16.296875 62.59375 16.796875 68.796875 
C 16.796875 69.5 16.5 69.796875 15.90625 69.796875 
C 13.296875 68.796875 11.203125 68.09375 7.203125 67.796875 
L 7 67.5 
C 7.703125 63.203125 8.203125 55.796875 8.203125 48.203125 
L 8.203125 7.296875 
C 8.203125 3.40625 8.09375 1.90625 7.703125 -0.203125 
C 8.296875 -0.796875 9.40625 -1 10.5 -1 
C 11.59375 0.203125 12.703125 1.90625 13.796875 3.90625 
C 16.703125 1.40625 21.296875 -1 25.59375 -1 
C 35.796875 -1 47.09375 6.203125 47.09375 23.203125 
C 47.09375 35.40625 38.40625 43.90625 28.703125 43.90625 
C 23.90625 43.90625 19.59375 42.59375 16.203125 38.90625 
z
" id="LinBiolinumO-98"/>
     <path d="M 10.09375 -10.40625 
C 10.09375 -7.09375 13.09375 -3.40625 16.59375 -1.5 
C 19.5 -1.5 24.09375 -1.203125 25.5 -1.203125 
C 30.296875 -1.203125 33.296875 -1.296875 36.09375 -2.90625 
C 39 -4.59375 40 -7.5 40 -10.09375 
C 40 -16.203125 31.796875 -19.40625 23.203125 -19.40625 
C 16.703125 -19.40625 10.09375 -17.203125 10.09375 -10.40625 
z
M 39 28.5 
C 39 35.40625 36.296875 38.59375 33.90625 40.09375 
C 36.90625 39.90625 40.203125 39.5 44.40625 39.09375 
L 44.703125 39.40625 
C 44.5 40.296875 44.40625 41.09375 44.40625 42 
C 44.40625 42.90625 44.5 43.703125 44.703125 44.59375 
L 44.40625 44.90625 
C 39.59375 44.40625 36 43.40625 28.59375 43 
C 26.796875 43.59375 24.59375 43.90625 22.5 43.90625 
C 14.59375 43.90625 5.5 38.59375 5.5 28.703125 
C 5.5 21.203125 9.796875 17.796875 12.59375 16.203125 
C 9.703125 14.203125 6.203125 11.296875 6.203125 7.90625 
C 6.203125 3.796875 8.59375 0.203125 13.90625 -0.796875 
C 11.203125 -1.90625 8 -3.796875 5.5 -5.796875 
C 4.203125 -7.703125 3.203125 -10.59375 3.203125 -12.40625 
C 3.203125 -20.296875 11.796875 -23.703125 22.40625 -23.703125 
C 38 -23.703125 47.296875 -17.203125 47.296875 -7.796875 
C 47.296875 -3.40625 45.90625 -0.296875 43.09375 2.09375 
C 39.296875 5.296875 32.5 5.40625 29 5.40625 
C 27.296875 5.40625 23.296875 5.203125 21 4.90625 
C 19.59375 4.796875 18.59375 4.703125 18.09375 4.703125 
C 15.296875 4.703125 12.296875 5.09375 12.296875 9.40625 
C 12.296875 11.40625 12.796875 13.09375 15 15 
C 16.296875 14.296875 19.296875 13.59375 22.40625 13.59375 
C 32.796875 13.59375 39 20.59375 39 28.5 
z
M 31.203125 28.40625 
C 31.203125 22.296875 28.703125 17.59375 22.703125 17.59375 
C 15.5 17.59375 13.296875 22.296875 13.296875 29.203125 
C 13.296875 35.796875 16.296875 40.09375 22.09375 40.09375 
C 28.59375 40.09375 31.203125 35.5 31.203125 28.40625 
z
" id="LinBiolinumO-103"/>
     <path d="M 9 20 
C 9 12.5 8.796875 5.296875 8.09375 0 
L 8.296875 -0.296875 
C 9.5 -0.09375 11.796875 0 13 0 
C 14.203125 0 16.5 -0.09375 17.703125 -0.296875 
L 17.90625 0 
C 17.09375 5.703125 17 12.40625 17 20 
L 17 50 
C 17 57.5 17.40625 62.40625 17.90625 68.796875 
C 17.90625 69.5 17.59375 69.796875 17 69.796875 
C 14.40625 68.796875 12.296875 68.09375 8.296875 67.796875 
L 8.09375 67.5 
C 8.796875 63.203125 9 55.796875 9 48.203125 
z
" id="LinBiolinumO-108"/>
     <path d="M 20.203125 -0.296875 
C 21.203125 0 22.296875 0 23.296875 0 
C 24.296875 0 25.40625 0 26.296875 -0.296875 
C 31.5 14.296875 37.703125 28.5 44.203125 43.203125 
C 43.296875 42.90625 41.40625 42.90625 40.40625 42.90625 
C 39.40625 42.90625 37.90625 42.90625 37 43.203125 
C 32.90625 31.796875 29.40625 18.796875 24.796875 9 
L 24.59375 9 
C 19.59375 20.40625 16.40625 31.703125 12.796875 43.203125 
C 11.5 42.90625 9.203125 42.90625 7.796875 42.90625 
C 6.203125 42.90625 3.59375 42.90625 2 43.203125 
C 8.703125 28.5 14.59375 14.296875 20.203125 -0.296875 
z
" id="LinBiolinumO-118"/>
    </defs>
    <g transform="translate(73.79875 18.3675)scale(0.16 -0.16)">
     <use xlink:href="#LinBiolinumO-69"/>
     <use x="53.799988" xlink:href="#LinBiolinumO-115"/>
     <use x="93.399979" xlink:href="#LinBiolinumO-115"/>
     <use x="132.999969" xlink:href="#LinBiolinumO-97"/>
     <use x="181.09996" xlink:href="#LinBiolinumO-121"/>
     <use x="231.699951" xlink:href="#LinBiolinumO-115"/>
     <use x="271.299942" xlink:href="#LinBiolinumO-32"/>
     <use x="296.299927" xlink:href="#LinBiolinumO-98"/>
     <use x="346.699921" xlink:href="#LinBiolinumO-121"/>
     <use x="397.299911" xlink:href="#LinBiolinumO-32"/>
     <use x="422.299896" xlink:href="#LinBiolinumO-103"/>
     <use x="472.19989" xlink:href="#LinBiolinumO-114"/>
     <use x="507.699875" xlink:href="#LinBiolinumO-97"/>
     <use x="555.799866" xlink:href="#LinBiolinumO-100"/>
     <use x="608.79985" xlink:href="#LinBiolinumO-101"/>
     <use x="654.099838" xlink:href="#LinBiolinumO-32"/>
     <use x="679.099823" xlink:href="#LinBiolinumO-108"/>
     <use x="704.29982" xlink:href="#LinBiolinumO-101"/>
     <use x="749.599808" xlink:href="#LinBiolinumO-118"/>
     <use x="795.799805" xlink:href="#LinBiolinumO-101"/>
     <use x="841.099792" xlink:href="#LinBiolinumO-108"/>
    </g>
   </g>
  </g>
 </g>
 <defs>
  <clipPath id="pa62ee62405">
   <rect height="163.08" width="223.2" x="31.5" y="24.3675"/>
  </clipPath>
 </defs>
</svg>
