<?xml version="1.0" encoding="utf-8" standalone="no"?>
<!DOCTYPE svg PUBLIC "-//W3C//DTD SVG 1.1//EN"
  "http://www.w3.org/Graphics/SVG/1.1/DTD/svg11.dtd">
<!-- Created with matplotlib (https://matplotlib.org/) -->
<svg height="221.849687pt" version="1.1" viewBox="0 0 268.145625 221.849687" width="268.145625pt" xmlns="http://www.w3.org/2000/svg" xmlns:xlink="http://www.w3.org/1999/xlink">
 <defs>
  <style type="text/css">
*{stroke-linecap:butt;stroke-linejoin:round;}
  </style>
 </defs>
 <g id="figure_1">
  <g id="patch_1">
   <path d="M 0 221.849687 
L 268.145625 221.849687 
L 268.145625 0 
L 0 0 
z
" style="fill:none;"/>
  </g>
  <g id="axes_1">
   <g id="patch_2">
    <path d="M 30.545625 186.48 
L 260.945625 186.48 
L 260.945625 24.48 
L 30.545625 24.48 
z
" style="fill:none;"/>
   </g>
   <g id="matplotlib.axis_1">
    <g id="xtick_1">
     <g id="line2d_1"/>
     <g id="text_1">
      <!-- 0 -->
      <defs>
       <path d="M 23.296875 57.09375 
C 25 57.09375 26.59375 56.5 27.703125 55.5 
C 30.796875 52.90625 33.5 45.09375 33.5 31.703125 
C 33.5 22.5 33.203125 17.296875 31.796875 12.203125 
C 29.59375 3.90625 24.703125 2.90625 22.90625 2.90625 
C 13.59375 2.90625 12.5 20 12.5 28.703125 
C 12.5 53.40625 18.703125 57.09375 23.296875 57.09375 
z
M 22.796875 -1 
C 30.5 -1 42.09375 7.5 42.09375 30.90625 
C 42.09375 46.5 36.40625 54.203125 32.796875 57.5 
C 30.09375 60 26.90625 61 23.296875 61 
C 13.296875 61 3.90625 48.59375 3.90625 28.90625 
C 3.90625 12.703125 10.40625 -1 22.796875 -1 
z
" id="LinBiolinumO-48"/>
      </defs>
      <g style="fill:#808080;" transform="translate(37.576261 196.959688)scale(0.1 -0.1)">
       <use xlink:href="#LinBiolinumO-48"/>
      </g>
     </g>
    </g>
    <g id="xtick_2">
     <g id="line2d_2"/>
     <g id="text_2">
      <!-- 100 -->
      <defs>
       <path d="M 32.59375 18.90625 
L 32.59375 44.296875 
C 32.59375 55.09375 33.203125 59.09375 33.40625 60.5 
C 33.40625 61 33.09375 61 32.703125 61 
C 26.203125 58.90625 18.59375 55 10.796875 52.59375 
L 11.40625 49.703125 
C 15.90625 50.203125 20.796875 51.296875 22.796875 51.296875 
C 24.59375 51.296875 24.59375 47.296875 24.59375 43.703125 
L 24.59375 18.90625 
C 24.59375 11.09375 24.5 5.703125 23.796875 0 
L 23.90625 -0.296875 
C 23.90625 -0.296875 26.703125 0 28.5 0 
C 30.5 0 33.296875 -0.296875 33.296875 -0.296875 
L 33.5 0 
C 32.796875 6 32.59375 11 32.59375 18.90625 
z
" id="LinBiolinumO-49"/>
      </defs>
      <g style="fill:#808080;" transform="translate(88.780807 196.959688)scale(0.1 -0.1)">
       <use xlink:href="#LinBiolinumO-49"/>
       <use x="46.499985" xlink:href="#LinBiolinumO-48"/>
       <use x="92.999969" xlink:href="#LinBiolinumO-48"/>
      </g>
     </g>
    </g>
    <g id="xtick_3">
     <g id="line2d_3"/>
     <g id="text_3">
      <!-- 200 -->
      <defs>
       <path d="M 22.203125 55.296875 
C 27.40625 55.296875 32.703125 50.5 32.703125 43.40625 
C 32.703125 39.296875 31.5 34 28.90625 30.09375 
C 21.796875 19.40625 10.296875 9.296875 5.40625 4.703125 
C 5.296875 4.296875 5.203125 3.90625 5.203125 3.40625 
C 5.203125 1.90625 5.703125 0.296875 6.203125 -0.5 
C 13.59375 -0.296875 17.90625 0 25.203125 0 
C 32.40625 0 35.40625 -0.203125 42.5 -0.5 
C 42.40625 0.5 42.203125 1.703125 42.203125 2.796875 
C 42.203125 4.40625 42.296875 5.90625 42.703125 7.5 
C 37.09375 7 34 6.703125 24.40625 6.703125 
C 20.90625 6.703125 19 6.703125 16.203125 6.5 
C 16.203125 6.59375 16.09375 6.796875 16.09375 7 
C 16.09375 7.90625 17.203125 8.90625 17.90625 9.703125 
C 22.796875 14.40625 27.5 18.90625 34.09375 27.796875 
C 37.796875 32.703125 41.296875 39.09375 41.296875 44.796875 
C 41.296875 54.296875 34.90625 61 23.796875 61 
C 14.703125 61 8.796875 55.90625 6.59375 52.90625 
L 8.703125 46 
L 10 45.90625 
C 11.40625 48.90625 11.90625 50.90625 14.5 53 
C 16.5 54.59375 19.40625 55.296875 22.203125 55.296875 
z
" id="LinBiolinumO-50"/>
      </defs>
      <g style="fill:#808080;" transform="translate(144.635352 196.959688)scale(0.1 -0.1)">
       <use xlink:href="#LinBiolinumO-50"/>
       <use x="46.499985" xlink:href="#LinBiolinumO-48"/>
       <use x="92.999969" xlink:href="#LinBiolinumO-48"/>
      </g>
     </g>
    </g>
    <g id="xtick_4">
     <g id="line2d_4"/>
     <g id="text_4">
      <!-- 300 -->
      <defs>
       <path d="M 20.90625 2.90625 
C 13 2.90625 11.90625 5.90625 9.203125 11.703125 
L 7.703125 11.59375 
L 5.5 4.09375 
L 5.796875 3.796875 
C 8.40625 1.59375 12.703125 -1 20.703125 -1 
C 29.203125 -1 42.59375 4.796875 42.59375 18 
C 42.59375 25.90625 36.5 31.5 28.796875 32.203125 
L 28.796875 32.703125 
C 34 33.90625 40.59375 39.703125 40.59375 48 
C 40.59375 55.203125 34.40625 61 24.5 61 
C 16.796875 61 11.203125 57.59375 8.703125 55.40625 
L 8.40625 55.09375 
L 10.5 48.703125 
L 12 48.59375 
C 14.40625 54.203125 17.59375 57.09375 23.59375 57.09375 
C 27.5 57.09375 31.90625 53 31.90625 46.5 
C 31.90625 42.09375 30.40625 38.90625 28.09375 36.703125 
C 26.09375 34.796875 23.203125 33.90625 19.796875 33.90625 
C 18.59375 33.90625 17.5 34 16.09375 34.203125 
L 16.09375 29.796875 
C 17.296875 30 19.40625 30 20.296875 30 
C 23.5 30 27.296875 29.09375 30.09375 26.796875 
C 32.703125 24.59375 34 21.09375 34 17.203125 
C 34 5.09375 24.5 2.90625 20.90625 2.90625 
z
" id="LinBiolinumO-51"/>
      </defs>
      <g style="fill:#808080;" transform="translate(200.489898 196.959688)scale(0.1 -0.1)">
       <use xlink:href="#LinBiolinumO-51"/>
       <use x="46.499985" xlink:href="#LinBiolinumO-48"/>
       <use x="92.999969" xlink:href="#LinBiolinumO-48"/>
      </g>
     </g>
    </g>
    <g id="text_5">
     <!-- Length (words) -->
     <defs>
      <path d="M 19.09375 44.5 
C 19.09375 52 19.296875 59.203125 20.09375 64.5 
L 20 64.796875 
C 18.796875 64.59375 16 64.5 14.796875 64.5 
C 13.59375 64.5 10.90625 64.59375 9.703125 64.796875 
L 9.5 64.5 
C 10.296875 58.796875 10.5 52 10.5 44.5 
L 10.5 20 
C 10.5 12.5 10.296875 5.40625 9.5 0 
L 9.59375 -0.296875 
C 9.59375 -0.296875 11.40625 0 14.796875 0 
L 42.09375 0 
C 44.203125 0 46.5 -0.09375 48.09375 -0.296875 
L 48.296875 0 
C 48.203125 1.40625 48.09375 3.40625 48.09375 4.40625 
C 48.09375 5.40625 48.203125 7.09375 48.296875 7.90625 
L 48.09375 8.296875 
C 48.09375 8.296875 33.296875 6.09375 19.90625 6.09375 
C 19.203125 8.5 19.09375 18.296875 19.09375 20 
z
" id="LinBiolinumO-76"/>
      <path d="M 12.5 27.296875 
C 14.203125 37.703125 20.703125 39.90625 23.90625 39.90625 
C 27.796875 39.90625 32.296875 36.203125 32.296875 28.703125 
C 32.296875 27.796875 31.90625 27.296875 30.90625 27.296875 
z
M 39.203125 10.40625 
C 35.703125 6.59375 31 4.90625 25.5 4.90625 
C 22 4.90625 17.296875 6.203125 14.59375 10.59375 
C 12.796875 13.40625 12.203125 17.40625 12.203125 23.296875 
L 39.40625 23.296875 
C 40.5 23.296875 41.203125 23.90625 41.203125 25 
C 41.203125 33.40625 37.09375 43.90625 23.90625 43.90625 
C 13.59375 43.90625 3.40625 35.59375 3.40625 20.90625 
C 3.40625 15.203125 4.5 9.59375 7.90625 5.59375 
C 11.296875 1.40625 17 -1 23.796875 -1 
C 31 -1 37.40625 2.703125 41.203125 7.90625 
z
" id="LinBiolinumO-101"/>
      <path d="M 46 18 
C 46 21.203125 46.203125 24.90625 46.203125 28.09375 
C 46.203125 38.5 42.796875 43.90625 33.796875 43.90625 
C 30 43.90625 22.90625 42.40625 16.5 34.90625 
L 16.296875 35.203125 
L 16.296875 42.5 
C 16.203125 43.203125 16.09375 43.5 15.703125 43.5 
C 13.40625 43 9.796875 42.90625 7.59375 43.203125 
L 7.40625 42.90625 
C 8.09375 38.5 8.296875 31 8.296875 23.5 
L 8.296875 18 
C 8.296875 10.5 8.203125 5.40625 7.40625 0 
L 7.59375 -0.296875 
C 8.796875 -0.09375 11.09375 0 12.296875 0 
C 13.5 0 15.796875 -0.09375 17 -0.296875 
L 17.203125 0 
C 16.40625 5.703125 16.296875 10.40625 16.296875 18 
L 16.296875 29.703125 
C 21.40625 35.703125 27.203125 37.90625 30.796875 37.90625 
C 35.90625 37.90625 38 35.90625 38 27.796875 
L 38 18 
C 38 10.5 37.796875 5.296875 37.09375 0 
L 37.296875 -0.296875 
C 38.5 -0.09375 40.796875 0 42 0 
C 43.203125 0 45.5 -0.09375 46.703125 -0.296875 
L 46.90625 0 
C 46.09375 5.703125 46 10.40625 46 18 
z
" id="LinBiolinumO-110"/>
      <path d="M 10.09375 -10.40625 
C 10.09375 -7.09375 13.09375 -3.40625 16.59375 -1.5 
C 19.5 -1.5 24.09375 -1.203125 25.5 -1.203125 
C 30.296875 -1.203125 33.296875 -1.296875 36.09375 -2.90625 
C 39 -4.59375 40 -7.5 40 -10.09375 
C 40 -16.203125 31.796875 -19.40625 23.203125 -19.40625 
C 16.703125 -19.40625 10.09375 -17.203125 10.09375 -10.40625 
z
M 39 28.5 
C 39 35.40625 36.296875 38.59375 33.90625 40.09375 
C 36.90625 39.90625 40.203125 39.5 44.40625 39.09375 
L 44.703125 39.40625 
C 44.5 40.296875 44.40625 41.09375 44.40625 42 
C 44.40625 42.90625 44.5 43.703125 44.703125 44.59375 
L 44.40625 44.90625 
C 39.59375 44.40625 36 43.40625 28.59375 43 
C 26.796875 43.59375 24.59375 43.90625 22.5 43.90625 
C 14.59375 43.90625 5.5 38.59375 5.5 28.703125 
C 5.5 21.203125 9.796875 17.796875 12.59375 16.203125 
C 9.703125 14.203125 6.203125 11.296875 6.203125 7.90625 
C 6.203125 3.796875 8.59375 0.203125 13.90625 -0.796875 
C 11.203125 -1.90625 8 -3.796875 5.5 -5.796875 
C 4.203125 -7.703125 3.203125 -10.59375 3.203125 -12.40625 
C 3.203125 -20.296875 11.796875 -23.703125 22.40625 -23.703125 
C 38 -23.703125 47.296875 -17.203125 47.296875 -7.796875 
C 47.296875 -3.40625 45.90625 -0.296875 43.09375 2.09375 
C 39.296875 5.296875 32.5 5.40625 29 5.40625 
C 27.296875 5.40625 23.296875 5.203125 21 4.90625 
C 19.59375 4.796875 18.59375 4.703125 18.09375 4.703125 
C 15.296875 4.703125 12.296875 5.09375 12.296875 9.40625 
C 12.296875 11.40625 12.796875 13.09375 15 15 
C 16.296875 14.296875 19.296875 13.59375 22.40625 13.59375 
C 32.796875 13.59375 39 20.59375 39 28.5 
z
M 31.203125 28.40625 
C 31.203125 22.296875 28.703125 17.59375 22.703125 17.59375 
C 15.5 17.59375 13.296875 22.296875 13.296875 29.203125 
C 13.296875 35.796875 16.296875 40.09375 22.09375 40.09375 
C 28.59375 40.09375 31.203125 35.5 31.203125 28.40625 
z
" id="LinBiolinumO-103"/>
      <path d="M 9.5 42.90625 
C 7.40625 42.90625 5.296875 42.90625 4.09375 43.09375 
C 3.40625 41.40625 2.796875 40.5 1.90625 39 
L 2.40625 38.296875 
C 4.09375 38.40625 7.203125 38.40625 9.5 38.5 
L 9.5 24.796875 
C 9.5 18.796875 9.203125 11.59375 9.203125 8.59375 
C 9.203125 2.09375 13.40625 -1 18 -1 
C 22.203125 -1 25.40625 0 29.59375 2.703125 
L 28.296875 5.09375 
C 25.296875 4.09375 23 4 20.5 4.40625 
C 18.09375 4.703125 17.203125 7.09375 17.203125 12.59375 
C 17.203125 15.59375 17.5 19.90625 17.5 25.90625 
L 17.5 38.5 
L 21.296875 38.5 
C 23.703125 38.5 27.09375 38.40625 28.5 38.296875 
C 28.796875 39.90625 29.09375 40.90625 29.703125 42.40625 
L 29.203125 43.09375 
C 27.40625 43 24.5 42.90625 22.203125 42.90625 
L 17.5 42.90625 
C 17.5 50.296875 17.5 51.703125 18 57.5 
C 18 58.203125 17.703125 58.5 17.09375 58.5 
C 14.5 57.5 13.296875 56.40625 10.09375 56 
L 9.90625 55.703125 
C 9.703125 52.203125 9.5 48.703125 9.5 42.90625 
z
" id="LinBiolinumO-116"/>
      <path d="M 17 35.203125 
L 17 50.09375 
C 17 57.5 17.40625 62.59375 17.90625 68.796875 
C 17.90625 69.5 17.59375 69.796875 17 69.796875 
C 14.40625 68.796875 12.296875 68.09375 8.296875 67.796875 
L 8.09375 67.5 
C 8.796875 63.203125 9 55.703125 9 48.09375 
L 9 18 
C 9 10.5 8.796875 5.59375 8.09375 0 
L 8.296875 -0.296875 
C 9.5 -0.09375 11.796875 0 13 0 
C 14.203125 0 16.5 -0.09375 17.703125 -0.296875 
L 17.90625 0 
C 17.09375 5.703125 17 10.40625 17 18 
L 17 29.703125 
C 22.09375 35.703125 27.90625 37.90625 31.5 37.90625 
C 36.59375 37.90625 38.703125 35.90625 38.703125 27.796875 
L 38.703125 18 
C 38.703125 10.5 38.59375 5.296875 37.796875 0 
L 38 -0.296875 
C 39.203125 -0.09375 41.5 0 42.703125 0 
C 43.90625 0 46.203125 -0.09375 47.40625 -0.296875 
L 47.59375 0 
C 46.796875 5.703125 46.703125 10.40625 46.703125 18 
C 46.703125 21.203125 46.90625 24.90625 46.90625 28.09375 
C 46.90625 38.5 43.5 43.90625 34.5 43.90625 
C 30.703125 43.90625 23.59375 42.40625 17.203125 34.90625 
z
" id="LinBiolinumO-104"/>
      <path id="LinBiolinumO-32"/>
      <path d="M 4.40625 25.203125 
C 4.40625 20.703125 4.796875 -2.40625 25.59375 -20.40625 
L 27.90625 -18.703125 
C 24.59375 -14.90625 12.703125 -1.09375 12.703125 25.203125 
C 12.703125 51.5 24.703125 65.296875 27.90625 68.90625 
L 25.59375 70.703125 
C 13.703125 60.5 4.40625 43.796875 4.40625 25.203125 
z
" id="LinBiolinumO-40"/>
      <path d="M 20.5 -0.40625 
C 21.5 -0.09375 22.796875 -0.09375 23.796875 -0.09375 
C 24.796875 -0.09375 26.5 -0.09375 27.40625 -0.40625 
C 30.09375 7.203125 33 15.5 36.203125 23.296875 
C 39.203125 15.5 42.40625 7.40625 45.296875 -0.296875 
C 46.296875 0 46.90625 0 47.90625 0 
C 48.90625 0 50.703125 0 51.59375 -0.296875 
C 56.5 11.5 64.5 30.703125 70.203125 43.203125 
C 69.296875 42.90625 66.90625 42.90625 65.90625 42.90625 
C 64.90625 42.90625 63.40625 42.90625 62.5 43.203125 
C 58.796875 31.40625 54.296875 18.59375 50.09375 9 
L 49.296875 9 
C 45.203125 20 42.09375 32.59375 39.796875 43.203125 
C 38.5 42.90625 36.203125 42.90625 34.796875 42.90625 
C 33.203125 42.90625 30.59375 42.90625 29 43.203125 
C 30.296875 39.09375 31.90625 34.703125 33.59375 30.09375 
C 31 22.59375 28.203125 15.09375 25.296875 8.90625 
L 24.703125 8.90625 
C 19.703125 20.296875 16.40625 31.59375 12.796875 43.09375 
C 11.5 42.796875 9.203125 42.796875 7.796875 42.796875 
C 6.203125 42.796875 3.59375 42.796875 2 43.09375 
C 8.703125 28.40625 14.90625 14.203125 20.5 -0.40625 
z
" id="LinBiolinumO-119"/>
      <path d="M 3.796875 20.5 
C 3.796875 8.5 11.703125 -1 25 -1 
C 38.203125 -1 46.203125 8.296875 46.203125 21.40625 
C 46.203125 35 38.90625 43.90625 25.40625 43.90625 
C 12.296875 43.90625 3.796875 34.703125 3.796875 20.5 
z
M 24.703125 39.90625 
C 35.296875 39.90625 37.40625 31.703125 37.40625 19.59375 
C 37.40625 10 32.59375 3 25.90625 3 
C 15.296875 3 12.59375 14.5 12.59375 22.203125 
C 12.59375 30.90625 15.296875 39.90625 24.703125 39.90625 
z
" id="LinBiolinumO-111"/>
      <path d="M 16.703125 33.40625 
L 16.703125 42.5 
C 16.703125 43.203125 16.5 43.5 16.09375 43.5 
C 13.796875 43 10.203125 42.90625 8 43.203125 
L 7.796875 42.90625 
C 8.5 38.5 8.703125 31 8.703125 23.5 
L 8.703125 18 
C 8.703125 10.5 8.5 5.296875 7.796875 0 
L 8 -0.296875 
C 9.203125 -0.09375 11.5 0 12.703125 0 
C 13.90625 0 16.203125 -0.09375 17.40625 -0.296875 
L 17.59375 0 
C 16.796875 5.703125 16.703125 10.40625 16.703125 18 
L 16.703125 23.203125 
C 16.703125 27.40625 17.90625 29.796875 20.09375 33.09375 
C 21.5 35.296875 23.796875 36.59375 25.703125 36.59375 
C 27.703125 36.59375 29.59375 36.40625 30.90625 35.203125 
L 31.703125 35.40625 
L 33.703125 42.796875 
L 33.296875 43.203125 
C 31.59375 43.703125 31.5 43.90625 29.703125 43.90625 
C 24.296875 43.90625 21.40625 40.796875 17 33.203125 
z
" id="LinBiolinumO-114"/>
      <path d="M 36.09375 11.296875 
C 32.40625 6.59375 27.796875 4.203125 23.796875 4.203125 
C 18.40625 4.203125 13.796875 9.59375 13.796875 22.09375 
C 13.796875 37.09375 21.703125 39.90625 26.59375 39.90625 
C 31.296875 39.90625 33.703125 37.90625 36.09375 34.09375 
z
M 36.09375 5.796875 
L 36.296875 5.796875 
L 36.796875 0 
C 36.796875 -0.203125 37.09375 -0.296875 37.703125 -0.296875 
C 39 -0.203125 39.703125 0 41.09375 0 
C 42.40625 0 44.296875 -0.09375 45.59375 -0.296875 
L 45.796875 0 
C 45 4.296875 44.09375 11.703125 44.09375 19.203125 
L 44.09375 50 
C 44.09375 57.40625 44.5 62.59375 45 68.796875 
C 45 69.5 44.703125 69.796875 44.09375 69.796875 
C 41.5 68.796875 39.40625 68.09375 35.40625 67.796875 
L 35.203125 67.5 
C 35.90625 63.203125 36.09375 55.796875 36.09375 48.203125 
L 36.09375 41.703125 
C 33.796875 43 29.703125 43.90625 27.703125 43.90625 
C 14.59375 43.90625 5.09375 34.90625 5.09375 21.296875 
C 5.09375 9 12.40625 -1 23.203125 -1 
C 28 -1 32.5 1.09375 36.09375 5.796875 
z
" id="LinBiolinumO-100"/>
      <path d="M 5 10.09375 
L 3.296875 1.703125 
C 9 -0.296875 14.59375 -1 18.40625 -1 
C 32.203125 -1 35.40625 7.203125 35.40625 12.703125 
C 35.40625 20.90625 28.90625 24.09375 21.796875 25.796875 
C 18 26.703125 12.5 28.59375 12.5 33.59375 
C 12.5 37.703125 15.796875 39.90625 20.09375 39.90625 
C 25.296875 39.90625 28.5 35.796875 30.796875 33.09375 
L 32.203125 33.203125 
L 34.203125 40.59375 
L 34 40.90625 
C 31.09375 42.40625 25.59375 43.90625 20.5 43.90625 
C 13.09375 43.90625 5.40625 40 5.40625 31.703125 
C 5.40625 23.703125 11.296875 21 17.40625 19.40625 
C 23.203125 17.796875 27.5 16.203125 27.5 11.296875 
C 27.5 6 23.59375 3 18.296875 3 
C 13.5 3 9.296875 6.296875 6.5 10.203125 
z
" id="LinBiolinumO-115"/>
      <path d="M 25.59375 25.203125 
C 25.59375 29.703125 25.203125 52.796875 4.40625 70.796875 
L 2.09375 69.09375 
C 5.40625 65.296875 17.296875 51.5 17.296875 25.203125 
C 17.296875 -1.09375 5.296875 -14.90625 2.09375 -18.5 
L 4.40625 -20.296875 
C 16.296875 -10.09375 25.59375 6.59375 25.59375 25.203125 
z
" id="LinBiolinumO-41"/>
     </defs>
     <g style="fill:#808080;" transform="translate(108.256875 211.805312)scale(0.12 -0.12)">
      <use xlink:href="#LinBiolinumO-76"/>
      <use x="51.499985" xlink:href="#LinBiolinumO-101"/>
      <use x="96.799973" xlink:href="#LinBiolinumO-110"/>
      <use x="150.699966" xlink:href="#LinBiolinumO-103"/>
      <use x="200.59996" xlink:href="#LinBiolinumO-116"/>
      <use x="234.599945" xlink:href="#LinBiolinumO-104"/>
      <use x="289.499939" xlink:href="#LinBiolinumO-32"/>
      <use x="314.499924" xlink:href="#LinBiolinumO-40"/>
      <use x="344.499908" xlink:href="#LinBiolinumO-119"/>
      <use x="416.69989" xlink:href="#LinBiolinumO-111"/>
      <use x="466.699875" xlink:href="#LinBiolinumO-114"/>
      <use x="502.19986" xlink:href="#LinBiolinumO-100"/>
      <use x="555.199844" xlink:href="#LinBiolinumO-115"/>
      <use x="594.799835" xlink:href="#LinBiolinumO-41"/>
     </g>
    </g>
   </g>
   <g id="matplotlib.axis_2">
    <g id="ytick_1">
     <g id="line2d_5"/>
     <g id="text_6">
      <!-- 0 -->
      <g style="fill:#808080;" transform="translate(22.395625 169.719844)scale(0.1 -0.1)">
       <use xlink:href="#LinBiolinumO-48"/>
      </g>
     </g>
    </g>
    <g id="ytick_2">
     <g id="line2d_6"/>
     <g id="text_7">
      <!-- 1 -->
      <g style="fill:#808080;" transform="translate(22.395625 129.219844)scale(0.1 -0.1)">
       <use xlink:href="#LinBiolinumO-49"/>
      </g>
     </g>
    </g>
    <g id="ytick_3">
     <g id="line2d_7"/>
     <g id="text_8">
      <!-- 2 -->
      <g style="fill:#808080;" transform="translate(22.395625 88.719844)scale(0.1 -0.1)">
       <use xlink:href="#LinBiolinumO-50"/>
      </g>
     </g>
    </g>
    <g id="ytick_4">
     <g id="line2d_8"/>
     <g id="text_9">
      <!-- 3 -->
      <g style="fill:#808080;" transform="translate(22.395625 48.219844)scale(0.1 -0.1)">
       <use xlink:href="#LinBiolinumO-51"/>
      </g>
     </g>
    </g>
    <g id="text_10">
     <!-- Score -->
     <defs>
      <path d="M 24.203125 3.40625 
C 18.59375 3.40625 11.40625 8.296875 8.296875 14.203125 
L 7.296875 14.09375 
C 6.90625 10.5 5.796875 6.796875 5 3.796875 
L 5.203125 3.5 
C 5.203125 3.5 11.703125 -1 23.40625 -1 
C 35.703125 -1 45.203125 6.5 45.203125 18.09375 
C 45.203125 29.703125 35.296875 35 27.296875 38.09375 
C 22.203125 40 15.09375 42.90625 15.09375 51.203125 
C 15.09375 54.796875 17.09375 58.796875 19.703125 60.203125 
C 21.40625 61.09375 23.5 61.40625 25.796875 61.40625 
C 31.296875 61.40625 36.703125 57.09375 39.40625 50.90625 
L 40.40625 51 
C 40.796875 54.59375 41.796875 58 42.703125 61 
L 42.5 61.296875 
C 42.5 61.296875 38.296875 65.796875 26.59375 65.796875 
C 23.90625 65.796875 20.90625 65.296875 18 64.09375 
C 12.09375 61.59375 7 55.796875 7 48.5 
C 7 38 15.90625 33.09375 24.203125 29.59375 
C 30.703125 26.90625 35.90625 23.59375 35.90625 15.09375 
C 35.90625 7.59375 30.09375 3.40625 24.203125 3.40625 
z
" id="LinBiolinumO-83"/>
      <path d="M 25 39.90625 
C 28.796875 39.90625 32.296875 37 35 32.5 
L 36.296875 32.59375 
L 38.59375 40.796875 
L 38.40625 41.09375 
C 35.296875 42.703125 30.09375 43.90625 25.09375 43.90625 
C 14.703125 43.90625 3.796875 35.40625 3.796875 21.796875 
C 3.796875 7.796875 11.703125 -1 23.90625 -1 
C 29.90625 -1 34.59375 1 38.59375 6.09375 
L 36.703125 8.203125 
L 36.296875 8.203125 
C 32.5 4.796875 29.296875 4 25.59375 4 
C 18.296875 4 12.59375 10.59375 12.59375 22.296875 
C 12.59375 33.296875 18.40625 39.90625 25 39.90625 
z
" id="LinBiolinumO-99"/>
     </defs>
     <g style="fill:#808080;" transform="translate(15.575625 118.937812)rotate(-90)scale(0.12 -0.12)">
      <use xlink:href="#LinBiolinumO-83"/>
      <use x="50.599991" xlink:href="#LinBiolinumO-99"/>
      <use x="93.499985" xlink:href="#LinBiolinumO-111"/>
      <use x="143.499969" xlink:href="#LinBiolinumO-114"/>
      <use x="178.999954" xlink:href="#LinBiolinumO-101"/>
     </g>
    </g>
   </g>
   <g id="line2d_9">
    <path clip-path="url(#p4c46eca9b5)" d="M 56.657625 175.3425 
L 56.657625 157.1175 
L 75.64817 157.1175 
L 75.64817 175.3425 
L 56.657625 175.3425 
" style="fill:none;stroke:#1f77b4;stroke-linecap:square;"/>
   </g>
   <g id="line2d_10">
    <path clip-path="url(#p4c46eca9b5)" d="M 56.657625 166.23 
L 43.252534 166.23 
" style="fill:none;stroke:#1f77b4;stroke-linecap:square;"/>
   </g>
   <g id="line2d_11">
    <path clip-path="url(#p4c46eca9b5)" d="M 75.64817 166.23 
L 146.583443 166.23 
" style="fill:none;stroke:#1f77b4;stroke-linecap:square;"/>
   </g>
   <g id="line2d_12">
    <path clip-path="url(#p4c46eca9b5)" d="M 43.252534 170.78625 
L 43.252534 161.67375 
" style="fill:none;stroke:#000000;stroke-linecap:square;"/>
   </g>
   <g id="line2d_13">
    <path clip-path="url(#p4c46eca9b5)" d="M 146.583443 170.78625 
L 146.583443 161.67375 
" style="fill:none;stroke:#000000;stroke-linecap:square;"/>
   </g>
   <g id="line2d_14"/>
   <g id="line2d_15">
    <path clip-path="url(#p4c46eca9b5)" d="M 66.152898 134.8425 
L 66.152898 116.6175 
L 86.81908 116.6175 
L 86.81908 134.8425 
L 66.152898 134.8425 
" style="fill:none;stroke:#1f77b4;stroke-linecap:square;"/>
   </g>
   <g id="line2d_16">
    <path clip-path="url(#p4c46eca9b5)" d="M 66.152898 125.73 
L 41.018352 125.73 
" style="fill:none;stroke:#1f77b4;stroke-linecap:square;"/>
   </g>
   <g id="line2d_17">
    <path clip-path="url(#p4c46eca9b5)" d="M 86.81908 125.73 
L 185.12308 125.73 
" style="fill:none;stroke:#1f77b4;stroke-linecap:square;"/>
   </g>
   <g id="line2d_18">
    <path clip-path="url(#p4c46eca9b5)" d="M 41.018352 130.28625 
L 41.018352 121.17375 
" style="fill:none;stroke:#000000;stroke-linecap:square;"/>
   </g>
   <g id="line2d_19">
    <path clip-path="url(#p4c46eca9b5)" d="M 185.12308 130.28625 
L 185.12308 121.17375 
" style="fill:none;stroke:#000000;stroke-linecap:square;"/>
   </g>
   <g id="line2d_20"/>
   <g id="line2d_21">
    <path clip-path="url(#p4c46eca9b5)" d="M 90.170352 94.3425 
L 90.170352 76.1175 
L 115.304898 76.1175 
L 115.304898 94.3425 
L 90.170352 94.3425 
" style="fill:none;stroke:#1f77b4;stroke-linecap:square;"/>
   </g>
   <g id="line2d_22">
    <path clip-path="url(#p4c46eca9b5)" d="M 90.170352 85.23 
L 46.603807 85.23 
" style="fill:none;stroke:#1f77b4;stroke-linecap:square;"/>
   </g>
   <g id="line2d_23">
    <path clip-path="url(#p4c46eca9b5)" d="M 115.304898 85.23 
L 190.149989 85.23 
" style="fill:none;stroke:#1f77b4;stroke-linecap:square;"/>
   </g>
   <g id="line2d_24">
    <path clip-path="url(#p4c46eca9b5)" d="M 46.603807 89.78625 
L 46.603807 80.67375 
" style="fill:none;stroke:#000000;stroke-linecap:square;"/>
   </g>
   <g id="line2d_25">
    <path clip-path="url(#p4c46eca9b5)" d="M 190.149989 89.78625 
L 190.149989 80.67375 
" style="fill:none;stroke:#000000;stroke-linecap:square;"/>
   </g>
   <g id="line2d_26"/>
   <g id="line2d_27">
    <path clip-path="url(#p4c46eca9b5)" d="M 119.773261 53.8425 
L 119.773261 35.6175 
L 147.84017 35.6175 
L 147.84017 53.8425 
L 119.773261 53.8425 
" style="fill:none;stroke:#1f77b4;stroke-linecap:square;"/>
   </g>
   <g id="line2d_28">
    <path clip-path="url(#p4c46eca9b5)" d="M 119.773261 44.73 
L 42.693989 44.73 
" style="fill:none;stroke:#1f77b4;stroke-linecap:square;"/>
   </g>
   <g id="line2d_29">
    <path clip-path="url(#p4c46eca9b5)" d="M 147.84017 44.73 
L 250.472898 44.73 
" style="fill:none;stroke:#1f77b4;stroke-linecap:square;"/>
   </g>
   <g id="line2d_30">
    <path clip-path="url(#p4c46eca9b5)" d="M 42.693989 49.28625 
L 42.693989 40.17375 
" style="fill:none;stroke:#000000;stroke-linecap:square;"/>
   </g>
   <g id="line2d_31">
    <path clip-path="url(#p4c46eca9b5)" d="M 250.472898 49.28625 
L 250.472898 40.17375 
" style="fill:none;stroke:#000000;stroke-linecap:square;"/>
   </g>
   <g id="line2d_32"/>
   <g id="line2d_33">
    <path clip-path="url(#p4c46eca9b5)" d="M 64.477261 175.3425 
L 64.477261 157.1175 
" style="fill:none;stroke:#2ca02c;stroke-linecap:square;"/>
   </g>
   <g id="line2d_34">
    <path clip-path="url(#p4c46eca9b5)" d="M 75.64817 134.8425 
L 75.64817 116.6175 
" style="fill:none;stroke:#2ca02c;stroke-linecap:square;"/>
   </g>
   <g id="line2d_35">
    <path clip-path="url(#p4c46eca9b5)" d="M 102.458352 94.3425 
L 102.458352 76.1175 
" style="fill:none;stroke:#2ca02c;stroke-linecap:square;"/>
   </g>
   <g id="line2d_36">
    <path clip-path="url(#p4c46eca9b5)" d="M 132.061261 53.8425 
L 132.061261 35.6175 
" style="fill:none;stroke:#2ca02c;stroke-linecap:square;"/>
   </g>
  </g>
  <g id="text_11">
   <!-- 82 words corresponds to a 1-point score gain -->
   <defs>
    <path d="M 23.5 57.703125 
C 30 57.703125 32.40625 53.296875 32.40625 48.59375 
C 32.40625 43.203125 27.09375 38.40625 24.296875 36.40625 
L 21.203125 38.203125 
C 14.90625 42.296875 14.203125 46 14.203125 49.09375 
C 14.203125 53.796875 17.5 57.703125 23.5 57.703125 
z
M 39.796875 48.5 
C 39.796875 55.703125 34 61 24.09375 61 
C 13.90625 61 6.703125 55 6.703125 47.296875 
C 6.703125 41.703125 9.796875 36.703125 15.5 33.40625 
L 17.5 32.296875 
C 15 30.40625 13 28.796875 10.5 26.59375 
C 6.40625 23 3.90625 18.5 3.90625 14.59375 
C 3.90625 4.40625 12 -0.90625 22.59375 -0.90625 
C 35.703125 -0.90625 42.796875 8.59375 42.796875 16.203125 
C 42.796875 22 39.59375 26.40625 34.09375 30 
L 28 34 
C 32.5 37 39.796875 42.09375 39.796875 48.5 
z
M 22.796875 2.40625 
C 18.203125 2.40625 11.703125 5.59375 11.703125 14.59375 
C 11.703125 17.59375 12.5 24.296875 21.09375 30 
L 25.703125 27.09375 
C 31.90625 23.203125 34.5 18.796875 34.5 14.09375 
C 34.5 4.40625 27.40625 2.40625 22.796875 2.40625 
z
" id="LinBiolinumO-56"/>
    <path d="M 16.203125 29.40625 
C 18.40625 34.703125 24.296875 39.296875 28.203125 39.296875 
C 35 39.296875 38.5 33.09375 38.5 21.796875 
C 38.5 13.59375 36.203125 3 25.5 3 
C 23.90625 3 19.703125 3.40625 16.203125 7.5 
z
M 16.203125 35.203125 
L 16.203125 42.5 
C 16.203125 43.203125 16 43.5 15.59375 43.5 
C 13.296875 43 9.703125 42.90625 7.5 43.203125 
L 7.296875 42.90625 
C 8 38.5 8.203125 31 8.203125 23.5 
L 8.203125 -3.203125 
C 8.203125 -10.703125 8 -17.90625 7.296875 -23.203125 
L 7.5 -23.5 
C 8.703125 -23.296875 11 -23.203125 12.203125 -23.203125 
C 13.40625 -23.203125 15.703125 -23.296875 16.90625 -23.5 
L 17.09375 -23.203125 
C 16.296875 -17.5 16.203125 -10.796875 16.203125 -3.203125 
L 16.203125 1.203125 
C 18.796875 -0.203125 22.5 -1 26.09375 -1 
C 39.296875 -1 47.296875 9 47.296875 23.09375 
C 47.296875 33.703125 41.09375 43.90625 29.90625 43.90625 
C 26 43.90625 21 41.90625 16.40625 34.90625 
z
" id="LinBiolinumO-112"/>
    <path d="M 31 22.5 
L 30.59375 10.59375 
C 30.59375 9.296875 30 8.59375 29.203125 8 
C 26.40625 5.90625 23 4.09375 20 4.09375 
C 15.5 4.09375 12.59375 7.09375 12.59375 10.203125 
C 12.59375 14.703125 14.703125 18.09375 22.5 20.203125 
z
M 31 4.796875 
C 32.09375 0.796875 35.09375 -1 38.796875 -1 
C 41.296875 -1 44.40625 -0.40625 46.703125 2.09375 
L 46 4.5 
C 44.90625 4.09375 44 4 43.296875 4 
C 42.296875 4 41 4.203125 40.296875 4.796875 
C 39.296875 5.703125 38.703125 8.09375 38.703125 12.59375 
C 38.703125 15.5 39 26.59375 39 27.703125 
C 39 41.203125 30.09375 43.90625 22.5 43.90625 
C 14.90625 43.90625 10.296875 40.203125 7.796875 38.09375 
L 7.5 37.703125 
L 9.203125 31 
L 10.5 30.90625 
C 13.296875 35.40625 16.703125 39.40625 21.5 39.40625 
C 25.09375 39.40625 31.09375 38.90625 31.09375 27.59375 
C 31.09375 26.90625 30.703125 26.5 30.40625 26.40625 
L 21.09375 24.296875 
C 10.90625 22 4.5 16.59375 4.5 9.796875 
C 4.5 2.40625 9.59375 -1 17 -1 
C 22.5 -1 25.296875 0.296875 30.59375 4.796875 
z
" id="LinBiolinumO-97"/>
    <path d="M 27.40625 23.59375 
C 28.703125 23.59375 30.09375 26.09375 30.09375 27.203125 
C 30.09375 28.09375 29.703125 29 28.703125 29 
L 5.796875 29 
C 4.59375 29 3.296875 26.90625 3.296875 25.296875 
C 3.296875 24.40625 3.90625 23.59375 4.796875 23.59375 
z
" id="LinBiolinumO-45"/>
    <path d="M 8 59.703125 
C 8 57 10.40625 54.59375 13.09375 54.59375 
C 15.796875 54.59375 18.203125 57 18.203125 59.703125 
C 18.203125 62.40625 15.796875 64.796875 13.09375 64.796875 
C 10.40625 64.796875 8 62.40625 8 59.703125 
z
M 9 23.5 
L 9 18 
C 9 10.5 8.796875 5.40625 8.09375 0 
L 8.296875 -0.296875 
C 9.5 -0.09375 11.796875 0 13 0 
C 14.203125 0 16.5 -0.09375 17.703125 -0.296875 
L 17.90625 0 
C 17.09375 5.59375 17 10.40625 17 18 
L 17 25.09375 
C 17 32.59375 17.203125 36.203125 17.90625 42.296875 
C 17.90625 43.203125 17.703125 43.296875 17 43.296875 
C 14.703125 43 10.40625 43 8.296875 43.203125 
L 8.09375 42.90625 
C 8.703125 38.59375 9 31 9 23.5 
z
" id="LinBiolinumO-105"/>
   </defs>
   <g transform="translate(35.634375 15.575625)scale(0.12 -0.12)">
    <use xlink:href="#LinBiolinumO-56"/>
    <use x="46.499985" xlink:href="#LinBiolinumO-50"/>
    <use x="92.999969" xlink:href="#LinBiolinumO-32"/>
    <use x="117.999954" xlink:href="#LinBiolinumO-119"/>
    <use x="190.199936" xlink:href="#LinBiolinumO-111"/>
    <use x="240.199921" xlink:href="#LinBiolinumO-114"/>
    <use x="275.699905" xlink:href="#LinBiolinumO-100"/>
    <use x="328.69989" xlink:href="#LinBiolinumO-115"/>
    <use x="368.299881" xlink:href="#LinBiolinumO-32"/>
    <use x="393.299866" xlink:href="#LinBiolinumO-99"/>
    <use x="436.19986" xlink:href="#LinBiolinumO-111"/>
    <use x="486.199844" xlink:href="#LinBiolinumO-114"/>
    <use x="521.699829" xlink:href="#LinBiolinumO-114"/>
    <use x="557.199814" xlink:href="#LinBiolinumO-101"/>
    <use x="602.499802" xlink:href="#LinBiolinumO-115"/>
    <use x="642.099792" xlink:href="#LinBiolinumO-112"/>
    <use x="694.39978" xlink:href="#LinBiolinumO-111"/>
    <use x="744.399765" xlink:href="#LinBiolinumO-110"/>
    <use x="798.299759" xlink:href="#LinBiolinumO-100"/>
    <use x="851.299744" xlink:href="#LinBiolinumO-115"/>
    <use x="890.899734" xlink:href="#LinBiolinumO-32"/>
    <use x="915.899719" xlink:href="#LinBiolinumO-116"/>
    <use x="949.899704" xlink:href="#LinBiolinumO-111"/>
    <use x="999.899689" xlink:href="#LinBiolinumO-32"/>
    <use x="1024.899673" xlink:href="#LinBiolinumO-97"/>
    <use x="1072.999664" xlink:href="#LinBiolinumO-32"/>
    <use x="1097.999649" xlink:href="#LinBiolinumO-49"/>
    <use x="1144.499634" xlink:href="#LinBiolinumO-45"/>
    <use x="1177.799622" xlink:href="#LinBiolinumO-112"/>
    <use x="1230.099609" xlink:href="#LinBiolinumO-111"/>
    <use x="1280.099594" xlink:href="#LinBiolinumO-105"/>
    <use x="1306.099579" xlink:href="#LinBiolinumO-110"/>
    <use x="1359.999573" xlink:href="#LinBiolinumO-116"/>
    <use x="1393.999557" xlink:href="#LinBiolinumO-32"/>
    <use x="1418.999542" xlink:href="#LinBiolinumO-115"/>
    <use x="1458.599533" xlink:href="#LinBiolinumO-99"/>
    <use x="1501.499527" xlink:href="#LinBiolinumO-111"/>
    <use x="1551.499512" xlink:href="#LinBiolinumO-114"/>
    <use x="1586.999496" xlink:href="#LinBiolinumO-101"/>
    <use x="1632.299484" xlink:href="#LinBiolinumO-32"/>
    <use x="1657.299469" xlink:href="#LinBiolinumO-103"/>
    <use x="1707.199463" xlink:href="#LinBiolinumO-97"/>
    <use x="1755.299454" xlink:href="#LinBiolinumO-105"/>
    <use x="1781.299438" xlink:href="#LinBiolinumO-110"/>
   </g>
  </g>
 </g>
 <defs>
  <clipPath id="p4c46eca9b5">
   <rect height="162" width="230.4" x="30.545625" y="24.48"/>
  </clipPath>
 </defs>
</svg>
