<?xml version="1.0" encoding="utf-8" standalone="no"?>
<!DOCTYPE svg PUBLIC "-//W3C//DTD SVG 1.1//EN"
  "http://www.w3.org/Graphics/SVG/1.1/DTD/svg11.dtd">
<!-- Created with matplotlib (https://matplotlib.org/) -->
<svg height="164.873844pt" version="1.1" viewBox="0 0 714.557812 164.873844" width="714.557812pt" xmlns="http://www.w3.org/2000/svg" xmlns:xlink="http://www.w3.org/1999/xlink">
 <defs>
  <style type="text/css">
*{stroke-linecap:butt;stroke-linejoin:round;}
  </style>
 </defs>
 <g id="figure_1">
  <g id="patch_1">
   <path d="M 0 164.873844 
L 714.557812 164.873844 
L 714.557812 0 
L 0 0 
z
" style="fill:none;"/>
  </g>
  <g id="axes_1">
   <g id="patch_2">
    <path d="M 44.957813 114.156 
L 714.557813 114.156 
L 714.557813 0 
L 44.957813 0 
z
" style="fill:none;"/>
   </g>
   <g id="matplotlib.axis_1"/>
   <g id="matplotlib.axis_2">
    <g id="ytick_1">
     <g id="text_1">
      <!-- SVM -->
      <defs>
       <path d="M 4.5 23 
L 13.421875 23.78125 
Q 14.0625 18.40625 16.375 14.96875 
Q 18.703125 11.53125 23.578125 9.40625 
Q 28.46875 7.28125 34.578125 7.28125 
Q 39.984375 7.28125 44.140625 8.890625 
Q 48.296875 10.5 50.3125 13.296875 
Q 52.34375 16.109375 52.34375 19.4375 
Q 52.34375 22.796875 50.390625 25.3125 
Q 48.4375 27.828125 43.953125 29.546875 
Q 41.0625 30.671875 31.203125 33.03125 
Q 21.34375 35.40625 17.390625 37.5 
Q 12.25 40.1875 9.734375 44.15625 
Q 7.234375 48.140625 7.234375 53.078125 
Q 7.234375 58.5 10.296875 63.203125 
Q 13.375 67.921875 19.28125 70.359375 
Q 25.203125 72.796875 32.421875 72.796875 
Q 40.375 72.796875 46.453125 70.234375 
Q 52.546875 67.671875 55.8125 62.6875 
Q 59.078125 57.71875 59.328125 51.421875 
L 50.25 50.734375 
Q 49.515625 57.515625 45.28125 60.984375 
Q 41.0625 64.453125 32.8125 64.453125 
Q 24.21875 64.453125 20.28125 61.296875 
Q 16.359375 58.15625 16.359375 53.71875 
Q 16.359375 49.859375 19.140625 47.359375 
Q 21.875 44.875 33.421875 42.265625 
Q 44.96875 39.65625 49.265625 37.703125 
Q 55.515625 34.8125 58.484375 30.390625 
Q 61.46875 25.984375 61.46875 20.21875 
Q 61.46875 14.5 58.203125 9.4375 
Q 54.9375 4.390625 48.796875 1.578125 
Q 42.671875 -1.21875 35.015625 -1.21875 
Q 25.296875 -1.21875 18.71875 1.609375 
Q 12.15625 4.4375 8.421875 10.125 
Q 4.6875 15.828125 4.5 23 
z
" id="ArialMT-83"/>
       <path d="M 28.171875 0 
L 0.4375 71.578125 
L 10.6875 71.578125 
L 29.296875 19.578125 
Q 31.546875 13.328125 33.0625 7.859375 
Q 34.71875 13.71875 36.921875 19.578125 
L 56.25 71.578125 
L 65.921875 71.578125 
L 37.890625 0 
z
" id="ArialMT-86"/>
       <path d="M 7.421875 0 
L 7.421875 71.578125 
L 21.6875 71.578125 
L 38.625 20.90625 
Q 40.96875 13.8125 42.046875 10.296875 
Q 43.265625 14.203125 45.84375 21.78125 
L 62.984375 71.578125 
L 75.734375 71.578125 
L 75.734375 0 
L 66.609375 0 
L 66.609375 59.90625 
L 45.796875 0 
L 37.25 0 
L 16.546875 60.9375 
L 16.546875 0 
z
" id="ArialMT-77"/>
      </defs>
      <g style="fill:#262626;" transform="translate(11.620469 22.962797)scale(0.11 -0.11)">
       <use xlink:href="#ArialMT-83"/>
       <use x="66.699219" xlink:href="#ArialMT-86"/>
       <use x="133.398438" xlink:href="#ArialMT-77"/>
      </g>
     </g>
    </g>
    <g id="ytick_2">
     <g id="text_2">
      <!-- Human -->
      <defs>
       <path d="M 8.015625 0 
L 8.015625 71.578125 
L 17.484375 71.578125 
L 17.484375 42.1875 
L 54.6875 42.1875 
L 54.6875 71.578125 
L 64.15625 71.578125 
L 64.15625 0 
L 54.6875 0 
L 54.6875 33.734375 
L 17.484375 33.734375 
L 17.484375 0 
z
" id="ArialMT-72"/>
       <path d="M 40.578125 0 
L 40.578125 7.625 
Q 34.515625 -1.171875 24.125 -1.171875 
Q 19.53125 -1.171875 15.546875 0.578125 
Q 11.578125 2.34375 9.640625 5 
Q 7.71875 7.671875 6.9375 11.53125 
Q 6.390625 14.109375 6.390625 19.734375 
L 6.390625 51.859375 
L 15.1875 51.859375 
L 15.1875 23.09375 
Q 15.1875 16.21875 15.71875 13.8125 
Q 16.546875 10.359375 19.234375 8.375 
Q 21.921875 6.390625 25.875 6.390625 
Q 29.828125 6.390625 33.296875 8.421875 
Q 36.765625 10.453125 38.203125 13.9375 
Q 39.65625 17.4375 39.65625 24.078125 
L 39.65625 51.859375 
L 48.4375 51.859375 
L 48.4375 0 
z
" id="ArialMT-117"/>
       <path d="M 6.59375 0 
L 6.59375 51.859375 
L 14.453125 51.859375 
L 14.453125 44.578125 
Q 16.890625 48.390625 20.9375 50.703125 
Q 25 53.03125 30.171875 53.03125 
Q 35.9375 53.03125 39.625 50.640625 
Q 43.3125 48.25 44.828125 43.953125 
Q 50.984375 53.03125 60.84375 53.03125 
Q 68.5625 53.03125 72.703125 48.75 
Q 76.859375 44.484375 76.859375 35.59375 
L 76.859375 0 
L 68.109375 0 
L 68.109375 32.671875 
Q 68.109375 37.9375 67.25 40.25 
Q 66.40625 42.578125 64.15625 43.984375 
Q 61.921875 45.40625 58.890625 45.40625 
Q 53.421875 45.40625 49.796875 41.765625 
Q 46.1875 38.140625 46.1875 30.125 
L 46.1875 0 
L 37.40625 0 
L 37.40625 33.6875 
Q 37.40625 39.546875 35.25 42.46875 
Q 33.109375 45.40625 28.21875 45.40625 
Q 24.515625 45.40625 21.359375 43.453125 
Q 18.21875 41.5 16.796875 37.734375 
Q 15.375 33.984375 15.375 26.90625 
L 15.375 0 
z
" id="ArialMT-109"/>
       <path d="M 40.4375 6.390625 
Q 35.546875 2.25 31.03125 0.53125 
Q 26.515625 -1.171875 21.34375 -1.171875 
Q 12.796875 -1.171875 8.203125 3 
Q 3.609375 7.171875 3.609375 13.671875 
Q 3.609375 17.484375 5.34375 20.625 
Q 7.078125 23.78125 9.890625 25.6875 
Q 12.703125 27.59375 16.21875 28.5625 
Q 18.796875 29.25 24.03125 29.890625 
Q 34.671875 31.15625 39.703125 32.90625 
Q 39.75 34.71875 39.75 35.203125 
Q 39.75 40.578125 37.25 42.78125 
Q 33.890625 45.75 27.25 45.75 
Q 21.046875 45.75 18.09375 43.578125 
Q 15.140625 41.40625 13.71875 35.890625 
L 5.125 37.0625 
Q 6.296875 42.578125 8.984375 45.96875 
Q 11.671875 49.359375 16.75 51.1875 
Q 21.828125 53.03125 28.515625 53.03125 
Q 35.15625 53.03125 39.296875 51.46875 
Q 43.453125 49.90625 45.40625 47.53125 
Q 47.359375 45.171875 48.140625 41.546875 
Q 48.578125 39.3125 48.578125 33.453125 
L 48.578125 21.734375 
Q 48.578125 9.46875 49.140625 6.21875 
Q 49.703125 2.984375 51.375 0 
L 42.1875 0 
Q 40.828125 2.734375 40.4375 6.390625 
z
M 39.703125 26.03125 
Q 34.90625 24.078125 25.34375 22.703125 
Q 19.921875 21.921875 17.671875 20.9375 
Q 15.4375 19.96875 14.203125 18.09375 
Q 12.984375 16.21875 12.984375 13.921875 
Q 12.984375 10.40625 15.640625 8.0625 
Q 18.3125 5.71875 23.4375 5.71875 
Q 28.515625 5.71875 32.46875 7.9375 
Q 36.421875 10.15625 38.28125 14.015625 
Q 39.703125 17 39.703125 22.796875 
z
" id="ArialMT-97"/>
       <path d="M 6.59375 0 
L 6.59375 51.859375 
L 14.5 51.859375 
L 14.5 44.484375 
Q 20.21875 53.03125 31 53.03125 
Q 35.6875 53.03125 39.625 51.34375 
Q 43.5625 49.65625 45.515625 46.921875 
Q 47.46875 44.1875 48.25 40.4375 
Q 48.734375 37.984375 48.734375 31.890625 
L 48.734375 0 
L 39.9375 0 
L 39.9375 31.546875 
Q 39.9375 36.921875 38.90625 39.578125 
Q 37.890625 42.234375 35.28125 43.8125 
Q 32.671875 45.40625 29.15625 45.40625 
Q 23.53125 45.40625 19.453125 41.84375 
Q 15.375 38.28125 15.375 28.328125 
L 15.375 0 
z
" id="ArialMT-110"/>
      </defs>
      <g style="fill:#262626;" transform="translate(0 61.014797)scale(0.11 -0.11)">
       <use xlink:href="#ArialMT-72"/>
       <use x="72.216797" xlink:href="#ArialMT-117"/>
       <use x="127.832031" xlink:href="#ArialMT-109"/>
       <use x="211.132812" xlink:href="#ArialMT-97"/>
       <use x="266.748047" xlink:href="#ArialMT-110"/>
      </g>
     </g>
    </g>
    <g id="ytick_3">
     <g id="text_3">
      <!-- RNN -->
      <defs>
       <path d="M 7.859375 0 
L 7.859375 71.578125 
L 39.59375 71.578125 
Q 49.171875 71.578125 54.140625 69.640625 
Q 59.125 67.71875 62.109375 62.828125 
Q 65.09375 57.953125 65.09375 52.046875 
Q 65.09375 44.4375 60.15625 39.203125 
Q 55.21875 33.984375 44.921875 32.5625 
Q 48.6875 30.765625 50.640625 29 
Q 54.78125 25.203125 58.5 19.484375 
L 70.953125 0 
L 59.03125 0 
L 49.5625 14.890625 
Q 45.40625 21.34375 42.71875 24.75 
Q 40.046875 28.171875 37.921875 29.53125 
Q 35.796875 30.90625 33.59375 31.453125 
Q 31.984375 31.78125 28.328125 31.78125 
L 17.328125 31.78125 
L 17.328125 0 
z
M 17.328125 39.984375 
L 37.703125 39.984375 
Q 44.1875 39.984375 47.84375 41.328125 
Q 51.515625 42.671875 53.421875 45.625 
Q 55.328125 48.578125 55.328125 52.046875 
Q 55.328125 57.125 51.640625 60.390625 
Q 47.953125 63.671875 39.984375 63.671875 
L 17.328125 63.671875 
z
" id="ArialMT-82"/>
       <path d="M 7.625 0 
L 7.625 71.578125 
L 17.328125 71.578125 
L 54.9375 15.375 
L 54.9375 71.578125 
L 64.015625 71.578125 
L 64.015625 0 
L 54.296875 0 
L 16.703125 56.25 
L 16.703125 0 
z
" id="ArialMT-78"/>
      </defs>
      <g style="fill:#262626;" transform="translate(11.625625 99.066797)scale(0.11 -0.11)">
       <use xlink:href="#ArialMT-82"/>
       <use x="72.216797" xlink:href="#ArialMT-78"/>
       <use x="144.433594" xlink:href="#ArialMT-78"/>
      </g>
     </g>
    </g>
   </g>
   <g id="QuadMesh_1">
    <path clip-path="url(#p9d44679270)" d="M 44.957813 0 
L 51.587515 0 
L 51.587515 38.052 
L 44.957813 38.052 
L 44.957813 0 
" style="fill:#c898a0;"/>
    <path clip-path="url(#p9d44679270)" d="M 51.587515 0 
L 58.217218 0 
L 58.217218 38.052 
L 51.587515 38.052 
L 51.587515 0 
" style="fill:#ad6570;"/>
    <path clip-path="url(#p9d44679270)" d="M 58.217218 0 
L 64.846921 0 
L 64.846921 38.052 
L 58.217218 38.052 
L 58.217218 0 
" style="fill:#c898a0;"/>
    <path clip-path="url(#p9d44679270)" d="M 64.846921 0 
L 71.476624 0 
L 71.476624 38.052 
L 64.846921 38.052 
L 64.846921 0 
" style="fill:#ad6570;"/>
    <path clip-path="url(#p9d44679270)" d="M 71.476624 0 
L 78.106327 0 
L 78.106327 38.052 
L 71.476624 38.052 
L 71.476624 0 
" style="fill:#ad6570;"/>
    <path clip-path="url(#p9d44679270)" d="M 78.106327 0 
L 84.73603 0 
L 84.73603 38.052 
L 78.106327 38.052 
L 78.106327 0 
" style="fill:#913140;"/>
    <path clip-path="url(#p9d44679270)" d="M 84.73603 0 
L 91.365733 0 
L 91.365733 38.052 
L 84.73603 38.052 
L 84.73603 0 
" style="fill:#ad6570;"/>
    <path clip-path="url(#p9d44679270)" d="M 91.365733 0 
L 97.995436 0 
L 97.995436 38.052 
L 91.365733 38.052 
L 91.365733 0 
" style="fill:#ad6570;"/>
    <path clip-path="url(#p9d44679270)" d="M 97.995436 0 
L 104.625139 0 
L 104.625139 38.052 
L 97.995436 38.052 
L 97.995436 0 
" style="fill:#ad6570;"/>
    <path clip-path="url(#p9d44679270)" d="M 104.625139 0 
L 111.254842 0 
L 111.254842 38.052 
L 104.625139 38.052 
L 104.625139 0 
" style="fill:#c898a0;"/>
    <path clip-path="url(#p9d44679270)" d="M 111.254842 0 
L 117.884545 0 
L 117.884545 38.052 
L 111.254842 38.052 
L 111.254842 0 
" style="fill:#c898a0;"/>
    <path clip-path="url(#p9d44679270)" d="M 117.884545 0 
L 124.514248 0 
L 124.514248 38.052 
L 117.884545 38.052 
L 117.884545 0 
" style="fill:#c898a0;"/>
    <path clip-path="url(#p9d44679270)" d="M 124.514248 0 
L 131.143951 0 
L 131.143951 38.052 
L 124.514248 38.052 
L 124.514248 0 
" style="fill:#c898a0;"/>
    <path clip-path="url(#p9d44679270)" d="M 131.143951 0 
L 137.773654 0 
L 137.773654 38.052 
L 131.143951 38.052 
L 131.143951 0 
" style="fill:#ad6570;"/>
    <path clip-path="url(#p9d44679270)" d="M 137.773654 0 
L 144.403357 0 
L 144.403357 38.052 
L 137.773654 38.052 
L 137.773654 0 
" style="fill:#913140;"/>
    <path clip-path="url(#p9d44679270)" d="M 144.403357 0 
L 151.03306 0 
L 151.03306 38.052 
L 144.403357 38.052 
L 144.403357 0 
" style="fill:#c898a0;"/>
    <path clip-path="url(#p9d44679270)" d="M 151.03306 0 
L 157.662763 0 
L 157.662763 38.052 
L 151.03306 38.052 
L 151.03306 0 
" style="fill:#c898a0;"/>
    <path clip-path="url(#p9d44679270)" d="M 157.662763 0 
L 164.292466 0 
L 164.292466 38.052 
L 157.662763 38.052 
L 157.662763 0 
" style="fill:#ad6570;"/>
    <path clip-path="url(#p9d44679270)" d="M 164.292466 0 
L 170.922169 0 
L 170.922169 38.052 
L 164.292466 38.052 
L 164.292466 0 
" style="fill:#c898a0;"/>
    <path clip-path="url(#p9d44679270)" d="M 170.922169 0 
L 177.551872 0 
L 177.551872 38.052 
L 170.922169 38.052 
L 170.922169 0 
" style="fill:#ad6570;"/>
    <path clip-path="url(#p9d44679270)" d="M 177.551872 0 
L 184.181575 0 
L 184.181575 38.052 
L 177.551872 38.052 
L 177.551872 0 
" style="fill:#ad6570;"/>
    <path clip-path="url(#p9d44679270)" d="M 184.181575 0 
L 190.811278 0 
L 190.811278 38.052 
L 184.181575 38.052 
L 184.181575 0 
" style="fill:#c898a0;"/>
    <path clip-path="url(#p9d44679270)" d="M 190.811278 0 
L 197.440981 0 
L 197.440981 38.052 
L 190.811278 38.052 
L 190.811278 0 
" style="fill:#913140;"/>
    <path clip-path="url(#p9d44679270)" d="M 197.440981 0 
L 204.070684 0 
L 204.070684 38.052 
L 197.440981 38.052 
L 197.440981 0 
" style="fill:#ad6570;"/>
    <path clip-path="url(#p9d44679270)" d="M 204.070684 0 
L 210.700387 0 
L 210.700387 38.052 
L 204.070684 38.052 
L 204.070684 0 
" style="fill:#ad6570;"/>
    <path clip-path="url(#p9d44679270)" d="M 210.700387 0 
L 217.33009 0 
L 217.33009 38.052 
L 210.700387 38.052 
L 210.700387 0 
" style="fill:#913140;"/>
    <path clip-path="url(#p9d44679270)" d="M 217.33009 0 
L 223.959793 0 
L 223.959793 38.052 
L 217.33009 38.052 
L 217.33009 0 
" style="fill:#ad6570;"/>
    <path clip-path="url(#p9d44679270)" d="M 223.959793 0 
L 230.589496 0 
L 230.589496 38.052 
L 223.959793 38.052 
L 223.959793 0 
" style="fill:#ad6570;"/>
    <path clip-path="url(#p9d44679270)" d="M 230.589496 0 
L 237.219199 0 
L 237.219199 38.052 
L 230.589496 38.052 
L 230.589496 0 
" style="fill:#913140;"/>
    <path clip-path="url(#p9d44679270)" d="M 237.219199 0 
L 243.848902 0 
L 243.848902 38.052 
L 237.219199 38.052 
L 237.219199 0 
" style="fill:#c898a0;"/>
    <path clip-path="url(#p9d44679270)" d="M 243.848902 0 
L 250.478605 0 
L 250.478605 38.052 
L 243.848902 38.052 
L 243.848902 0 
" style="fill:#ad6570;"/>
    <path clip-path="url(#p9d44679270)" d="M 250.478605 0 
L 257.108308 0 
L 257.108308 38.052 
L 250.478605 38.052 
L 250.478605 0 
" style="fill:#ad6570;"/>
    <path clip-path="url(#p9d44679270)" d="M 257.108308 0 
L 263.738011 0 
L 263.738011 38.052 
L 257.108308 38.052 
L 257.108308 0 
" style="fill:#ad6570;"/>
    <path clip-path="url(#p9d44679270)" d="M 263.738011 0 
L 270.367713 0 
L 270.367713 38.052 
L 263.738011 38.052 
L 263.738011 0 
" style="fill:#913140;"/>
    <path clip-path="url(#p9d44679270)" d="M 270.367713 0 
L 276.997416 0 
L 276.997416 38.052 
L 270.367713 38.052 
L 270.367713 0 
" style="fill:#c898a0;"/>
    <path clip-path="url(#p9d44679270)" d="M 276.997416 0 
L 283.627119 0 
L 283.627119 38.052 
L 276.997416 38.052 
L 276.997416 0 
" style="fill:#ad6570;"/>
    <path clip-path="url(#p9d44679270)" d="M 283.627119 0 
L 290.256822 0 
L 290.256822 38.052 
L 283.627119 38.052 
L 283.627119 0 
" style="fill:#ad6570;"/>
    <path clip-path="url(#p9d44679270)" d="M 290.256822 0 
L 296.886525 0 
L 296.886525 38.052 
L 290.256822 38.052 
L 290.256822 0 
" style="fill:#c898a0;"/>
    <path clip-path="url(#p9d44679270)" d="M 296.886525 0 
L 303.516228 0 
L 303.516228 38.052 
L 296.886525 38.052 
L 296.886525 0 
" style="fill:#ad6570;"/>
    <path clip-path="url(#p9d44679270)" d="M 303.516228 0 
L 310.145931 0 
L 310.145931 38.052 
L 303.516228 38.052 
L 303.516228 0 
" style="fill:#ad6570;"/>
    <path clip-path="url(#p9d44679270)" d="M 310.145931 0 
L 316.775634 0 
L 316.775634 38.052 
L 310.145931 38.052 
L 310.145931 0 
" style="fill:#ad6570;"/>
    <path clip-path="url(#p9d44679270)" d="M 316.775634 0 
L 323.405337 0 
L 323.405337 38.052 
L 316.775634 38.052 
L 316.775634 0 
" style="fill:#913140;"/>
    <path clip-path="url(#p9d44679270)" d="M 323.405337 0 
L 330.03504 0 
L 330.03504 38.052 
L 323.405337 38.052 
L 323.405337 0 
" style="fill:#ad6570;"/>
    <path clip-path="url(#p9d44679270)" d="M 330.03504 0 
L 336.664743 0 
L 336.664743 38.052 
L 330.03504 38.052 
L 330.03504 0 
" style="fill:#ad6570;"/>
    <path clip-path="url(#p9d44679270)" d="M 336.664743 0 
L 343.294446 0 
L 343.294446 38.052 
L 336.664743 38.052 
L 336.664743 0 
" style="fill:#ad6570;"/>
    <path clip-path="url(#p9d44679270)" d="M 343.294446 0 
L 349.924149 0 
L 349.924149 38.052 
L 343.294446 38.052 
L 343.294446 0 
" style="fill:#ad6570;"/>
    <path clip-path="url(#p9d44679270)" d="M 349.924149 0 
L 356.553852 0 
L 356.553852 38.052 
L 349.924149 38.052 
L 349.924149 0 
" style="fill:#c898a0;"/>
    <path clip-path="url(#p9d44679270)" d="M 356.553852 0 
L 363.183555 0 
L 363.183555 38.052 
L 356.553852 38.052 
L 356.553852 0 
" style="fill:#c898a0;"/>
    <path clip-path="url(#p9d44679270)" d="M 363.183555 0 
L 369.813258 0 
L 369.813258 38.052 
L 363.183555 38.052 
L 363.183555 0 
" style="fill:#c898a0;"/>
    <path clip-path="url(#p9d44679270)" d="M 369.813258 0 
L 376.442961 0 
L 376.442961 38.052 
L 369.813258 38.052 
L 369.813258 0 
" style="fill:#ad6570;"/>
    <path clip-path="url(#p9d44679270)" d="M 376.442961 0 
L 383.072664 0 
L 383.072664 38.052 
L 376.442961 38.052 
L 376.442961 0 
" style="fill:#c898a0;"/>
    <path clip-path="url(#p9d44679270)" d="M 383.072664 0 
L 389.702367 0 
L 389.702367 38.052 
L 383.072664 38.052 
L 383.072664 0 
" style="fill:#ad6570;"/>
    <path clip-path="url(#p9d44679270)" d="M 389.702367 0 
L 396.33207 0 
L 396.33207 38.052 
L 389.702367 38.052 
L 389.702367 0 
" style="fill:#c898a0;"/>
    <path clip-path="url(#p9d44679270)" d="M 396.33207 0 
L 402.961773 0 
L 402.961773 38.052 
L 396.33207 38.052 
L 396.33207 0 
" style="fill:#c898a0;"/>
    <path clip-path="url(#p9d44679270)" d="M 402.961773 0 
L 409.591476 0 
L 409.591476 38.052 
L 402.961773 38.052 
L 402.961773 0 
" style="fill:#ad6570;"/>
    <path clip-path="url(#p9d44679270)" d="M 409.591476 0 
L 416.221179 0 
L 416.221179 38.052 
L 409.591476 38.052 
L 409.591476 0 
" style="fill:#c898a0;"/>
    <path clip-path="url(#p9d44679270)" d="M 416.221179 0 
L 422.850882 0 
L 422.850882 38.052 
L 416.221179 38.052 
L 416.221179 0 
" style="fill:#c898a0;"/>
    <path clip-path="url(#p9d44679270)" d="M 422.850882 0 
L 429.480585 0 
L 429.480585 38.052 
L 422.850882 38.052 
L 422.850882 0 
" style="fill:#ad6570;"/>
    <path clip-path="url(#p9d44679270)" d="M 429.480585 0 
L 436.110288 0 
L 436.110288 38.052 
L 429.480585 38.052 
L 429.480585 0 
" style="fill:#c898a0;"/>
    <path clip-path="url(#p9d44679270)" d="M 436.110288 0 
L 442.739991 0 
L 442.739991 38.052 
L 436.110288 38.052 
L 436.110288 0 
" style="fill:#913140;"/>
    <path clip-path="url(#p9d44679270)" d="M 442.739991 0 
L 449.369694 0 
L 449.369694 38.052 
L 442.739991 38.052 
L 442.739991 0 
" style="fill:#c898a0;"/>
    <path clip-path="url(#p9d44679270)" d="M 449.369694 0 
L 455.999397 0 
L 455.999397 38.052 
L 449.369694 38.052 
L 449.369694 0 
" style="fill:#ad6570;"/>
    <path clip-path="url(#p9d44679270)" d="M 455.999397 0 
L 462.6291 0 
L 462.6291 38.052 
L 455.999397 38.052 
L 455.999397 0 
" style="fill:#913140;"/>
    <path clip-path="url(#p9d44679270)" d="M 462.6291 0 
L 469.258803 0 
L 469.258803 38.052 
L 462.6291 38.052 
L 462.6291 0 
" style="fill:#913140;"/>
    <path clip-path="url(#p9d44679270)" d="M 469.258803 0 
L 475.888506 0 
L 475.888506 38.052 
L 469.258803 38.052 
L 469.258803 0 
" style="fill:#c898a0;"/>
    <path clip-path="url(#p9d44679270)" d="M 475.888506 0 
L 482.518209 0 
L 482.518209 38.052 
L 475.888506 38.052 
L 475.888506 0 
" style="fill:#ad6570;"/>
    <path clip-path="url(#p9d44679270)" d="M 482.518209 0 
L 489.147912 0 
L 489.147912 38.052 
L 482.518209 38.052 
L 482.518209 0 
" style="fill:#c898a0;"/>
    <path clip-path="url(#p9d44679270)" d="M 489.147912 0 
L 495.777614 0 
L 495.777614 38.052 
L 489.147912 38.052 
L 489.147912 0 
" style="fill:#c898a0;"/>
    <path clip-path="url(#p9d44679270)" d="M 495.777614 0 
L 502.407317 0 
L 502.407317 38.052 
L 495.777614 38.052 
L 495.777614 0 
" style="fill:#913140;"/>
    <path clip-path="url(#p9d44679270)" d="M 502.407317 0 
L 509.03702 0 
L 509.03702 38.052 
L 502.407317 38.052 
L 502.407317 0 
" style="fill:#c898a0;"/>
    <path clip-path="url(#p9d44679270)" d="M 509.03702 0 
L 515.666723 0 
L 515.666723 38.052 
L 509.03702 38.052 
L 509.03702 0 
" style="fill:#ad6570;"/>
    <path clip-path="url(#p9d44679270)" d="M 515.666723 0 
L 522.296426 0 
L 522.296426 38.052 
L 515.666723 38.052 
L 515.666723 0 
" style="fill:#c898a0;"/>
    <path clip-path="url(#p9d44679270)" d="M 522.296426 0 
L 528.926129 0 
L 528.926129 38.052 
L 522.296426 38.052 
L 522.296426 0 
" style="fill:#ad6570;"/>
    <path clip-path="url(#p9d44679270)" d="M 528.926129 0 
L 535.555832 0 
L 535.555832 38.052 
L 528.926129 38.052 
L 528.926129 0 
" style="fill:#913140;"/>
    <path clip-path="url(#p9d44679270)" d="M 535.555832 0 
L 542.185535 0 
L 542.185535 38.052 
L 535.555832 38.052 
L 535.555832 0 
" style="fill:#ad6570;"/>
    <path clip-path="url(#p9d44679270)" d="M 542.185535 0 
L 548.815238 0 
L 548.815238 38.052 
L 542.185535 38.052 
L 542.185535 0 
" style="fill:#ad6570;"/>
    <path clip-path="url(#p9d44679270)" d="M 548.815238 0 
L 555.444941 0 
L 555.444941 38.052 
L 548.815238 38.052 
L 548.815238 0 
" style="fill:#c898a0;"/>
    <path clip-path="url(#p9d44679270)" d="M 555.444941 0 
L 562.074644 0 
L 562.074644 38.052 
L 555.444941 38.052 
L 555.444941 0 
" style="fill:#ad6570;"/>
    <path clip-path="url(#p9d44679270)" d="M 562.074644 0 
L 568.704347 0 
L 568.704347 38.052 
L 562.074644 38.052 
L 562.074644 0 
" style="fill:#c898a0;"/>
    <path clip-path="url(#p9d44679270)" d="M 568.704347 0 
L 575.33405 0 
L 575.33405 38.052 
L 568.704347 38.052 
L 568.704347 0 
" style="fill:#c898a0;"/>
    <path clip-path="url(#p9d44679270)" d="M 575.33405 0 
L 581.963753 0 
L 581.963753 38.052 
L 575.33405 38.052 
L 575.33405 0 
" style="fill:#913140;"/>
    <path clip-path="url(#p9d44679270)" d="M 581.963753 0 
L 588.593456 0 
L 588.593456 38.052 
L 581.963753 38.052 
L 581.963753 0 
" style="fill:#c898a0;"/>
    <path clip-path="url(#p9d44679270)" d="M 588.593456 0 
L 595.223159 0 
L 595.223159 38.052 
L 588.593456 38.052 
L 588.593456 0 
" style="fill:#c898a0;"/>
    <path clip-path="url(#p9d44679270)" d="M 595.223159 0 
L 601.852862 0 
L 601.852862 38.052 
L 595.223159 38.052 
L 595.223159 0 
" style="fill:#ad6570;"/>
    <path clip-path="url(#p9d44679270)" d="M 601.852862 0 
L 608.482565 0 
L 608.482565 38.052 
L 601.852862 38.052 
L 601.852862 0 
" style="fill:#913140;"/>
    <path clip-path="url(#p9d44679270)" d="M 608.482565 0 
L 615.112268 0 
L 615.112268 38.052 
L 608.482565 38.052 
L 608.482565 0 
" style="fill:#913140;"/>
    <path clip-path="url(#p9d44679270)" d="M 615.112268 0 
L 621.741971 0 
L 621.741971 38.052 
L 615.112268 38.052 
L 615.112268 0 
" style="fill:#913140;"/>
    <path clip-path="url(#p9d44679270)" d="M 621.741971 0 
L 628.371674 0 
L 628.371674 38.052 
L 621.741971 38.052 
L 621.741971 0 
" style="fill:#ad6570;"/>
    <path clip-path="url(#p9d44679270)" d="M 628.371674 0 
L 635.001377 0 
L 635.001377 38.052 
L 628.371674 38.052 
L 628.371674 0 
" style="fill:#ad6570;"/>
    <path clip-path="url(#p9d44679270)" d="M 635.001377 0 
L 641.63108 0 
L 641.63108 38.052 
L 635.001377 38.052 
L 635.001377 0 
" style="fill:#ad6570;"/>
    <path clip-path="url(#p9d44679270)" d="M 641.63108 0 
L 648.260783 0 
L 648.260783 38.052 
L 641.63108 38.052 
L 641.63108 0 
" style="fill:#c898a0;"/>
    <path clip-path="url(#p9d44679270)" d="M 648.260783 0 
L 654.890486 0 
L 654.890486 38.052 
L 648.260783 38.052 
L 648.260783 0 
" style="fill:#ad6570;"/>
    <path clip-path="url(#p9d44679270)" d="M 654.890486 0 
L 661.520189 0 
L 661.520189 38.052 
L 654.890486 38.052 
L 654.890486 0 
" style="fill:#c898a0;"/>
    <path clip-path="url(#p9d44679270)" d="M 661.520189 0 
L 668.149892 0 
L 668.149892 38.052 
L 661.520189 38.052 
L 661.520189 0 
" style="fill:#c898a0;"/>
    <path clip-path="url(#p9d44679270)" d="M 668.149892 0 
L 674.779595 0 
L 674.779595 38.052 
L 668.149892 38.052 
L 668.149892 0 
" style="fill:#c898a0;"/>
    <path clip-path="url(#p9d44679270)" d="M 674.779595 0 
L 681.409298 0 
L 681.409298 38.052 
L 674.779595 38.052 
L 674.779595 0 
" style="fill:#c898a0;"/>
    <path clip-path="url(#p9d44679270)" d="M 681.409298 0 
L 688.039001 0 
L 688.039001 38.052 
L 681.409298 38.052 
L 681.409298 0 
" style="fill:#c898a0;"/>
    <path clip-path="url(#p9d44679270)" d="M 688.039001 0 
L 694.668704 0 
L 694.668704 38.052 
L 688.039001 38.052 
L 688.039001 0 
" style="fill:#ad6570;"/>
    <path clip-path="url(#p9d44679270)" d="M 694.668704 0 
L 701.298407 0 
L 701.298407 38.052 
L 694.668704 38.052 
L 694.668704 0 
" style="fill:#c898a0;"/>
    <path clip-path="url(#p9d44679270)" d="M 701.298407 0 
L 707.92811 0 
L 707.92811 38.052 
L 701.298407 38.052 
L 701.298407 0 
" style="fill:#913140;"/>
    <path clip-path="url(#p9d44679270)" d="M 707.92811 0 
L 714.557813 0 
L 714.557813 38.052 
L 707.92811 38.052 
L 707.92811 0 
" style="fill:#c898a0;"/>
    <path clip-path="url(#p9d44679270)" d="M 44.957813 38.052 
L 51.587515 38.052 
L 51.587515 76.104 
L 44.957813 76.104 
L 44.957813 38.052 
" style="fill:#e4cccf;"/>
    <path clip-path="url(#p9d44679270)" d="M 51.587515 38.052 
L 58.217218 38.052 
L 58.217218 76.104 
L 51.587515 76.104 
L 51.587515 38.052 
" style="fill:#ad6570;"/>
    <path clip-path="url(#p9d44679270)" d="M 58.217218 38.052 
L 64.846921 38.052 
L 64.846921 76.104 
L 58.217218 76.104 
L 58.217218 38.052 
" style="fill:#c898a0;"/>
    <path clip-path="url(#p9d44679270)" d="M 64.846921 38.052 
L 71.476624 38.052 
L 71.476624 76.104 
L 64.846921 76.104 
L 64.846921 38.052 
" style="fill:#ad6570;"/>
    <path clip-path="url(#p9d44679270)" d="M 71.476624 38.052 
L 78.106327 38.052 
L 78.106327 76.104 
L 71.476624 76.104 
L 71.476624 38.052 
" style="fill:#ad6570;"/>
    <path clip-path="url(#p9d44679270)" d="M 78.106327 38.052 
L 84.73603 38.052 
L 84.73603 76.104 
L 78.106327 76.104 
L 78.106327 38.052 
" style="fill:#ad6570;"/>
    <path clip-path="url(#p9d44679270)" d="M 84.73603 38.052 
L 91.365733 38.052 
L 91.365733 76.104 
L 84.73603 76.104 
L 84.73603 38.052 
" style="fill:#c898a0;"/>
    <path clip-path="url(#p9d44679270)" d="M 91.365733 38.052 
L 97.995436 38.052 
L 97.995436 76.104 
L 91.365733 76.104 
L 91.365733 38.052 
" style="fill:#ad6570;"/>
    <path clip-path="url(#p9d44679270)" d="M 97.995436 38.052 
L 104.625139 38.052 
L 104.625139 76.104 
L 97.995436 76.104 
L 97.995436 38.052 
" style="fill:#ad6570;"/>
    <path clip-path="url(#p9d44679270)" d="M 104.625139 38.052 
L 111.254842 38.052 
L 111.254842 76.104 
L 104.625139 76.104 
L 104.625139 38.052 
" style="fill:#913140;"/>
    <path clip-path="url(#p9d44679270)" d="M 111.254842 38.052 
L 117.884545 38.052 
L 117.884545 76.104 
L 111.254842 76.104 
L 111.254842 38.052 
" style="fill:#ad6570;"/>
    <path clip-path="url(#p9d44679270)" d="M 117.884545 38.052 
L 124.514248 38.052 
L 124.514248 76.104 
L 117.884545 76.104 
L 117.884545 38.052 
" style="fill:#ad6570;"/>
    <path clip-path="url(#p9d44679270)" d="M 124.514248 38.052 
L 131.143951 38.052 
L 131.143951 76.104 
L 124.514248 76.104 
L 124.514248 38.052 
" style="fill:#c898a0;"/>
    <path clip-path="url(#p9d44679270)" d="M 131.143951 38.052 
L 137.773654 38.052 
L 137.773654 76.104 
L 131.143951 76.104 
L 131.143951 38.052 
" style="fill:#ad6570;"/>
    <path clip-path="url(#p9d44679270)" d="M 137.773654 38.052 
L 144.403357 38.052 
L 144.403357 76.104 
L 137.773654 76.104 
L 137.773654 38.052 
" style="fill:#913140;"/>
    <path clip-path="url(#p9d44679270)" d="M 144.403357 38.052 
L 151.03306 38.052 
L 151.03306 76.104 
L 144.403357 76.104 
L 144.403357 38.052 
" style="fill:#c898a0;"/>
    <path clip-path="url(#p9d44679270)" d="M 151.03306 38.052 
L 157.662763 38.052 
L 157.662763 76.104 
L 151.03306 76.104 
L 151.03306 38.052 
" style="fill:#e4cccf;"/>
    <path clip-path="url(#p9d44679270)" d="M 157.662763 38.052 
L 164.292466 38.052 
L 164.292466 76.104 
L 157.662763 76.104 
L 157.662763 38.052 
" style="fill:#ad6570;"/>
    <path clip-path="url(#p9d44679270)" d="M 164.292466 38.052 
L 170.922169 38.052 
L 170.922169 76.104 
L 164.292466 76.104 
L 164.292466 38.052 
" style="fill:#c898a0;"/>
    <path clip-path="url(#p9d44679270)" d="M 170.922169 38.052 
L 177.551872 38.052 
L 177.551872 76.104 
L 170.922169 76.104 
L 170.922169 38.052 
" style="fill:#c898a0;"/>
    <path clip-path="url(#p9d44679270)" d="M 177.551872 38.052 
L 184.181575 38.052 
L 184.181575 76.104 
L 177.551872 76.104 
L 177.551872 38.052 
" style="fill:#ad6570;"/>
    <path clip-path="url(#p9d44679270)" d="M 184.181575 38.052 
L 190.811278 38.052 
L 190.811278 76.104 
L 184.181575 76.104 
L 184.181575 38.052 
" style="fill:#c898a0;"/>
    <path clip-path="url(#p9d44679270)" d="M 190.811278 38.052 
L 197.440981 38.052 
L 197.440981 76.104 
L 190.811278 76.104 
L 190.811278 38.052 
" style="fill:#913140;"/>
    <path clip-path="url(#p9d44679270)" d="M 197.440981 38.052 
L 204.070684 38.052 
L 204.070684 76.104 
L 197.440981 76.104 
L 197.440981 38.052 
" style="fill:#913140;"/>
    <path clip-path="url(#p9d44679270)" d="M 204.070684 38.052 
L 210.700387 38.052 
L 210.700387 76.104 
L 204.070684 76.104 
L 204.070684 38.052 
" style="fill:#c898a0;"/>
    <path clip-path="url(#p9d44679270)" d="M 210.700387 38.052 
L 217.33009 38.052 
L 217.33009 76.104 
L 210.700387 76.104 
L 210.700387 38.052 
" style="fill:#913140;"/>
    <path clip-path="url(#p9d44679270)" d="M 217.33009 38.052 
L 223.959793 38.052 
L 223.959793 76.104 
L 217.33009 76.104 
L 217.33009 38.052 
" style="fill:#ad6570;"/>
    <path clip-path="url(#p9d44679270)" d="M 223.959793 38.052 
L 230.589496 38.052 
L 230.589496 76.104 
L 223.959793 76.104 
L 223.959793 38.052 
" style="fill:#913140;"/>
    <path clip-path="url(#p9d44679270)" d="M 230.589496 38.052 
L 237.219199 38.052 
L 237.219199 76.104 
L 230.589496 76.104 
L 230.589496 38.052 
" style="fill:#913140;"/>
    <path clip-path="url(#p9d44679270)" d="M 237.219199 38.052 
L 243.848902 38.052 
L 243.848902 76.104 
L 237.219199 76.104 
L 237.219199 38.052 
" style="fill:#c898a0;"/>
    <path clip-path="url(#p9d44679270)" d="M 243.848902 38.052 
L 250.478605 38.052 
L 250.478605 76.104 
L 243.848902 76.104 
L 243.848902 38.052 
" style="fill:#c898a0;"/>
    <path clip-path="url(#p9d44679270)" d="M 250.478605 38.052 
L 257.108308 38.052 
L 257.108308 76.104 
L 250.478605 76.104 
L 250.478605 38.052 
" style="fill:#ad6570;"/>
    <path clip-path="url(#p9d44679270)" d="M 257.108308 38.052 
L 263.738011 38.052 
L 263.738011 76.104 
L 257.108308 76.104 
L 257.108308 38.052 
" style="fill:#ad6570;"/>
    <path clip-path="url(#p9d44679270)" d="M 263.738011 38.052 
L 270.367713 38.052 
L 270.367713 76.104 
L 263.738011 76.104 
L 263.738011 38.052 
" style="fill:#913140;"/>
    <path clip-path="url(#p9d44679270)" d="M 270.367713 38.052 
L 276.997416 38.052 
L 276.997416 76.104 
L 270.367713 76.104 
L 270.367713 38.052 
" style="fill:#c898a0;"/>
    <path clip-path="url(#p9d44679270)" d="M 276.997416 38.052 
L 283.627119 38.052 
L 283.627119 76.104 
L 276.997416 76.104 
L 276.997416 38.052 
" style="fill:#ad6570;"/>
    <path clip-path="url(#p9d44679270)" d="M 283.627119 38.052 
L 290.256822 38.052 
L 290.256822 76.104 
L 283.627119 76.104 
L 283.627119 38.052 
" style="fill:#ad6570;"/>
    <path clip-path="url(#p9d44679270)" d="M 290.256822 38.052 
L 296.886525 38.052 
L 296.886525 76.104 
L 290.256822 76.104 
L 290.256822 38.052 
" style="fill:#c898a0;"/>
    <path clip-path="url(#p9d44679270)" d="M 296.886525 38.052 
L 303.516228 38.052 
L 303.516228 76.104 
L 296.886525 76.104 
L 296.886525 38.052 
" style="fill:#c898a0;"/>
    <path clip-path="url(#p9d44679270)" d="M 303.516228 38.052 
L 310.145931 38.052 
L 310.145931 76.104 
L 303.516228 76.104 
L 303.516228 38.052 
" style="fill:#913140;"/>
    <path clip-path="url(#p9d44679270)" d="M 310.145931 38.052 
L 316.775634 38.052 
L 316.775634 76.104 
L 310.145931 76.104 
L 310.145931 38.052 
" style="fill:#913140;"/>
    <path clip-path="url(#p9d44679270)" d="M 316.775634 38.052 
L 323.405337 38.052 
L 323.405337 76.104 
L 316.775634 76.104 
L 316.775634 38.052 
" style="fill:#913140;"/>
    <path clip-path="url(#p9d44679270)" d="M 323.405337 38.052 
L 330.03504 38.052 
L 330.03504 76.104 
L 323.405337 76.104 
L 323.405337 38.052 
" style="fill:#c898a0;"/>
    <path clip-path="url(#p9d44679270)" d="M 330.03504 38.052 
L 336.664743 38.052 
L 336.664743 76.104 
L 330.03504 76.104 
L 330.03504 38.052 
" style="fill:#ad6570;"/>
    <path clip-path="url(#p9d44679270)" d="M 336.664743 38.052 
L 343.294446 38.052 
L 343.294446 76.104 
L 336.664743 76.104 
L 336.664743 38.052 
" style="fill:#913140;"/>
    <path clip-path="url(#p9d44679270)" d="M 343.294446 38.052 
L 349.924149 38.052 
L 349.924149 76.104 
L 343.294446 76.104 
L 343.294446 38.052 
" style="fill:#ad6570;"/>
    <path clip-path="url(#p9d44679270)" d="M 349.924149 38.052 
L 356.553852 38.052 
L 356.553852 76.104 
L 349.924149 76.104 
L 349.924149 38.052 
" style="fill:#c898a0;"/>
    <path clip-path="url(#p9d44679270)" d="M 356.553852 38.052 
L 363.183555 38.052 
L 363.183555 76.104 
L 356.553852 76.104 
L 356.553852 38.052 
" style="fill:#e4cccf;"/>
    <path clip-path="url(#p9d44679270)" d="M 363.183555 38.052 
L 369.813258 38.052 
L 369.813258 76.104 
L 363.183555 76.104 
L 363.183555 38.052 
" style="fill:#c898a0;"/>
    <path clip-path="url(#p9d44679270)" d="M 369.813258 38.052 
L 376.442961 38.052 
L 376.442961 76.104 
L 369.813258 76.104 
L 369.813258 38.052 
" style="fill:#ad6570;"/>
    <path clip-path="url(#p9d44679270)" d="M 376.442961 38.052 
L 383.072664 38.052 
L 383.072664 76.104 
L 376.442961 76.104 
L 376.442961 38.052 
" style="fill:#e4cccf;"/>
    <path clip-path="url(#p9d44679270)" d="M 383.072664 38.052 
L 389.702367 38.052 
L 389.702367 76.104 
L 383.072664 76.104 
L 383.072664 38.052 
" style="fill:#c898a0;"/>
    <path clip-path="url(#p9d44679270)" d="M 389.702367 38.052 
L 396.33207 38.052 
L 396.33207 76.104 
L 389.702367 76.104 
L 389.702367 38.052 
" style="fill:#c898a0;"/>
    <path clip-path="url(#p9d44679270)" d="M 396.33207 38.052 
L 402.961773 38.052 
L 402.961773 76.104 
L 396.33207 76.104 
L 396.33207 38.052 
" style="fill:#e4cccf;"/>
    <path clip-path="url(#p9d44679270)" d="M 402.961773 38.052 
L 409.591476 38.052 
L 409.591476 76.104 
L 402.961773 76.104 
L 402.961773 38.052 
" style="fill:#c898a0;"/>
    <path clip-path="url(#p9d44679270)" d="M 409.591476 38.052 
L 416.221179 38.052 
L 416.221179 76.104 
L 409.591476 76.104 
L 409.591476 38.052 
" style="fill:#c898a0;"/>
    <path clip-path="url(#p9d44679270)" d="M 416.221179 38.052 
L 422.850882 38.052 
L 422.850882 76.104 
L 416.221179 76.104 
L 416.221179 38.052 
" style="fill:#c898a0;"/>
    <path clip-path="url(#p9d44679270)" d="M 422.850882 38.052 
L 429.480585 38.052 
L 429.480585 76.104 
L 422.850882 76.104 
L 422.850882 38.052 
" style="fill:#913140;"/>
    <path clip-path="url(#p9d44679270)" d="M 429.480585 38.052 
L 436.110288 38.052 
L 436.110288 76.104 
L 429.480585 76.104 
L 429.480585 38.052 
" style="fill:#c898a0;"/>
    <path clip-path="url(#p9d44679270)" d="M 436.110288 38.052 
L 442.739991 38.052 
L 442.739991 76.104 
L 436.110288 76.104 
L 436.110288 38.052 
" style="fill:#c898a0;"/>
    <path clip-path="url(#p9d44679270)" d="M 442.739991 38.052 
L 449.369694 38.052 
L 449.369694 76.104 
L 442.739991 76.104 
L 442.739991 38.052 
" style="fill:#ad6570;"/>
    <path clip-path="url(#p9d44679270)" d="M 449.369694 38.052 
L 455.999397 38.052 
L 455.999397 76.104 
L 449.369694 76.104 
L 449.369694 38.052 
" style="fill:#913140;"/>
    <path clip-path="url(#p9d44679270)" d="M 455.999397 38.052 
L 462.6291 38.052 
L 462.6291 76.104 
L 455.999397 76.104 
L 455.999397 38.052 
" style="fill:#913140;"/>
    <path clip-path="url(#p9d44679270)" d="M 462.6291 38.052 
L 469.258803 38.052 
L 469.258803 76.104 
L 462.6291 76.104 
L 462.6291 38.052 
" style="fill:#913140;"/>
    <path clip-path="url(#p9d44679270)" d="M 469.258803 38.052 
L 475.888506 38.052 
L 475.888506 76.104 
L 469.258803 76.104 
L 469.258803 38.052 
" style="fill:#c898a0;"/>
    <path clip-path="url(#p9d44679270)" d="M 475.888506 38.052 
L 482.518209 38.052 
L 482.518209 76.104 
L 475.888506 76.104 
L 475.888506 38.052 
" style="fill:#ad6570;"/>
    <path clip-path="url(#p9d44679270)" d="M 482.518209 38.052 
L 489.147912 38.052 
L 489.147912 76.104 
L 482.518209 76.104 
L 482.518209 38.052 
" style="fill:#e4cccf;"/>
    <path clip-path="url(#p9d44679270)" d="M 489.147912 38.052 
L 495.777614 38.052 
L 495.777614 76.104 
L 489.147912 76.104 
L 489.147912 38.052 
" style="fill:#ad6570;"/>
    <path clip-path="url(#p9d44679270)" d="M 495.777614 38.052 
L 502.407317 38.052 
L 502.407317 76.104 
L 495.777614 76.104 
L 495.777614 38.052 
" style="fill:#c898a0;"/>
    <path clip-path="url(#p9d44679270)" d="M 502.407317 38.052 
L 509.03702 38.052 
L 509.03702 76.104 
L 502.407317 76.104 
L 502.407317 38.052 
" style="fill:#ad6570;"/>
    <path clip-path="url(#p9d44679270)" d="M 509.03702 38.052 
L 515.666723 38.052 
L 515.666723 76.104 
L 509.03702 76.104 
L 509.03702 38.052 
" style="fill:#ad6570;"/>
    <path clip-path="url(#p9d44679270)" d="M 515.666723 38.052 
L 522.296426 38.052 
L 522.296426 76.104 
L 515.666723 76.104 
L 515.666723 38.052 
" style="fill:#c898a0;"/>
    <path clip-path="url(#p9d44679270)" d="M 522.296426 38.052 
L 528.926129 38.052 
L 528.926129 76.104 
L 522.296426 76.104 
L 522.296426 38.052 
" style="fill:#ad6570;"/>
    <path clip-path="url(#p9d44679270)" d="M 528.926129 38.052 
L 535.555832 38.052 
L 535.555832 76.104 
L 528.926129 76.104 
L 528.926129 38.052 
" style="fill:#ad6570;"/>
    <path clip-path="url(#p9d44679270)" d="M 535.555832 38.052 
L 542.185535 38.052 
L 542.185535 76.104 
L 535.555832 76.104 
L 535.555832 38.052 
" style="fill:#c898a0;"/>
    <path clip-path="url(#p9d44679270)" d="M 542.185535 38.052 
L 548.815238 38.052 
L 548.815238 76.104 
L 542.185535 76.104 
L 542.185535 38.052 
" style="fill:#913140;"/>
    <path clip-path="url(#p9d44679270)" d="M 548.815238 38.052 
L 555.444941 38.052 
L 555.444941 76.104 
L 548.815238 76.104 
L 548.815238 38.052 
" style="fill:#e4cccf;"/>
    <path clip-path="url(#p9d44679270)" d="M 555.444941 38.052 
L 562.074644 38.052 
L 562.074644 76.104 
L 555.444941 76.104 
L 555.444941 38.052 
" style="fill:#c898a0;"/>
    <path clip-path="url(#p9d44679270)" d="M 562.074644 38.052 
L 568.704347 38.052 
L 568.704347 76.104 
L 562.074644 76.104 
L 562.074644 38.052 
" style="fill:#e4cccf;"/>
    <path clip-path="url(#p9d44679270)" d="M 568.704347 38.052 
L 575.33405 38.052 
L 575.33405 76.104 
L 568.704347 76.104 
L 568.704347 38.052 
" style="fill:#c898a0;"/>
    <path clip-path="url(#p9d44679270)" d="M 575.33405 38.052 
L 581.963753 38.052 
L 581.963753 76.104 
L 575.33405 76.104 
L 575.33405 38.052 
" style="fill:#913140;"/>
    <path clip-path="url(#p9d44679270)" d="M 581.963753 38.052 
L 588.593456 38.052 
L 588.593456 76.104 
L 581.963753 76.104 
L 581.963753 38.052 
" style="fill:#c898a0;"/>
    <path clip-path="url(#p9d44679270)" d="M 588.593456 38.052 
L 595.223159 38.052 
L 595.223159 76.104 
L 588.593456 76.104 
L 588.593456 38.052 
" style="fill:#c898a0;"/>
    <path clip-path="url(#p9d44679270)" d="M 595.223159 38.052 
L 601.852862 38.052 
L 601.852862 76.104 
L 595.223159 76.104 
L 595.223159 38.052 
" style="fill:#ad6570;"/>
    <path clip-path="url(#p9d44679270)" d="M 601.852862 38.052 
L 608.482565 38.052 
L 608.482565 76.104 
L 601.852862 76.104 
L 601.852862 38.052 
" style="fill:#c898a0;"/>
    <path clip-path="url(#p9d44679270)" d="M 608.482565 38.052 
L 615.112268 38.052 
L 615.112268 76.104 
L 608.482565 76.104 
L 608.482565 38.052 
" style="fill:#913140;"/>
    <path clip-path="url(#p9d44679270)" d="M 615.112268 38.052 
L 621.741971 38.052 
L 621.741971 76.104 
L 615.112268 76.104 
L 615.112268 38.052 
" style="fill:#913140;"/>
    <path clip-path="url(#p9d44679270)" d="M 621.741971 38.052 
L 628.371674 38.052 
L 628.371674 76.104 
L 621.741971 76.104 
L 621.741971 38.052 
" style="fill:#c898a0;"/>
    <path clip-path="url(#p9d44679270)" d="M 628.371674 38.052 
L 635.001377 38.052 
L 635.001377 76.104 
L 628.371674 76.104 
L 628.371674 38.052 
" style="fill:#ad6570;"/>
    <path clip-path="url(#p9d44679270)" d="M 635.001377 38.052 
L 641.63108 38.052 
L 641.63108 76.104 
L 635.001377 76.104 
L 635.001377 38.052 
" style="fill:#ad6570;"/>
    <path clip-path="url(#p9d44679270)" d="M 641.63108 38.052 
L 648.260783 38.052 
L 648.260783 76.104 
L 641.63108 76.104 
L 641.63108 38.052 
" style="fill:#e4cccf;"/>
    <path clip-path="url(#p9d44679270)" d="M 648.260783 38.052 
L 654.890486 38.052 
L 654.890486 76.104 
L 648.260783 76.104 
L 648.260783 38.052 
" style="fill:#ad6570;"/>
    <path clip-path="url(#p9d44679270)" d="M 654.890486 38.052 
L 661.520189 38.052 
L 661.520189 76.104 
L 654.890486 76.104 
L 654.890486 38.052 
" style="fill:#c898a0;"/>
    <path clip-path="url(#p9d44679270)" d="M 661.520189 38.052 
L 668.149892 38.052 
L 668.149892 76.104 
L 661.520189 76.104 
L 661.520189 38.052 
" style="fill:#c898a0;"/>
    <path clip-path="url(#p9d44679270)" d="M 668.149892 38.052 
L 674.779595 38.052 
L 674.779595 76.104 
L 668.149892 76.104 
L 668.149892 38.052 
" style="fill:#c898a0;"/>
    <path clip-path="url(#p9d44679270)" d="M 674.779595 38.052 
L 681.409298 38.052 
L 681.409298 76.104 
L 674.779595 76.104 
L 674.779595 38.052 
" style="fill:#c898a0;"/>
    <path clip-path="url(#p9d44679270)" d="M 681.409298 38.052 
L 688.039001 38.052 
L 688.039001 76.104 
L 681.409298 76.104 
L 681.409298 38.052 
" style="fill:#ad6570;"/>
    <path clip-path="url(#p9d44679270)" d="M 688.039001 38.052 
L 694.668704 38.052 
L 694.668704 76.104 
L 688.039001 76.104 
L 688.039001 38.052 
" style="fill:#ad6570;"/>
    <path clip-path="url(#p9d44679270)" d="M 694.668704 38.052 
L 701.298407 38.052 
L 701.298407 76.104 
L 694.668704 76.104 
L 694.668704 38.052 
" style="fill:#c898a0;"/>
    <path clip-path="url(#p9d44679270)" d="M 701.298407 38.052 
L 707.92811 38.052 
L 707.92811 76.104 
L 701.298407 76.104 
L 701.298407 38.052 
" style="fill:#913140;"/>
    <path clip-path="url(#p9d44679270)" d="M 707.92811 38.052 
L 714.557813 38.052 
L 714.557813 76.104 
L 707.92811 76.104 
L 707.92811 38.052 
" style="fill:#e4cccf;"/>
    <path clip-path="url(#p9d44679270)" d="M 44.957813 76.104 
L 51.587515 76.104 
L 51.587515 114.156 
L 44.957813 114.156 
L 44.957813 76.104 
" style="fill:#c898a0;"/>
    <path clip-path="url(#p9d44679270)" d="M 51.587515 76.104 
L 58.217218 76.104 
L 58.217218 114.156 
L 51.587515 114.156 
L 51.587515 76.104 
" style="fill:#ad6570;"/>
    <path clip-path="url(#p9d44679270)" d="M 58.217218 76.104 
L 64.846921 76.104 
L 64.846921 114.156 
L 58.217218 114.156 
L 58.217218 76.104 
" style="fill:#c898a0;"/>
    <path clip-path="url(#p9d44679270)" d="M 64.846921 76.104 
L 71.476624 76.104 
L 71.476624 114.156 
L 64.846921 114.156 
L 64.846921 76.104 
" style="fill:#c898a0;"/>
    <path clip-path="url(#p9d44679270)" d="M 71.476624 76.104 
L 78.106327 76.104 
L 78.106327 114.156 
L 71.476624 114.156 
L 71.476624 76.104 
" style="fill:#ad6570;"/>
    <path clip-path="url(#p9d44679270)" d="M 78.106327 76.104 
L 84.73603 76.104 
L 84.73603 114.156 
L 78.106327 114.156 
L 78.106327 76.104 
" style="fill:#913140;"/>
    <path clip-path="url(#p9d44679270)" d="M 84.73603 76.104 
L 91.365733 76.104 
L 91.365733 114.156 
L 84.73603 114.156 
L 84.73603 76.104 
" style="fill:#c898a0;"/>
    <path clip-path="url(#p9d44679270)" d="M 91.365733 76.104 
L 97.995436 76.104 
L 97.995436 114.156 
L 91.365733 114.156 
L 91.365733 76.104 
" style="fill:#ad6570;"/>
    <path clip-path="url(#p9d44679270)" d="M 97.995436 76.104 
L 104.625139 76.104 
L 104.625139 114.156 
L 97.995436 114.156 
L 97.995436 76.104 
" style="fill:#ad6570;"/>
    <path clip-path="url(#p9d44679270)" d="M 104.625139 76.104 
L 111.254842 76.104 
L 111.254842 114.156 
L 104.625139 114.156 
L 104.625139 76.104 
" style="fill:#ad6570;"/>
    <path clip-path="url(#p9d44679270)" d="M 111.254842 76.104 
L 117.884545 76.104 
L 117.884545 114.156 
L 111.254842 114.156 
L 111.254842 76.104 
" style="fill:#c898a0;"/>
    <path clip-path="url(#p9d44679270)" d="M 117.884545 76.104 
L 124.514248 76.104 
L 124.514248 114.156 
L 117.884545 114.156 
L 117.884545 76.104 
" style="fill:#ad6570;"/>
    <path clip-path="url(#p9d44679270)" d="M 124.514248 76.104 
L 131.143951 76.104 
L 131.143951 114.156 
L 124.514248 114.156 
L 124.514248 76.104 
" style="fill:#c898a0;"/>
    <path clip-path="url(#p9d44679270)" d="M 131.143951 76.104 
L 137.773654 76.104 
L 137.773654 114.156 
L 131.143951 114.156 
L 131.143951 76.104 
" style="fill:#ad6570;"/>
    <path clip-path="url(#p9d44679270)" d="M 137.773654 76.104 
L 144.403357 76.104 
L 144.403357 114.156 
L 137.773654 114.156 
L 137.773654 76.104 
" style="fill:#913140;"/>
    <path clip-path="url(#p9d44679270)" d="M 144.403357 76.104 
L 151.03306 76.104 
L 151.03306 114.156 
L 144.403357 114.156 
L 144.403357 76.104 
" style="fill:#c898a0;"/>
    <path clip-path="url(#p9d44679270)" d="M 151.03306 76.104 
L 157.662763 76.104 
L 157.662763 114.156 
L 151.03306 114.156 
L 151.03306 76.104 
" style="fill:#c898a0;"/>
    <path clip-path="url(#p9d44679270)" d="M 157.662763 76.104 
L 164.292466 76.104 
L 164.292466 114.156 
L 157.662763 114.156 
L 157.662763 76.104 
" style="fill:#ad6570;"/>
    <path clip-path="url(#p9d44679270)" d="M 164.292466 76.104 
L 170.922169 76.104 
L 170.922169 114.156 
L 164.292466 114.156 
L 164.292466 76.104 
" style="fill:#c898a0;"/>
    <path clip-path="url(#p9d44679270)" d="M 170.922169 76.104 
L 177.551872 76.104 
L 177.551872 114.156 
L 170.922169 114.156 
L 170.922169 76.104 
" style="fill:#c898a0;"/>
    <path clip-path="url(#p9d44679270)" d="M 177.551872 76.104 
L 184.181575 76.104 
L 184.181575 114.156 
L 177.551872 114.156 
L 177.551872 76.104 
" style="fill:#ad6570;"/>
    <path clip-path="url(#p9d44679270)" d="M 184.181575 76.104 
L 190.811278 76.104 
L 190.811278 114.156 
L 184.181575 114.156 
L 184.181575 76.104 
" style="fill:#c898a0;"/>
    <path clip-path="url(#p9d44679270)" d="M 190.811278 76.104 
L 197.440981 76.104 
L 197.440981 114.156 
L 190.811278 114.156 
L 190.811278 76.104 
" style="fill:#ad6570;"/>
    <path clip-path="url(#p9d44679270)" d="M 197.440981 76.104 
L 204.070684 76.104 
L 204.070684 114.156 
L 197.440981 114.156 
L 197.440981 76.104 
" style="fill:#ad6570;"/>
    <path clip-path="url(#p9d44679270)" d="M 204.070684 76.104 
L 210.700387 76.104 
L 210.700387 114.156 
L 204.070684 114.156 
L 204.070684 76.104 
" style="fill:#c898a0;"/>
    <path clip-path="url(#p9d44679270)" d="M 210.700387 76.104 
L 217.33009 76.104 
L 217.33009 114.156 
L 210.700387 114.156 
L 210.700387 76.104 
" style="fill:#913140;"/>
    <path clip-path="url(#p9d44679270)" d="M 217.33009 76.104 
L 223.959793 76.104 
L 223.959793 114.156 
L 217.33009 114.156 
L 217.33009 76.104 
" style="fill:#ad6570;"/>
    <path clip-path="url(#p9d44679270)" d="M 223.959793 76.104 
L 230.589496 76.104 
L 230.589496 114.156 
L 223.959793 114.156 
L 223.959793 76.104 
" style="fill:#ad6570;"/>
    <path clip-path="url(#p9d44679270)" d="M 230.589496 76.104 
L 237.219199 76.104 
L 237.219199 114.156 
L 230.589496 114.156 
L 230.589496 76.104 
" style="fill:#913140;"/>
    <path clip-path="url(#p9d44679270)" d="M 237.219199 76.104 
L 243.848902 76.104 
L 243.848902 114.156 
L 237.219199 114.156 
L 237.219199 76.104 
" style="fill:#ad6570;"/>
    <path clip-path="url(#p9d44679270)" d="M 243.848902 76.104 
L 250.478605 76.104 
L 250.478605 114.156 
L 243.848902 114.156 
L 243.848902 76.104 
" style="fill:#ad6570;"/>
    <path clip-path="url(#p9d44679270)" d="M 250.478605 76.104 
L 257.108308 76.104 
L 257.108308 114.156 
L 250.478605 114.156 
L 250.478605 76.104 
" style="fill:#ad6570;"/>
    <path clip-path="url(#p9d44679270)" d="M 257.108308 76.104 
L 263.738011 76.104 
L 263.738011 114.156 
L 257.108308 114.156 
L 257.108308 76.104 
" style="fill:#ad6570;"/>
    <path clip-path="url(#p9d44679270)" d="M 263.738011 76.104 
L 270.367713 76.104 
L 270.367713 114.156 
L 263.738011 114.156 
L 263.738011 76.104 
" style="fill:#913140;"/>
    <path clip-path="url(#p9d44679270)" d="M 270.367713 76.104 
L 276.997416 76.104 
L 276.997416 114.156 
L 270.367713 114.156 
L 270.367713 76.104 
" style="fill:#c898a0;"/>
    <path clip-path="url(#p9d44679270)" d="M 276.997416 76.104 
L 283.627119 76.104 
L 283.627119 114.156 
L 276.997416 114.156 
L 276.997416 76.104 
" style="fill:#913140;"/>
    <path clip-path="url(#p9d44679270)" d="M 283.627119 76.104 
L 290.256822 76.104 
L 290.256822 114.156 
L 283.627119 114.156 
L 283.627119 76.104 
" style="fill:#ad6570;"/>
    <path clip-path="url(#p9d44679270)" d="M 290.256822 76.104 
L 296.886525 76.104 
L 296.886525 114.156 
L 290.256822 114.156 
L 290.256822 76.104 
" style="fill:#c898a0;"/>
    <path clip-path="url(#p9d44679270)" d="M 296.886525 76.104 
L 303.516228 76.104 
L 303.516228 114.156 
L 296.886525 114.156 
L 296.886525 76.104 
" style="fill:#ad6570;"/>
    <path clip-path="url(#p9d44679270)" d="M 303.516228 76.104 
L 310.145931 76.104 
L 310.145931 114.156 
L 303.516228 114.156 
L 303.516228 76.104 
" style="fill:#ad6570;"/>
    <path clip-path="url(#p9d44679270)" d="M 310.145931 76.104 
L 316.775634 76.104 
L 316.775634 114.156 
L 310.145931 114.156 
L 310.145931 76.104 
" style="fill:#ad6570;"/>
    <path clip-path="url(#p9d44679270)" d="M 316.775634 76.104 
L 323.405337 76.104 
L 323.405337 114.156 
L 316.775634 114.156 
L 316.775634 76.104 
" style="fill:#913140;"/>
    <path clip-path="url(#p9d44679270)" d="M 323.405337 76.104 
L 330.03504 76.104 
L 330.03504 114.156 
L 323.405337 114.156 
L 323.405337 76.104 
" style="fill:#ad6570;"/>
    <path clip-path="url(#p9d44679270)" d="M 330.03504 76.104 
L 336.664743 76.104 
L 336.664743 114.156 
L 330.03504 114.156 
L 330.03504 76.104 
" style="fill:#ad6570;"/>
    <path clip-path="url(#p9d44679270)" d="M 336.664743 76.104 
L 343.294446 76.104 
L 343.294446 114.156 
L 336.664743 114.156 
L 336.664743 76.104 
" style="fill:#ad6570;"/>
    <path clip-path="url(#p9d44679270)" d="M 343.294446 76.104 
L 349.924149 76.104 
L 349.924149 114.156 
L 343.294446 114.156 
L 343.294446 76.104 
" style="fill:#ad6570;"/>
    <path clip-path="url(#p9d44679270)" d="M 349.924149 76.104 
L 356.553852 76.104 
L 356.553852 114.156 
L 349.924149 114.156 
L 349.924149 76.104 
" style="fill:#c898a0;"/>
    <path clip-path="url(#p9d44679270)" d="M 356.553852 76.104 
L 363.183555 76.104 
L 363.183555 114.156 
L 356.553852 114.156 
L 356.553852 76.104 
" style="fill:#c898a0;"/>
    <path clip-path="url(#p9d44679270)" d="M 363.183555 76.104 
L 369.813258 76.104 
L 369.813258 114.156 
L 363.183555 114.156 
L 363.183555 76.104 
" style="fill:#c898a0;"/>
    <path clip-path="url(#p9d44679270)" d="M 369.813258 76.104 
L 376.442961 76.104 
L 376.442961 114.156 
L 369.813258 114.156 
L 369.813258 76.104 
" style="fill:#ad6570;"/>
    <path clip-path="url(#p9d44679270)" d="M 376.442961 76.104 
L 383.072664 76.104 
L 383.072664 114.156 
L 376.442961 114.156 
L 376.442961 76.104 
" style="fill:#c898a0;"/>
    <path clip-path="url(#p9d44679270)" d="M 383.072664 76.104 
L 389.702367 76.104 
L 389.702367 114.156 
L 383.072664 114.156 
L 383.072664 76.104 
" style="fill:#c898a0;"/>
    <path clip-path="url(#p9d44679270)" d="M 389.702367 76.104 
L 396.33207 76.104 
L 396.33207 114.156 
L 389.702367 114.156 
L 389.702367 76.104 
" style="fill:#c898a0;"/>
    <path clip-path="url(#p9d44679270)" d="M 396.33207 76.104 
L 402.961773 76.104 
L 402.961773 114.156 
L 396.33207 114.156 
L 396.33207 76.104 
" style="fill:#c898a0;"/>
    <path clip-path="url(#p9d44679270)" d="M 402.961773 76.104 
L 409.591476 76.104 
L 409.591476 114.156 
L 402.961773 114.156 
L 402.961773 76.104 
" style="fill:#ad6570;"/>
    <path clip-path="url(#p9d44679270)" d="M 409.591476 76.104 
L 416.221179 76.104 
L 416.221179 114.156 
L 409.591476 114.156 
L 409.591476 76.104 
" style="fill:#c898a0;"/>
    <path clip-path="url(#p9d44679270)" d="M 416.221179 76.104 
L 422.850882 76.104 
L 422.850882 114.156 
L 416.221179 114.156 
L 416.221179 76.104 
" style="fill:#c898a0;"/>
    <path clip-path="url(#p9d44679270)" d="M 422.850882 76.104 
L 429.480585 76.104 
L 429.480585 114.156 
L 422.850882 114.156 
L 422.850882 76.104 
" style="fill:#ad6570;"/>
    <path clip-path="url(#p9d44679270)" d="M 429.480585 76.104 
L 436.110288 76.104 
L 436.110288 114.156 
L 429.480585 114.156 
L 429.480585 76.104 
" style="fill:#c898a0;"/>
    <path clip-path="url(#p9d44679270)" d="M 436.110288 76.104 
L 442.739991 76.104 
L 442.739991 114.156 
L 436.110288 114.156 
L 436.110288 76.104 
" style="fill:#913140;"/>
    <path clip-path="url(#p9d44679270)" d="M 442.739991 76.104 
L 449.369694 76.104 
L 449.369694 114.156 
L 442.739991 114.156 
L 442.739991 76.104 
" style="fill:#c898a0;"/>
    <path clip-path="url(#p9d44679270)" d="M 449.369694 76.104 
L 455.999397 76.104 
L 455.999397 114.156 
L 449.369694 114.156 
L 449.369694 76.104 
" style="fill:#ad6570;"/>
    <path clip-path="url(#p9d44679270)" d="M 455.999397 76.104 
L 462.6291 76.104 
L 462.6291 114.156 
L 455.999397 114.156 
L 455.999397 76.104 
" style="fill:#ad6570;"/>
    <path clip-path="url(#p9d44679270)" d="M 462.6291 76.104 
L 469.258803 76.104 
L 469.258803 114.156 
L 462.6291 114.156 
L 462.6291 76.104 
" style="fill:#913140;"/>
    <path clip-path="url(#p9d44679270)" d="M 469.258803 76.104 
L 475.888506 76.104 
L 475.888506 114.156 
L 469.258803 114.156 
L 469.258803 76.104 
" style="fill:#c898a0;"/>
    <path clip-path="url(#p9d44679270)" d="M 475.888506 76.104 
L 482.518209 76.104 
L 482.518209 114.156 
L 475.888506 114.156 
L 475.888506 76.104 
" style="fill:#ad6570;"/>
    <path clip-path="url(#p9d44679270)" d="M 482.518209 76.104 
L 489.147912 76.104 
L 489.147912 114.156 
L 482.518209 114.156 
L 482.518209 76.104 
" style="fill:#c898a0;"/>
    <path clip-path="url(#p9d44679270)" d="M 489.147912 76.104 
L 495.777614 76.104 
L 495.777614 114.156 
L 489.147912 114.156 
L 489.147912 76.104 
" style="fill:#c898a0;"/>
    <path clip-path="url(#p9d44679270)" d="M 495.777614 76.104 
L 502.407317 76.104 
L 502.407317 114.156 
L 495.777614 114.156 
L 495.777614 76.104 
" style="fill:#913140;"/>
    <path clip-path="url(#p9d44679270)" d="M 502.407317 76.104 
L 509.03702 76.104 
L 509.03702 114.156 
L 502.407317 114.156 
L 502.407317 76.104 
" style="fill:#c898a0;"/>
    <path clip-path="url(#p9d44679270)" d="M 509.03702 76.104 
L 515.666723 76.104 
L 515.666723 114.156 
L 509.03702 114.156 
L 509.03702 76.104 
" style="fill:#ad6570;"/>
    <path clip-path="url(#p9d44679270)" d="M 515.666723 76.104 
L 522.296426 76.104 
L 522.296426 114.156 
L 515.666723 114.156 
L 515.666723 76.104 
" style="fill:#c898a0;"/>
    <path clip-path="url(#p9d44679270)" d="M 522.296426 76.104 
L 528.926129 76.104 
L 528.926129 114.156 
L 522.296426 114.156 
L 522.296426 76.104 
" style="fill:#ad6570;"/>
    <path clip-path="url(#p9d44679270)" d="M 528.926129 76.104 
L 535.555832 76.104 
L 535.555832 114.156 
L 528.926129 114.156 
L 528.926129 76.104 
" style="fill:#ad6570;"/>
    <path clip-path="url(#p9d44679270)" d="M 535.555832 76.104 
L 542.185535 76.104 
L 542.185535 114.156 
L 535.555832 114.156 
L 535.555832 76.104 
" style="fill:#ad6570;"/>
    <path clip-path="url(#p9d44679270)" d="M 542.185535 76.104 
L 548.815238 76.104 
L 548.815238 114.156 
L 542.185535 114.156 
L 542.185535 76.104 
" style="fill:#ad6570;"/>
    <path clip-path="url(#p9d44679270)" d="M 548.815238 76.104 
L 555.444941 76.104 
L 555.444941 114.156 
L 548.815238 114.156 
L 548.815238 76.104 
" style="fill:#c898a0;"/>
    <path clip-path="url(#p9d44679270)" d="M 555.444941 76.104 
L 562.074644 76.104 
L 562.074644 114.156 
L 555.444941 114.156 
L 555.444941 76.104 
" style="fill:#ad6570;"/>
    <path clip-path="url(#p9d44679270)" d="M 562.074644 76.104 
L 568.704347 76.104 
L 568.704347 114.156 
L 562.074644 114.156 
L 562.074644 76.104 
" style="fill:#c898a0;"/>
    <path clip-path="url(#p9d44679270)" d="M 568.704347 76.104 
L 575.33405 76.104 
L 575.33405 114.156 
L 568.704347 114.156 
L 568.704347 76.104 
" style="fill:#c898a0;"/>
    <path clip-path="url(#p9d44679270)" d="M 575.33405 76.104 
L 581.963753 76.104 
L 581.963753 114.156 
L 575.33405 114.156 
L 575.33405 76.104 
" style="fill:#913140;"/>
    <path clip-path="url(#p9d44679270)" d="M 581.963753 76.104 
L 588.593456 76.104 
L 588.593456 114.156 
L 581.963753 114.156 
L 581.963753 76.104 
" style="fill:#c898a0;"/>
    <path clip-path="url(#p9d44679270)" d="M 588.593456 76.104 
L 595.223159 76.104 
L 595.223159 114.156 
L 588.593456 114.156 
L 588.593456 76.104 
" style="fill:#c898a0;"/>
    <path clip-path="url(#p9d44679270)" d="M 595.223159 76.104 
L 601.852862 76.104 
L 601.852862 114.156 
L 595.223159 114.156 
L 595.223159 76.104 
" style="fill:#ad6570;"/>
    <path clip-path="url(#p9d44679270)" d="M 601.852862 76.104 
L 608.482565 76.104 
L 608.482565 114.156 
L 601.852862 114.156 
L 601.852862 76.104 
" style="fill:#913140;"/>
    <path clip-path="url(#p9d44679270)" d="M 608.482565 76.104 
L 615.112268 76.104 
L 615.112268 114.156 
L 608.482565 114.156 
L 608.482565 76.104 
" style="fill:#913140;"/>
    <path clip-path="url(#p9d44679270)" d="M 615.112268 76.104 
L 621.741971 76.104 
L 621.741971 114.156 
L 615.112268 114.156 
L 615.112268 76.104 
" style="fill:#913140;"/>
    <path clip-path="url(#p9d44679270)" d="M 621.741971 76.104 
L 628.371674 76.104 
L 628.371674 114.156 
L 621.741971 114.156 
L 621.741971 76.104 
" style="fill:#ad6570;"/>
    <path clip-path="url(#p9d44679270)" d="M 628.371674 76.104 
L 635.001377 76.104 
L 635.001377 114.156 
L 628.371674 114.156 
L 628.371674 76.104 
" style="fill:#ad6570;"/>
    <path clip-path="url(#p9d44679270)" d="M 635.001377 76.104 
L 641.63108 76.104 
L 641.63108 114.156 
L 635.001377 114.156 
L 635.001377 76.104 
" style="fill:#ad6570;"/>
    <path clip-path="url(#p9d44679270)" d="M 641.63108 76.104 
L 648.260783 76.104 
L 648.260783 114.156 
L 641.63108 114.156 
L 641.63108 76.104 
" style="fill:#c898a0;"/>
    <path clip-path="url(#p9d44679270)" d="M 648.260783 76.104 
L 654.890486 76.104 
L 654.890486 114.156 
L 648.260783 114.156 
L 648.260783 76.104 
" style="fill:#ad6570;"/>
    <path clip-path="url(#p9d44679270)" d="M 654.890486 76.104 
L 661.520189 76.104 
L 661.520189 114.156 
L 654.890486 114.156 
L 654.890486 76.104 
" style="fill:#c898a0;"/>
    <path clip-path="url(#p9d44679270)" d="M 661.520189 76.104 
L 668.149892 76.104 
L 668.149892 114.156 
L 661.520189 114.156 
L 661.520189 76.104 
" style="fill:#c898a0;"/>
    <path clip-path="url(#p9d44679270)" d="M 668.149892 76.104 
L 674.779595 76.104 
L 674.779595 114.156 
L 668.149892 114.156 
L 668.149892 76.104 
" style="fill:#c898a0;"/>
    <path clip-path="url(#p9d44679270)" d="M 674.779595 76.104 
L 681.409298 76.104 
L 681.409298 114.156 
L 674.779595 114.156 
L 674.779595 76.104 
" style="fill:#c898a0;"/>
    <path clip-path="url(#p9d44679270)" d="M 681.409298 76.104 
L 688.039001 76.104 
L 688.039001 114.156 
L 681.409298 114.156 
L 681.409298 76.104 
" style="fill:#c898a0;"/>
    <path clip-path="url(#p9d44679270)" d="M 688.039001 76.104 
L 694.668704 76.104 
L 694.668704 114.156 
L 688.039001 114.156 
L 688.039001 76.104 
" style="fill:#ad6570;"/>
    <path clip-path="url(#p9d44679270)" d="M 694.668704 76.104 
L 701.298407 76.104 
L 701.298407 114.156 
L 694.668704 114.156 
L 694.668704 76.104 
" style="fill:#c898a0;"/>
    <path clip-path="url(#p9d44679270)" d="M 701.298407 76.104 
L 707.92811 76.104 
L 707.92811 114.156 
L 701.298407 114.156 
L 701.298407 76.104 
" style="fill:#913140;"/>
    <path clip-path="url(#p9d44679270)" d="M 707.92811 76.104 
L 714.557813 76.104 
L 714.557813 114.156 
L 707.92811 114.156 
L 707.92811 76.104 
" style="fill:#c898a0;"/>
   </g>
  </g>
  <g id="axes_2">
   <g id="patch_3">
    <path clip-path="url(#p73e6b3f44d)" d="M 312.797812 145.314 
L 346.277812 145.314 
L 413.237813 145.314 
L 446.717813 145.314 
L 446.717813 138.618 
L 413.237813 138.618 
L 346.277812 138.618 
L 312.797812 138.618 
z
" style="fill:#eaeaf2;stroke:#eaeaf2;stroke-linejoin:miter;stroke-width:0.01;"/>
   </g>
   <g id="matplotlib.axis_3">
    <g id="xtick_1">
     <g id="line2d_1">
      <defs>
       <path d="M 0 0 
L 0 6 
" id="mc0959cadcd" style="stroke:#262626;stroke-width:1.25;"/>
      </defs>
      <g>
       <use style="fill:#262626;stroke:#262626;stroke-width:1.25;" x="330.653812" xlink:href="#mc0959cadcd" y="145.314"/>
      </g>
     </g>
     <g id="text_4">
      <!-- 0 -->
      <defs>
       <path d="M 4.15625 35.296875 
Q 4.15625 48 6.765625 55.734375 
Q 9.375 63.484375 14.515625 67.671875 
Q 19.671875 71.875 27.484375 71.875 
Q 33.25 71.875 37.59375 69.546875 
Q 41.9375 67.234375 44.765625 62.859375 
Q 47.609375 58.5 49.21875 52.21875 
Q 50.828125 45.953125 50.828125 35.296875 
Q 50.828125 22.703125 48.234375 14.96875 
Q 45.65625 7.234375 40.5 3 
Q 35.359375 -1.21875 27.484375 -1.21875 
Q 17.140625 -1.21875 11.234375 6.203125 
Q 4.15625 15.140625 4.15625 35.296875 
z
M 13.1875 35.296875 
Q 13.1875 17.671875 17.3125 11.828125 
Q 21.4375 6 27.484375 6 
Q 33.546875 6 37.671875 11.859375 
Q 41.796875 17.71875 41.796875 35.296875 
Q 41.796875 52.984375 37.671875 58.78125 
Q 33.546875 64.59375 27.390625 64.59375 
Q 21.34375 64.59375 17.71875 59.46875 
Q 13.1875 52.9375 13.1875 35.296875 
z
" id="ArialMT-48"/>
      </defs>
      <g style="fill:#262626;" transform="translate(327.595297 162.687594)scale(0.11 -0.11)">
       <use xlink:href="#ArialMT-48"/>
      </g>
     </g>
    </g>
    <g id="xtick_2">
     <g id="line2d_2">
      <g>
       <use style="fill:#262626;stroke:#262626;stroke-width:1.25;" x="361.901813" xlink:href="#mc0959cadcd" y="145.314"/>
      </g>
     </g>
     <g id="text_5">
      <!-- 1 -->
      <defs>
       <path d="M 37.25 0 
L 28.46875 0 
L 28.46875 56 
Q 25.296875 52.984375 20.140625 49.953125 
Q 14.984375 46.921875 10.890625 45.40625 
L 10.890625 53.90625 
Q 18.265625 57.375 23.78125 62.296875 
Q 29.296875 67.234375 31.59375 71.875 
L 37.25 71.875 
z
" id="ArialMT-49"/>
      </defs>
      <g style="fill:#262626;" transform="translate(358.843297 162.687594)scale(0.11 -0.11)">
       <use xlink:href="#ArialMT-49"/>
      </g>
     </g>
    </g>
    <g id="xtick_3">
     <g id="line2d_3">
      <g>
       <use style="fill:#262626;stroke:#262626;stroke-width:1.25;" x="397.613812" xlink:href="#mc0959cadcd" y="145.314"/>
      </g>
     </g>
     <g id="text_6">
      <!-- 2 -->
      <defs>
       <path d="M 50.34375 8.453125 
L 50.34375 0 
L 3.03125 0 
Q 2.9375 3.171875 4.046875 6.109375 
Q 5.859375 10.9375 9.828125 15.625 
Q 13.8125 20.3125 21.34375 26.46875 
Q 33.015625 36.03125 37.109375 41.625 
Q 41.21875 47.21875 41.21875 52.203125 
Q 41.21875 57.421875 37.46875 61 
Q 33.734375 64.59375 27.734375 64.59375 
Q 21.390625 64.59375 17.578125 60.78125 
Q 13.765625 56.984375 13.71875 50.25 
L 4.6875 51.171875 
Q 5.609375 61.28125 11.65625 66.578125 
Q 17.71875 71.875 27.9375 71.875 
Q 38.234375 71.875 44.234375 66.15625 
Q 50.25 60.453125 50.25 52 
Q 50.25 47.703125 48.484375 43.546875 
Q 46.734375 39.40625 42.65625 34.8125 
Q 38.578125 30.21875 29.109375 22.21875 
Q 21.1875 15.578125 18.9375 13.203125 
Q 16.703125 10.84375 15.234375 8.453125 
z
" id="ArialMT-50"/>
      </defs>
      <g style="fill:#262626;" transform="translate(394.555297 162.687594)scale(0.11 -0.11)">
       <use xlink:href="#ArialMT-50"/>
      </g>
     </g>
    </g>
    <g id="xtick_4">
     <g id="line2d_4">
      <g>
       <use style="fill:#262626;stroke:#262626;stroke-width:1.25;" x="428.861813" xlink:href="#mc0959cadcd" y="145.314"/>
      </g>
     </g>
     <g id="text_7">
      <!-- 3 -->
      <defs>
       <path d="M 4.203125 18.890625 
L 12.984375 20.0625 
Q 14.5 12.59375 18.140625 9.296875 
Q 21.78125 6 27 6 
Q 33.203125 6 37.46875 10.296875 
Q 41.75 14.59375 41.75 20.953125 
Q 41.75 27 37.796875 30.921875 
Q 33.84375 34.859375 27.734375 34.859375 
Q 25.25 34.859375 21.53125 33.890625 
L 22.515625 41.609375 
Q 23.390625 41.5 23.921875 41.5 
Q 29.546875 41.5 34.03125 44.421875 
Q 38.53125 47.359375 38.53125 53.46875 
Q 38.53125 58.296875 35.25 61.46875 
Q 31.984375 64.65625 26.8125 64.65625 
Q 21.6875 64.65625 18.265625 61.421875 
Q 14.84375 58.203125 13.875 51.765625 
L 5.078125 53.328125 
Q 6.6875 62.15625 12.390625 67.015625 
Q 18.109375 71.875 26.609375 71.875 
Q 32.46875 71.875 37.390625 69.359375 
Q 42.328125 66.84375 44.9375 62.5 
Q 47.5625 58.15625 47.5625 53.265625 
Q 47.5625 48.640625 45.0625 44.828125 
Q 42.578125 41.015625 37.703125 38.765625 
Q 44.046875 37.3125 47.5625 32.6875 
Q 51.078125 28.078125 51.078125 21.140625 
Q 51.078125 11.765625 44.234375 5.25 
Q 37.40625 -1.265625 26.953125 -1.265625 
Q 17.53125 -1.265625 11.296875 4.34375 
Q 5.078125 9.96875 4.203125 18.890625 
z
" id="ArialMT-51"/>
      </defs>
      <g style="fill:#262626;" transform="translate(425.803297 162.687594)scale(0.11 -0.11)">
       <use xlink:href="#ArialMT-51"/>
      </g>
     </g>
    </g>
   </g>
   <g id="matplotlib.axis_4"/>
   <g id="QuadMesh_2">
    <path clip-path="url(#p73e6b3f44d)" d="M 312.797812 145.314 
L 346.277812 145.314 
L 346.277812 138.618 
L 312.797812 138.618 
L 312.797812 145.314 
" style="fill:#e4cccf;"/>
    <path clip-path="url(#p73e6b3f44d)" d="M 346.277812 145.314 
L 379.757812 145.314 
L 379.757812 138.618 
L 346.277812 138.618 
L 346.277812 145.314 
" style="fill:#c898a0;"/>
    <path clip-path="url(#p73e6b3f44d)" d="M 379.757812 145.314 
L 413.237813 145.314 
L 413.237813 138.618 
L 379.757812 138.618 
L 379.757812 145.314 
" style="fill:#ad6570;"/>
    <path clip-path="url(#p73e6b3f44d)" d="M 413.237813 145.314 
L 446.717813 145.314 
L 446.717813 138.618 
L 413.237813 138.618 
L 413.237813 145.314 
" style="fill:#913140;"/>
   </g>
   <g id="patch_4">
    <path d="M 312.797812 145.314 
L 346.277812 145.314 
L 413.237813 145.314 
L 446.717813 145.314 
L 446.717813 138.618 
L 413.237813 138.618 
L 346.277812 138.618 
L 312.797812 138.618 
z
" style="fill:none;"/>
   </g>
  </g>
 </g>
 <defs>
  <clipPath id="p9d44679270">
   <rect height="114.156" width="669.6" x="44.957813" y="0"/>
  </clipPath>
  <clipPath id="p73e6b3f44d">
   <rect height="6.696" width="133.92" x="312.797812" y="138.618"/>
  </clipPath>
 </defs>
</svg>
